<svg width="34" height="24" viewBox="0 0 34 24" fill="none" xmlns="http://www.w3.org/2000/svg">
<path d="M29.6387 3.63739C27.3268 1.84536 24.5525 0.949393 21.6241 0.800049L21.1617 1.24808C23.7818 1.84536 26.0938 3.04001 28.2516 4.68269C25.6314 3.3387 22.703 2.44273 19.6204 2.14404C18.6956 1.9947 17.9249 1.9947 17.0002 1.9947C16.0755 1.9947 15.3048 1.9947 14.38 2.14404C11.2974 2.44273 8.36899 3.3387 5.74882 4.68269C7.90657 3.04001 10.2186 1.84536 12.8387 1.24808L12.3763 0.800049C9.44786 0.949393 6.67355 1.84536 4.36166 3.63739C1.74148 8.41609 0.354325 13.7921 0.200195 19.3173C2.51209 21.7067 5.74881 23.2 9.13968 23.2C9.13968 23.2 10.2186 22.0054 10.9892 20.96C8.98555 20.5121 7.13597 19.4666 5.90296 17.8241C6.98183 18.4213 8.0607 19.0187 9.13968 19.4666C10.5268 20.064 11.914 20.3627 13.3012 20.6614C14.5342 20.8106 15.7672 20.96 17.0002 20.96C18.2332 20.96 19.4662 20.8106 20.6992 20.6614C22.0864 20.3627 23.4735 20.064 24.8607 19.4666C25.9397 19.0187 27.0186 18.4213 28.0974 17.8241C26.8644 19.4666 25.0148 20.5121 23.0112 20.96C23.7818 22.0054 24.8607 23.2 24.8607 23.2C28.2516 23.2 31.4883 21.7067 33.8002 19.3173C33.6461 13.7921 32.2589 8.41609 29.6387 3.63739ZM11.914 16.6293C10.3727 16.6293 8.98555 15.2853 8.98555 13.6427C8.98555 12 10.3727 10.6561 11.914 10.6561C13.4553 10.6561 14.8424 12 14.8424 13.6427C14.8424 15.2853 13.4553 16.6293 11.914 16.6293ZM22.0864 16.6293C20.5451 16.6293 19.1579 15.2853 19.1579 13.6427C19.1579 12 20.5451 10.6561 22.0864 10.6561C23.6277 10.6561 25.0148 12 25.0148 13.6427C25.0148 15.2853 23.6277 16.6293 22.0864 16.6293Z" fill="white"/>
</svg>
