<svg width="540" height="74" viewBox="0 0 540 74" fill="none" xmlns="http://www.w3.org/2000/svg">
<g clip-path="url(#clip0_490_1910)">
<path d="M130.759 36.7869C133.046 37.2927 134.172 38.991 134.172 41.8813V43.6878C134.172 47.8788 132.32 49.6853 128.144 49.6853H103.746V24.3945H127.418C131.594 24.3945 133.446 26.201 133.446 30.3922V31.9096C133.446 34.4746 132.538 36.1006 130.759 36.7869ZM122.553 31.2593H113.477V34.2219H122.553C123.461 34.2219 123.715 33.9688 123.715 33.0657V32.4154C123.715 31.512 123.461 31.2593 122.553 31.2593ZM124.441 41.6645V40.7252C124.441 39.8218 124.187 39.569 123.279 39.569H113.477V42.8207H123.279C124.187 42.8207 124.441 42.5676 124.441 41.6645Z" fill="white"/>
<path d="M93.4923 49.6853H76.8637C71.6717 49.6853 69.2393 47.3007 69.2393 42.0981V31.9819C69.2393 26.7791 71.6717 24.3945 76.8637 24.3945H93.4923C98.6843 24.3945 101.117 26.7791 101.117 31.9819V42.0981C101.117 47.3007 98.6843 49.6853 93.4923 49.6853ZM80.6396 41.7368H89.7164C90.9872 41.7368 91.3866 41.3392 91.3866 40.0748V34.0051C91.3866 32.7404 90.9872 32.3431 89.7164 32.3431H80.6396C79.3688 32.3431 78.9695 32.7404 78.9695 34.0051V40.0748C78.9695 41.3392 79.3688 41.7368 80.6396 41.7368Z" fill="white"/>
<path d="M63.7961 36.8592C65.9384 37.4013 66.9912 39.0632 66.9912 41.8813V43.6878C66.9912 47.8788 65.1396 49.6853 60.9643 49.6853H41.8668C37.6915 49.6853 35.8398 47.8788 35.8398 43.6878V39.7135H45.2068V41.6645C45.2068 42.5676 45.4612 42.8207 46.3688 42.8207H56.099C57.0069 42.8207 57.261 42.5676 57.261 41.6645V40.9057C57.261 40.0026 57.0069 39.7495 56.099 39.7495H47.6758V34.0411H55.7361C56.6437 34.0411 56.8978 33.7883 56.8978 32.8849V32.4154C56.8978 31.512 56.6437 31.2593 55.7361 31.2593H46.7317C45.8242 31.2593 45.5701 31.512 45.5701 32.4154V34.0774H36.2028V30.3922C36.2028 26.201 38.0544 24.3945 42.2297 24.3945H60.6011C64.7764 24.3945 66.6283 26.201 66.6283 30.3922V31.9096C66.6283 34.5832 65.6843 36.2451 63.7961 36.8592Z" fill="white"/>
<path d="M36.1536 49.6853H25.1163L23.7003 46.2891H12.2273L10.8113 49.6853H0.282227L12.6993 24.3945H23.7367L36.1536 49.6853ZM17.9638 32.7404L14.8777 40.0026H21.0136L17.9638 32.7404Z" fill="white"/>
<path d="M187.125 39.9796L173.613 52.7715L187.257 65.868H212.818L218.39 39.9796H187.125Z" fill="white"/>
<path d="M231.165 58.7664L239.057 66.3631L231.165 73.9567H215.224L218.492 58.7664H231.165Z" fill="white"/>
<path d="M259.924 54.7701H219.354L222.543 39.9794H235.307L239.156 21.9908H259.924L276.132 38.3805L259.924 54.7701Z" fill="white"/>
<path d="M178.881 0.0045166L162.672 17.9969L178.881 35.9817H231.963L239.663 0.00451869L178.881 0.0045166Z" fill="white"/>
<path d="M536.865 24.3945V45.711H539.916V54.0208H535.415V49.6853H510.798V54.0208H506.294V45.711H507.893C510.215 45.711 510.868 45.0607 510.979 42.7484L512.178 24.3945H536.865ZM516.788 28.5133L515.842 42.3149C515.734 43.796 515.481 44.9162 515.119 45.711H532.074V28.5133H516.788Z" fill="white"/>
<path d="M498.329 49.6853V24.3945H503.195V49.6853H498.329Z" fill="white"/>
<path d="M491.073 36.4256C493.071 36.9314 494.086 38.4851 494.086 41.0502V44.5549C494.086 48.0596 492.418 49.6853 488.931 49.6853H466.021V24.3945H488.205C491.691 24.3945 493.36 26.0204 493.36 29.5251V32.0178C493.36 34.2941 492.598 35.7393 491.073 36.4256ZM486.137 28.0075H470.777V34.9445H486.137C487.986 34.9445 488.605 34.3301 488.605 32.4877V30.4644C488.605 28.6217 487.986 28.0075 486.137 28.0075ZM489.331 43.6155V40.6166C489.331 38.7742 488.713 38.1598 486.863 38.1598H470.777V46.0723H486.863C488.713 46.0723 489.331 45.4583 489.331 43.6155Z" fill="white"/>
<path d="M454.954 49.6853H438.906C434.259 49.6853 432.152 47.5898 432.152 42.9652V31.1147C432.152 26.4901 434.259 24.3945 438.906 24.3945H454.954C459.602 24.3945 461.708 26.4901 461.708 31.1147V42.9652C461.708 47.5898 459.602 49.6853 454.954 49.6853ZM440.575 45.711H453.283C455.935 45.711 456.915 44.7357 456.915 42.0981V31.9819C456.915 29.3443 455.935 28.3688 453.283 28.3688H440.575C437.926 28.3688 436.946 29.272 436.946 31.9819V42.0981C436.946 44.8079 437.926 45.711 440.575 45.711Z" fill="white"/>
<path d="M406.033 49.6853H401.243V24.3945H422.954C427.202 24.3945 428.981 26.0926 428.981 30.3922V35.0167C428.981 39.316 427.202 41.0142 422.954 41.0142H406.033V49.6853ZM406.033 28.0798V37.4735H421.101C423.462 37.4735 424.188 36.7869 424.188 34.4387V31.1147C424.188 28.7662 423.462 28.0798 421.101 28.0798H406.033Z" fill="white"/>
<path d="M372.914 49.6853H368.124V24.3945H396.589V49.6853H391.795V28.5133H372.914V49.6853Z" fill="white"/>
<path d="M350.355 37.7626L360.265 24.3945H365.931L346.434 49.6853H340.842L347.449 41.1224L334.561 24.3945H340.48L350.355 37.7626Z" fill="white"/>
<path d="M327.539 49.6853H312.363C307.716 49.6853 305.609 47.5898 305.609 42.9652V31.1147C305.609 26.4901 307.716 24.3945 312.363 24.3945H327.539C332.186 24.3945 334.293 26.4901 334.293 31.1147V33.7883H329.645V31.9096C329.645 29.272 328.665 28.2965 326.013 28.2965H314.032C311.383 28.2965 310.403 29.272 310.403 31.9096V42.1703C310.403 44.8079 311.383 45.7833 314.032 45.7833H326.013C328.665 45.7833 329.645 44.8079 329.645 42.1703V39.9663H334.293V42.9652C334.293 47.5898 332.186 49.6853 327.539 49.6853Z" fill="white"/>
</g>
<defs>
<clipPath id="clip0_490_1910">
<rect width="540" height="74" fill="white"/>
</clipPath>
</defs>
</svg>
