<svg width="30" height="33" viewBox="0 0 30 33" fill="none" xmlns="http://www.w3.org/2000/svg">
<path d="M22.7555 1.36425C17.4194 0.345216 11.878 0.345216 6.54188 1.36425C4.18167 1.87377 1.20576 4.72708 0.69267 6.96897C-0.23089 11.3508 -0.23089 15.8346 0.69267 20.2165C1.30838 22.4584 4.28429 25.3117 6.54188 25.8212C6.6445 25.8212 6.74712 25.9231 6.74712 26.025V32.4449C6.74712 32.7506 7.15759 32.9545 7.36283 32.6487L10.4414 29.4897C10.4414 29.4897 12.9042 26.9421 13.3147 26.5345C13.3147 26.5345 13.4173 26.4326 13.5199 26.4326C16.5984 26.5345 19.7796 26.2288 22.8581 25.7193C25.2183 25.2098 28.1942 22.3565 28.7073 20.1146C29.6309 15.7327 29.6309 11.2489 28.7073 6.86706C28.0916 4.72708 25.1157 1.87377 22.7555 1.36425ZM22.8581 20.5222C22.345 21.5412 21.7293 22.3565 20.7031 22.866C20.3953 22.9679 20.0874 23.0698 19.7796 23.1717C19.3691 23.0698 19.0613 22.9679 18.7534 22.866C15.4696 21.5412 12.3911 19.707 9.92828 17.0575C8.59424 15.5289 7.46544 13.7965 6.54188 11.9623C6.13141 11.0451 5.72094 10.2299 5.41309 9.31276C5.10524 8.49753 5.61832 7.6823 6.13141 7.07087C6.6445 6.45945 7.26021 6.05183 7.97853 5.74612C8.49162 5.44041 9.00471 5.64422 9.41519 6.05183C10.2361 7.07087 11.0571 8.08991 11.6728 9.21085C12.0832 9.92418 11.9806 10.7394 11.2623 11.2489C11.0571 11.3508 10.9544 11.4527 10.7492 11.6565C10.6466 11.7585 10.4414 11.8604 10.3387 12.0642C10.1335 12.3699 10.1335 12.6756 10.2361 12.9813C11.0571 15.3251 12.5963 17.1594 14.9565 18.1784C15.367 18.3822 15.6749 18.4841 16.188 18.4841C16.9063 18.3822 17.2141 17.567 17.7272 17.1594C18.2403 16.7517 18.856 16.7517 19.4717 17.0575C19.9848 17.3632 20.4979 17.7708 21.1136 18.1784C21.6267 18.586 22.1398 18.8917 22.6529 19.2993C22.9607 19.5031 23.0634 20.0127 22.8581 20.5222ZM18.5482 12.8794C18.3429 12.8794 18.4455 12.8794 18.5482 12.8794C18.1377 12.8794 18.0351 12.6756 17.9325 12.3699C17.9325 12.1661 17.9325 11.8604 17.8298 11.6565C17.7272 11.2489 17.522 10.8413 17.1115 10.5356C16.9063 10.4337 16.701 10.3318 16.4958 10.2299C16.188 10.128 15.9827 10.128 15.6749 10.128C15.367 10.0261 15.2644 9.82228 15.2644 9.51657C15.2644 9.31276 15.5723 9.10895 15.7775 9.10895C17.4194 9.21085 18.6508 10.128 18.856 12.0642C18.856 12.1661 18.856 12.3699 18.856 12.4718C18.856 12.6756 18.7534 12.8794 18.5482 12.8794ZM17.522 8.39562C17.0089 8.19181 16.4958 7.98801 15.8801 7.8861C15.6749 7.8861 15.367 7.7842 15.1618 7.7842C14.8539 7.7842 14.6487 7.58039 14.7513 7.27468C14.7513 6.96897 14.9565 6.76516 15.2644 6.86706C16.2906 6.96897 17.2141 7.17278 18.1377 7.58039C19.9848 8.49753 21.011 10.0261 21.3189 12.0642C21.3189 12.1661 21.3189 12.268 21.3189 12.3699C21.3189 12.5737 21.3189 12.7775 21.3189 13.0832C21.3189 13.1851 21.3189 13.287 21.3189 13.3889C21.2162 13.7965 20.4979 13.8984 20.3953 13.3889C20.3953 13.287 20.2927 13.0832 20.2927 12.9813C20.2927 12.0642 20.0874 11.147 19.677 10.3318C19.0613 9.41466 18.3429 8.80324 17.522 8.39562ZM23.0634 14.5099C22.7555 14.5099 22.5503 14.2041 22.5503 13.8984C22.5503 13.287 22.4476 12.6756 22.345 12.0642C21.9346 8.80324 19.2665 6.15374 16.0853 5.64422C15.5723 5.54231 15.0592 5.54231 14.6487 5.44041C14.3408 5.44041 13.9304 5.44041 13.8277 5.03279C13.7251 4.72708 14.033 4.42137 14.3408 4.42137C14.4435 4.42137 14.5461 4.42137 14.5461 4.42137C14.7513 4.42137 18.7534 4.52327 14.5461 4.42137C18.856 4.52327 22.4476 7.37658 23.166 11.6565C23.2686 12.3699 23.3712 13.0832 23.3712 13.8984C23.5764 14.2041 23.3712 14.5099 23.0634 14.5099Z" fill="white"/>
</svg>
