<svg width="164" height="27" viewBox="0 0 164 27" fill="none" xmlns="http://www.w3.org/2000/svg">
<path d="M137.076 1.09727C136.874 1.09485 136.045 1.07685 135.678 1.07089C136.097 1.06479 137.823 1.10622 137.076 1.09727ZM99.8546 1.53798C100.156 1.53801 100.456 1.53805 100.757 1.53812C99.9029 1.52633 98.7524 1.51611 97.9581 1.50443C97.8284 1.50251 98.1651 1.49653 97.8581 1.4928C97.5509 1.48907 97.61 1.50282 97.1632 1.49947C96.6621 1.49556 94.3667 1.46267 93.5715 1.45511C90.5991 1.42639 87.5996 1.40653 84.62 1.3769C87.7033 1.39273 84.5936 1.35683 83.7355 1.35442C83.5449 1.35409 83.5765 1.37781 80.4899 1.34922C78.5366 1.33181 80.3318 1.30862 77.0706 1.30505C79.5743 1.34559 77.12 1.3274 75.1354 1.31703C74.8028 1.31505 72.0441 1.29684 70.8402 1.29312C70.4211 1.29169 69.7861 1.30188 69.2383 1.3002C68.8585 1.29902 68.5866 1.29104 68.014 1.28952C65.395 1.28263 62.7991 1.27863 60.1859 1.27761C61.732 1.24411 58.9666 1.26419 58.8525 1.26329C58.2219 1.25488 61.0683 1.24985 59.94 1.24516C58.3734 1.24724 56.8067 1.25151 55.2475 1.25882C56.3309 1.25801 54.4262 1.28163 53.4773 1.28705C53.2665 1.28816 53.096 1.28845 52.9997 1.28723C53.2253 1.30145 45.8803 1.34877 44.7529 1.41097C44.5191 1.42213 46.0498 1.38225 42.5054 1.49274C42.122 1.50586 42.2668 1.49189 42.0669 1.5001C41.9471 1.50506 41.2315 1.55959 40.4408 1.57867C40.1577 1.58913 41.9696 1.47569 37.9891 1.68086C39.5794 1.60952 32.4737 2.02265 31.1754 2.17461C31.4358 2.15457 31.7015 2.13477 31.9673 2.11566C30.65 2.22079 30.4613 2.25339 30.1539 2.2822C28.9789 2.39456 27.385 2.56729 26.301 2.71385C25.0297 2.88831 25.0266 2.90318 23.5672 3.12903C23.911 3.07668 24.2548 3.02654 24.6117 2.97658C23.5928 3.12949 22.5854 3.29859 21.5755 3.49131C23.9144 3.03639 21.0792 3.57632 20.883 3.6273C20.5879 3.68853 21.008 3.5922 20.5182 3.69472C20.469 3.70609 20.5416 3.69612 19.7762 3.86494C18.1864 4.22973 18.433 4.17182 17.7757 4.33761C17.7188 4.35478 17.9206 4.30032 16.7884 4.61619C13.1938 5.70424 16.7942 4.59064 16.9437 4.565C17.1328 4.52347 15.8591 4.78795 18.9621 4.02121C17.9218 4.26722 17.8125 4.28912 17.6993 4.31653C17.5818 4.33849 15.8116 4.84362 15.7069 4.88498C14.8426 5.159 15.6079 4.93129 15.4395 4.98569C15.2921 5.02144 13.1734 5.72229 12.6905 5.94424C11.6704 6.29708 13.2548 5.68215 14.9608 5.12602C15.2095 5.03265 13.3324 5.65912 13.2399 5.70094C10.8436 6.5787 12.1764 6.11799 11.6588 6.32521C11.3873 6.43581 10.4047 6.79208 11.3134 6.46955C11.1538 6.53022 11.0137 6.58356 10.8904 6.63036C9.38363 7.24693 10.4594 6.79369 10.3332 6.84157C10.1264 6.92016 9.41608 7.266 9.32908 7.31548C9.19969 7.38123 9.64411 7.14225 9.13569 7.40428C9.04944 7.44884 8.24718 7.90207 9.29583 7.34061C7.89828 8.09956 8.04235 8.08675 7.57829 8.3615C6.70992 9.0338 6.92256 8.81466 6.57951 9.07962C5.69282 9.81516 5.97878 9.63444 5.93096 9.6719C5.57624 9.90774 3.44398 12.2911 3.07171 12.9997C3.19739 12.7085 4.58383 10.9702 4.94944 10.6319C6.0607 9.40843 3.39305 12.3672 4.17023 11.4517C3.85393 11.845 3.55418 12.2514 3.27204 12.6688C2.75563 13.4331 3.3966 12.2932 2.15529 14.4466C1.95955 14.7993 3.0363 12.9275 2.83257 13.3095C2.68612 13.5222 1.98762 14.7793 1.99098 14.8134C1.97269 14.8337 2.59547 13.6965 2.50652 13.8796C2.43468 14.0113 2.11521 14.5672 1.84502 15.1428C1.59844 15.6523 1.51753 16.2595 1.49667 16.426C1.5011 16.6066 1.40564 16.2889 1.77677 15.26C1.45168 16.1135 1.40682 16.6411 1.43455 17.4854C1.44964 17.7602 1.43419 17.1235 1.45444 17.0016C1.51826 16.8746 1.27289 17.2731 1.80726 19.5628C1.77966 19.6717 1.43573 17.727 1.4809 17.6744C1.47344 17.603 1.46777 17.9593 1.47473 18.0211C1.48256 18.102 1.55402 18.858 1.82424 19.7749C2.11463 21.1504 3.59391 22.2622 4.29237 22.656C4.34071 22.6862 4.38947 22.7136 4.43281 22.7368C4.26763 22.6479 5.00945 23.0319 6.03991 23.2537C7.05431 23.4928 8.16296 23.6504 8.41009 23.6842C8.5333 23.7007 8.07544 23.6217 8.20696 23.6397C8.9942 23.7603 11.1693 24.0266 12.1745 24.1111C13.3234 24.2134 13.1579 24.1856 13.2265 24.1922C13.7243 24.233 13.325 24.2077 13.6318 24.2321C14.0847 24.2761 17.2754 24.4861 17.4162 24.487C17.4629 24.4892 16.947 24.448 17.6373 24.4855C17.7579 24.4905 17.6806 24.5062 19.7347 24.6031C22.1883 24.7133 18.018 24.5022 19.0417 24.5372C20.6412 24.6377 20.5679 24.6109 21.006 24.6329C21.1656 24.6406 22.2544 24.7062 23.4671 24.7509C22.5976 24.7207 21.7527 24.6888 20.8732 24.6519C21.7303 24.6946 23.3773 24.7565 24.0697 24.7844C24.4126 24.7984 24.1262 24.8026 24.8779 24.8286C25.033 24.8332 25.6625 24.8229 23.7119 24.7675C23.5572 24.7495 24.4772 24.7916 24.9166 24.803C24.9819 24.8047 25.2312 24.793 25.7775 24.8237C25.9086 24.8295 24.4769 24.8496 28.1713 24.9164C28.2911 24.9184 27.875 24.8991 27.9921 24.9008C28.0724 24.9023 29.021 24.9316 29.1201 24.933C29.2256 24.9347 28.775 24.9144 28.9006 24.9161C29.5442 24.9252 30.3979 24.9797 29.0613 24.9421C29.5053 24.9581 29.9542 24.9736 30.4079 24.9888C29.9275 24.9525 31.1093 24.9995 31.7279 25.0126C35.7041 25.0936 33.0419 25.0202 33.7257 25.0266C34.8261 25.0352 33.9989 25.0615 35.6176 25.0789C35.7702 25.0797 33.7944 25.0295 37.649 25.1045C37.0853 25.0962 36.5141 25.0873 35.9425 25.0779C36.276 25.1079 37.9941 25.1108 38.1289 25.1122C39.6549 25.1317 38.6144 25.126 40.8687 25.1443C41.0726 25.1459 41.5084 25.1573 41.9342 25.1596C43.7117 25.1694 39.5834 25.123 39.4757 25.1103C39.4151 25.1066 43.8634 25.1631 44.012 25.1651C44.6607 25.1822 41.9966 25.1471 42.5044 25.1649C42.7021 25.1748 49.0173 25.2258 50.2856 25.2356C51.7518 25.2509 52.4058 25.2862 52.4172 25.2504C52.7569 25.2813 53.0657 25.2719 53.2702 25.2682C53.3159 25.2674 53.3562 25.2669 53.3906 25.2671C55.6632 25.2861 55.6623 25.2875 57.6076 25.3144C58.0372 25.321 58.3994 25.3388 58.5514 25.34C58.6396 25.3407 58.4747 25.3258 58.906 25.3311C59.512 25.3351 63.1171 25.4423 63.386 25.4564C63.6538 25.47 61.863 25.4183 62.1832 25.4374C63.48 25.4731 64.7254 25.505 66.027 25.5339C66.5719 25.5457 66.2908 25.5471 66.5243 25.552C66.6259 25.5557 68.4939 25.5792 68.416 25.5741C68.2289 25.5785 62.4539 25.446 63.975 25.4687C64.2682 25.4742 65.3066 25.5164 65.1412 25.4918C69.0698 25.594 73.0045 25.6017 76.9431 25.5578C78.1672 25.5446 79.3944 25.5279 80.6301 25.5083C79.4404 25.5343 78.2019 25.554 76.9432 25.5684C75.026 25.5905 73.0791 25.5976 71.2154 25.5925C70.7839 25.5924 69.3536 25.5796 69.5237 25.5909C71.8234 25.6152 74.5786 25.5999 76.9433 25.5747C77.2955 25.5711 77.6468 25.5673 77.9917 25.5637C78.0743 25.5628 77.7714 25.5761 78.08 25.5735C78.6335 25.5695 80.5076 25.5253 80.8084 25.5235C80.8647 25.5236 79.8067 25.5532 80.1288 25.5557C80.9553 25.5622 81.1585 25.5143 81.8696 25.5021C82.4153 25.4944 86.0948 25.4395 87.0103 25.4023C87.9858 25.3656 84.2935 25.4561 84.5712 25.4369C87.0569 25.3725 89.5929 25.3211 91.9414 25.2521C91.9827 25.2509 91.6235 25.252 92.147 25.2356C93.0615 25.2068 93.3036 25.2123 93.7466 25.201C94.2283 25.1889 95.922 25.1328 96.1523 25.1296C96.1812 25.1293 95.8365 25.1536 95.7844 25.1557C95.0441 25.1852 94.784 25.1763 94.7168 25.1782C94.4632 25.1856 94.2137 25.1998 93.9831 25.2066C93.6024 25.2176 93.3983 25.2179 92.8945 25.2323C92.5472 25.2422 92.8824 25.2438 92.5483 25.2531C92.4249 25.2567 91.1082 25.2681 90.9835 25.2981C90.947 25.321 101.734 24.9766 102.812 24.9094C101.886 24.9436 100.963 24.9762 100.037 25.0075C101.916 24.9461 104.169 24.8305 104.332 24.855C111.234 24.5632 118.143 24.199 125.02 23.6475C125.078 23.6428 125.135 23.6381 125.193 23.6334C126.438 23.5322 125.755 23.6136 127.791 23.4271C127.271 23.4676 126.734 23.5082 126.211 23.5462C127.258 23.4721 131.882 23.033 132.628 22.9374C132.726 22.9257 132.851 22.8959 134.009 22.7632C135.028 22.645 135.199 22.6372 135.742 22.5745C136.207 22.5204 136.715 22.4528 136.851 22.4364C136.956 22.4236 137 22.4267 137.252 22.3958C138.046 22.2977 137.397 22.3585 138.189 22.2816C137.994 22.3086 137.807 22.3343 137.616 22.3601C138.576 22.2397 139.872 22.0726 138.473 22.2694C138.23 22.303 138.438 22.267 138.257 22.2912C131.178 23.1742 136.835 22.5135 139.31 22.1529C139.945 22.087 143.508 21.5373 143.624 21.512C143.788 21.4885 143.183 21.5975 143.98 21.4754C144.152 21.4674 148.882 20.5933 147.18 20.9232C146.831 20.997 144.561 21.3953 144.009 21.482C145.302 21.3042 148.317 20.7025 148.648 20.6291C150.018 20.3606 146.03 21.1697 149.108 20.562C151.458 20.074 149.254 20.5185 150.151 20.322C150.663 20.2194 153.316 19.6169 153.241 19.6014C154.144 19.3717 153.619 19.5166 153.731 19.4897C153.82 19.469 155.038 19.1476 155.778 18.9315C155.943 18.884 156.082 18.8437 156.182 18.8148C156.251 18.7952 156.039 18.8711 156.11 18.8512C156.253 18.8203 157.933 18.2779 157.991 18.2435C158.034 18.228 157.637 18.3549 157.798 18.2959C157.996 18.2415 159.556 17.6229 159.627 17.561C159.761 17.5255 157.832 18.2997 158.147 18.1531C159.06 17.8454 160.461 17.1711 160.923 16.7824C160.815 16.883 160.04 17.3469 159.746 17.4744C159.807 17.4356 160.28 17.1969 160.63 16.9677C160.981 16.7418 161.22 16.5435 160.967 16.7485C161.289 16.4914 161.067 16.6596 161.239 16.5086C161.292 16.4732 161.699 16.0691 161.759 15.9742C161.775 15.9689 161.363 16.3929 161.44 16.3032C161.517 16.228 161.856 15.8787 162.104 15.4612C162.358 15.0487 162.552 14.5853 162.584 14.5169C162.766 14.1365 162.147 15.4958 162.059 15.5701C162.073 15.6074 162.652 14.4947 162.648 14.4611C162.706 14.4147 162.066 15.6597 162.137 15.5116C162.318 15.2247 162.472 14.9143 162.619 14.5905C162.356 15.2245 161.9 16.0489 161.233 16.5803C160.58 17.1259 159.848 17.4605 159.561 17.6058C161.535 16.8623 162.499 14.9761 162.495 14.9771C162.517 14.9928 162.103 15.7406 162.112 15.7057C162.217 15.629 162.738 14.5438 162.745 14.4917C162.76 14.4577 162.768 14.4421 162.768 14.4424C162.801 14.4697 162.016 15.986 161.912 16.0098C161.836 16.131 162.294 15.5369 162.288 15.531C162.282 15.543 162.122 15.8085 161.966 16.0083C161.811 16.2092 161.673 16.3546 161.814 16.208C162.123 15.9267 162.63 14.9765 162.635 14.9347C162.68 14.841 162.514 15.2318 162.279 15.6139C162.049 16.0003 161.719 16.3494 161.7 16.3696C161.7 16.4089 162.324 15.6264 162.321 15.5864C162.346 15.5724 161.921 16.2088 161.7 16.419C161.551 16.5871 162.003 16.1123 161.923 16.1955C161.898 16.2288 161.593 16.5809 161.219 16.8646C160.85 17.1531 160.434 17.3843 160.398 17.4056C160.285 17.4729 160.654 17.2695 160.602 17.3013C160.528 17.3556 160.019 17.6262 160.085 17.5926C160.109 17.5804 160.634 17.3277 161.098 16.999C161.57 16.6769 161.944 16.2565 161.941 16.2637C161.989 16.3463 160.11 17.8466 161.838 16.4303C161.855 16.4247 162.2 16.0029 162.203 15.986C162.306 15.8524 162.105 16.1429 162.023 16.2418C161.926 16.3304 162.073 16.3138 162.607 15.3816C162.133 16.2641 161.697 16.6063 161.524 16.7724C161.342 16.9315 161.376 16.9045 161.493 16.8105C161.739 16.6308 162.217 16.0746 162.032 16.3082C161.934 16.5388 160.681 17.4802 160.654 17.4506C160.79 17.3872 161.2 17.1034 161.335 16.9982C161.428 16.9702 160.252 17.7283 160.521 17.5632C160.684 17.5237 161.88 16.6203 161.889 16.5361C162.295 16.1026 161.81 16.6464 161.9 16.553C161.981 16.5081 162.53 15.7815 162.526 15.7514C162.575 15.7361 161.83 16.7271 161.602 16.869C161.461 17.0057 162.005 16.5077 161.904 16.6008C161.348 17.2333 159.801 18.0586 161.242 17.1946C161.335 17.1425 161.82 16.7266 161.829 16.7056C162.129 16.4429 161.256 17.2466 161.064 17.3442C160.782 17.5705 162.147 16.5645 161.011 17.3994C161.88 16.8135 162.353 16.3496 162.91 15.2497C162.163 16.8321 160.996 17.4096 160.822 17.5554C160.716 17.6235 160.804 17.5848 161.114 17.3825C161.415 17.1732 161.978 16.8064 162.53 15.9966C161.787 16.9867 161.815 16.8356 161.553 17.0893C161.401 17.2825 159.854 18.1256 160.582 17.7704C160.682 17.7432 161.569 17.1291 161.297 17.3291C159.091 18.659 161.271 17.405 161.26 17.3666C161.305 17.5391 158.054 19.0518 155.957 19.5532C155.297 19.7427 154.764 19.8835 154.52 19.9488C153.343 20.2641 152.298 20.5275 152.045 20.5864C151.196 20.7813 151.896 20.6098 151.706 20.6492C151.521 20.6951 149.106 21.2315 148.988 21.2475C148.514 21.338 148.992 21.2291 148.943 21.2383C148.364 21.3577 145.106 21.9669 144.193 22.1046C144.225 22.1099 146.05 21.7975 144.916 22.0056C143.583 22.2465 143.501 22.2181 143.465 22.2233C137.37 23.2024 131.233 23.8698 125.079 24.3724C125.06 24.3739 125.041 24.3755 125.023 24.377C125.028 24.3778 125.047 24.3773 125.079 24.3756C125.586 24.3547 129.142 24.0252 129.223 24.0148C129.554 23.9927 127.187 24.2237 125.08 24.3922C123.714 24.5033 122.449 24.5941 122.115 24.6157C122.758 24.573 123.381 24.5303 124.024 24.4844C122.942 24.5928 120.538 24.7378 118.968 24.849C118.462 24.8852 119.436 24.8301 119.417 24.8317C118.842 24.8788 117.935 24.9301 118.615 24.8747C117.225 24.9749 117.427 24.9494 116.36 25.0136C116.305 25.0168 116.765 24.9983 115.918 25.0527C115.524 25.079 113.412 25.199 113.13 25.2213C113.014 25.2312 114.086 25.2069 114.216 25.1692C116.516 25.0518 114.95 25.1135 115.841 25.0621C115.977 25.0534 115.667 25.0923 117.912 24.9443C117.483 25.0035 114.899 25.1357 114.453 25.1631C113.539 25.224 117.309 25.0208 118 24.9496C117.677 24.9935 118.268 24.9363 119.106 24.8822C120.028 24.8221 119.627 24.8558 120.124 24.8222C121.481 24.7288 120.923 24.7511 122.039 24.686C120.944 24.7194 123.96 24.5402 124.838 24.4782C123.407 24.5956 121.986 24.7031 120.552 24.8045C120.634 24.8013 120.717 24.798 120.799 24.7948C120.419 24.8209 120.049 24.8458 119.671 24.8708C119.731 24.8644 119.791 24.858 119.852 24.8516C117.911 24.9966 117.434 25.0059 117.277 25.0161C115.24 25.141 112.886 25.2726 110.825 25.3773C110.517 25.3924 110.73 25.3997 108.475 25.4965C107.756 25.5267 108.434 25.483 107.619 25.5229C106.601 25.6021 106.619 25.5751 106.316 25.5888C105.447 25.6276 104.915 25.6581 104.835 25.6617C103.76 25.7092 102.185 25.7719 101.006 25.818C100.984 25.819 101.599 25.8053 100.831 25.8318C100.56 25.8414 98.145 25.89 96.0329 25.9724C96.5843 25.9571 97.129 25.9416 97.6813 25.9253C97.0351 25.9466 92.5077 26.0991 93.6155 26.0754C94.2947 26.0621 95.9481 25.9817 96.1333 26.0015C94.6232 26.0532 86.3077 26.289 85.6602 26.2889C85.5724 26.29 86.1192 26.2692 85.9964 26.2709C85.9028 26.2726 83.9972 26.3158 83.7392 26.3173C83.587 26.3185 84.4353 26.2958 84.367 26.2941C84.3003 26.2941 81.9182 26.3372 81.7899 26.3493C82.3658 26.335 84.0141 26.306 83.1552 26.332C83.0506 26.3352 82.4639 26.3396 82.332 26.3434C81.0811 26.3804 84.8234 26.3055 85.3956 26.2909C83.1181 26.3552 79.6368 26.4045 76.9534 26.442C76.8691 26.4432 76.7861 26.4444 76.7043 26.4456C76.1531 26.4472 76.5555 26.4396 76.9533 26.4317C77.3347 26.424 77.7079 26.4164 77.0915 26.4202C77.0437 26.4205 76.9976 26.4208 76.9532 26.421C74.5869 26.4327 76.4026 26.4402 76.322 26.4422C75.6814 26.4595 73.5103 26.4249 73.4995 26.4601C72.576 26.4572 72.8679 26.4532 71.5488 26.4566C71.7208 26.4595 71.8953 26.4622 72.0723 26.4648C70.6014 26.4907 67.505 26.3984 67.7376 26.3952C68.3631 26.3955 69.9823 26.4279 70.1134 26.4273C70.3228 26.4269 70.8772 26.3997 73.118 26.4286C74.0376 26.4054 69.5755 26.4092 71.6025 26.3956C70.2354 26.4127 64.6033 26.2956 63.7948 26.2737C63.6983 26.2725 64.1472 26.3094 62.7583 26.2597C62.0985 26.236 63.6894 26.2784 63.3876 26.2646C62.8058 26.2412 57.6387 26.0815 53.266 26.0714C50.6413 26.0591 48.3361 26.0428 47.4236 26.0354C47.2675 26.0341 47.3248 26.0269 47.1715 26.0257C46.7044 26.0222 44.9839 26.0178 44.1461 26.0051C45.8881 26.0374 42.4985 26.0036 41.6419 25.9902C40.3352 25.9714 40.4098 25.9584 39.8473 25.9479C37.6695 25.9079 34.2896 25.8799 32.6089 25.8121C32.6927 25.8446 29.6721 25.7317 28.3051 25.691C27.2201 25.6607 25.6751 25.6313 27.1191 25.688C25.2542 25.6306 23.3105 25.5669 21.5677 25.4938C21.2824 25.4818 21.6828 25.4904 21.1836 25.4694C21.1387 25.4675 21.0741 25.4735 20.6509 25.4552C17.1664 25.2945 18.8682 25.3557 18.221 25.3182C17.8481 25.295 17.5785 25.2781 17.3816 25.2663C19.4067 25.3829 21.7656 25.479 22.3788 25.5031C21.8657 25.4687 17.8754 25.3042 16.728 25.2209C16.6887 25.2183 16.8263 25.2161 16.7864 25.2136C16.7855 25.2136 16.7847 25.2136 16.7838 25.2135C16.3323 25.1912 13.5754 25 14.1448 25.0518C14.2903 25.0662 15.5665 25.1617 17.0832 25.2491C16.6799 25.2275 16.9802 25.2571 16.909 25.2534C16.0146 25.2089 13.906 25.051 13.1222 24.9812C12.9499 24.9667 12.9621 24.9752 12.9339 24.9728C12.2537 24.9131 12.5192 24.9152 11.8145 24.8729C10.5743 24.7348 14.1517 25.0747 13.9182 25.029C13.7207 25.0756 5.71743 24.1703 5.75067 23.9918C5.72358 23.9827 5.60828 23.953 5.39405 23.8923C5.15223 23.8164 4.51759 23.671 3.89525 23.3099C3.28312 22.9479 2.70764 22.4891 2.55308 22.3428C2.50158 22.297 2.50826 22.3312 2.44518 22.2725C2.33986 22.201 1.35542 21.1784 1.07083 19.9949C0.906621 19.4332 0.802785 18.892 0.747067 18.5431C0.818554 19.0346 0.922934 19.5208 1.05942 19.9982C1.07995 20.0698 1.10123 20.1394 1.12439 20.2103C1.10029 20.1377 1.07873 20.0683 1.05836 19.9985C0.631185 18.4584 0.664562 17.7704 0.640086 17.6471C0.632761 17.5195 0.64036 17.9376 0.718514 18.4934C0.726722 18.5504 0.734343 18.6052 0.743003 18.6595C0.811901 19.1098 0.927265 19.6176 1.03939 20.0041C1.1475 20.3829 1.26603 20.6468 1.26784 20.655C1.27425 20.6693 1.15261 20.4151 1.03223 20.0062C0.814541 19.2964 0.590841 18.0971 0.601885 17.161C0.60062 16.2256 0.786798 15.5866 0.700729 16.0358C0.560128 16.2035 0.697953 18.9235 0.63375 17.5783C0.569665 17.3478 0.732002 15.5785 0.82691 15.49C0.924121 15.1837 0.660293 15.9877 0.646959 16.8139C0.613367 17.6394 0.752832 18.4593 0.726834 18.2293C0.60425 17.3254 0.594226 16.1054 0.996205 15.0622C1.0373 14.9551 1.07539 14.8671 1.10843 14.7947C1.21186 14.5687 1.24522 14.4915 1.26421 14.4527C1.66244 13.6778 1.44889 14.1158 1.58511 13.8611C1.64227 13.7137 2.53997 12.2534 2.39693 12.5458C5.90384 8.12726 3.05459 11.1002 1.40435 14.1689C1.87942 13.1757 3.114 11.412 3.76311 10.6967C3.98945 10.4362 3.84344 10.5792 4.23594 10.1472C4.85395 9.27307 8.51001 6.41491 10.586 5.82842C10.8486 5.72934 11.0724 5.64494 11.2377 5.58281C10.3961 5.90576 10.6464 5.82297 11.2966 5.57594C11.9468 5.33012 11.3947 5.52171 11.521 5.47235C11.6481 5.40761 14.7407 4.31094 15.2682 4.17234C12.9189 4.94332 13.454 4.76926 15.4478 4.13591C15.164 4.22642 14.869 4.32326 14.5853 4.41925C15.7455 4.01626 18.2483 3.36541 18.9386 3.21364C19.047 3.18724 18.6545 3.26983 18.7157 3.25503C19.3238 3.09484 21.397 2.67885 21.4919 2.66475C21.5776 2.64443 20.683 2.81179 21.014 2.7426C21.0904 2.72626 21.941 2.57189 22.78 2.42524C23.0924 2.37054 22.9027 2.39382 22.9815 2.37983C23.6499 2.26473 23.2485 2.34144 24.4593 2.15162C25.3387 2.01814 25.9899 1.91039 27.2257 1.76244C23.1955 2.27873 26.578 1.81372 28.2578 1.62372C28.5296 1.59383 28.2991 1.59536 29.9084 1.43827C26.4954 1.82953 30.8768 1.34247 31.7965 1.27811C31.8483 1.27382 31.8648 1.28283 32.3002 1.24636C32.3377 1.24331 32.2818 1.24019 32.692 1.2061C36.5959 0.905104 34.1007 1.10336 34.8446 1.05521C35.1826 1.0327 37.0595 0.905009 37.5743 0.87866C37.6906 0.87229 37.6357 0.882634 38.0884 0.85814C38.898 0.814627 39.6218 0.772596 40.1471 0.748623C40.2113 0.746089 40.2042 0.756855 41.2318 0.710818C41.5161 0.698275 41.8234 0.682136 41.4298 0.694059C40.0625 0.734162 37.5811 0.875062 36.0438 0.963041C34.674 1.03432 38.991 0.776975 39.2428 0.775234C39.3276 0.771013 38.4679 0.818853 39.3373 0.77786C40.0475 0.744291 41.4245 0.664255 42.5016 0.631084C42.5831 0.628155 43.4726 0.615765 43.4332 0.618362C43.3906 0.619732 42.037 0.671068 42.2355 0.669479C42.2568 0.668981 43.1167 0.638637 43.2328 0.638934C43.3761 0.638761 43.741 0.672536 43.9197 0.668207C44.3819 0.656903 44.0804 0.655679 44.3809 0.64744C45.0354 0.627427 47.2802 0.588254 47.3574 0.572428C46.9826 0.579219 46.6119 0.586508 46.2455 0.594285C48.304 0.546507 47.4343 0.560407 47.7259 0.550916C48.0416 0.541684 47.9744 0.556437 48.6533 0.545861C48.7877 0.54111 51.7371 0.500072 51.6681 0.497243C50.0824 0.523198 50.6529 0.500817 50.5861 0.500932C50.2972 0.503349 49.931 0.517786 49.551 0.523232C46.9077 0.564906 49.5686 0.505651 48.9457 0.512092C48.7299 0.514242 48.3085 0.529872 48.2156 0.531204C47.9095 0.535493 47.9047 0.524898 47.702 0.529712C47.2307 0.541125 47.7812 0.54533 47.7441 0.546897C47.3153 0.563866 45.7023 0.589404 46.7074 0.549788C46.0987 0.557721 46.049 0.57917 45.5509 0.583791C44.5722 0.593714 46.0451 0.558574 46.4143 0.548124C47.8074 0.507698 48.2273 0.505533 50.2106 0.475C50.9528 0.464158 51.7554 0.446609 52.0952 0.443198C52.2114 0.441939 52.8818 0.446916 53.4725 0.443691C53.9133 0.441187 54.3073 0.432782 54.3325 0.409259C55.0993 0.410562 56.3015 0.44124 57.0869 0.437727C57.7996 0.43451 57.5744 0.416312 57.6407 0.415414C57.7503 0.413973 58.5958 0.413891 58.8832 0.41092C59.2211 0.407359 59.0511 0.400339 59.5909 0.39689C60.9511 0.388637 60.8951 0.408273 61.036 0.40942C62.626 0.424115 61.9327 0.396802 62.2871 0.394736C62.6365 0.39171 67.227 0.410841 68.2221 0.408517C67.8211 0.411029 67.4224 0.413642 67.0262 0.416359C67.7337 0.430323 68.5011 0.413435 68.5072 0.434934C68.6474 0.400652 70.1046 0.429257 70.5499 0.43034C70.7244 0.430705 70.7106 0.424736 70.9296 0.425424C71.7706 0.427846 73.6837 0.442089 74.1457 0.441711C76.1273 0.439276 71.0508 0.391191 70.6498 0.389254C71.4486 0.392127 75.9791 0.408411 73.9015 0.380713C73.5762 0.376405 73.0031 0.38901 72.8223 0.388733C71.599 0.386784 72.5608 0.377543 72.4649 0.375753C72.3013 0.372799 71.4999 0.382507 71.2902 0.380005C71.2164 0.379194 71.6841 0.368549 70.5049 0.363254C71.0837 0.35297 74.3683 0.379156 74.7884 0.379059C74.9444 0.379065 73.9729 0.346872 76.7919 0.389029C76.7591 0.386406 76.7263 0.383784 76.6935 0.381162C78.2461 0.389663 79.8233 0.399354 81.3779 0.409787C81.2078 0.41411 80.3312 0.418934 81.4356 0.424617C82.0725 0.427956 81.6013 0.412042 81.6595 0.412111C82.2321 0.410183 92.3379 0.501573 94.2953 0.522835C94.9623 0.529022 96.8184 0.538388 96.9602 0.53977C97.806 0.547497 100.805 0.587045 101.402 0.592626C101.776 0.59598 101.421 0.581542 101.755 0.585841C102.066 0.589859 101.744 0.596218 101.836 0.597692C102.599 0.609343 108.396 0.665896 109.77 0.693681C108.933 0.679739 104.733 0.648386 104.816 0.656773C104.835 0.657945 105.856 0.677858 106.066 0.676709C106.413 0.689592 107.604 0.677763 108.256 0.691157C108.329 0.69268 108.041 0.703842 109.199 0.721158C109.596 0.727103 110.642 0.728857 111.696 0.75563C113.212 0.767735 121.235 0.899679 121.768 0.892946C121.785 0.892336 120.666 0.870382 121.422 0.87496C122.427 0.881111 121.523 0.896992 122.708 0.917183C122.888 0.920014 126.171 0.967244 126.278 0.967353C127.274 0.966404 124.397 0.915004 124.437 0.913891C124.537 0.91046 126.933 0.944727 127.019 0.947365C127.113 0.950017 125.179 0.941369 127.503 0.969725C127.227 0.962747 126.971 0.9561 126.704 0.949298C127.787 0.961274 127.913 0.978453 128.176 0.983557C129.009 0.999825 129.887 0.991074 131.226 1.04163C131.576 1.05497 130.994 1.05362 131.038 1.05548C131.462 1.07264 131.985 1.05434 132.622 1.08531C132.666 1.08763 131.184 1.07431 133.779 1.11873C133.602 1.11375 133.425 1.10877 133.247 1.10378C133.61 1.10545 136.224 1.14875 136.567 1.1562C137.578 1.17748 136.683 1.17509 137.729 1.19252C137.076 1.16128 140.187 1.21676 140.022 1.23035C140.205 1.22536 140.768 1.23386 141.429 1.24713C142.437 1.2673 143.617 1.29699 144.373 1.31321C145.136 1.32929 146.781 1.3565 147.01 1.3629C147.324 1.37129 147.232 1.38318 147.786 1.39903C147.942 1.4035 149.566 1.43065 151.024 1.48314C151.292 1.49285 151.886 1.5324 151.362 1.52449C150.492 1.51141 148.803 1.45139 148.818 1.46597C148.855 1.48144 151.111 1.52813 151.718 1.54704C154.534 1.63364 152.912 1.60527 152.978 1.61159C153.173 1.62837 154.709 1.67388 154.767 1.67727C155.032 1.69014 153.947 1.66596 153.919 1.67255C153.918 1.68143 155.372 1.74361 155.044 1.73662C154.581 1.72578 153.209 1.67129 153.123 1.66981C151.968 1.64633 153.558 1.71248 153.954 1.73535C154.08 1.74233 153.577 1.7328 153.682 1.73687C155.318 1.80069 154.033 1.7166 155.107 1.7532C156.095 1.78796 154.814 1.7605 154.867 1.76322C154.914 1.76524 156.059 1.80354 156.254 1.81584C156.344 1.81907 153.32 1.75159 153.466 1.77001C154.418 1.79496 155.385 1.82239 156.341 1.85318C156.406 1.87111 155.038 1.81332 154.889 1.81081C154.603 1.80508 155.406 1.8388 155.373 1.84299C155.354 1.84546 154.4 1.82663 155.262 1.85897C155.559 1.87044 156.168 1.87811 157.229 1.9296C153.537 1.81439 156.088 1.91279 156.199 1.92184C156.288 1.93059 154.55 1.88416 156.684 1.95578C156.769 1.99041 156.652 1.96416 156.022 1.94796C155.284 1.9306 157.009 1.99556 154.283 1.90122C154.433 1.91921 156.632 1.99072 156.74 1.99739C156.839 2.00199 156.359 1.99201 156.53 2.0006C158.578 2.10532 157.171 2.03983 157.757 2.08048C157.827 2.08325 159.756 2.17534 158.279 2.11298C155.59 2.00838 154.476 1.96305 154.007 1.99155C156.012 2.06865 158.411 2.13372 159.016 2.1644C159.951 2.20879 158.967 2.1702 159.093 2.17897C159.137 2.18125 159.923 2.22029 159.945 2.22288C160.507 2.27665 156.407 2.0596 155.092 2.03348C155.457 2.05025 155.782 2.06612 156.137 2.08348C155.672 2.06762 155.182 2.05182 154.724 2.0377C156.979 2.12109 154.79 2.04259 154.243 2.05426C154.118 2.05657 155.604 2.09147 153.899 2.05668C155.164 2.09912 154.754 2.09182 155.875 2.12111C155.858 2.1301 153.321 2.06266 152.321 2.04256C155.835 2.15687 153.852 2.05397 156.877 2.17891C157.444 2.18593 156.002 2.13628 156.11 2.13837C156.55 2.14573 157.528 2.19167 158.742 2.21752C158.938 2.22204 158.112 2.16885 159.335 2.22703C159.473 2.23308 160.255 2.28761 160.237 2.28819C160.142 2.29145 159.366 2.24719 159.331 2.25013C159.304 2.25189 160.167 2.29477 160.166 2.2967C160.197 2.30984 159.444 2.26235 159.556 2.27228C159.793 2.29098 162.879 2.49014 158.843 2.26451C162.189 2.42641 159.265 2.26129 157.963 2.21844C157.606 2.20531 157.557 2.21041 157.065 2.19433C156.46 2.17479 155.733 2.14683 155.422 2.13803C155.081 2.12881 157.021 2.2072 154.214 2.11334C155.647 2.17259 158.153 2.24119 159.558 2.3271C162.372 2.50417 157.596 2.25204 157.087 2.25183C156.951 2.24734 157.405 2.27419 157.314 2.27137C157.155 2.26348 154.446 2.16788 154.175 2.16976C153.916 2.16974 155.152 2.19943 155.257 2.21161C155.303 2.21671 152.044 2.13055 153.801 2.18602C155.026 2.22315 157.296 2.28037 157.666 2.32135C155.88 2.25292 154.061 2.20009 152.266 2.15273C153.245 2.1888 154.246 2.22729 155.222 2.26814C153.189 2.20587 151.457 2.14982 149.53 2.11559C154.136 2.26182 148.027 2.10061 147.963 2.10554C147.926 2.10657 149.772 2.17463 150.038 2.18607C148.435 2.15321 143.534 2.05206 146.406 2.14443C145.892 2.12619 144.618 2.11552 144.643 2.11739C144.782 2.13292 147.535 2.18511 147.094 2.18741C146.576 2.18948 145.86 2.15492 145.049 2.13907C142.915 2.09785 142.22 2.10528 141.412 2.10642C140.73 2.10895 139.909 2.10568 137.972 2.06467C138.054 2.06862 138.136 2.07258 138.218 2.07654C133.716 1.98946 129.295 1.91259 124.804 1.83969C123.068 1.83351 118.409 1.77801 116.116 1.74452C115.664 1.73769 113.402 1.69608 113.227 1.69192C112.91 1.68396 114.654 1.70597 113.866 1.68846C113.691 1.68438 109.879 1.62987 110.146 1.64527C110.577 1.65211 111.922 1.66374 112.14 1.6694C113.682 1.70731 101.888 1.5442 101.303 1.54844C101.564 1.55521 101.826 1.56201 102.087 1.56881C101.342 1.55838 100.598 1.54811 99.8546 1.53798ZM134.068 1.07714C134.5 1.07284 135.641 1.1017 136.297 1.1102C137.182 1.12133 138.777 1.10563 138.096 1.13842C136.728 1.11674 135.403 1.09671 134.068 1.07714ZM114.452 0.759475C115.352 0.77801 114.655 0.79384 113.915 0.773345C113.832 0.77105 113.231 0.734508 114.452 0.759475ZM123.886 0.90678C123.849 0.906541 123.073 0.894158 123.045 0.893356C122.349 0.872681 124.688 0.910075 123.886 0.90678ZM78.304 0.410726C79.297 0.416225 78.5769 0.388351 77.9615 0.393845C77.9227 0.394193 78.2387 0.410348 78.304 0.410726ZM79.0105 0.416039C79.7897 0.44186 81.3278 0.411104 80.1013 0.406588C79.9861 0.406167 78.9736 0.414757 79.0105 0.416039ZM117.66 0.813838C117.56 0.820311 116.629 0.803467 116.229 0.796057C116.24 0.788981 117.273 0.80924 117.66 0.813838ZM94.1204 0.531083C94.0814 0.536687 97.3081 0.569721 97.5277 0.564118C97.0187 0.561946 94.1579 0.525703 94.1204 0.531083ZM85.8473 0.463313C85.9283 0.465032 87.0407 0.472889 87.0086 0.467157C86.4647 0.455233 85.4801 0.455372 85.8473 0.463313ZM69.3941 0.359635C69.3345 0.360874 70.1638 0.398529 68.1962 0.368695C67.9064 0.364347 68.9409 0.358747 68.8371 0.357166C68.6223 0.353959 68.4551 0.352249 68.3173 0.351582C69.2282 0.351718 70.1879 0.354268 70.2814 0.356776C70.7176 0.368534 69.4191 0.359082 69.3941 0.359635ZM60.7631 0.368921C60.5877 0.37453 59.3459 0.372274 59.0776 0.370387C59.0307 0.370016 59.2351 0.354751 58.6932 0.356618C58.2603 0.358223 58.9049 0.37245 58.0653 0.37146C57.188 0.37075 58.3597 0.357482 58.2759 0.356918C58.1888 0.355882 56.8244 0.365888 56.8729 0.356993C56.8987 0.350151 58.3532 0.351347 58.6906 0.349663C59.1404 0.347254 58.593 0.336918 59.3485 0.338405C59.8255 0.339419 59.5612 0.359017 59.662 0.3599C59.7511 0.360414 61.4115 0.348837 60.7606 0.36886C60.7614 0.36888 60.7623 0.3689 60.7631 0.368921ZM68.065 0.3516C68.1351 0.351176 68.2175 0.3511 68.3173 0.351582C68.2326 0.351559 68.1483 0.351585 68.065 0.3516ZM131.468 1.0414C131.009 1.02777 132.363 1.04274 132.911 1.05996C132.912 1.06623 131.542 1.04352 131.468 1.0414ZM67.2051 0.364688C65.84 0.356113 66.8366 0.35187 68.065 0.3516C67.6751 0.353985 67.6661 0.367672 67.2051 0.364688ZM106.066 0.676709C106.008 0.674567 105.971 0.671874 105.967 0.668124C106.118 0.674005 106.132 0.676341 106.066 0.676709ZM102.873 0.632171C101.779 0.630721 104.001 0.656098 103.986 0.647957C103.98 0.644819 102.917 0.632211 102.873 0.632171ZM77.0366 0.401529C77.138 0.403289 75.5858 0.427519 77.8357 0.416167C76.6354 0.404525 77.9014 0.408859 77.8832 0.405791C77.8371 0.396814 75.8089 0.392481 75.3601 0.386379C75.007 0.399602 76.7064 0.39573 77.0341 0.401513C77.0349 0.401518 77.0358 0.401523 77.0366 0.401529ZM45.1871 0.510103C45.4723 0.49323 46.3321 0.474386 46.9168 0.462426C46.6376 0.477312 45.7967 0.493956 45.1871 0.510103ZM100.086 25.8627C96.0661 26.0165 95.5388 25.9952 99.2226 25.8807C99.2965 25.8784 100.329 25.85 100.086 25.8627ZM65.5426 26.387C65.1638 26.3624 66.418 26.3891 67.2426 26.4093C67.4293 26.4141 68.1229 26.4412 67.331 26.4315C67.3573 26.4131 66.1379 26.3835 65.5426 26.387ZM66.4331 0.372749C66.0444 0.382276 64.8034 0.371953 64.1593 0.369436C64.5491 0.36121 65.8751 0.367867 66.4331 0.372749ZM86.8643 26.2444C86.4373 26.2532 86.1537 26.2735 86.2264 26.273C86.5517 26.2709 87.352 26.2407 86.8643 26.2444ZM70.3937 0.387818C70.4475 0.394279 68.8237 0.394098 68.7147 0.378157C69.0567 0.380402 70.3516 0.383597 70.3937 0.387818ZM46.2974 0.48682C46.5517 0.483734 45.2448 0.521295 44.8428 0.530122C44.8711 0.521995 46.1468 0.487636 46.2974 0.48682ZM80.0333 26.385C79.6529 26.3901 78.7044 26.4037 78.5983 26.4107C78.4682 26.4198 79.8597 26.3968 80.0333 26.385ZM150.476 20.998C150.519 20.993 149.087 21.3134 148.441 21.4329C147.218 21.6669 150.428 21.0172 150.476 20.998ZM90.878 26.1345C92.0799 26.1141 90.7447 26.1387 90.7987 26.151C91.6116 26.1296 93.6084 26.0713 92.231 26.098C91.9642 26.1032 91.2547 26.125 90.878 26.1345ZM89.774 26.1597C89.6441 26.1677 88.7819 26.2044 89.5282 26.1839C89.8737 26.1743 90.4348 26.1435 89.774 26.1597ZM141.491 22.6149C140.43 22.7711 145.302 22.0144 145.438 21.9746C145.513 21.9627 145.562 21.9552 145.59 21.9513C145.768 21.9169 146.685 21.7514 146.793 21.7409C146.518 21.7912 145.767 21.926 145.68 21.9398C145.642 21.946 145.613 21.9505 145.594 21.9534C145.274 22.0288 141.698 22.5957 141.491 22.6149ZM133.389 23.6495C134.615 23.4942 134.829 23.4976 134.725 23.5112C133.399 23.6768 134.262 23.5544 134.221 23.5582C134.131 23.5673 133.181 23.6842 133.393 23.6491C133.392 23.6492 133.391 23.6493 133.389 23.6495ZM139.835 22.8499C139.883 22.8435 140.909 22.6971 140.95 22.6909C141.789 22.5808 138.896 22.9928 139.835 22.8499ZM54.2456 0.405899C53.5163 0.406576 54.228 0.391452 54.7214 0.393343C54.7626 0.393589 54.8944 0.405489 54.2456 0.405899ZM89.1835 26.1783C89.0158 26.1829 84.6338 26.2776 84.8959 26.2869C85.2746 26.2801 90.2454 26.1662 89.1835 26.1783ZM56.4603 26.156C57.2283 26.1673 56.3947 26.171 55.9785 26.16C55.8239 26.1558 56.2698 26.1533 56.4603 26.156ZM72.5829 0.412338C73.3863 0.407451 73.2196 0.436347 72.5238 0.422732C72.4965 0.422201 72.5515 0.412531 72.5829 0.412338ZM62.6183 26.2993C59.9603 26.2389 60.5875 26.2036 64.048 26.3132C63.9397 26.3126 63.8317 26.3121 63.7231 26.3115C67.718 26.4177 63.9954 26.3245 63.0182 26.2993C62.6465 26.2904 62.958 26.3073 62.6209 26.2995C62.62 26.2994 62.6192 26.2994 62.6183 26.2993ZM52.3955 26.1203C50.9325 26.091 51.8933 26.0958 53.2659 26.105C54.2914 26.1114 55.5359 26.1272 56.137 26.1333C54.7723 26.1308 53.0056 26.1158 55.4151 26.1528C54.1851 26.1409 53.5693 26.1375 53.2657 26.1337C52.7129 26.1273 53.3071 26.124 53.2148 26.1227C53.0465 26.1205 52.5049 26.1225 52.3955 26.1203ZM59.1603 26.2027C59.3036 26.2043 60.4255 26.2376 60.8231 26.2468C60.2609 26.2437 58.1754 26.1888 59.1603 26.2027ZM124.87 24.4685C124.907 24.4615 124.967 24.4531 125.084 24.4411C125.257 24.4233 125.553 24.3976 126.072 24.3561C125.851 24.3788 125.434 24.4171 125.085 24.4488C125.009 24.4557 124.937 24.4624 124.87 24.4685ZM134.905 1.14291C135.53 1.1545 136.729 1.17969 136.361 1.16287C136.325 1.1613 134.912 1.13722 134.905 1.14291ZM76.4604 26.4122C76.3452 26.4153 72.9937 26.4364 74.1462 26.4398C74.5019 26.4439 77.5306 26.4119 76.4604 26.4122ZM93.757 26.0425C93.4804 26.0511 92.3412 26.0866 92.3181 26.0894C92.2407 26.0999 93.6374 26.054 93.757 26.0425ZM137.979 1.20811C138.067 1.2106 139.894 1.24312 139.704 1.2349C139.299 1.21816 137.714 1.19969 137.979 1.20811ZM51.5581 0.447661C51.4044 0.449537 51.2024 0.441139 51.1497 0.441604C51.0375 0.440275 48.172 0.486798 49.2613 0.456879C49.4153 0.450827 52.1466 0.41893 53.4723 0.416021C53.7536 0.41486 53.9666 0.414143 54.0624 0.413897C54.1535 0.419923 53.8576 0.422194 53.4724 0.423446C52.9706 0.425029 52.3279 0.426224 52.0938 0.429171C52.0193 0.430138 51.9703 0.442542 51.5594 0.447587C51.5589 0.447612 51.5585 0.447636 51.5581 0.447661ZM129.449 24.0548C129.58 24.0381 132.896 23.6914 132.86 23.7016C131.715 23.8277 130.593 23.9436 129.449 24.0548ZM127.76 24.2103C127.051 24.2677 128.718 24.1156 129.202 24.0711C129.212 24.0771 127.86 24.2031 127.76 24.2103ZM87.4301 26.1811C87.0966 26.1914 88.1234 26.1799 87.894 26.1881C87.745 26.1934 87.0028 26.2063 86.7589 26.2161C86.6915 26.2191 87.4581 26.2136 87.6763 26.2076C87.9896 26.1992 87.6851 26.1968 88.0278 26.1882C89.1689 26.1598 90.174 26.1402 91.2407 26.1102C91.3373 26.1075 90.5877 26.1214 91.4123 26.0985C91.5443 26.0947 92.2965 26.0841 93.2846 26.0529C95.4526 25.9546 97.0479 25.9351 99.798 25.8227C99.6945 25.824 97.6377 25.8893 97.5137 25.8927C95.2125 25.9686 91.0861 26.0916 88.6818 26.1507C88.0603 26.1664 88.3618 26.1656 88.0945 26.1726C87.884 26.1779 88.132 26.1592 87.4301 26.1811ZM134.586 1.14433C134.862 1.16181 135.909 1.17223 136.544 1.18435C136.324 1.16892 135.217 1.15812 134.586 1.14433ZM112.807 25.2421C112.481 25.2605 111.477 25.3095 111.393 25.3175C111.287 25.3284 112.737 25.2549 112.807 25.2421ZM35.5593 0.986202C35.5384 0.987509 34.7379 1.04066 34.7108 1.04256C34.0095 1.07963 36.3603 0.924063 35.5593 0.986202ZM17.0041 3.65262C16.4337 3.80909 15.8589 3.98404 15.6584 4.0342C16.0227 3.92213 17.0706 3.62502 17.0041 3.65262ZM1.39807 20.9264C1.37591 20.8622 1.56627 21.2767 1.88374 21.6836C2.19492 22.0961 2.62524 22.4696 2.76332 22.5808C2.71143 22.5419 2.31173 22.2238 1.98306 21.8257C1.6474 21.4331 1.41403 20.9714 1.39807 20.9264ZM124.739 24.4365C124.872 24.426 124.985 24.4167 125.082 24.4084C125.789 24.3473 125.684 24.3411 126.288 24.2982C126.398 24.2901 126.77 24.3024 125.573 24.3865C125.375 24.4001 126.057 24.3356 125.082 24.4104C124.985 24.4177 124.872 24.4263 124.739 24.4365ZM64.6118 26.3279C64.8902 26.3261 65.7549 26.3494 66.3437 26.3618C66.2087 26.3662 65.0309 26.3383 64.6118 26.3279ZM141.317 1.28173C141.348 1.28311 141.385 1.28454 141.428 1.286C142.14 1.30909 144.148 1.34161 143.61 1.32278C143.516 1.31974 141.982 1.29407 141.428 1.2839C141.382 1.28304 141.344 1.2823 141.317 1.28173ZM63.6595 0.40789C62.6958 0.416547 64.6903 0.422149 65.3406 0.414112C65.0463 0.414005 63.7221 0.407225 63.6595 0.40789ZM1.18094 14.5711C1.17512 14.5833 1.13332 14.668 1.07978 14.7812C0.917048 15.0996 0.768136 15.6718 0.764947 15.7065C0.656456 16.2429 0.789436 15.3346 1.07329 14.7781C1.23668 14.4376 1.3514 14.2234 1.18094 14.5711ZM23.0494 2.36098C22.6901 2.41932 20.2704 2.87095 19.7306 2.99422C20.2445 2.84603 23.5012 2.26227 23.0494 2.36098ZM120.259 24.7739C121.037 24.7203 121.77 24.6706 122.488 24.6212C122.333 24.6408 120.34 24.7746 120.259 24.7739ZM0.718514 18.4934C0.726722 18.5504 0.734343 18.6052 0.743003 18.6595C0.734169 18.6028 0.726109 18.5479 0.718514 18.4934ZM102.855 25.6893C102.203 25.7129 102.339 25.7199 102.379 25.7187C102.871 25.7032 103.592 25.6624 102.855 25.6893ZM135.335 1.17617C135.568 1.19161 136.657 1.20221 137.283 1.21635C137.094 1.20389 135.857 1.18413 135.335 1.17617ZM49.6483 26.0796C48.83 26.0619 52.1601 26.07 52.8681 26.081C52.9143 26.0894 49.7732 26.0828 49.6483 26.0796ZM66.6785 0.431081C66.7411 0.440045 68.1479 0.433579 67.8495 0.428485C67.658 0.425142 66.6384 0.425401 66.6785 0.431081ZM54.5511 26.0971C54.8602 26.0968 55.5938 26.1134 55.3356 26.116C54.9958 26.1191 54.474 26.0972 54.5511 26.0971ZM82.6454 26.2767C82.5065 26.2785 80.665 26.3204 81.4281 26.3159C81.9647 26.3127 82.0371 26.2984 82.1631 26.296C82.3042 26.2942 85.2573 26.2513 82.6454 26.2767ZM30.9773 25.8078C31.6609 25.8208 32.5265 25.8441 33.2382 25.8586C32.9531 25.8586 31.2634 25.8225 30.9773 25.8078ZM61.2794 0.425543C61.4478 0.427984 66.0401 0.436359 63.4381 0.421704C63.3006 0.420486 60.7589 0.414329 61.2794 0.425543ZM124.739 24.4365C124.603 24.4474 124.445 24.4595 124.261 24.4731C124.444 24.4591 124.602 24.4471 124.739 24.4365ZM112.367 25.2437C112.617 25.224 111.354 25.2892 110.98 25.3115C110.866 25.3256 112.333 25.2468 112.367 25.2437ZM33.2934 25.8507C33.707 25.8556 34.4831 25.875 34.9948 25.8841C34.9176 25.889 33.4677 25.8608 33.2934 25.8507ZM3.90547 23.3387C4.71415 23.8025 5.7393 23.9861 5.75962 23.9952C5.77712 24.0006 5.81815 24.0118 5.88828 24.0294C5.94653 24.0489 6.83722 24.2321 7.22255 24.2963C8.52473 24.4694 5.57845 24.2402 3.88263 23.3307C2.85984 22.6704 2.3598 22.3047 3.89043 23.3178C4.1306 23.4628 4.44862 23.5992 4.82211 23.7225C4.51081 23.6223 4.19961 23.5069 3.90547 23.3387ZM26.3339 1.88904C26.8013 1.83434 28.1204 1.6665 27.7771 1.70393C27.5558 1.72389 25.857 1.94097 26.3339 1.88904ZM8.76334 6.68512C8.88414 6.6065 10.0776 6.04226 10.114 6.0359C9.40185 6.30888 8.18044 6.9923 8.76334 6.68512ZM29.9524 1.48435C30.2597 1.4549 30.6221 1.40594 30.5894 1.40844C30.3067 1.42931 29.4442 1.52736 29.9524 1.48435ZM122.481 24.5711C122.037 24.6005 120.638 24.71 120.332 24.7399C120.276 24.742 120.123 24.7501 119.842 24.7661C119.843 24.7661 119.844 24.766 119.845 24.766C119.465 24.8122 108.115 25.4505 115.728 25.0363C115.965 25.0227 115.64 25.0339 116.612 24.9768C116.676 24.973 116.708 24.9781 116.906 24.9663C117.358 24.9409 119.79 24.7881 120.274 24.7476C120.278 24.7486 120.31 24.7477 120.376 24.7443C120.978 24.7143 122.822 24.5498 122.481 24.5711ZM6.56143 8.09307C6.77156 7.92982 7.46155 7.45219 7.53474 7.40323C7.17353 7.61464 6.06683 8.46024 6.56143 8.09307ZM61.4212 0.450894C61.9445 0.455921 63.3066 0.447704 62.8953 0.442287C62.6366 0.438697 60.8116 0.444885 61.4212 0.450894ZM14.0902 4.57893C11.2079 5.57916 13.403 4.81751 12.9654 4.98013C13.3366 4.84378 13.7173 4.70776 14.0902 4.57893ZM136.484 23.2358C136.004 23.293 136.564 23.2064 137.095 23.1486C137.262 23.1305 136.751 23.204 136.484 23.2358ZM157.959 18.9486C157.562 19.081 159.481 18.3805 158.74 18.6701C158.701 18.6887 157.989 18.9414 157.959 18.9486ZM143.014 22.3056C142.691 22.3672 142.478 22.4036 141.56 22.5392C142.919 22.3293 141.651 22.5152 143.014 22.3056ZM5.75067 23.9918C5.75604 23.9936 5.7606 23.995 5.75962 23.9952C5.75359 23.9933 5.75103 23.9923 5.75067 23.9918ZM32.797 1.22578C33.1841 1.20276 34.2436 1.12344 33.9273 1.13778C33.9053 1.13795 32.9513 1.20582 32.797 1.22578ZM120.332 24.7399C120.383 24.7381 120.357 24.7409 120.274 24.7476C120.27 24.7467 120.291 24.744 120.332 24.7399ZM27.0999 1.80671C27.127 1.79371 25.5304 2.00009 25.4561 2.01458C24.5338 2.15676 26.4265 1.88527 27.0999 1.80671ZM72.1438 0.488907C72.2271 0.488586 71.6896 0.468451 71.3623 0.473897C71.1086 0.478111 71.8309 0.490108 72.1438 0.488907ZM146.117 21.7788C146.629 21.6877 147.335 21.5559 147.471 21.5384C147.126 21.6035 146.109 21.787 146.117 21.7788ZM157.198 19.1886C156.91 19.2853 156.465 19.4252 155.963 19.5712C155.438 19.7242 154.861 19.8809 154.417 19.9965C154.409 19.9906 155.201 19.7835 155.96 19.5637C156.482 19.4137 156.972 19.2623 157.198 19.1886ZM123.871 24.4708C123.824 24.4745 122.548 24.5671 122.721 24.5625C122.979 24.5567 124.234 24.4476 123.871 24.4708ZM69.6425 0.468803C69.0676 0.472558 70.3897 0.495919 71.0059 0.484534C71.3197 0.478583 69.7368 0.468054 69.6425 0.468803ZM36.1205 1.00149C36.8722 0.949428 35.0164 1.05679 34.7361 1.08767C35.0958 1.06301 35.8528 1.01958 36.1205 1.00149ZM10.7586 5.81755C13.0106 4.99566 11.7736 5.41165 11.3749 5.56559C11.3205 5.58653 10.7027 5.83801 10.7586 5.81755ZM147.26 1.45892C147.598 1.4629 146.339 1.42135 146.178 1.42661C146.086 1.42995 147.02 1.4557 147.26 1.45892ZM17.3816 25.2663C17.2808 25.2606 17.1813 25.2548 17.0832 25.2491C17.1568 25.253 17.2537 25.2586 17.3816 25.2663ZM43.0207 0.71079C41.3228 0.733471 41.5219 0.757939 41.3734 0.762817C41.0536 0.77496 40.3022 0.796275 39.7163 0.825206C40.3822 0.790245 41.1073 0.755635 41.7658 0.726298C41.2125 0.733463 36.5662 0.951602 36.4373 0.976936C36.2957 0.993008 37.7821 0.9042 37.8159 0.904362C37.877 0.902091 38.107 0.913453 38.2441 0.907209C38.4905 0.888196 42.3795 0.71903 43.0207 0.71079ZM15.4965 4.14945C15.1285 4.25955 15.0197 4.28506 14.8476 4.34224C14.7895 4.36176 14.7819 4.37328 14.5852 4.43969C14.8854 4.34103 15.1955 4.24226 15.4965 4.14945ZM46.0432 0.589873C46.5297 0.587967 44.3636 0.640067 44.3041 0.642384C43.9329 0.645398 45.6557 0.589068 46.0432 0.589873ZM27.9024 1.71833C27.9805 1.70706 29.6169 1.53256 29.603 1.53032C29.178 1.56385 26.9828 1.81706 27.9024 1.71833ZM14.3411 4.52057C13.7867 4.7001 12.7549 5.05951 12.876 5.0312C12.8768 5.0309 12.8776 5.03061 12.8784 5.03032C13.364 4.85453 13.8477 4.68528 14.3411 4.52057ZM67.6732 0.490372C68.7536 0.51533 68.2385 0.486421 67.2872 0.476628C66.9996 0.485414 67.4964 0.486319 67.6732 0.490372ZM71.1019 0.519256C71.3881 0.523956 74.4653 0.535199 73.9976 0.521612C73.8277 0.516534 72.0589 0.517916 71.9811 0.51689C71.8588 0.515169 72.4175 0.505168 71.4832 0.503372C71.5374 0.507861 71.002 0.517522 71.1019 0.519256ZM68.5629 0.507028C69.6163 0.527065 69.8578 0.498023 69.0611 0.494942C68.7506 0.493752 68.413 0.50416 68.5629 0.507028ZM64.2143 0.493307C64.5909 0.496714 65.635 0.502911 66.3204 0.494717C65.4015 0.491509 64.4262 0.488745 63.5028 0.486729C63.3955 0.49226 63.8798 0.490245 64.2169 0.493312C64.216 0.49331 64.2151 0.493309 64.2143 0.493307ZM162.672 15.7883C162.428 16.1586 162.595 15.9195 162.792 15.5634C162.99 15.2073 163.192 14.7325 163.209 14.6957C163.315 14.4701 162.901 15.4556 162.672 15.7883ZM153.84 1.90123C154.073 1.91159 154.244 1.92778 154.75 1.93768C154.239 1.91341 153.709 1.88935 153.197 1.8664C152.788 1.87366 153.6 1.89019 153.84 1.90123ZM155.824 2.03305C155.748 2.03107 156.158 2.07342 155.205 2.02276C154.579 1.98756 158.029 2.09188 158.674 2.1396C157.981 2.11347 156.465 2.05012 155.824 2.03305ZM161.899 2.47093C161.952 2.47094 160.611 2.37072 160.476 2.36576C159.663 2.30692 161.693 2.4237 161.899 2.47093ZM157.693 2.22177C158.321 2.25248 156.932 2.20068 156.539 2.18438C156.491 2.17682 157.614 2.21719 157.693 2.22177ZM154.976 19.3219C154.325 19.4785 153.755 19.6709 154.747 19.3988C154.795 19.3856 155.005 19.3152 154.976 19.3219ZM160.617 2.39978C160 2.35606 161.37 2.43462 161.77 2.48166C161.809 2.48607 160.705 2.40283 160.617 2.39978ZM154.509 19.3992C153.642 19.6126 153.962 19.5767 154.067 19.552C154.387 19.4756 155.242 19.2385 155.816 19.0641C156.055 18.9924 156.236 18.9357 156.323 18.9082C156.136 18.9648 155.968 19.0145 155.815 19.059C154.208 19.5149 154.876 19.3044 154.509 19.3992ZM150.525 20.3836C149.72 20.5641 151.778 20.1262 152.171 20.0142C151.773 20.1098 150.751 20.3346 150.525 20.3836ZM145.602 21.3287C145.158 21.4068 143.862 21.62 143.643 21.662C144.119 21.5847 145.415 21.3708 145.602 21.3287ZM144.607 21.4774C143.915 21.5833 143.759 21.6391 144.549 21.498C144.58 21.4925 144.633 21.4737 144.607 21.4774ZM140.75 22.0728C140.296 22.1269 139.779 22.2296 140.517 22.1246C140.735 22.0931 140.797 22.0671 140.75 22.0728ZM153.418 19.6279C152.779 19.7819 151.977 19.9967 153.326 19.6692C152.849 19.7915 152.374 19.9084 151.903 20.0207C153.673 19.6156 153.542 19.605 154.046 19.4796C154.756 19.2956 154.7 19.3322 154.564 19.3771C154.768 19.3169 155.241 19.1864 155.804 19.0214C156.795 18.7341 158.086 18.3169 158.938 17.9618C158.112 18.2983 156.89 18.6923 155.798 19.0004C155.33 19.1333 154.874 19.2565 154.505 19.3536C154.148 19.4473 153.815 19.54 153.509 19.6163C153.03 19.7349 153.453 19.6194 153.42 19.6273C153.42 19.6275 153.419 19.6277 153.418 19.6279ZM135.659 22.7496C134.336 22.894 135.173 22.8245 135.925 22.7277C135.957 22.7233 135.692 22.746 135.659 22.7496ZM162.357 2.6444C160.606 2.45345 161.894 2.51853 158.164 2.36018C159.736 2.41186 158.246 2.35089 158.552 2.35749C158.809 2.36253 159.727 2.41192 159.183 2.37437C159.55 2.39849 160.47 2.44374 161.343 2.51293C161.771 2.5473 162.19 2.58857 162.48 2.63816C162.632 2.66366 162.755 2.69532 162.802 2.71842C162.85 2.77168 162.749 2.61161 162.774 2.64714C162.774 2.64671 162.774 2.64641 162.774 2.64622C162.785 2.68286 162.727 2.59565 162.804 2.73511C162.824 2.74458 162.624 2.6805 162.357 2.6444ZM145.583 21.2553C145.131 21.2984 144.978 21.3829 144.102 21.4995C142.957 21.7392 147.285 20.9563 147.807 20.8737C143.119 21.7484 150.915 20.3163 147.631 20.8891C150.33 20.3789 148.513 20.709 148.927 20.6207C149.362 20.5288 150.894 20.2084 150.807 20.2118C150.807 20.212 150.806 20.2122 150.805 20.2123C149.877 20.4172 148.948 20.6093 148.019 20.7909C148.939 20.6401 147.025 21.0057 146.378 21.0957C146.109 21.1504 145.849 21.2027 145.583 21.2553ZM150.857 20.245C150.772 20.2681 148.748 20.6955 148.88 20.6709C149.147 20.6305 152.018 19.9994 150.857 20.245ZM159.53 17.6875C158.869 17.9983 157.794 18.3717 157.415 18.5053C158.113 18.2815 159.179 17.8703 159.53 17.6875ZM122.011 24.0206C121.069 24.0989 123.977 23.8861 123.135 23.9382C123.096 23.9411 122.058 24.0172 122.011 24.0206ZM143.462 21.6183C142.514 21.7591 142.96 21.7235 143.668 21.5996C143.709 21.5924 143.506 21.6117 143.462 21.6183ZM160.935 2.51312C160.878 2.50746 158.27 2.36862 157.82 2.35654C158.075 2.35197 161.017 2.49696 160.935 2.51312ZM160.636 17.0626C159.417 17.8091 157.514 18.4338 157.31 18.5058C157.1 18.5736 157.424 18.4536 157.376 18.4689C157.305 18.4935 156.47 18.7634 155.786 18.9588C155.355 19.0835 154.984 19.1852 154.942 19.1969C154.864 19.2189 155.276 19.1255 154.813 19.2581C155.013 19.2014 155.367 19.1028 155.792 18.9793C157.337 18.5694 159.747 17.6188 159.873 17.5002C160.014 17.412 158.915 18.0044 160.634 17.0639C160.635 17.0635 160.636 17.0631 160.636 17.0626ZM156.788 18.6687C157.225 18.5372 156.368 18.8121 155.79 18.9753C155.634 19.0201 155.496 19.0589 155.413 19.0817C154.976 19.2 155.34 19.0986 155.788 18.9685C156.231 18.8409 156.753 18.6795 156.788 18.6687ZM153.019 19.6968C152.842 19.7425 151.206 20.1222 151.068 20.158C151.847 20.0006 153.428 19.6016 153.019 19.6968ZM134.611 22.8144C134.182 22.8665 132.98 22.9939 132.918 23.0076C133.351 22.9601 134.542 22.8307 134.611 22.8144ZM152.09 2.23416C152.817 2.26021 151.122 2.21673 150.645 2.20199C150.62 2.19608 152.024 2.23153 152.09 2.23416ZM143.288 21.5734C143.035 21.6305 137.828 22.3901 137.09 22.4692C137.813 22.4009 142.973 21.6554 143.206 21.5969C143.273 21.5854 143.321 21.5684 143.288 21.5734ZM154.432 19.2826C154.888 19.1497 155.201 19.0756 155.255 19.0607C155.404 19.0198 155.588 18.9678 155.773 18.9146C156.338 18.753 156.942 18.5628 156.752 18.6306C156.491 18.7111 156.139 18.8173 155.775 18.9228C154.792 19.2089 153.749 19.4774 154.432 19.2826ZM134.234 22.8075C132.46 23.0148 135.875 22.6337 135.423 22.6721C135.398 22.6749 134.412 22.7872 134.234 22.8075ZM143.871 21.4753C144.261 21.4248 149.446 20.4804 150.262 20.2746C149.531 20.4476 148.919 20.5616 147.927 20.7552C147.653 20.8083 147.731 20.8002 147.702 20.806C147.239 20.8946 147.584 20.8207 147.297 20.875C147.119 20.9216 143.321 21.587 143.871 21.4753ZM154.692 19.2048C154.793 19.1754 155.235 19.0546 155.768 18.8991C156.799 18.6077 158.137 18.1439 158.219 18.1078C158.86 17.8826 157.058 18.5542 155.77 18.9059C155.218 19.065 154.77 19.1845 154.692 19.2048ZM143.39 21.5388C143.947 21.4345 146.526 21.0004 144.766 21.314C144.596 21.3441 143.884 21.4551 143.39 21.5388ZM134.42 22.7677C134.338 22.7783 132.48 22.9814 132.449 22.9893C132.713 22.9671 135.418 22.6593 134.42 22.7677ZM135.38 22.6338C135.335 22.6392 135.771 22.5995 134.903 22.7009C134.831 22.7088 134.691 22.7141 133.603 22.8419C133.379 22.868 133.035 22.9148 133.061 22.9124C134.203 22.8141 137.623 22.3536 135.38 22.6338ZM154.748 19.1786C154.574 19.2199 154.987 19.0919 155.356 18.9965C155.516 18.955 155.226 19.0489 154.748 19.1786ZM128.539 23.3738C129.619 23.265 126.222 23.5728 126.053 23.5848C126.155 23.5847 128.43 23.3871 128.539 23.3738ZM150.387 2.26737C150.388 2.2674 150.389 2.26742 150.39 2.26744C149.462 2.2419 150.04 2.24801 149.991 2.24652C148.071 2.18714 148.556 2.21859 148.265 2.21376C147.627 2.20378 147.715 2.1825 146.619 2.16747C148.451 2.19469 146.764 2.16242 146.728 2.15349C146.51 2.1147 149.176 2.22484 150.05 2.24047C150.172 2.24247 149.262 2.20934 149.579 2.2141C150.634 2.22928 153.892 2.36791 150.387 2.26737ZM155.641 18.9142C155.669 18.9054 155.71 18.8929 155.762 18.8775C156.476 18.6949 159.001 17.8133 158.268 18.0782C158.177 18.1285 156.391 18.724 155.765 18.8862C155.574 18.9397 155.5 18.9582 155.641 18.9142ZM6.20447 23.3378C6.93712 23.4923 5.22775 23.1048 4.95449 22.9805C4.8002 22.9434 5.85918 23.2804 6.20447 23.3378ZM2.30743 14.1613C2.74381 13.3786 3.24797 12.5764 2.64864 13.5179C2.58173 13.6201 2.25164 14.246 2.30743 14.1613ZM53.775 25.3168C53.5583 25.3125 53.3901 25.3106 53.27 25.3101C52.9552 25.3088 52.9823 25.3176 53.27 25.3228C53.3525 25.3242 53.4556 25.3254 53.5765 25.3261C53.8265 25.3275 53.8049 25.3174 53.775 25.3168ZM17.2095 24.5073C17.1223 24.5021 16.0058 24.4348 16.0483 24.4423C16.4652 24.4735 17.8227 24.5488 17.2095 24.5073ZM54.0765 25.3155C53.5115 25.3159 54.4916 25.3391 55.1829 25.3298C54.8321 25.3274 54.1316 25.3153 54.0765 25.3155ZM141.43 21.7909C140.963 21.8718 139.634 22.0608 138.867 22.1657C138.777 22.1675 140.89 21.8776 141.43 21.7909ZM1.42467 17.6414C1.36297 16.814 1.48471 18.5893 1.50423 18.4244C1.49467 18.4021 1.41964 17.6739 1.42467 17.6414ZM84.6775 25.4636C84.0469 25.4847 86.0525 25.4512 85.5001 25.4501C85.4713 25.4503 84.7105 25.4625 84.6775 25.4636ZM93.4315 25.2421C92.9514 25.2547 90.9137 25.3136 91.7064 25.2983C91.8248 25.2963 93.4005 25.2502 93.4315 25.2421ZM148.212 2.22155C148.476 2.2405 146.964 2.20251 146.754 2.19576C146.652 2.19245 147.894 2.19718 148.212 2.22155ZM47.5395 25.2735C47.0381 25.2711 45.769 25.2565 45.533 25.2609C46.1454 25.2656 47.6987 25.2884 47.5395 25.2735ZM2.48286 21.162C2.16602 20.7587 1.87796 20.0248 1.81145 19.7787C1.78441 19.6944 1.77486 19.6731 1.79187 19.7497C1.79502 19.7606 1.79812 19.7713 1.80118 19.7817C1.99352 20.3864 2.00843 20.328 2.01046 20.3442C2.03292 20.3483 1.9975 20.4575 2.48286 21.162ZM57.2747 25.3376C56.8822 25.3301 56.5659 25.3434 56.6146 25.3449C57.055 25.3589 57.6629 25.3508 57.2747 25.3376ZM27.4275 24.9289C27.4069 24.9211 26.1346 24.8852 26.3024 24.8951C26.3636 24.8989 27.4459 24.9357 27.4275 24.9289ZM124.865 23.6421C124.647 23.6571 124.762 23.6453 125.018 23.6228C125.451 23.585 126.256 23.5166 126.584 23.4931C126.795 23.485 125.492 23.5941 125.018 23.6303C124.933 23.637 124.877 23.6413 124.865 23.6421ZM68.2979 25.5886C68.3504 25.5797 66.3709 25.5525 67.1497 25.5751C67.346 25.5814 68.2731 25.5924 68.2979 25.5886ZM87.3559 25.38C86.0182 25.4277 91.6324 25.2935 90.1567 25.3147C90.0481 25.3173 87.4682 25.377 87.3559 25.38ZM96.5164 25.1251C96.2874 25.1312 96.3981 25.0904 97.3529 25.0723C97.4781 25.0699 96.8925 25.0998 96.9951 25.0985C97.0561 25.0983 99.1281 25.0308 99.2251 25.0259C99.3281 25.0211 99.2064 25.0135 99.3108 25.0084C99.4289 25.0027 100.704 24.9661 101.373 24.94C102.631 24.8912 102.769 24.8749 102.871 24.8708C103.171 24.8586 103.677 24.8451 104.288 24.8193C107.361 24.6929 112.059 24.4512 114.495 24.3299C112.328 24.4448 110.263 24.5601 108.106 24.6647C108.737 24.6155 104.934 24.8263 107.158 24.7008C106.134 24.7657 97.271 25.1153 96.519 25.125C96.5181 25.125 96.5173 25.1251 96.5164 25.1251ZM4.33831 11.2691C3.96699 11.672 5.88418 9.60335 6.09723 9.47661C5.7914 9.6958 4.3609 11.1976 4.33831 11.2691ZM3.78845 22.2837C3.90842 22.3638 4.02773 22.4359 4.32081 22.6092C4.48412 22.707 4.84588 22.8719 5.3867 23.034C5.38792 23.0344 5.38914 23.0347 5.39037 23.0351C5.78048 23.1495 5.33393 23.0298 5.4042 23.0516C5.42622 23.0692 6.63368 23.3789 5.62685 23.1295C4.15524 22.6778 5.4845 23.0883 4.71747 22.8132C4.69738 22.8048 4.48272 22.7203 4.31438 22.6198C3.88563 22.3729 3.37372 21.9932 3.42119 22.0285C3.42556 22.0367 3.80442 22.3089 3.87137 22.351C4.11472 22.5175 3.99133 22.4446 4.02579 22.4679C4.04897 22.483 4.14873 22.5472 4.30226 22.6397C4.7988 22.9832 6.50101 23.3449 6.80116 23.4038C6.88002 23.406 5.24796 23.1783 4.29762 22.6474C3.63339 22.2539 3.16048 21.8474 3.11914 21.8063C3.04734 21.7406 3.09207 21.7521 3.02038 21.6827C3.00244 21.6647 2.70061 21.3913 2.4605 21.0531C2.21407 20.7193 2.04012 20.3155 2.00505 20.2208C1.98387 20.1666 1.96839 20.1235 1.95763 20.0928C1.99025 20.1852 1.91776 20.0128 1.84625 19.7685C1.73991 19.4171 1.64069 18.9315 1.65126 18.9565C1.65521 18.9741 1.76223 19.4653 1.85332 19.7665C1.89032 19.8941 1.92223 19.9859 1.92539 19.9958C1.93008 20.0102 1.9343 20.0232 1.93823 20.035C1.91008 19.9364 2.14578 20.6853 2.59861 21.22C3.03707 21.7643 3.60315 22.1406 3.314 21.9153C4.09978 22.5046 3.18154 21.853 3.78845 22.2837ZM8.37226 23.6316C8.2618 23.6178 8.15323 23.6039 8.04656 23.5899C9.86315 23.8613 11.9374 24.0714 14.0555 24.2328C14.5794 24.272 13.9736 24.2133 14.6678 24.2679C15.2359 24.312 15.8496 24.3648 15.5479 24.3478C15.4839 24.3449 14.3262 24.2565 13.7599 24.212C12.0824 24.0794 12.4958 24.1203 12.3997 24.1138C12.2871 24.1051 11.2308 23.9993 10.6582 23.9368C9.2102 23.7711 8.53639 23.7256 6.606 23.3501C7.71699 23.5523 7.11425 23.4316 8.37226 23.6316ZM76.6995 25.5532C76.7173 25.5511 76.8082 25.5491 76.9429 25.5471C77.3155 25.5415 78.0936 25.535 78.4058 25.5297C78.3557 25.5369 77.4567 25.5451 76.943 25.5504C76.8483 25.5514 76.7652 25.5523 76.6995 25.5532ZM94.034 1.45681C94.403 1.44804 91.6372 1.41773 92.366 1.43519C92.527 1.439 93.6861 1.45319 94.034 1.45681ZM81.6024 1.34009C81.2312 1.34072 82.7254 1.3608 82.7237 1.3513C82.7211 1.34818 81.6496 1.33996 81.6024 1.34009ZM32.0016 24.99C32.0733 24.9914 33.0934 25.0162 33.1218 25.0173C33.7994 25.0457 30.442 24.9635 32.0016 24.99ZM66.4908 1.2762C67.7788 1.27121 63.8986 1.25862 65.0858 1.27165C65.1508 1.27219 66.4299 1.27634 66.4908 1.2762ZM61.0945 1.27102C61.397 1.27044 62.7782 1.27527 62.7994 1.27164C62.8234 1.26544 61.2446 1.26043 61.0945 1.27102ZM57.5442 25.2954C57.3983 25.2782 59.2082 25.3223 59.8384 25.3365C59.9865 25.3532 58.1719 25.3029 57.5442 25.2954ZM46.107 25.1877C53.735 25.2366 52.0485 25.2561 45.6514 25.1902C45.6412 25.1812 45.6277 25.1839 46.107 25.1877ZM55.8863 25.2627C55.614 25.2681 54.7491 25.2562 54.1539 25.2513C54.2651 25.2455 55.471 25.2586 55.8863 25.2627ZM97.3288 1.51002C96.85 1.51606 94.7299 1.48026 95.1069 1.47954C95.1946 1.47931 97.5047 1.50561 97.3288 1.51002ZM32.6472 24.9923C32.4632 24.9755 34.7585 25.028 34.9332 25.0334C35.6444 25.0595 32.8192 24.9943 32.6472 24.9923ZM68.3724 25.5267C68.7737 25.5219 69.9201 25.5392 70.6607 25.5424C70.3213 25.5504 68.9998 25.5361 68.3724 25.5267ZM63.0435 25.4037C63.0895 25.4046 64.12 25.4328 64.1657 25.4343C65.0093 25.4669 62.0959 25.3874 63.0435 25.4037ZM151.648 2.40183C151.6 2.40083 150.842 2.38035 150.811 2.37923C150.116 2.35089 152.455 2.41425 151.648 2.40183Z" fill="#6983D0"/>
</svg>
