<svg width="236" height="28" viewBox="0 0 236 28" fill="none" xmlns="http://www.w3.org/2000/svg">
<path d="M198.095 1.44233C197.774 1.44016 196.624 1.42111 196.102 1.41549C196.676 1.40235 199.172 1.44904 198.095 1.44233ZM145.195 2.37413C145.622 2.37248 146.052 2.37088 146.48 2.36929C145.26 2.3564 143.632 2.34746 142.502 2.33419C142.318 2.332 142.797 2.32123 142.36 2.31728C141.923 2.31334 142.007 2.33365 141.372 2.33099C140.659 2.32785 137.398 2.29035 136.268 2.28287C132.045 2.25448 127.777 2.2381 123.551 2.20539C127.91 2.21662 123.525 2.17561 122.29 2.17507C122.017 2.17518 122.064 2.21117 117.676 2.17891C114.884 2.15907 117.477 2.11907 112.812 2.1233C116.4 2.17678 112.863 2.15697 110.073 2.14654C109.578 2.14445 105.691 2.12363 103.958 2.11985C103.364 2.11844 102.491 2.13484 101.691 2.133C101.149 2.13175 100.739 2.12009 99.941 2.11851C96.2154 2.11108 92.5547 2.10572 88.8134 2.10113C91.0011 2.05259 87.0979 2.07962 86.9425 2.07775C86.0582 2.06429 90.051 2.0607 88.4688 2.05216C86.2687 2.05331 84.0529 2.05629 81.7976 2.06201C83.615 2.06466 79.414 2.10793 78.6014 2.09526C78.6994 2.10718 77.9371 2.11172 76.7994 2.11361C73.7533 2.11345 68.0494 2.13946 66.8844 2.17301C66.5439 2.18365 68.7473 2.16082 63.6861 2.24544C63.1449 2.25549 63.3495 2.23816 63.0672 2.24535C62.909 2.24944 61.8552 2.31371 60.7475 2.31861C60.3413 2.3237 62.9308 2.21685 57.2598 2.39211C59.5218 2.35114 49.4138 2.68799 47.556 2.81229C47.9362 2.7974 48.3076 2.78361 48.6702 2.77081C46.8355 2.85045 46.4944 2.88826 46.0916 2.91021C44.4113 3.00392 42.134 3.14351 40.5834 3.26764C38.7818 3.41394 38.7605 3.43933 36.658 3.62587C37.176 3.582 37.6552 3.54372 38.1582 3.50491C36.7275 3.6303 35.2358 3.77631 33.801 3.93568C37.1545 3.53924 33.0892 4.00631 32.799 4.05004C32.3721 4.10221 32.9811 4.01467 32.2722 4.10189C32.1967 4.1121 32.3168 4.10772 31.1974 4.25201C28.8888 4.56153 29.2706 4.50162 28.2897 4.64565C28.1972 4.66179 28.5248 4.61533 26.8487 4.88883C21.5756 5.82773 26.8855 4.857 27.0761 4.84049C27.3388 4.80655 25.5287 5.00128 30.0239 4.36362C28.5207 4.56766 28.3479 4.57859 28.1822 4.60172C28.048 4.61402 25.4103 5.05398 25.2796 5.08651C23.9972 5.32852 25.1322 5.13629 24.8821 5.18489C24.667 5.21472 21.5544 5.81837 20.8313 6.04469C19.3339 6.35197 21.6694 5.78173 24.1819 5.29888C24.5569 5.21105 21.78 5.75989 21.6514 5.79838C18.1104 6.60118 20.0826 6.19453 19.3121 6.39576C18.9162 6.50197 17.4658 6.84042 18.805 6.53934C15.6065 7.34913 17.5435 6.84331 17.3348 6.89162C17.0268 6.96585 15.9085 7.26735 15.7667 7.30367C15.5605 7.35599 16.2731 7.15763 15.461 7.36693C15.4283 7.37539 15.3268 7.40311 15.2162 7.43394C14.9304 7.51435 14.5857 7.61817 15.2215 7.45412C15.3453 7.42298 15.5057 7.38206 15.7112 7.32924C15.5331 7.37578 15.3709 7.41833 15.2224 7.45734C13.5265 7.92529 13.6443 7.93676 12.9595 8.13544C11.5171 8.73511 11.8876 8.50787 11.3161 8.73992C9.81825 9.40317 10.2801 9.26757 10.2003 9.30077C9.62245 9.4851 5.79076 11.9024 5.04055 12.751C5.3106 12.3879 7.85304 10.5445 8.48752 10.2281C9.49792 9.63419 8.76955 10.0279 7.99852 10.5011C7.22694 10.9743 6.42547 11.5551 7.10822 11.0426C6.52813 11.4586 5.96815 11.9009 5.43142 12.3699C4.45606 13.2332 5.71518 11.879 3.29552 14.4156C2.90733 14.8331 5.01142 12.628 4.60359 13.0873C4.32698 13.3215 2.95664 14.8171 2.95721 14.8674C2.91939 14.8902 4.14515 13.5319 3.96455 13.7558C3.77576 13.9553 2.78898 15.0205 2.18864 15.9199C1.88773 16.3543 1.7941 16.81 1.77056 16.8937C1.77079 16.9938 1.71665 16.6524 2.17295 15.9092C2.26892 15.7676 2.38188 15.6072 2.51295 15.4308C2.38587 15.601 2.27184 15.7597 2.16939 15.9068C1.69903 16.6254 1.57908 17.2709 1.66554 18.2314C1.70583 18.5821 1.6425 17.8196 1.67875 17.6146C1.69226 17.5113 1.687 17.5375 1.69998 17.9014C1.72523 18.2594 1.75365 19.0002 2.24632 20.2056C2.33496 20.4163 2.44718 20.6321 2.59548 20.8482C2.61799 20.891 2.40727 20.6231 2.23436 20.2106C1.92111 19.5185 1.74513 18.518 1.74955 18.48C1.73082 18.3847 1.75832 18.8648 1.77914 18.9481C1.7957 19.0235 1.8955 19.5394 2.187 20.2306C2.55661 21.37 4.17293 22.4167 5.6869 23.0094C6.50017 23.3339 7.47222 23.4874 7.8301 23.5639C7.25964 23.5137 13.0798 24.2444 13.7474 24.2381C13.917 24.2497 13.2854 24.1799 13.4665 24.193C14.6262 24.2864 17.7213 24.5237 19.1484 24.5975C20.7756 24.6858 20.5518 24.6563 20.6468 24.6618C21.3587 24.6979 20.7882 24.68 21.2264 24.7014C21.8725 24.7393 26.4112 24.9263 26.6175 24.9268C26.6835 24.9285 25.953 24.8848 26.93 24.9168C27.0911 24.9208 27.0182 24.944 29.9083 25.0267C33.4239 25.1226 27.4682 24.9256 28.93 24.9488C31.1962 25.0511 31.1081 25.0155 31.7208 25.036C31.9366 25.0431 33.5012 25.1131 35.2256 25.1531C33.9803 25.1271 32.7737 25.0996 31.5342 25.0683C32.7524 25.1085 35.0905 25.1625 36.0855 25.1902C36.5676 25.2039 36.1656 25.216 37.2215 25.2393C37.453 25.2437 38.3199 25.2134 35.5821 25.1727C35.3643 25.1492 36.6589 25.1919 37.2755 25.2002C37.3653 25.2013 37.7443 25.1791 38.5163 25.2146C38.7112 25.2219 36.6542 25.2747 41.9119 25.3107C42.08 25.3117 41.4959 25.2898 41.6602 25.2905C41.7699 25.2911 43.1115 25.3196 43.2636 25.3205C43.4163 25.3214 42.7639 25.2978 42.9458 25.2986C43.8857 25.3025 45.0883 25.3712 43.1786 25.3351C43.8309 25.3524 44.4475 25.3687 45.0867 25.3849C44.404 25.3373 46.0925 25.3909 46.9766 25.4026C52.6352 25.4746 48.8463 25.3976 49.8179 25.3988C51.3702 25.3989 50.1716 25.4471 52.5052 25.4563C52.7115 25.4563 49.925 25.3998 55.3894 25.4748C54.5745 25.4674 53.7673 25.4596 52.9679 25.4514C53.4207 25.4925 55.886 25.4809 56.076 25.482C58.2103 25.4979 56.7689 25.4978 59.961 25.5077C60.2445 25.5084 60.8634 25.5224 61.4761 25.5229C64.0082 25.5251 58.153 25.485 57.9792 25.4675C57.9178 25.4617 64.21 25.5144 64.426 25.5175C65.3399 25.539 61.5821 25.5035 62.2939 25.5269C62.5441 25.5384 71.5363 25.5806 73.3474 25.5924C75.416 25.6097 76.3694 25.6608 76.3813 25.6069C76.4214 25.6107 76.4611 25.614 76.5005 25.6169C77.0523 25.6577 77.514 25.6285 77.757 25.6301C80.9905 25.6547 80.9877 25.6565 83.7492 25.685C84.3614 25.692 84.8737 25.7156 85.0905 25.7162C85.2156 25.7164 84.9822 25.6956 85.5941 25.6997C86.4543 25.7029 91.578 25.8169 91.9595 25.8328C92.341 25.8494 89.7945 25.7971 90.2503 25.8211C92.0933 25.857 93.8626 25.8856 95.7135 25.9123C96.4842 25.9233 96.0929 25.929 96.4218 25.9334C96.562 25.9368 99.2178 25.9532 99.1106 25.947C98.8412 25.949 90.6352 25.8294 92.7967 25.8428C93.213 25.8467 94.688 25.8955 94.455 25.861C99.8636 25.9532 105.269 25.9585 110.698 25.9189C112.62 25.9051 114.541 25.8873 116.47 25.8663C114.618 25.8983 112.675 25.9201 110.698 25.9351C108.14 25.9545 105.586 25.96 103.086 25.9584C102.492 25.959 100.432 25.9477 100.685 25.9639C103.769 25.9837 107.457 25.9672 110.698 25.944C111.377 25.9393 112.09 25.9341 112.718 25.93C112.833 25.9292 112.413 25.9471 112.841 25.9453C113.656 25.9422 116.289 25.8905 116.725 25.8906C116.797 25.8912 115.316 25.9268 115.766 25.9333C116.914 25.9499 117.246 25.8794 118.231 25.8677C119.025 25.86 124.229 25.8164 125.543 25.7724C126.93 25.7286 121.683 25.8216 122.073 25.7967C125.614 25.7264 129.208 25.6821 132.551 25.6131C132.61 25.6118 132.098 25.6082 132.844 25.5913C134.147 25.5616 134.486 25.5739 135.118 25.5637C135.804 25.5529 138.21 25.4967 138.538 25.4959C138.579 25.496 138.089 25.5266 138.015 25.5289C136.962 25.5607 136.592 25.5433 136.496 25.5451C136.139 25.552 135.781 25.5694 135.454 25.5758C134.913 25.5864 134.619 25.5837 133.907 25.5976C133.413 25.6072 133.89 25.6146 133.414 25.6236C133.237 25.627 131.37 25.6248 131.19 25.6682C131.138 25.6948 146.471 25.3608 148.006 25.2915C146.689 25.3235 145.377 25.3539 144.061 25.383C146.732 25.3266 149.936 25.202 150.166 25.2424C160.062 24.9546 169.967 24.5957 179.845 24.0529C179.959 24.0468 180.061 24.0415 180.153 24.0368C181.513 23.9655 180.824 24.0348 183.549 23.8614C182.8 23.8978 182.042 23.9334 181.298 23.9668C182.787 23.8973 189.376 23.476 190.437 23.3814C190.577 23.3698 190.767 23.3303 192.41 23.2015C193.869 23.0857 194.107 23.086 194.886 23.0262C195.532 22.9764 196.28 22.9072 196.471 22.8918C196.62 22.88 196.68 22.8875 197.035 22.8588C198.17 22.766 197.252 22.8117 198.377 22.7521C198.105 22.7781 197.832 22.8041 197.556 22.83C198.919 22.7162 200.798 22.5584 198.777 22.7543C198.435 22.787 198.728 22.7481 198.472 22.7713C188.357 23.6286 196.441 22.9958 199.978 22.6397C200.894 22.5812 205.971 22.047 206.146 22.023C206.38 22.0023 205.516 22.1126 206.653 21.9992C206.894 21.9927 213.682 21.1429 211.244 21.4702C210.733 21.5444 207.484 21.9273 206.695 22.0116C208.555 21.8518 212.872 21.2513 213.355 21.1801C215.317 20.9233 209.596 21.7145 214.009 21.1293C217.398 20.6572 214.214 21.0802 215.515 20.8847C216.247 20.7837 220.078 20.2108 219.972 20.1828C221.276 19.9597 220.518 20.1064 220.678 20.081C220.837 20.0598 223.409 19.5911 224.24 19.428C224.342 19.4091 224.027 19.4902 224.132 19.4712C224.181 19.4622 224.364 19.4266 224.607 19.3782C225.39 19.2254 226.812 18.9102 226.893 18.8874C226.955 18.8725 226.366 18.9882 226.603 18.9306C226.89 18.8755 229.224 18.2923 229.341 18.2342C229.534 18.1964 226.647 18.9297 227.124 18.7845C228.467 18.4919 230.599 17.8621 231.392 17.4852C231.203 17.5834 229.973 18.0184 229.528 18.1371C229.754 18.0945 232.335 17.084 231.465 17.4525C232.01 17.2005 231.629 17.3634 231.932 17.2102C232.013 17.1794 232.741 16.7758 232.856 16.6741C232.879 16.6726 232.145 17.0927 232.287 17.0001C232.423 16.9213 233.036 16.5816 233.504 16.1169C233.977 15.6637 234.335 15.0717 234.397 14.9832C234.557 14.7308 234.366 15.0666 234.102 15.4408C233.843 15.819 233.469 16.1902 233.409 16.2475C233.401 16.2559 233.712 15.9875 233.977 15.6531C234.247 15.3229 234.491 14.9321 234.5 14.922C234.536 14.8818 234.29 15.294 234.022 15.6395C233.757 15.9889 233.45 16.2655 233.535 16.2C233.874 15.8829 234.162 15.5092 234.433 15.0962C233.665 16.9334 230.126 18.0352 229.237 18.2838C230.632 17.885 232.017 17.3692 232.89 16.7741C233.766 16.1912 234.15 15.5732 234.179 15.5979C234.215 15.6341 233.423 16.5065 233.44 16.4577C233.631 16.4103 234.626 15.0767 234.635 14.9901C234.664 14.9462 234.678 14.9261 234.679 14.9267C234.68 14.9286 234.375 15.4668 233.988 15.9278C233.607 16.3961 233.104 16.7566 233.054 16.7932C232.908 16.928 233.753 16.303 233.742 16.2894C233.731 16.3038 233.423 16.6054 233.131 16.815C232.842 17.0273 232.596 17.1723 232.847 17.0276C233.396 16.7768 234.387 15.6522 234.39 15.5821C234.474 15.4632 234.157 15.9683 233.704 16.4008C233.257 16.8416 232.659 17.1842 232.628 17.2051C232.614 17.2568 233.77 16.4406 233.773 16.3799C233.816 16.3742 232.996 17.075 232.611 17.2752C232.341 17.4476 233.143 16.9772 233.004 17.059C232.957 17.2022 230.612 18.2257 230.472 18.2192C230.295 18.2825 230.866 18.1003 230.786 18.1305C230.669 18.1817 229.882 18.4317 229.984 18.4023C230.09 18.4478 233.073 17.2562 233.002 17.163C233.025 17.2753 229.91 18.6715 232.798 17.3525C232.826 17.3496 233.462 16.9113 233.472 16.8891C233.665 16.7455 233.276 17.0676 233.127 17.1684C232.951 17.246 233.189 17.3088 234.24 16.2014C233.291 17.266 232.528 17.5295 232.241 17.7033C231.929 17.8582 231.986 17.8345 232.185 17.745C232.584 17.5862 233.46 17.019 233.113 17.2662C232.879 17.5222 230.838 18.3933 230.82 18.3649C231.028 18.313 231.682 18.0451 231.903 17.9507C232.035 17.9285 230.185 18.6341 230.606 18.4868C230.836 18.4548 232.778 17.6174 232.831 17.5236C233.554 17.093 232.681 17.6447 232.842 17.5525C232.968 17.5239 234.008 16.7449 234.011 16.6939C234.09 16.7028 232.67 17.7611 232.318 17.8732C232.075 18.0069 233.001 17.5323 232.83 17.6212C231.825 18.2444 229.468 18.9666 231.715 18.1972C231.851 18.1544 232.67 17.7585 232.687 17.7381C233.194 17.4926 231.705 18.2618 231.424 18.3481C230.96 18.568 233.162 17.6308 231.333 18.4095C232.69 17.8572 233.58 17.5242 234.716 16.1125C233.108 18.1055 231.296 18.3751 231.029 18.5713C230.665 18.626 231.667 18.7034 233.931 17.0434C232.514 18.1168 232.628 17.9125 232.176 18.1678C231.896 18.3498 229.544 19.1022 230.641 18.808C230.778 18.7886 232.187 18.2202 231.751 18.4116C228.348 19.6222 231.685 18.4874 231.688 18.4523C231.682 18.5745 227.783 19.7808 224.792 20.3072C223.407 20.5817 222.215 20.7904 221.751 20.8738C220.054 21.1788 218.541 21.4456 218.179 21.502C216.954 21.6906 217.967 21.5186 217.692 21.5548C217.429 21.5963 213.948 22.1267 213.786 22.1408C213.11 22.2251 213.793 22.1137 213.722 22.1222C212.89 22.2333 208.228 22.8268 206.918 22.9591C206.963 22.9687 209.588 22.6654 207.945 22.8759C206.042 23.1167 205.93 23.0694 205.879 23.0735C197.342 24.0014 188.785 24.6403 180.214 25.1248C180.004 25.1366 179.794 25.1484 179.583 25.16C179.605 25.1646 179.845 25.1551 180.214 25.1367C181.746 25.0636 185.454 24.8188 185.563 24.8126C186.003 24.7969 183.051 24.9964 180.215 25.1545C178.067 25.2761 175.953 25.3795 175.444 25.4003C176.344 25.3618 177.258 25.321 178.154 25.2795C176.621 25.3964 173.199 25.5224 170.966 25.6359C170.248 25.6729 171.626 25.624 171.601 25.6258C170.793 25.6758 169.492 25.7228 170.464 25.6625C168.48 25.7664 168.777 25.7346 167.255 25.797C167.176 25.8001 167.829 25.7869 166.627 25.8419C166.067 25.8684 163.063 25.9858 162.661 26.0118C162.496 26.0232 164.022 26.0176 164.207 25.9651C167.476 25.858 165.251 25.9035 166.518 25.8536C166.711 25.8452 166.27 25.8919 169.46 25.7433C168.855 25.8167 165.177 25.9342 164.542 25.963C163.241 26.0265 168.607 25.8358 169.585 25.7542C169.125 25.8095 169.97 25.7428 171.16 25.6906C172.468 25.6327 171.9 25.6691 172.608 25.6364C174.533 25.5457 173.743 25.5584 175.335 25.5028C173.781 25.5106 178.056 25.3582 179.316 25.304C177.277 25.4194 175.256 25.5252 173.218 25.6252C173.334 25.6234 173.45 25.6215 173.566 25.6197C173.034 25.6445 172.499 25.669 171.962 25.6932C172.048 25.6857 172.134 25.6783 172.219 25.6708C169.462 25.82 168.782 25.8203 168.56 25.8301C165.662 25.951 162.315 26.0799 159.385 26.1824C158.946 26.1972 159.247 26.2122 156.043 26.3009C155.021 26.3286 155.985 26.2795 154.826 26.3196C153.379 26.414 153.405 26.3742 152.974 26.3875C151.737 26.4257 150.982 26.4598 150.868 26.4633C149.34 26.5106 147.101 26.5716 145.425 26.6175C145.394 26.6185 146.269 26.6102 145.177 26.6347C144.792 26.6436 141.359 26.6696 138.358 26.758C139.14 26.7444 139.915 26.7306 140.7 26.716C139.781 26.7349 133.347 26.8908 134.921 26.8732C135.888 26.8636 138.236 26.7704 138.5 26.8033C136.354 26.8501 124.532 27.0895 123.615 27.0865C123.488 27.0872 124.266 27.0622 124.092 27.0633C123.961 27.0646 121.255 27.1086 120.888 27.1084C120.673 27.1086 121.875 27.0835 121.774 27.0803C121.695 27.0789 118.3 27.1203 118.112 27.1378C118.944 27.1212 121.274 27.0943 120.053 27.1247C119.898 27.1285 119.083 27.1293 118.888 27.1339C117.111 27.1774 122.416 27.1011 123.243 27.0866C119.895 27.1595 114.768 27.2012 110.893 27.2453C110.819 27.2452 110.758 27.2451 110.708 27.2449C110.411 27.2438 110.488 27.2402 110.708 27.2356C111.224 27.2245 112.642 27.2061 111.435 27.2094C111.154 27.21 110.914 27.2107 110.708 27.2113C108.163 27.2179 110.451 27.2362 110.349 27.2384C109.451 27.2603 106.327 27.2039 106.345 27.2573C105.001 27.2528 105.44 27.246 103.568 27.2536C103.825 27.2575 104.056 27.2612 104.305 27.2649C102.236 27.303 97.8131 27.1904 98.1538 27.1849C99.0395 27.1783 101.329 27.216 101.531 27.2152C101.809 27.2141 102.633 27.1671 105.791 27.2098C107.09 27.173 100.759 27.1868 103.647 27.162C101.699 27.1816 93.7008 27.0692 92.5494 27.0528C92.4124 27.0524 93.05 27.1014 91.0761 27.0466C90.1387 27.0204 92.3997 27.0614 91.9705 27.045C91.0924 27.0165 82.9126 26.8391 76.4961 26.8325C73.2241 26.8225 70.4266 26.8103 69.2888 26.8045C69.0654 26.8034 69.1473 26.7923 68.9279 26.7912C68.2449 26.7879 65.8376 26.7907 64.6222 26.7768C67.1017 26.8148 62.3073 26.7843 61.0616 26.7709C59.2032 26.752 59.332 26.7325 58.5181 26.721C55.4391 26.6778 50.6236 26.6703 48.2194 26.5903C48.3469 26.6375 44.082 26.5083 42.1091 26.4703C40.6106 26.4433 38.3463 26.4265 40.4291 26.486C37.8018 26.4331 34.9966 26.3773 32.5357 26.3125C32.1223 26.3016 32.6904 26.3042 31.9874 26.2858C31.9242 26.2842 31.8337 26.2948 31.2379 26.2789C26.2845 26.1387 28.7127 26.1832 27.7748 26.1457C27.2491 26.1232 26.8681 26.1073 26.5897 26.0965C29.4733 26.1998 32.8134 26.2846 33.6934 26.3066C32.9388 26.2632 27.2918 26.1288 25.6541 26.0517C25.5958 26.0492 25.7996 26.0412 25.7404 26.0389C25.7391 26.0388 25.7379 26.0388 25.7366 26.0387C25.0967 26.018 21.1754 25.852 21.9853 25.9055C22.1942 25.9202 24.0042 26.0039 26.1677 26.0815C25.5968 26.0638 26.0222 26.0972 25.9215 26.0942C24.6392 26.0575 21.6514 25.9115 20.5308 25.8499C20.2847 25.837 20.3023 25.8491 20.2621 25.8471C19.3028 25.7947 19.6786 25.7827 18.6693 25.7602C16.8956 25.6235 22.0009 25.9322 21.6641 25.8821C21.3887 25.9072 10.0042 25.1459 10.027 25.0552C9.98767 25.0469 9.82474 25.0237 9.51034 24.9787C8.85141 24.8949 6.10553 24.4932 5.23775 24.0776C5.16836 24.0489 5.11281 24.0257 5.07259 24.0089C4.98575 23.9727 5.00734 24.0156 4.89989 23.9689C4.74551 23.8888 1.8023 22.7247 1.10317 20.6877C0.964583 20.3617 0.861436 20.0644 0.787026 19.828C0.873911 20.121 0.97633 20.4097 1.0935 20.6917C1.30446 21.2031 1.61151 21.6876 1.98764 22.0964C1.54981 21.6241 1.26741 21.1273 1.08554 20.6951C0.479241 19.1859 0.512151 18.5209 0.484403 18.5021C0.479736 18.4741 0.528679 19.0508 0.734559 19.762C0.758196 19.8432 0.780976 19.921 0.805748 19.998C0.879077 20.2291 0.966196 20.4688 1.06414 20.7041C1.50008 21.8261 2.46079 22.5918 2.46261 22.5969C2.51174 22.6212 1.57265 21.9781 1.0467 20.7115C0.572519 19.6203 0.304017 18.1923 0.433899 17.1557C0.556252 16.1195 0.905006 15.578 0.677888 16.1249C0.613381 16.2362 0.347288 17.3444 0.435541 18.1366C0.503114 18.9257 0.615 19.4166 0.473691 18.4339C0.455699 18.2622 0.37907 17.5217 0.516156 16.792C0.632711 16.0578 1.01556 15.4055 1.05821 15.3499C1.35261 14.9337 0.514861 16.024 0.476737 17.2936C0.38336 18.5414 0.785636 19.7061 0.697855 19.3759C0.397296 18.2401 0.283567 16.5444 1.18391 15.2342C1.27144 15.1054 1.36678 14.9701 1.45664 14.8463C1.85943 14.2981 1.96128 14.1667 2.01288 14.0996C2.81554 13.1466 2.37834 13.6901 2.65148 13.3791C2.77521 13.1862 4.53313 11.4784 4.23245 11.8373C10.7373 7.0962 5.62191 10.0181 2.29836 13.7483C3.27522 12.5057 5.63532 10.5271 6.80617 9.8007C7.21488 9.53249 6.96174 9.66902 7.66683 9.23004C8.57242 8.62674 11.8796 6.93478 14.8947 6.21056C16.5771 5.76938 18.0893 5.38783 18.8314 5.21077C17.5865 5.52337 17.9589 5.44802 18.9165 5.21232C19.8869 4.97753 19.0652 5.15143 19.2542 5.10346C19.4434 5.03027 24.0089 4.05501 24.7719 3.94319C21.3217 4.61693 22.1052 4.47119 25.0305 3.92404C24.6149 4.00384 24.1766 4.09058 23.7669 4.17468C25.4613 3.82297 29.1046 3.28567 30.0944 3.15571C30.2531 3.13271 29.6803 3.19658 29.7698 3.18369C30.6414 3.04765 33.6289 2.70474 33.7663 2.69053C33.8923 2.6714 32.602 2.80692 33.0794 2.74612C33.1927 2.73152 34.3974 2.61254 35.6148 2.48583C36.0573 2.43968 35.7895 2.45284 35.9011 2.44089C36.8312 2.344 36.3216 2.41243 38.0089 2.25552C39.2929 2.13981 40.2169 2.04026 41.9547 1.92071C36.2335 2.34008 41.0426 1.95595 43.4468 1.7914C43.8296 1.76595 43.4729 1.75818 45.7959 1.62922C40.8992 1.9806 47.1713 1.55911 48.4706 1.50564C48.5406 1.50228 48.5618 1.51713 49.1887 1.48618C49.2424 1.48358 49.1627 1.47612 49.752 1.44679C55.3048 1.19034 51.7568 1.3624 52.8154 1.32671C53.2816 1.3104 55.9667 1.19603 56.6946 1.17415C56.8597 1.16884 56.7817 1.18254 57.4246 1.162C58.5681 1.12567 59.6143 1.08498 60.3521 1.06505C60.4426 1.06298 60.4333 1.07991 61.8849 1.03976C62.2958 1.02859 62.7564 1.01198 62.1732 1.01986C60.2323 1.0446 56.7062 1.17452 54.517 1.24079C52.5684 1.29348 58.7098 1.07778 59.0636 1.07685C59.1832 1.07335 57.955 1.11715 59.2041 1.08365C60.203 1.05679 62.1897 0.976236 63.6979 0.953071C63.813 0.950925 65.0658 0.953428 65.01 0.956245C64.9505 0.957798 63.0425 1.00164 63.322 1.00396C63.3522 1.00394 64.5644 0.979522 64.7276 0.982465C64.9234 0.98569 65.4566 1.04425 65.723 1.04139C66.3763 1.03444 65.9503 1.02612 66.3736 1.02015C67.273 1.00558 70.5101 0.984653 70.5953 0.96148C70.066 0.965857 69.5615 0.970434 69.0237 0.975952C71.9365 0.938458 70.6991 0.944258 71.1122 0.934854C71.563 0.92557 71.4322 0.947275 72.4392 0.940213C72.671 0.936228 76.7853 0.906999 76.7397 0.900504C74.4057 0.924967 75.2788 0.896002 75.1682 0.895789C74.7643 0.896387 74.252 0.913988 73.72 0.917559C69.9166 0.946527 73.7719 0.891556 72.8694 0.893269C72.553 0.89383 71.93 0.911762 71.7985 0.912427C71.3697 0.91449 71.3631 0.898493 71.079 0.902692C70.4182 0.912646 71.1897 0.927335 71.1377 0.929098C70.5382 0.948697 68.2691 0.959297 69.6837 0.917001C68.8382 0.918429 68.7059 0.950452 68.019 0.947983C66.6475 0.944082 68.699 0.920002 69.2723 0.909518C71.2006 0.872251 71.893 0.875341 74.6434 0.852846C75.3669 0.8473 76.1992 0.835464 76.7944 0.828532C77.0187 0.825811 77.2074 0.823763 77.3387 0.823053C77.6064 0.821101 80.466 0.863761 80.5155 0.78428C81.5705 0.78941 83.3422 0.839102 84.423 0.835748C85.4226 0.832642 85.1065 0.804766 85.1995 0.803583C85.3408 0.801711 86.5693 0.803262 86.9871 0.799246C87.4614 0.794456 87.2229 0.783683 87.9804 0.779293C89.8754 0.76867 89.8389 0.797817 90.0338 0.799719C92.3063 0.82295 91.3052 0.781384 91.8089 0.778508C92.2672 0.774814 98.8789 0.8023 100.233 0.796748C99.6699 0.801003 99.11 0.80535 98.5532 0.809789C99.5489 0.830105 100.619 0.803765 100.638 0.836031C100.842 0.784503 102.935 0.825435 103.549 0.826186C103.794 0.826431 103.775 0.817504 104.082 0.818142C105.289 0.820442 108.001 0.83769 108.652 0.835931C111.477 0.827736 104.258 0.767216 103.689 0.764384C104.829 0.767871 111.262 0.781736 108.304 0.745001C107.847 0.739322 107.041 0.759516 106.786 0.759487C105.046 0.759082 106.416 0.743252 106.281 0.74077C106.046 0.736683 104.895 0.752764 104.594 0.749364C104.494 0.748282 105.139 0.731475 103.485 0.725635C104.298 0.709504 108.958 0.741786 109.574 0.740431C109.787 0.739923 108.44 0.694593 112.413 0.750053C112.367 0.746213 112.32 0.742373 112.274 0.738534C114.502 0.747054 116.709 0.75642 118.942 0.766762C118.699 0.773837 117.447 0.784064 119.024 0.788807C119.927 0.791559 119.259 0.769359 119.342 0.769258C120.144 0.765824 134.512 0.860377 137.293 0.880857C138.24 0.886835 140.878 0.891243 141.079 0.892527C142.285 0.8998 146.541 0.942519 147.394 0.947406C147.925 0.950292 147.42 0.930676 147.894 0.935204C148.335 0.939442 147.878 0.950835 148.009 0.952515C149.084 0.965914 157.337 1.01571 159.282 1.04805C158.091 1.03275 152.123 1.01167 152.245 1.02361C152.271 1.02526 153.719 1.04892 154.016 1.04589C154.506 1.06306 156.213 1.03806 157.132 1.05394C157.236 1.05575 156.828 1.07437 158.468 1.09291C159.032 1.09927 160.531 1.09528 162.018 1.12836C164.186 1.13739 175.565 1.27783 176.34 1.2632C176.363 1.26215 174.75 1.23737 175.839 1.23872C177.29 1.24063 175.991 1.27114 177.672 1.29239C177.914 1.29526 182.599 1.34075 182.738 1.33979C184.143 1.33035 180.087 1.2764 180.131 1.27417C180.289 1.26851 183.647 1.30047 183.796 1.30394C183.918 1.30704 181.161 1.30949 184.491 1.33366C184.109 1.32553 183.721 1.31735 183.339 1.30927C184.918 1.31898 185.062 1.3433 185.441 1.34888C186.604 1.36624 187.895 1.34639 189.771 1.41057C190.265 1.42756 189.444 1.43055 189.506 1.43295C190.103 1.45502 190.846 1.42313 191.766 1.46425C191.828 1.4673 189.738 1.46046 193.399 1.50414C193.15 1.49824 192.899 1.49234 192.648 1.48644C193.146 1.48568 196.886 1.52755 197.356 1.53522C198.816 1.55809 197.545 1.56281 199.02 1.57908C198.085 1.53837 202.526 1.59228 202.278 1.6139C202.495 1.60605 203.096 1.60994 203.838 1.61929C205.318 1.63793 207.285 1.67603 208.456 1.69372C209.546 1.70988 211.852 1.73175 212.214 1.73919C212.656 1.74808 212.527 1.76703 213.307 1.7842C213.519 1.78891 215.836 1.81071 217.906 1.87003C218.273 1.88081 219.154 1.93279 218.39 1.92763C217.157 1.91994 214.752 1.85065 214.781 1.87238C214.828 1.89528 218.021 1.9367 218.9 1.95672C222.9 2.04703 220.593 2.02707 220.691 2.03587C220.959 2.0583 223.151 2.10334 223.226 2.10708C223.601 2.12216 222.07 2.10323 222.03 2.11342C222.023 2.12684 224.097 2.19715 223.629 2.19178C222.959 2.1831 221.014 2.1221 220.896 2.12106C219.269 2.10273 221.497 2.17859 222.081 2.20706C222.265 2.21574 221.531 2.20863 221.685 2.21326C224.022 2.28408 222.176 2.17754 223.717 2.21563C225.108 2.25109 223.316 2.23178 223.368 2.23437C223.456 2.23727 225.06 2.27502 225.347 2.28996C225.461 2.29414 221.181 2.24186 221.381 2.26624C222.747 2.2898 224.103 2.31515 225.469 2.34441C225.563 2.37041 223.628 2.30736 223.4 2.3054C222.991 2.30136 224.146 2.33921 224.095 2.34584C224.076 2.35014 222.694 2.33684 223.937 2.37168C224.354 2.38375 225.222 2.3856 226.732 2.44247C221.486 2.33611 225.1 2.43778 225.271 2.44994C225.403 2.46168 222.918 2.42226 225.955 2.49198C226.077 2.54226 225.909 2.50535 225.02 2.49228C223.956 2.47821 226.419 2.54802 222.546 2.45071C222.747 2.47575 225.893 2.54641 226.035 2.55334C226.174 2.55841 225.497 2.55234 225.739 2.56205C228.651 2.68013 226.643 2.60854 227.487 2.65828C227.581 2.66173 230.328 2.75624 228.225 2.69593C224.405 2.59505 222.813 2.53934 222.158 2.59052C224.998 2.67649 228.415 2.72627 229.273 2.75625C230.605 2.79974 229.21 2.76646 229.383 2.77623C229.45 2.77907 230.564 2.81707 230.596 2.82C231.395 2.89056 225.56 2.65896 223.7 2.63624C224.218 2.65543 224.664 2.67335 225.185 2.69349C224.506 2.67748 223.842 2.6627 223.17 2.64837C226.381 2.73623 223.254 2.65498 222.492 2.68088C222.315 2.68635 224.412 2.71515 222.007 2.68986C223.786 2.73348 223.23 2.72971 224.806 2.75436C224.79 2.76907 221.181 2.7086 219.755 2.6915C224.765 2.81128 221.932 2.68851 226.235 2.82311C227.046 2.82322 224.989 2.77528 225.147 2.77629C225.763 2.77919 227.165 2.83155 228.886 2.8424C229.165 2.84448 227.99 2.7846 229.73 2.8424C229.923 2.84838 231.038 2.9085 231.012 2.90949C230.942 2.91387 230.641 2.9042 230.322 2.89382C230.041 2.88473 229.748 2.87492 229.725 2.87714C229.685 2.8808 230.912 2.92194 230.911 2.92436C230.956 2.94353 229.883 2.89283 230.044 2.90458C230.38 2.92725 234.772 3.1369 229.031 2.91051C233.791 3.06324 229.625 2.90046 227.78 2.86089C227.279 2.84875 227.197 2.85714 226.505 2.84271C225.638 2.82488 224.604 2.79544 224.167 2.78753C223.682 2.77914 226.435 2.8653 222.451 2.76995C224.486 2.83716 228.046 2.89579 230.048 2.98672C234.053 3.17368 227.256 2.92762 226.536 2.92852C226.344 2.92443 226.985 2.95584 226.857 2.95338C226.627 2.94594 222.77 2.84899 222.398 2.85518C222.026 2.85919 223.792 2.8845 223.935 2.90067C223.985 2.90825 219.374 2.82854 221.859 2.88515C223.595 2.92311 226.842 2.96865 227.355 3.02127C224.827 2.95491 222.224 2.90325 219.678 2.85753C221.085 2.89825 222.487 2.94066 223.887 2.98604C220.98 2.92555 218.533 2.86506 215.789 2.83783C222.322 2.99748 213.676 2.83547 213.562 2.8418C213.506 2.84385 216.121 2.92337 216.523 2.93736C214.209 2.90895 207.3 2.81199 211.348 2.91809C210.637 2.8969 208.794 2.89431 208.843 2.89699C209.06 2.91935 212.966 2.96661 212.338 2.97492C211.56 2.98331 210.604 2.94052 209.421 2.92514C206.014 2.88175 205.174 2.90943 203.821 2.9179C202.948 2.92511 201.728 2.922 199.369 2.88495C199.485 2.8901 199.6 2.89525 199.715 2.90039C193.349 2.8126 187.022 2.734 180.661 2.66003C178.183 2.66446 171.544 2.61576 168.313 2.5816C167.642 2.57434 164.458 2.52774 164.206 2.5226C163.758 2.51285 166.227 2.53389 165.112 2.51304C164.871 2.50835 159.442 2.45176 159.827 2.47302C160.439 2.48051 162.342 2.48901 162.651 2.49602C164.855 2.54383 148.078 2.37348 147.256 2.38168C147.628 2.39035 147.999 2.39903 148.37 2.40773C147.313 2.39641 146.252 2.38518 145.195 2.37413ZM193.806 1.43917C194.416 1.42887 196.06 1.4622 196.975 1.46873C198.26 1.47774 200.493 1.43869 199.538 1.49443C197.604 1.47493 195.733 1.45707 193.806 1.43917ZM165.936 1.11554C167.209 1.13709 166.224 1.1657 165.176 1.14005C165.059 1.13717 164.208 1.08651 165.936 1.11554ZM179.336 1.26766C179.284 1.2676 178.187 1.25505 178.147 1.25406C177.164 1.22845 180.469 1.26637 179.336 1.26766ZM114.575 0.778232C115.981 0.783389 114.97 0.743894 114.085 0.753928C114.029 0.754567 114.481 0.777862 114.575 0.778232ZM115.575 0.783993C116.663 0.820209 118.873 0.768974 117.118 0.766257C116.947 0.765992 115.524 0.78221 115.575 0.783993ZM170.493 1.17458C170.351 1.18502 169.035 1.16643 168.468 1.15814C168.484 1.14746 169.945 1.17049 170.493 1.17458ZM137.045 0.894106C136.989 0.902824 141.573 0.935736 141.886 0.92604C141.162 0.925601 137.098 0.885941 137.045 0.894106ZM125.284 0.830064C125.4 0.832335 126.985 0.839527 126.939 0.831047C126.164 0.815457 124.761 0.819641 125.284 0.830064ZM101.915 0.72195C101.831 0.723846 103.016 0.779378 100.196 0.737047C99.7831 0.730872 101.259 0.721233 101.113 0.718978C100.804 0.714439 100.561 0.712063 100.366 0.711228C101.68 0.710419 103.045 0.712713 103.171 0.716296C103.783 0.733218 101.963 0.721167 101.915 0.72195ZM89.6372 0.738716C89.3615 0.747024 87.6422 0.742118 87.2601 0.738769C87.1914 0.738129 87.4906 0.715594 86.7119 0.717467C86.0801 0.719089 87.0211 0.741648 85.7952 0.738555C84.5635 0.735645 86.2088 0.718213 86.1028 0.717154C85.9525 0.715554 84.0601 0.727416 84.1228 0.714104C84.1611 0.704022 86.1904 0.709112 86.7082 0.707031C87.3577 0.704176 86.5771 0.687796 87.6403 0.691215C88.3096 0.693428 87.9388 0.722439 88.0801 0.723908C88.1924 0.724922 90.5694 0.709241 89.6335 0.738623C89.6348 0.738654 89.636 0.738685 89.6372 0.738716ZM100.012 0.711561C100.111 0.710842 100.226 0.710629 100.366 0.711228C100.247 0.7113 100.129 0.71144 100.012 0.711561ZM190.113 1.40813C189.452 1.39149 191.413 1.40285 192.175 1.42367C192.19 1.43326 190.204 1.41053 190.113 1.40813ZM98.8046 0.732114C96.8609 0.720349 98.2962 0.713408 100.012 0.711561C99.4648 0.715587 99.4522 0.736134 98.8046 0.732114ZM154.016 1.04589C153.935 1.04303 153.883 1.03921 153.876 1.03362C154.091 1.04151 154.11 1.04493 154.016 1.04589ZM149.48 0.998204C147.927 1.00243 151.083 1.02749 151.066 1.01535C151.057 1.01069 149.541 0.998001 149.48 0.998204ZM112.761 0.768113C112.904 0.770444 110.691 0.811235 113.905 0.787781C112.187 0.773782 113.999 0.776641 113.973 0.772078C113.898 0.75878 111.027 0.758077 110.393 0.749997C109.899 0.770806 112.289 0.760411 112.758 0.768097C112.759 0.768102 112.76 0.768108 112.761 0.768113ZM67.5092 0.830497C67.8876 0.811182 69.1806 0.797661 69.9787 0.789436C69.6095 0.807001 68.3429 0.818607 67.5092 0.830497ZM144.117 26.6666C138.404 26.8223 137.655 26.7826 142.891 26.6772C142.996 26.6751 144.463 26.6522 144.117 26.6666ZM95.0334 27.1983C94.4946 27.1665 96.2785 27.1894 97.4501 27.211C97.711 27.2161 98.6997 27.2499 97.575 27.2435C97.6171 27.2154 95.8776 27.1847 95.0334 27.1983ZM97.7043 0.744839C97.1301 0.759413 95.3854 0.744611 94.4824 0.74087C95.0322 0.728547 96.881 0.737926 97.7043 0.744839ZM125.33 27.0337C124.721 27.0419 124.316 27.0691 124.42 27.0692C124.886 27.0697 126.02 27.0341 125.33 27.0337ZM103.329 0.76267C103.413 0.77236 101.101 0.774487 100.937 0.750617C101.436 0.753637 103.276 0.756469 103.329 0.76267ZM69.1019 0.815628C69.4655 0.815526 67.576 0.849233 67.025 0.853701C67.0646 0.842456 68.8554 0.815062 69.1019 0.815628ZM115.625 27.1764C115.069 27.1811 113.748 27.1945 113.583 27.2044C113.408 27.2169 115.366 27.1927 115.625 27.1764ZM215.917 21.9316C215.977 21.9284 213.923 22.247 212.992 22.3607C211.244 22.5812 215.843 21.9498 215.917 21.9316ZM131.031 26.9212C132.742 26.9078 130.842 26.9256 130.918 26.9448C132.072 26.9239 134.913 26.8666 132.954 26.8861C132.572 26.8899 131.569 26.9123 131.031 26.9212ZM129.464 26.9438C129.279 26.954 128.05 26.9976 129.113 26.9767C129.608 26.9669 130.396 26.9286 129.464 26.9438ZM203.052 23.4974C201.529 23.6425 208.496 22.914 208.695 22.8764C208.801 22.8656 208.87 22.8591 208.91 22.8558C209.156 22.8216 210.483 22.6596 210.628 22.6558C210.245 22.7026 209.154 22.8353 209.037 22.8471C208.983 22.8528 208.943 22.8568 208.916 22.8594C208.449 22.9376 203.342 23.4804 203.052 23.4974ZM191.494 24.4922C193.233 24.3328 193.545 24.3518 193.395 24.3657C191.5 24.5331 192.734 24.4023 192.677 24.4053C192.54 24.4137 191.199 24.5317 191.499 24.4918C191.497 24.4919 191.496 24.4921 191.494 24.4922ZM200.68 23.7228C200.758 23.7154 202.212 23.5754 202.272 23.5695C203.473 23.4683 199.337 23.8659 200.68 23.7228ZM80.3934 0.778892C79.3601 0.776884 80.3717 0.757241 81.062 0.761911C81.1197 0.762415 81.3053 0.780843 80.3934 0.778892ZM128.623 26.9637C128.388 26.9671 122.164 27.057 122.529 27.0751C123.062 27.0672 130.132 26.9587 128.623 26.9637ZM82.1236 26.9543C83.21 26.9669 82.0329 26.9773 81.4362 26.9625C81.2156 26.9569 81.8517 26.9512 82.1236 26.9543ZM106.449 0.795408C107.58 0.786333 107.346 0.830056 106.365 0.811121C106.326 0.810378 106.405 0.795767 106.449 0.795408ZM90.8779 27.108C87.0978 27.0523 87.9912 26.9936 92.9095 27.1084C92.7559 27.1091 92.6024 27.1099 92.4478 27.1106C98.1246 27.2139 92.8352 27.1256 91.4457 27.1023C90.9174 27.0942 91.3601 27.1152 90.8815 27.1082C90.8803 27.1081 90.8791 27.1081 90.8779 27.108ZM76.3526 26.9119C74.6853 26.8809 75.2223 26.8768 76.496 26.8814C78.0076 26.8858 80.5802 26.9135 81.6622 26.9219C79.723 26.9244 77.2053 26.905 80.6363 26.9541C75.6295 26.9216 77.7198 26.9184 77.5157 26.9137C77.3269 26.9111 76.7828 26.9133 76.4959 26.9128C76.4318 26.9127 76.3816 26.9124 76.3526 26.9119ZM85.961 27.0046C86.1659 27.006 87.7589 27.0441 88.3255 27.0528C87.5263 27.0559 84.5606 26.9931 85.961 27.0046ZM179.362 25.2908C179.456 25.275 179.653 25.2559 180.219 25.2222C180.443 25.2089 180.722 25.1934 181.071 25.1748C180.869 25.1903 180.553 25.2119 180.22 25.234C179.922 25.2538 179.612 25.2741 179.362 25.2908ZM195.013 1.53057C195.894 1.54232 197.585 1.56896 197.065 1.54714C197.015 1.54514 195.022 1.52201 195.013 1.53057ZM110.55 27.1939C110.355 27.1965 105.615 27.22 107.254 27.2277C107.633 27.2304 110.018 27.2156 110.708 27.2026C110.909 27.1989 110.946 27.1959 110.708 27.1945C110.664 27.1943 110.612 27.1941 110.55 27.1939ZM135.122 26.8261C134.728 26.8345 133.112 26.8705 133.078 26.8745C132.969 26.8889 134.951 26.8414 135.122 26.8261ZM199.372 1.60008C199.482 1.60286 202.113 1.63458 201.83 1.62388C201.25 1.6027 198.993 1.58994 199.372 1.60008ZM76.5788 0.825166C76.3537 0.826627 76.0576 0.812162 75.9804 0.812362C75.7748 0.811023 71.7977 0.845998 73.315 0.814466C73.4472 0.811602 75.0877 0.800289 76.7943 0.795816C78.2478 0.791767 79.7795 0.790041 80.1357 0.79014C80.4394 0.810912 77.9139 0.797246 77.3369 0.802001C77.2466 0.802708 77.1833 0.816629 76.7944 0.822788C76.7316 0.823747 76.6608 0.82453 76.5807 0.825066C76.5801 0.825099 76.5795 0.825132 76.5788 0.825166ZM185.881 24.8841C186.058 24.8635 190.784 24.5242 190.737 24.5398C189.119 24.6616 187.502 24.7761 185.881 24.8841ZM183.477 25.034C182.468 25.0861 184.827 24.9384 185.53 24.8959C185.539 24.9053 183.62 25.0274 183.477 25.034ZM126.13 26.9456C125.654 26.9571 127.118 26.9524 126.791 26.9619C126.577 26.9681 125.526 26.9782 125.18 26.9901C125.087 26.9937 126.166 26.9948 126.481 26.9885C126.927 26.9798 126.493 26.9723 126.982 26.9638C128.599 26.9355 130.029 26.9198 131.548 26.89C131.685 26.8872 130.618 26.8975 131.792 26.8748C131.972 26.8712 133.051 26.8659 134.451 26.8343C137.532 26.7206 139.8 26.7178 143.709 26.6011C143.562 26.6008 140.638 26.6609 140.463 26.6641C137.191 26.7361 131.329 26.8573 127.908 26.9159C127.034 26.9313 127.456 26.9341 127.077 26.9411C126.777 26.9465 127.13 26.9215 126.13 26.9456ZM194.547 1.53542C194.969 1.55954 196.424 1.56536 197.323 1.57766C197.009 1.55652 195.47 1.55081 194.547 1.53542ZM162.202 26.0339C161.742 26.0519 160.31 26.0981 160.192 26.1079C160.04 26.1211 162.106 26.0508 162.202 26.0339ZM53.8266 1.25511C53.7914 1.25664 52.6695 1.3001 52.6251 1.30167C51.6295 1.32595 54.9647 1.19723 53.8266 1.25511ZM27.3036 3.49213C26.4538 3.62877 25.6258 3.77884 25.339 3.8142C25.8801 3.71762 27.39 3.46577 27.3036 3.49213ZM2.80742 22.8604C2.6652 22.798 4.45405 23.8739 5.2123 24.1381C5.31174 24.1804 5.39778 24.2127 5.45608 24.234C5.42636 24.2247 5.33331 24.1932 5.21021 24.1431C4.55704 23.9198 2.87853 22.9902 2.80742 22.8604ZM179.177 25.2374C179.696 25.2094 180.001 25.1891 180.217 25.1731C180.652 25.1408 180.728 25.1262 181.382 25.0976C181.54 25.0905 182.07 25.1248 180.356 25.1985C180.128 25.2083 180.724 25.1656 180.217 25.1867C180.039 25.194 179.723 25.2094 179.177 25.2374ZM93.711 27.1225C94.1046 27.1157 95.3377 27.1388 96.1715 27.1503C95.9796 27.1583 94.3059 27.1318 93.711 27.1225ZM204.118 1.67819C204.878 1.70712 208.203 1.74045 207.382 1.71632C207.229 1.71232 204.627 1.68566 204.118 1.67819ZM93.7617 0.79856C92.3704 0.811466 95.2485 0.820074 96.1405 0.807509C95.7291 0.807568 93.8677 0.797648 93.7617 0.79856ZM1.85711 14.2396C1.82944 14.2722 1.40563 14.8098 1.14034 15.2045C0.984346 15.4321 0.891109 15.6252 0.878941 15.6479C0.649112 16.1637 0.777617 15.7338 1.1314 15.1984C1.59864 14.4978 2.38251 13.5917 1.85711 14.2396ZM35.9978 2.42036C35.4962 2.47358 32.0085 2.84923 31.2364 2.9463C31.9759 2.81484 36.6583 2.32981 35.9978 2.42036ZM172.802 25.5687C173.897 25.5168 174.962 25.4687 175.968 25.4232C175.761 25.4451 172.914 25.5722 172.802 25.5687ZM0.734559 19.762C0.758196 19.8432 0.780976 19.921 0.805748 19.998C0.780201 19.9176 0.756767 19.8396 0.734559 19.762ZM148.055 26.4621C147.127 26.4839 147.32 26.4973 147.378 26.4963C148.077 26.4832 149.102 26.4372 148.055 26.4621ZM195.619 1.57654C195.957 1.59771 197.455 1.60307 198.391 1.61905C198.108 1.60196 196.351 1.5837 195.619 1.57654ZM72.4473 26.861C71.4322 26.8402 74.9199 26.8376 76.4961 26.8465C76.722 26.8479 76.905 26.8496 77.0293 26.8516C77.0455 26.8542 76.8386 26.8562 76.4961 26.8579C75.3025 26.8643 72.5921 26.8638 72.4473 26.861ZM98.0584 0.832161C98.1599 0.845649 100.127 0.834473 99.7096 0.827136C99.4399 0.822372 98.0125 0.823725 98.0584 0.832161ZM79.4077 26.873C79.8536 26.872 80.888 26.8942 80.5227 26.8991C80.0462 26.9051 79.2969 26.8733 79.4077 26.873ZM119.336 27.0367C119.13 27.0379 116.525 27.0844 117.607 27.0844C118.347 27.0846 118.47 27.0636 118.646 27.0613C118.86 27.0592 123.038 27.0245 119.336 27.0367ZM45.9096 26.6054C46.9211 26.6159 48.0761 26.6386 49.1267 26.6524C48.6911 26.6552 46.3486 26.6236 45.9096 26.6054ZM90.3873 0.824109C90.6041 0.828598 97.1774 0.841311 93.4411 0.819261C93.2091 0.817641 89.6724 0.807067 90.3873 0.824109ZM179.177 25.2374C178.981 25.2479 178.756 25.2596 178.492 25.2724C178.754 25.2589 178.98 25.2475 179.177 25.2374ZM161.578 26.0239C161.934 26.0012 160.136 26.0642 159.606 26.0878C159.441 26.1058 161.53 26.0274 161.578 26.0239ZM49.2061 26.6399C49.817 26.6426 50.8705 26.6621 51.6156 26.6705C51.4818 26.6782 49.4809 26.6531 49.2061 26.6399ZM7.376 24.6736C8.56975 24.9041 10.0035 25.0641 10.0399 25.0585C10.065 25.0632 10.1236 25.0721 10.2226 25.0855C10.3082 25.0998 11.6094 25.2355 12.1281 25.2853C13.7798 25.4367 10.5867 25.2069 8.16892 24.819C6.9553 24.6351 5.87691 24.3421 5.76007 24.2904C5.60106 24.2232 6.39906 24.5475 8.68681 24.8682C8.26368 24.8137 7.79682 24.7455 7.376 24.6736ZM40.6936 2.03523C41.374 1.99415 43.2355 1.84691 42.7522 1.87565C42.4011 1.89347 40.0255 2.07213 40.6936 2.03523ZM15.1647 6.1889C15.3588 6.13937 17.1341 5.66696 17.1784 5.65014C16.151 5.90472 14.2805 6.41043 15.1647 6.1889ZM45.8539 1.70127C46.2651 1.6789 46.8003 1.62702 46.7511 1.62887C46.3192 1.64473 45.1632 1.73026 45.8539 1.70127ZM175.961 25.3479C175.342 25.3736 173.334 25.4866 172.907 25.5204C172.826 25.5214 172.609 25.5281 172.208 25.5423C172.209 25.5422 172.211 25.5422 172.212 25.5421C171.67 25.5848 155.53 26.2069 166.358 25.8113C166.697 25.7982 166.229 25.805 167.614 25.7498C167.705 25.7462 167.751 25.7548 168.032 25.7435C168.676 25.719 172.13 25.5725 172.824 25.5298C172.83 25.5315 172.875 25.5313 172.97 25.5285C173.817 25.505 176.447 25.3287 175.961 25.3479ZM11.6458 7.32473C11.9915 7.18404 13.1179 6.78358 13.2318 6.74267C12.6627 6.90349 10.8281 7.63949 11.6458 7.32473ZM90.5933 0.862246C91.3295 0.870261 93.2378 0.858268 92.6615 0.850033C92.3028 0.844743 89.7291 0.852828 90.5933 0.862246ZM23.0379 4.31181C18.7952 5.19649 22.0287 4.52275 21.3832 4.67296C21.924 4.54997 22.4956 4.4254 23.0379 4.31181ZM195.903 24.0656C195.208 24.1208 196.027 24.0258 196.78 23.9753C197.016 23.9596 196.292 24.0346 195.903 24.0656ZM226.739 19.9291C226.154 20.045 228.972 19.3925 227.883 19.6698C227.835 19.6846 226.778 19.9236 226.739 19.9291ZM205.225 23.1593C204.768 23.2241 204.458 23.2605 203.153 23.3897C205.086 23.1859 203.299 23.358 205.225 23.1593ZM10.027 25.0552C10.0347 25.0567 10.0412 25.058 10.0399 25.0585C10.0312 25.0568 10.0275 25.0558 10.027 25.0552ZM49.9016 1.4818C50.4685 1.4677 51.9445 1.40202 51.5028 1.40764C51.4609 1.4077 50.1348 1.45994 49.9016 1.4818ZM172.907 25.5204C172.979 25.5195 172.943 25.5228 172.824 25.5298C172.818 25.5283 172.849 25.5251 172.907 25.5204ZM41.7787 1.97647C41.8469 1.95888 39.5192 2.13458 39.4419 2.14492C38.138 2.271 40.8362 2.04168 41.7787 1.97647ZM105.82 0.911133C105.939 0.910493 105.168 0.881329 104.697 0.890075C104.333 0.89685 105.371 0.913556 105.82 0.911133ZM209.672 22.6468C210.398 22.5596 211.42 22.4309 211.608 22.4194C211.122 22.4804 209.661 22.6581 209.672 22.6468ZM225.631 20.1503C225.41 20.2002 225.136 20.2594 224.797 20.3293C223.838 20.5282 222.526 20.7712 221.599 20.9306C221.585 20.9192 223.554 20.574 224.795 20.322C225.164 20.2483 225.447 20.1895 225.631 20.1503ZM177.939 25.2528C177.883 25.2555 176.053 25.3443 176.303 25.3442C176.674 25.345 178.452 25.2329 177.939 25.2528ZM102.272 0.885354C101.453 0.891824 103.328 0.924937 104.189 0.906668C104.63 0.89721 102.407 0.884162 102.272 0.885354ZM54.625 1.3016C55.6909 1.25484 53.0671 1.33817 52.6594 1.37045C53.1791 1.34992 54.2381 1.31814 54.625 1.3016ZM18.1149 5.4642C21.4399 4.69765 19.6218 5.06621 19.0298 5.21256C18.9462 5.23274 18.0349 5.48254 18.1149 5.4642ZM212.567 1.88027C213.054 1.88248 211.236 1.83419 211.022 1.84403C210.88 1.84993 212.241 1.87849 212.567 1.88027ZM26.5897 26.0965C26.4472 26.0915 26.3064 26.0865 26.1677 26.0815C26.2718 26.0847 26.4089 26.0895 26.5897 26.0965ZM64.4277 1.08524C62.0384 1.0776 62.3041 1.11758 62.0878 1.12153C61.6274 1.13132 60.5722 1.14171 59.7409 1.16665C60.6909 1.13495 61.6858 1.10453 62.6583 1.07697C61.847 1.08087 55.2675 1.25197 55.0763 1.27768C54.8751 1.29673 56.9893 1.22083 57.0366 1.22153C57.1234 1.22035 57.4493 1.24564 57.6438 1.24107C57.9806 1.22626 63.5451 1.08662 64.4277 1.08524ZM25.0963 3.9537C24.5643 4.04525 24.3926 4.0638 24.1465 4.11349C24.0619 4.13072 24.0494 4.14644 23.7636 4.20497C24.1951 4.12058 24.6618 4.03268 25.0963 3.9537ZM68.7256 0.965932C69.4065 0.972417 66.3456 1.00989 66.2656 1.01094C65.749 1.00789 68.1497 0.959044 68.7256 0.965932ZM42.9331 1.90656C43.066 1.89609 45.3583 1.75393 45.36 1.74669C44.7214 1.774 41.6179 1.98481 42.9331 1.90656ZM23.4014 4.27648C22.5924 4.43028 21.0736 4.7462 21.247 4.73022C21.2482 4.72996 21.2494 4.72969 21.2507 4.72942C21.9631 4.5712 22.6809 4.41996 23.4014 4.27648ZM99.4622 0.920162C100.979 0.956337 100.256 0.913658 98.9201 0.899944C98.516 0.913403 99.2139 0.914281 99.4622 0.920162ZM104.324 0.958576C104.752 0.965425 109.104 0.975557 108.44 0.956122C108.201 0.948988 105.712 0.954932 105.586 0.953421C105.41 0.951065 106.213 0.935031 104.871 0.934069C104.949 0.940711 104.179 0.956146 104.324 0.958576ZM100.718 0.944107C102.235 0.972857 102.582 0.928886 101.436 0.925356C100.989 0.923978 100.503 0.939981 100.718 0.944107ZM94.5596 0.92667C95.0945 0.931766 96.5338 0.940608 97.5418 0.927867C96.1871 0.923614 94.8951 0.91998 93.5349 0.916806C93.3778 0.925089 94.0864 0.922133 94.5632 0.926676C94.562 0.926674 94.5608 0.926672 94.5596 0.92667ZM234.208 16.8035C233.726 17.2319 234.055 16.9663 234.455 16.5254C234.857 16.082 235.246 15.4441 235.278 15.3975C235.482 15.097 234.672 16.4226 234.208 16.8035ZM221.915 2.45747C222.259 2.46971 222.49 2.4912 223.205 2.49794C222.491 2.46996 221.718 2.44152 221.002 2.41484C220.427 2.4318 221.565 2.44446 221.915 2.45747ZM224.734 2.62316C224.626 2.62145 225.205 2.67813 223.86 2.61829C222.964 2.57663 227.876 2.67353 228.788 2.72713C227.802 2.70436 225.651 2.6383 224.734 2.62316ZM233.379 3.11937C233.457 3.12106 231.546 3.02431 231.354 3.0185C230.194 2.95599 233.091 3.06741 233.379 3.11937ZM227.393 2.87138C228.293 2.90482 226.319 2.85549 225.753 2.83753C225.682 2.8272 227.283 2.86651 227.393 2.87138ZM222.466 20.0037C221.529 20.1432 220.687 20.3543 222.135 20.0851C222.2 20.0729 222.507 19.9978 222.466 20.0037ZM231.554 3.06504C230.677 3.01908 232.624 3.09449 233.199 3.14231C233.249 3.14921 231.68 3.06853 231.554 3.06504ZM221.795 20.0525C220.543 20.2505 220.998 20.2423 221.152 20.2192C221.8 20.1232 223.98 19.6904 224.431 19.5888C221.155 20.2278 222.38 19.9525 221.795 20.0525ZM216.04 21.0195C214.882 21.1966 217.844 20.7783 218.41 20.6632C217.84 20.7555 216.359 20.972 216.04 21.0195ZM208.969 21.9257C208.346 21.9988 206.468 22.2055 206.163 22.2491C206.847 22.1734 208.71 21.9695 208.969 21.9257ZM207.546 22.0575C206.565 22.1534 206.331 22.2244 207.463 22.0831C207.507 22.0776 207.582 22.0543 207.546 22.0575ZM202.023 22.6285C201.384 22.6737 200.65 22.788 201.693 22.6877C202.001 22.6578 202.09 22.6238 202.023 22.6285ZM220.221 20.2455C219.296 20.3919 218.137 20.6105 220.086 20.2951C219.394 20.4152 218.709 20.5299 218.031 20.6401C220.584 20.2544 220.396 20.2296 221.129 20.1083C222.154 19.932 222.077 19.9792 221.875 20.0271C222.282 19.9436 223.392 19.739 224.629 19.4882C225.886 19.2348 227.275 18.9266 228.281 18.6642C227.292 18.9144 225.946 19.2068 224.624 19.4635C223.588 19.6657 222.579 19.847 221.794 19.9838C221.273 20.0746 220.792 20.1671 220.352 20.2401C219.658 20.3543 220.272 20.2375 220.225 20.2449C220.223 20.2451 220.222 20.2453 220.221 20.2455ZM194.762 23.283C192.85 23.4178 194.07 23.3636 195.136 23.2677C195.181 23.2634 194.809 23.2796 194.762 23.283ZM234.042 3.35013C231.54 3.15809 233.372 3.21274 228.066 3.06918C230.302 3.11141 228.185 3.05373 228.62 3.05667C228.982 3.05873 230.29 3.1099 229.516 3.06717C230.035 3.09394 231.348 3.13997 232.59 3.20831C233.201 3.24228 233.797 3.2825 234.224 3.33126C234.445 3.35639 234.619 3.38417 234.719 3.41158C234.768 3.42294 234.795 3.4454 234.751 3.41482C234.693 3.38367 234.653 3.23332 234.661 3.24088C234.661 3.24279 234.662 3.24521 234.662 3.24813C234.66 3.22103 234.658 3.24345 234.654 3.23788C234.652 3.23753 234.651 3.31083 234.696 3.3771C234.745 3.44466 234.771 3.44788 234.762 3.44873C234.715 3.43408 234.433 3.3896 234.042 3.35013ZM208.947 21.8141C208.314 21.8356 208.072 21.9494 206.828 22.0457C205.187 22.3 211.383 21.5205 212.141 21.4588C205.412 22.3032 216.592 20.9395 211.883 21.4648C215.765 20.9807 213.152 21.2868 213.75 21.1975C214.381 21.1037 216.577 20.7993 216.454 20.7955C216.453 20.7957 216.452 20.7958 216.451 20.796C215.116 20.9945 213.784 21.1802 212.446 21.3568C213.758 21.2271 211.025 21.5743 210.091 21.6502C209.714 21.705 209.318 21.7613 208.947 21.8141ZM216.523 20.8508C216.403 20.8723 213.484 21.2889 213.678 21.2674C214.064 21.2297 218.195 20.6174 216.523 20.8508ZM229.176 18.3964C228.168 18.6877 226.588 19.0383 226.028 19.1726C227.065 18.9551 228.636 18.5735 229.176 18.3964ZM175.314 24.5041C173.972 24.585 178.11 24.3792 176.912 24.4245C176.854 24.4271 175.376 24.5008 175.314 24.5041ZM205.912 22.168C204.543 22.3 205.202 22.2812 206.203 22.158C206.26 22.1508 205.975 22.1619 205.912 22.168ZM232.01 3.22413C231.928 3.22296 228.219 3.08301 227.579 3.07102C227.932 3.0623 232.127 3.20347 232.01 3.22413ZM230.899 17.7941C228.96 18.4704 226.184 19.0856 225.882 19.1542C225.583 19.2168 226.047 19.0976 225.978 19.1116C225.916 19.1245 225.313 19.2544 224.61 19.3949C223.648 19.5888 222.527 19.7945 222.431 19.8125C222.317 19.8343 222.917 19.7533 222.239 19.8854C222.674 19.8016 223.569 19.6359 224.616 19.4253C226.807 19.0076 229.515 18.2912 229.704 18.2086C229.929 18.1253 228.216 18.6668 230.895 17.7953C230.897 17.7949 230.898 17.7945 230.899 17.7941ZM225.12 19.3074C225.518 19.2312 225.167 19.3086 224.615 19.4203C224.091 19.5269 223.391 19.6598 223.111 19.7096C222.192 19.8726 223.752 19.5841 224.613 19.4096C224.896 19.3531 225.095 19.3122 225.12 19.3074ZM219.646 20.2964C219.393 20.3394 217.027 20.7063 216.832 20.7451C217.953 20.5989 220.236 20.2067 219.646 20.2964ZM193.266 23.3147C192.65 23.366 190.948 23.4851 190.851 23.5031C191.467 23.4564 193.174 23.334 193.266 23.3147ZM219.431 2.98214C220.466 3.01115 218.043 2.96919 217.378 2.9533C217.334 2.94473 219.347 2.97943 219.431 2.98214ZM205.67 22.0856C205.309 22.1393 197.85 22.8795 196.804 22.9574C197.829 22.8949 205.221 22.1715 205.551 22.114C205.65 22.1021 205.716 22.0811 205.67 22.0856ZM221.697 19.8678C222.361 19.7333 222.815 19.6687 222.895 19.6542C223.36 19.5699 224.107 19.4258 224.597 19.3295C225.003 19.2499 225.239 19.204 225.076 19.2447C224.935 19.273 224.774 19.3052 224.599 19.34C223.031 19.6578 220.479 20.1108 221.697 19.8678ZM192.731 23.2812C190.183 23.4855 195.066 23.1215 194.427 23.1522C194.382 23.1553 192.994 23.2606 192.731 23.2812ZM206.496 21.9899C207.055 21.9358 214.494 21.0259 215.676 20.8264C214.617 21.0035 213.749 21.1055 212.32 21.294C211.93 21.345 212.035 21.3417 211.993 21.3472C211.322 21.434 211.823 21.3576 211.412 21.41C211.145 21.4563 205.725 22.1026 206.496 21.9899ZM222.078 19.7881C222.275 19.7483 223.43 19.5371 224.592 19.3022C225.868 19.0478 227.144 18.7525 227.232 18.7317C228.032 18.5513 226.287 18.9829 224.594 19.3147C223.396 19.555 222.226 19.7629 222.078 19.7881ZM205.816 22.0426C206.608 21.932 210.315 21.5174 207.779 21.8274C207.547 21.8558 206.507 21.9612 205.816 22.0426ZM192.999 23.2326C192.872 23.2434 190.234 23.4375 190.178 23.4491C190.573 23.4275 194.416 23.1314 192.999 23.2326ZM194.367 23.0921C194.302 23.0974 194.928 23.0649 193.681 23.1631C193.577 23.1708 193.394 23.1675 191.826 23.2952C191.514 23.3206 191.025 23.3704 191.061 23.3685C192.69 23.284 197.554 22.8181 194.367 23.0921ZM222.158 19.7573C221.908 19.7937 222.511 19.6607 223.04 19.5744C223.271 19.5365 222.855 19.6314 222.158 19.7573ZM184.607 23.8181C186.149 23.7071 181.31 24.0047 181.071 24.0177C181.225 24.0203 184.452 23.8315 184.607 23.8181ZM217.016 3.05476C217.017 3.05478 217.018 3.0548 217.02 3.05482C215.694 3.02826 216.514 3.03002 216.454 3.02855C213.727 2.9635 214.403 3.00411 213.988 3.00046C213.083 2.99307 213.236 2.96069 211.648 2.95021C214.266 2.97018 211.889 2.94157 211.803 2.92799C211.533 2.87313 215.275 3.00651 216.541 3.01879C216.709 3.02019 215.406 2.98179 215.858 2.98497C217.368 2.99514 221.993 3.15867 217.016 3.05476ZM223.459 19.4933C223.612 19.46 224.061 19.3725 224.585 19.2675C226.044 18.9851 228.162 18.4847 227.309 18.6968C227.207 18.7252 225.722 19.067 224.589 19.2876C223.731 19.4577 223.084 19.5733 223.459 19.4933ZM10.5733 24.0015C11.6317 24.1085 9.17868 23.817 8.68479 23.7386C8.45415 23.7141 10.0774 23.9582 10.5733 24.0015ZM3.59644 14.0734C4.45008 13.1453 5.43006 12.2247 4.27631 13.3065C4.15136 13.4196 3.49024 14.1711 3.59644 14.0734ZM78.305 25.7041C76.9365 25.6777 77.0256 25.7138 78.0207 25.7183C78.3786 25.7202 78.3477 25.705 78.305 25.7041ZM26.3257 24.9646C26.2077 24.9597 24.6042 24.9001 24.6698 24.9103C25.2553 24.9396 27.2002 25.0051 26.3257 24.9646ZM78.7365 25.7017C77.9303 25.7032 79.3249 25.7367 80.3031 25.7203C79.8139 25.718 78.8094 25.7014 78.7365 25.7017ZM203.012 22.2591C202.339 22.3432 200.436 22.5249 199.347 22.6268C199.234 22.6204 202.22 22.3463 203.012 22.2591ZM1.6626 18.4422C1.59812 17.8886 1.61122 18.2048 1.67667 18.6352C1.74092 19.0666 1.90986 19.5996 1.88556 19.4892C1.86061 19.4614 1.65005 18.4866 1.6626 18.4422ZM122.224 25.8378C121.324 25.8626 124.186 25.8342 123.399 25.8265C123.358 25.8264 122.271 25.8365 122.224 25.8378ZM134.669 25.6205C133.99 25.6315 131.088 25.6903 132.216 25.6789C132.386 25.6775 134.623 25.632 134.669 25.6205ZM213.914 3.0128C214.28 3.03798 212.176 2.99951 211.842 2.99113C211.726 2.98783 213.463 2.98013 213.914 3.0128ZM69.45 25.6611C68.7386 25.6598 66.9079 25.6444 66.5909 25.6525C67.4427 25.6559 69.6856 25.6827 69.45 25.6611ZM4.37984 22.4286C3.41919 21.9824 2.40772 20.7757 2.64762 21.0832C3.21931 21.7441 3.24341 21.66 3.24737 21.6793C3.2809 21.6761 3.27839 21.7966 4.37984 22.4286ZM83.2778 25.7219C82.7167 25.7133 82.2737 25.7348 82.341 25.7368C82.9609 25.7555 83.8322 25.7393 83.2778 25.7219ZM40.8653 25.3422C40.8276 25.3306 39.0103 25.2995 39.2545 25.3115C39.3298 25.3157 40.8886 25.352 40.8653 25.3422ZM179.382 24.0517C178.937 24.0706 179.462 24.0367 180.15 23.996C180.758 23.9601 181.485 23.9188 181.829 23.9041C182.069 23.9014 180.968 23.9668 180.151 24.0111C179.747 24.0332 179.417 24.0502 179.382 24.0517ZM98.9391 25.9697C99.022 25.9552 96.1975 25.9353 97.3119 25.9609C97.5853 25.9678 98.9087 25.9754 98.9391 25.9697ZM126.031 25.7432C124.131 25.7972 132.11 25.6691 130.013 25.6816C129.865 25.6834 126.194 25.7396 126.031 25.7432ZM139.055 25.4954C138.729 25.5006 138.887 25.4412 140.245 25.4307C140.423 25.4293 139.59 25.4639 139.736 25.4638C139.823 25.4643 142.768 25.4005 142.906 25.3952C143.052 25.39 142.88 25.3763 143.028 25.3706C143.196 25.3642 145.008 25.3336 145.96 25.308C147.748 25.2601 147.945 25.2388 148.09 25.2349C148.517 25.2228 149.236 25.2132 150.104 25.1879C154.474 25.0636 161.158 24.8222 164.62 24.7148C161.538 24.8226 158.602 24.9403 155.534 25.0444C156.431 24.9852 151.022 25.2113 154.186 25.0757C152.73 25.1418 140.128 25.4879 139.058 25.4953C139.057 25.4953 139.056 25.4954 139.055 25.4954ZM7.40808 10.8583C6.74312 11.265 10.1623 9.18719 10.5025 9.09588C10.0002 9.27639 7.46348 10.7678 7.40808 10.8583ZM6.70888 23.2689C7.04424 23.3365 7.38193 23.4173 9.34798 23.7103C9.34967 23.7105 9.35136 23.7107 9.35305 23.711C9.90163 23.789 9.27352 23.7154 9.37437 23.7319C9.38522 23.7393 11.2073 23.9789 9.70112 23.7978C7.44451 23.4889 9.47607 23.7462 8.30165 23.5694C8.11642 23.569 5.92943 23.1096 6.09839 23.1178C6.11611 23.1236 6.24771 23.1644 6.42358 23.2107C6.59773 23.2572 6.80428 23.3048 6.84702 23.3154C7.24171 23.4108 7.04929 23.3791 7.10492 23.3921C7.26489 23.4825 10.9067 23.9653 11.4233 24.0073C11.6016 24.0628 6.16435 23.4117 5.68896 23.0045C5.65128 22.9886 5.62649 22.9779 5.61561 22.9731C5.48329 22.9146 5.55223 22.909 5.41623 22.8463C5.31197 22.8488 3.28873 21.7763 3.16952 21.5275C3.11095 21.4739 3.06788 21.4313 3.03698 21.4001C3.13784 21.4994 2.90739 21.304 2.6867 21.0188C2.4609 20.7373 2.27364 20.3477 2.22558 20.2143C2.21228 20.1802 2.2065 20.1631 2.21021 20.1689C2.21195 20.1719 2.21875 20.1874 2.22969 20.2126C2.28664 20.4511 2.88636 21.2894 2.94398 21.3016C2.95769 21.3165 2.96963 21.3294 2.98095 21.3414C2.91921 21.2666 3.2583 21.6493 3.84764 22.0217C4.42802 22.4001 5.24045 22.7637 5.70965 22.9553C5.98564 23.0642 6.16853 23.112 5.90144 23.0173C7.20339 23.4001 5.67694 23.0014 6.70888 23.2689ZM13.6919 24.1633C13.5401 24.1543 13.3902 24.1451 13.2421 24.1359C15.8066 24.3474 18.8329 24.5424 21.8273 24.6819C22.5753 24.7164 21.7107 24.6561 22.7004 24.7065C23.5063 24.7471 24.3882 24.8022 23.9571 24.7888C23.8563 24.7862 22.2151 24.7032 21.408 24.6649C19.0031 24.5501 19.6135 24.5948 19.4711 24.589C19.2997 24.5809 17.8198 24.486 16.9754 24.4317C14.8984 24.2937 13.9768 24.2561 11.1441 23.956C12.7792 24.1086 11.884 23.9995 13.6919 24.1633ZM110.889 25.9067C110.977 25.8949 112.698 25.8897 113.311 25.8817C113.215 25.8942 111.498 25.9003 110.889 25.9067ZM136.926 2.28312C137.451 2.2682 133.517 2.23622 134.554 2.25885C134.783 2.26382 136.431 2.27944 136.926 2.28312ZM119.264 2.16143C118.739 2.16372 120.849 2.18843 120.847 2.17414C120.843 2.1695 119.33 2.16109 119.264 2.16143ZM47.3603 25.365C47.4565 25.366 48.9027 25.3904 48.9506 25.3919C49.9005 25.4254 45.1655 25.3459 47.3603 25.365ZM97.7879 2.09997C99.6307 2.09172 94.093 2.07503 95.783 2.09393C95.8638 2.09475 97.696 2.10027 97.7879 2.09997ZM90.1181 2.09218C90.5774 2.09167 92.4922 2.09955 92.5267 2.09403C92.5557 2.08483 90.3632 2.07655 90.1181 2.09218ZM83.6591 25.6569C83.4525 25.6325 86.0232 25.6848 86.9185 25.6985C87.1294 25.7225 84.5511 25.6647 83.6591 25.6569ZM67.4007 25.5395C78.262 25.5785 75.8571 25.6136 66.7567 25.5458C66.744 25.5323 66.7176 25.5364 67.4007 25.5395ZM81.3055 25.617C80.9193 25.6264 79.6839 25.6115 78.847 25.6053C78.9919 25.5965 80.7155 25.613 81.3055 25.617ZM141.607 2.34594C140.926 2.3576 137.914 2.31483 138.449 2.31179C138.575 2.31108 141.856 2.33843 141.607 2.34594ZM48.2659 25.3601C48.0156 25.3369 51.2702 25.3884 51.5195 25.3952C52.5214 25.4261 48.5381 25.3605 48.2659 25.3601ZM99.0465 25.8762C99.6135 25.8653 101.262 25.8831 102.301 25.8851C101.822 25.8983 99.9328 25.8843 99.0465 25.8762ZM91.4721 25.7587C91.5382 25.7594 93.0026 25.7869 93.067 25.7885C94.266 25.8253 90.1255 25.7477 91.4721 25.7587ZM218.809 3.2398C218.751 3.23914 217.65 3.21808 217.615 3.21693C217.122 3.20054 217.71 3.20789 218.254 3.21835C218.84 3.22956 219.386 3.24394 218.809 3.2398Z" fill="#6983D0"/>
</svg>
