<svg width="16" height="22" viewBox="0 0 16 22" fill="none" xmlns="http://www.w3.org/2000/svg">
<path d="M9.70167 15.8493H5.17128M9.70167 15.8493V10.0647M9.70167 15.8493H10.6793M2.49891 15.8493H1.52127C1.09531 15.8493 0.75 15.5039 0.75 15.078V8.13651C0.75 7.71055 1.09531 7.36523 1.52127 7.36523H8.93039C9.35635 7.36523 9.70167 7.71055 9.70167 8.13651V10.0647M9.70167 10.0647H12.7868L15.1006 12.7642V15.8493H13.3517M5.37765 16.6205C5.37765 17.4725 4.68702 18.1631 3.8351 18.1631C2.98317 18.1631 2.29255 17.4725 2.29255 16.6205C2.29255 15.7686 2.98317 15.078 3.8351 15.078C4.68702 15.078 5.37765 15.7686 5.37765 16.6205ZM13.558 16.6205C13.558 17.4725 12.8674 18.1631 12.0155 18.1631C11.1636 18.1631 10.4729 17.4725 10.4729 16.6205C10.4729 15.7686 11.1636 15.078 12.0155 15.078C12.8674 15.078 13.558 15.7686 13.558 16.6205Z" stroke="white" stroke-width="1.2" stroke-linecap="round" stroke-linejoin="round"/>
</svg>
