<svg width="16" height="21" viewBox="0 0 16 21" fill="none" xmlns="http://www.w3.org/2000/svg">
<g clip-path="url(#clip0_683_1332)">
<path d="M14.8634 8.23738L8.72344 6.27738C8.52507 6.21385 8.31181 6.21385 8.11344 6.27738L1.97344 8.23738C1.77108 8.30102 1.59421 8.42735 1.46837 8.59813C1.34254 8.7689 1.27427 8.97526 1.27344 9.18738V17.0474C1.27344 17.4574 1.52344 17.8274 1.90344 17.9774L8.04344 20.4374C8.28344 20.5374 8.54344 20.5374 8.79344 20.4374L14.9334 17.9774C15.1176 17.9017 15.275 17.7728 15.3855 17.6071C15.496 17.4414 15.5544 17.2465 15.5534 17.0474V9.18738C15.5533 8.97651 15.4865 8.77108 15.3625 8.60046C15.2386 8.42983 15.0639 8.30276 14.8634 8.23738ZM8.41344 7.22738L14.4634 9.15738L11.7634 10.0574L5.80344 8.06738L8.43344 7.22738H8.41344ZM7.95344 19.3274L2.27344 17.0474V10.1674L7.95344 12.0674V19.3274ZM8.45344 11.1674L2.41344 9.14738L4.99344 8.32738L10.9834 10.3274L8.45344 11.1674ZM14.5534 17.0574L8.95344 19.2974V12.0574L14.5534 10.1874V17.0574Z" fill="white"/>
</g>
<defs>
<clipPath id="clip0_683_1332">
<rect width="16" height="20" fill="white" transform="translate(0 0.798584)"/>
</clipPath>
</defs>
</svg>
