<svg width="1083" height="26" viewBox="0 0 1083 26" fill="none" xmlns="http://www.w3.org/2000/svg">
<path d="M411.505 2.05884C418.028 1.96262 424.146 2.01478 431.94 2.08179C431.944 2.08173 431.948 2.08168 431.952 2.08162C433.052 2.09139 434.186 2.10188 435.361 2.11186C444.841 2.19211 457.204 2.27085 475.793 2.17233C496.375 2.06323 512.657 2.42269 522.652 2.83744C524.521 2.91477 526.437 2.94638 531.282 2.9379C534.46 2.93237 538.764 2.91016 544.983 2.87913C548.278 2.86278 552.117 2.84359 556.618 2.82342C571.517 2.75625 594.847 2.45349 616.356 2.18277C629.411 2.01815 641.77 1.86505 651.193 1.77885C664.915 1.65342 678.194 1.61331 692.641 1.57323C705.821 1.53712 720.075 1.5002 736.415 1.39959C749.061 1.32138 761.306 1.6084 773.67 1.94425C775.267 1.98676 776.868 2.02992 778.465 2.07347C789.422 2.37444 800.644 2.68439 812.781 2.81141C834.41 3.03822 851.553 2.71447 870.705 2.36218C878.286 2.22382 885.836 2.08397 894.384 1.97017C899.99 1.8943 907.072 1.82452 914.308 1.76565C924.342 1.68441 934.917 1.6201 945.985 1.56129C947.619 1.55265 949.183 1.54407 950.823 1.53574C950.831 1.53568 950.84 1.53563 950.848 1.53558C968.54 1.44497 985.649 1.38069 998.326 1.29632C1018.42 1.16398 1026.04 1.01694 1032.33 0.888744C1034.7 0.841779 1036.91 0.799393 1039.51 0.771486C1048.97 0.696499 1063.15 0.690917 1077.68 1.30764C1077.74 1.30997 1077.79 1.31229 1077.84 1.31462C1080.25 1.42234 1082.16 1.97005 1082.12 2.52082C1082.08 3.07368 1080.11 3.42094 1077.72 3.31403C1070.07 2.9711 1062.64 2.85141 1055.92 2.7839C1055.62 3.25572 1053.71 3.59484 1051.64 3.57419C1046.16 3.51428 1029.8 3.78486 1003.87 4.44832C1005.54 4.53021 1007.18 4.61038 1008.45 4.68756C1009.98 4.77807 1011.12 4.85665 1012.09 4.92408C1014.25 5.06448 1015.67 5.1575 1018.07 5.22479C1023.88 5.2986 1032.75 5.31051 1042.29 5.36736C1044.67 5.38179 1046.6 5.84449 1046.6 6.39716C1046.57 6.9499 1044.63 7.38322 1042.24 7.36917C1042.19 7.36897 1042.15 7.36877 1042.1 7.36856C1032.67 7.31263 1023.49 7.30069 1017.46 7.2226C1015.97 7.20275 1014.65 7.17924 1013.64 7.15772C1012.83 7.14051 1011.83 7.11722 1011.31 7.0858C1011.24 7.08163 1011.11 7.07318 1010.95 7.06017C1010.94 7.05985 1010.94 7.05953 1010.94 7.05921C1010.85 7.05202 1010.39 7.01563 1009.89 6.9354C1009.79 6.91919 1009.57 6.88301 1009.32 6.82434C1009.25 6.81993 1009.19 6.81552 1009.12 6.81111C1008.21 6.74989 1007.26 6.68767 1006.22 6.62764C1002.3 6.39357 995.969 6.10036 982.885 5.83234C970.757 5.58614 950.559 5.56176 925.059 5.74085C926.709 5.77058 928.492 5.79823 930.234 5.82471C934.656 5.89099 938.761 5.95173 943.266 6.00675C944.945 6.02804 946.58 6.04911 948.223 6.06977C950.78 6.10381 953.694 6.13513 956.351 6.16736C958.185 6.18896 959.914 6.21082 961.773 6.23235C961.778 6.23233 961.782 6.2323 961.786 6.23228C964.391 6.26204 966.94 6.29285 969.448 6.32565C970.326 6.33815 971.177 6.35017 972.098 6.3615C975.741 6.40677 978.914 6.45334 983.03 6.55534C983.519 6.57312 984.046 6.59663 984.438 6.61643C984.859 6.63726 985.262 6.65861 985.641 6.68048C985.976 6.69978 986.294 6.71953 986.598 6.73788C986.639 6.74031 986.68 6.74274 986.72 6.74517C987.06 6.7657 987.383 6.78466 987.693 6.80257C988.002 6.82047 988.299 6.83771 988.591 6.85255C988.593 6.85253 988.596 6.85252 988.599 6.85251C988.907 6.86768 989.12 6.87917 989.473 6.8919C989.903 6.90789 990.271 6.92005 990.715 6.93183C991.144 6.94328 991.589 6.95327 992.036 6.9618C992.483 6.97031 992.936 6.97754 993.393 6.98397C993.85 6.99039 994.312 6.99626 994.775 7.00131C995.238 7.00636 995.704 7.01057 996.17 7.01486C996.64 7.01914 997.09 7.02353 997.584 7.02753C998.739 7.03681 999.825 7.14425 1000.62 7.33014C1001.41 7.51605 1001.84 7.76389 1001.84 8.02173C1001.83 8.27963 1001.39 8.52877 1000.59 8.71698C999.794 8.90511 998.703 9.01634 997.548 9.02968C997.234 9.03327 996.953 9.03708 996.651 9.04058C996.474 9.04266 996.295 9.04434 996.117 9.04637C995.636 9.0518 995.147 9.05772 994.652 9.06237C994.158 9.06701 993.656 9.07073 993.145 9.07384C992.633 9.07695 992.11 9.07934 991.576 9.07987C991.044 9.0804 990.497 9.07926 989.936 9.07564C989.379 9.07235 988.788 9.06509 988.263 9.05516C987.877 9.04825 987.399 9.03573 986.998 9.02434C986.58 9.01243 986.167 8.9989 985.766 8.98471C985.365 8.97049 984.975 8.95527 984.601 8.94099C984.561 8.93954 984.521 8.93809 984.481 8.93663C984.15 8.924 983.829 8.91168 983.525 8.90086C983.186 8.88875 982.862 8.8786 982.555 8.87009C982.215 8.8605 982.009 8.85704 981.754 8.85325C978.442 8.83632 974.492 8.86238 970.52 8.8894C970.047 8.89265 969.575 8.89569 969.106 8.89887C966.612 8.91694 964.063 8.937 961.454 8.95794C959.619 8.97281 957.842 8.98772 955.989 9.00266C953.296 9.02451 950.404 9.04688 947.8 9.06673C946.135 9.07921 944.479 9.09111 942.774 9.10288C938.177 9.13474 934.061 9.15983 929.503 9.17957C924.969 9.19916 920.759 9.20841 916.171 9.2065C915.573 9.20621 914.971 9.20566 914.363 9.20483C910.578 9.19784 906.608 9.17856 902.674 9.13879C899.328 9.10423 896.128 9.02416 892.988 8.94052C891.315 8.89533 889.664 8.84921 888.025 8.80303C888.019 8.80275 888.014 8.80246 888.008 8.80218C886.536 8.76192 885.226 8.72094 883.844 8.68314C880.911 8.60142 877.994 8.53123 875.042 8.47627C872.043 8.42167 869.257 8.38014 866.335 8.35491C863.45 8.32987 860.485 8.31929 857.519 8.32262C854.596 8.3254 851.774 8.34057 848.74 8.36737C844.769 8.40351 840.721 8.4566 836.745 8.51271C832.751 8.56941 828.667 8.6327 824.552 8.69692C823.15 8.71909 821.739 8.74066 820.322 8.76318C820.316 8.76323 820.311 8.76328 820.305 8.76333C817.684 8.80499 815.039 8.8471 812.375 8.88876C808.22 8.95344 804.205 9.01585 800.088 9.07465C796.002 9.13306 791.732 9.18904 787.657 9.23338C783.526 9.2777 779.251 9.31472 774.923 9.32347C771.066 9.33216 767.277 9.33109 763.489 9.33053C762.492 9.33038 761.493 9.33026 760.493 9.33018C755.717 9.33072 751.194 9.3384 746.667 9.37612C742.161 9.41283 737.556 9.47905 733.052 9.56746C728.525 9.65591 723.916 9.76704 719.247 9.89248C714.593 10.0181 710.02 10.1553 705.311 10.3028C700.627 10.4497 695.971 10.6038 691.239 10.7653C688.608 10.8548 685.802 10.9412 683.146 11.0176C680.454 11.0948 677.822 11.1659 675.202 11.2338C674.141 11.2614 673.083 11.2881 672.032 11.3151C670.5 11.3544 668.979 11.3931 667.482 11.4326C664.957 11.4994 662.474 11.5685 660.09 11.6442C657.705 11.7198 655.388 11.803 653.147 11.8983C650.828 11.9973 648.915 12.0932 646.625 12.2256C641.035 12.4935 637.605 12.5947 633.766 12.7083C633.011 12.7307 632.239 12.7542 631.435 12.7788C626.835 12.9096 622.226 13.0205 617.699 13.1161C613.122 13.2123 608.612 13.2934 604.042 13.3626C599.52 13.4312 594.967 13.487 590.429 13.5314C585.9 13.5758 581.377 13.6086 576.841 13.6297C572.309 13.6509 567.689 13.6605 563.25 13.6588C560.68 13.6579 557.952 13.6488 555.42 13.6364C553.593 13.6276 551.793 13.6169 550.029 13.6064C549.309 13.6021 548.593 13.5978 547.885 13.5937C545.443 13.5797 543.062 13.5682 540.76 13.5653C538.459 13.5624 536.234 13.5677 534.06 13.5862C531.881 13.6045 529.752 13.6361 527.624 13.6815C525.423 13.7292 523.577 13.7797 521.226 13.8598C519.695 13.9125 518.195 13.9651 516.702 14.0177C514.466 14.0965 512.249 14.1762 510.019 14.2581C507.791 14.34 505.598 14.4227 503.369 14.5084C502.654 14.536 501.9 14.5651 501.184 14.5933C498.972 14.6803 496.788 14.7689 494.61 14.861C492.437 14.953 490.287 15.0476 488.149 15.1465C486.007 15.2456 483.86 15.348 481.698 15.4568C478.015 15.6424 474.501 15.7517 471.433 15.8343C468.342 15.9167 465.4 15.9784 462.559 16.038C462.026 16.0492 461.494 16.0603 460.962 16.0715C458.671 16.1191 456.424 16.1652 454.216 16.2145C451.495 16.2751 448.834 16.3399 446.119 16.4113C443.439 16.4818 440.742 16.5587 438.096 16.6423C435.419 16.7269 432.896 16.8135 430.131 16.9157C427.382 17.0163 424.6 17.137 421.566 17.2687C418.554 17.3994 415.434 17.5343 412.239 17.659C409.015 17.7844 405.758 17.8995 402.543 17.9996C399.304 18.1002 396.165 18.1864 392.904 18.2621C389.667 18.3378 386.469 18.401 383.307 18.4548C380.158 18.5085 376.91 18.5545 373.806 18.5906C368.794 18.6488 363.96 18.699 358.975 18.75C354.137 18.7994 349.343 18.8463 344.622 18.8917C344.487 18.893 344.351 18.8944 344.216 18.8957C339.227 18.9444 334.304 18.9919 329.461 19.038C324.513 19.0857 319.551 19.1339 314.714 19.181C313.649 19.1913 312.557 19.2021 311.455 19.2132C307.587 19.2519 303.766 19.2905 300.006 19.3295C299.98 19.3296 299.955 19.3298 299.929 19.3299C295.051 19.3811 290.147 19.4349 285.366 19.4923C283.63 19.5132 281.858 19.5356 280.111 19.5591C278.355 19.5828 276.642 19.6073 274.922 19.6336C273.201 19.66 271.5 19.6881 269.834 19.7181C268.109 19.7493 266.417 19.7823 264.73 19.8195C263.181 19.8534 261.651 19.8916 259.99 19.9328C259.838 19.9366 259.686 19.9404 259.535 19.9442C257.717 19.9893 255.677 20.0346 253.7 20.0662C248.493 20.1479 243.675 20.2321 238.481 20.3334C233.378 20.4329 228.35 20.5406 223.196 20.6562C221.198 20.701 219.218 20.7468 217.224 20.7925C214.055 20.8651 210.911 20.9379 207.793 21.0092C202.646 21.1268 197.413 21.2425 192.222 21.3484C186.958 21.4558 181.822 21.551 176.556 21.6381C171.414 21.7226 166.052 21.8015 160.947 21.8651C155.107 21.9392 149.442 22.0056 143.638 22.0753C137.932 22.1425 132.144 22.2113 126.386 22.2806C120.65 22.3491 114.874 22.4197 109.155 22.4899C103.391 22.5611 97.6345 22.6334 91.9245 22.7054C88.4434 22.7503 85.0554 22.7927 81.5943 22.8376C79.7661 22.9361 78.0233 23.0315 76.3546 23.1226C63.9671 23.7981 55.0014 24.2946 43.1809 24.8085C42.0488 24.8667 41.1424 24.9285 40.0134 25.0041C39.7989 25.0186 39.5714 25.0334 39.3396 25.0488C37.8714 25.1468 36.1878 25.2538 33.8539 25.3599C29.1808 25.5723 22.0238 25.7746 12.7574 25.5913C10.4161 25.545 8.91456 25.0576 9.40113 24.5023C9.74335 24.1128 10.975 23.7934 12.4873 23.6533C9.68682 23.675 6.89497 23.6935 4.1075 23.7125C2.99529 23.7199 1.94829 23.6278 1.20092 23.4531C0.453991 23.2783 0.0671065 23.0362 0.123179 22.7769C0.179273 22.5176 0.676132 22.2607 1.50485 22.0593C2.33329 21.8581 3.42445 21.7293 4.54113 21.6991C7.50542 21.6194 10.4531 21.5404 13.4071 21.4579C16.3692 21.3753 19.2975 21.2905 22.2525 21.2027C25.2131 21.1148 28.1386 21.0254 31.1066 20.9332C34.0579 20.8413 36.9903 20.749 39.9614 20.654C42.9331 20.5591 45.8405 20.4644 48.8252 20.3675C50.5941 20.3099 52.387 20.2519 54.1559 20.194C54.8151 20.1726 55.4593 20.1509 56.1047 20.1297C56.6305 20.1125 57.1691 20.0952 57.705 20.0778C63.401 19.891 69.1672 19.7021 74.9103 19.5146C80.6335 19.3278 86.3614 19.1422 92.1412 18.9567C97.8427 18.7734 103.591 18.59 109.354 18.4088C115.062 18.2291 120.829 18.0498 126.56 17.8732C132.294 17.6964 138.091 17.5205 143.761 17.3481C148.213 17.2131 152.586 17.0799 157.002 16.9454C158.74 16.8527 160.494 16.7628 162.153 16.6772C167.036 16.4266 172.042 16.1326 176.86 15.8465C168.265 16.1281 161.298 16.4282 154.634 16.7182C153.748 16.7569 152.87 16.7956 151.998 16.8337C142.992 17.226 134.394 17.5862 122.696 17.8528C89.5664 18.6129 70.2824 19.1173 58.3237 19.3357C46.3299 19.5594 41.2015 19.5246 36.3668 19.2909C29.5658 18.9597 16.4606 19.0556 9.87094 19.247C7.48306 19.3163 5.53441 18.9241 5.52915 18.3712C5.52285 17.8181 7.46224 17.313 9.85066 17.2437C16.8061 17.0416 30.9986 16.9175 39.0902 17.3124C42.6989 17.4884 46.8337 17.5455 58.6429 17.3254C70.421 17.1106 89.5317 16.61 122.727 15.8483C134.015 15.5911 142.27 15.246 151.198 14.8571C152.06 14.8193 152.931 14.7806 153.813 14.742C153.818 14.7418 153.824 14.7417 153.829 14.7416C162.074 14.3833 170.81 14.0028 182.864 13.6574C210.499 12.8572 247.549 11.7959 256.425 11.4375C258.13 11.3671 259.788 11.2929 261.547 11.2149C268.339 10.9159 276.569 10.5522 294.927 10.0969C299.072 9.99541 303.6 9.90103 308.819 9.80612C316.611 9.40709 324.029 9.03691 330.589 8.78401C335.415 8.59608 339.982 8.33242 344.454 8.04564C345.118 8.00202 345.781 7.95785 346.442 7.91333C347.873 7.81686 349.32 7.71686 350.77 7.61723C354.265 7.37701 357.812 7.13661 361.262 6.94044C363.955 6.78493 366.793 6.60433 369.814 6.41344C380.924 5.71661 393.959 4.88953 411.204 4.64147C429.346 4.38068 445.065 4.2866 458.444 4.22412C448.621 4.22243 440.902 4.16957 434.594 4.11558C433.402 4.10544 432.261 4.09538 431.164 4.08568C423.289 4.01893 417.657 3.9704 411.587 4.0599C382.544 4.49027 371.546 4.82729 359.347 5.5003C356.074 5.6788 352.491 5.90531 348.673 6.14919C347.288 6.23769 345.872 6.32848 344.428 6.42015C337.66 6.83747 330.644 7.26749 322.747 7.59318C313.988 7.96011 304.126 8.456 293.698 8.98694C293.693 8.98701 293.689 8.98708 293.685 8.98715C291.636 9.0911 289.575 9.1962 287.511 9.30172C274.806 9.9472 261.558 10.6137 248.528 11.1294C247.142 11.1845 245.489 11.2556 243.605 11.3374C232.508 11.8143 213.293 12.652 189.592 12.87C184.412 12.9174 178.983 12.899 172.863 12.8792C171.029 12.8725 169.027 12.8674 166.994 12.8638C158.301 12.8465 147.528 12.8681 133.364 13.0828C121.65 13.2606 107.374 13.5767 92.5756 13.9261C85.2368 14.0994 77.8493 14.2777 70.5034 14.4519C48.3785 14.9762 28.1039 15.4191 7.8608 15.8647C7.85668 15.8648 7.85255 15.8649 7.84842 15.8651C5.45535 15.9178 3.56882 15.51 3.63575 14.955C3.70358 14.4004 5.69655 13.9076 8.08794 13.8547C28.3449 13.4089 48.5581 12.9684 70.6112 12.446C77.845 12.2745 85.1766 12.0974 92.4879 11.9248C107.359 11.5737 121.837 11.253 133.66 11.0738C148.072 10.8555 159.019 10.8347 167.856 10.8522C170.022 10.8556 172.036 10.8617 173.927 10.8682C180.011 10.8874 185.068 10.9068 190 10.8615C212.951 10.6511 231.437 9.84485 242.59 9.36616C244.522 9.28222 246.232 9.20883 247.696 9.15066C260.501 8.64404 273.489 7.98852 286.22 7.34237C288.255 7.23808 290.292 7.13414 292.328 7.03061C292.332 7.03022 292.336 7.02982 292.34 7.02942C302.803 6.49742 312.835 5.99268 321.733 5.61903C330.233 5.26757 337.346 4.81456 344.397 4.3732C345.005 4.33402 345.611 4.29498 346.214 4.25615C350.149 4.00281 353.982 3.75962 357.803 3.55068C370.789 2.8354 382.357 2.49075 411.505 2.05884ZM16.8201 23.6171C22.5753 23.6918 27.2631 23.602 30.7576 23.4792C27.7819 23.5124 24.844 23.5421 21.8702 23.571C20.1828 23.5874 18.5002 23.6027 16.8201 23.6171ZM309.564 11.7951C308.624 11.8432 307.68 11.8919 306.735 11.9408C309.328 11.8818 312.028 11.8225 314.576 11.766C317.726 11.6963 320.907 11.6275 324.118 11.559C318.976 11.6353 314.265 11.7105 309.564 11.7951ZM411.273 6.64369C395.014 6.87761 382.997 7.63549 372.027 8.32435C368.872 8.52272 365.835 8.71472 362.851 8.88661C361.618 8.95782 360.373 9.03483 359.093 9.11598C366.409 9.037 373.14 8.97067 378.71 8.91684C395.131 8.75965 404.498 8.80025 412.816 8.83446C415.181 8.84505 417.459 8.8551 419.793 8.86031C421.722 8.76659 423.732 8.67245 425.769 8.58618C428.622 8.4646 431.72 8.3433 434.613 8.23691C437.533 8.12973 440.512 8.02914 443.449 7.93892C446.406 7.84797 449.373 7.76567 452.253 7.69049C454.981 7.61937 457.708 7.5539 460.354 7.49058C460.506 7.48697 460.657 7.48337 460.809 7.47976C463.603 7.41267 466.35 7.3477 468.84 7.27498C471.368 7.20066 473.475 7.12447 475.347 7.02622C477.685 6.90379 480.089 6.78433 482.472 6.67159C484.856 6.55864 487.241 6.45156 489.585 6.35005C491.942 6.24823 494.281 6.15152 496.63 6.05839C497.389 6.02827 498.184 5.99714 498.938 5.968C499.286 5.95457 499.633 5.94091 499.98 5.92766C495.372 5.97823 490.623 6.0271 485.693 6.07303C478.511 6.14015 471.004 6.17081 462.551 6.20889C448.281 6.27211 431.598 6.35166 411.273 6.64369ZM569.656 4.91037C567.657 4.93882 564.74 4.98842 560.958 5.05293C560.065 5.06817 559.123 5.08489 558.136 5.10168C558.159 5.10189 558.183 5.10162 558.206 5.10183C560.652 5.12412 562.918 5.14207 565.351 5.15488C569.69 5.17732 573.91 5.19104 578.173 5.19558C582.453 5.20002 586.72 5.19519 590.991 5.18149C595.268 5.16774 599.557 5.14431 603.809 5.11153C608.106 5.07817 612.339 5.03662 616.61 4.98195C617.97 4.96456 619.334 4.9458 620.697 4.92582C617.653 4.90915 614.49 4.90278 611.147 4.89638C608.477 4.89127 605.691 4.88593 602.761 4.87526C601.641 4.87116 600.285 4.86083 598.703 4.8488C592.435 4.80112 582.591 4.72632 569.656 4.91037ZM654.783 4.00215C655.773 3.97824 656.757 3.9557 657.73 3.93539C660.493 3.87766 663.205 3.83263 665.862 3.79198C667.727 3.76351 669.569 3.73778 671.382 3.71197C672.147 3.70107 672.911 3.68993 673.667 3.67904C674.934 3.66081 676.191 3.64177 677.437 3.62273C668.696 3.65432 660.084 3.69972 651.174 3.78118C651.056 3.78226 650.937 3.78391 650.818 3.78501C652.172 3.85884 653.493 3.93127 654.783 4.00215Z" fill="#343434"/>
</svg>
