<svg width="556" height="99" viewBox="0 0 556 99" fill="none" xmlns="http://www.w3.org/2000/svg">
<path d="M539.371 57.726V48.7063V39.6866H543.709L544.071 50.871L548.047 45.3149C551.373 40.6968 552.385 39.6866 556 39.6866V57.726H551.662V52.0977C551.735 47.624 551.518 46.6859 550.795 47.4075C550.289 47.8404 548.409 50.3659 546.601 52.9636C543.926 56.8601 542.986 57.726 539.371 57.726Z" fill="white"/>
<path fill-rule="evenodd" clip-rule="evenodd" d="M182.923 0C188.129 0 192.25 0.432945 195.938 1.37099C198.902 2.09257 203.312 3.68003 205.698 4.90671C208.084 6.06122 212.133 8.65889 214.664 10.535C217.194 12.4832 220.737 15.8746 222.472 18.0394C224.135 20.2041 226.666 24.1006 228.04 26.6983C229.413 29.2959 231.221 33.9862 232.088 37.1611C233.028 40.9133 233.534 45.2427 233.534 49.4278C233.534 53.3965 233.028 58.0146 232.161 61.3338C231.438 64.2923 229.847 68.6939 228.618 71.0751C227.461 73.4563 224.858 77.4971 222.978 80.0226C221.026 82.5481 217.628 86.0838 215.459 87.8156C213.29 89.4752 209.386 92.0007 206.783 93.3717C204.18 94.7427 199.48 96.5467 196.299 97.4125C192.322 98.4227 188.201 98.8557 183.285 98.8557C178.368 98.8557 174.247 98.4227 170.27 97.4125C167.089 96.5467 162.39 94.8149 159.787 93.4439C157.184 92.0729 153.28 89.4031 151.111 87.5991C148.941 85.723 145.905 82.6924 144.386 80.8885C142.868 79.0845 140.554 75.621 139.181 73.2398C137.879 70.8586 135.999 66.457 135.06 63.4985C133.686 59.0969 133.397 56.4993 133.397 49.4278C133.397 42.3564 133.686 39.7587 135.06 35.3571C135.999 32.3987 137.879 27.9971 139.181 25.6159C140.554 23.2347 142.868 19.7711 144.386 17.9672C145.905 16.1633 148.941 13.1327 151.111 11.2566C153.28 9.45262 157.184 6.7828 159.787 5.41181C162.39 4.04082 166.945 2.30904 169.909 1.51531C173.596 0.577259 177.79 0.0721574 182.923 0V0ZM168.969 24.75C167.089 25.8324 164.197 28.0692 162.534 29.7289C160.944 31.4606 158.558 34.9242 157.328 37.5219C155.304 41.7792 155.087 42.8615 155.087 49.4278C155.087 55.9942 155.304 57.0765 157.328 61.3338C158.63 64.0036 161.016 67.5394 163.113 69.5598C165.065 71.4359 168.752 74.0335 171.355 75.3324C175.621 77.3528 176.633 77.5692 183.285 77.5692C189.937 77.5692 190.876 77.4249 195.431 75.188C198.107 73.9614 201.866 71.3637 203.746 69.4155C205.626 67.5394 208.084 64.2201 209.169 62.0554C210.253 59.8907 211.41 56.1385 211.844 53.7573C212.278 50.9431 212.278 47.9125 211.844 45.0984C211.482 42.7172 210.253 38.965 209.169 36.8003C208.084 34.6356 205.626 31.3163 203.746 29.3681C201.794 27.492 198.179 24.9665 195.359 23.6676C191.455 21.8637 189.358 21.3586 184.731 21.1421C181.477 21.07 177.501 21.3586 175.693 21.8637C173.886 22.3688 170.921 23.6676 168.969 24.75ZM29.6437 0.721574C30.0775 0.721574 30.8728 1.44315 31.4512 2.30904C32.0296 3.24708 32.825 5.12318 33.2588 6.49417C33.7649 8.22595 33.6926 13.5656 33.1865 23.4512C32.5358 34.6356 32.5358 38.965 33.2588 42.5729C33.6926 45.1706 35.0663 49.8608 36.2231 53.0357C37.38 56.2106 38.8983 59.5299 39.6213 60.4679C40.7781 62.0554 40.9951 62.1276 43.381 61.1895C45.1886 60.4679 46.0562 59.5299 46.49 58.0146C46.8515 56.5714 46.7069 55.4169 45.9116 54.2624C45.3332 53.3965 43.9594 52.6028 42.8026 52.4585C40.9951 52.3141 40.8505 52.0977 41.0674 49.7886C41.212 48.4176 41.935 42.5729 42.658 36.8003C43.6702 28.43 44.3209 25.3994 46.1285 21.6472C47.6468 18.328 49.6713 15.6582 53.0694 12.4111C55.6723 9.95773 58.2752 8.00948 58.709 8.15379C59.432 8.37026 59.7212 16.2354 60.0104 79.3732H51.6957C45.6947 79.3732 43.3087 79.5897 43.0918 80.2391C42.9472 80.7442 42.2242 82.7646 41.5012 84.785C40.5612 87.2383 38.5368 90.0525 30.0052 99L25.4502 94.8149C22.4858 92.0007 20.0999 89.0423 18.7261 86.2281C17.5693 83.8469 16.6294 81.3214 16.6294 80.5999C16.6294 79.5175 15.7618 79.3732 0 79.3732V43.6553C0 24.0284 0.216905 7.93732 0.506112 7.93732C0.86762 8.00948 2.67516 9.16399 4.62731 10.6793C6.57945 12.1224 9.32692 15.1531 10.773 17.3178C12.2913 19.4825 14.0265 22.9461 14.6772 24.8943C15.328 26.9147 16.4848 33.6975 17.2801 40.0474C18.0031 46.3972 18.5092 51.809 18.3646 52.1698C18.22 52.4585 17.4247 52.6749 16.7017 52.6749C15.9064 52.6749 14.7495 53.18 14.1711 53.7573C13.5204 54.3345 13.0143 55.7055 13.0143 56.8601C12.942 57.9424 13.5204 59.3856 14.2434 60.035C14.9664 60.6844 16.3402 61.406 17.3524 61.6946C19.0153 62.1276 19.3046 61.7668 21.6182 56.8601C22.9196 53.9738 24.6549 49.1392 25.3779 46.1808C26.607 41.4184 26.7516 38.6042 26.607 22.7296C26.3901 6.42201 26.5347 4.47376 27.6915 2.66983C28.3423 1.58746 29.2822 0.721574 29.6437 0.721574ZM5.06112 36.656C5.06112 51.6647 5.20572 54.1181 6.14564 54.1181C6.72406 54.1181 7.59168 53.3965 8.02549 52.5306C8.4593 51.5926 9.61612 50.2216 10.6283 49.4278L12.4359 47.9847C11.1345 35.7179 10.1222 30.0175 9.32692 27.4198C8.6039 24.8222 7.30247 21.9359 6.50715 20.9257L5.06112 19.1217V36.656ZM48.1529 38.3156C46.9961 47.8404 46.9961 48.0569 48.4421 48.9227C49.2374 49.4278 50.3943 50.7988 50.9727 52.0255C51.5511 53.18 52.5633 54.1902 53.1417 54.1902C54.0817 54.1902 54.2263 51.7369 54.2263 36.8724C54.2263 27.3477 54.0817 19.5547 53.9371 19.5547C53.7201 19.5547 52.6356 21.5751 51.4065 24.0284C49.6713 27.7085 49.0205 30.3783 48.1529 38.3156ZM27.6192 58.1589C26.3178 60.8287 25.3056 63.0656 25.3056 63.0656C25.3056 63.1378 26.2455 63.9315 27.4746 64.7974L29.6437 66.457L34.4879 63.2099L29.9329 53.2522L27.6192 58.1589ZM5.06112 73.6727H15.9064C15.9064 70.3535 16.1233 68.9104 16.3402 68.4774C16.5571 67.9001 15.9787 67.3229 14.8941 67.0343C13.8819 66.6735 11.8575 65.519 10.4837 64.2923C9.11001 63.1378 7.95319 61.6224 7.95319 61.0452C7.95319 60.4679 7.30247 59.9628 6.50715 59.9628C5.20572 59.9628 5.06112 60.4679 5.06112 66.8178V73.6727ZM48.2252 65.2303C47.1407 65.8797 45.5501 66.6735 44.6824 66.8899C43.2364 67.1786 43.0918 67.6837 43.2364 70.4978L43.381 73.6727H54.2263C54.2263 61.2617 54.0094 59.9628 53.1417 59.9628C52.5633 59.9628 51.6234 60.8287 51.1173 61.9832C50.5389 63.0656 49.2374 64.5088 48.2252 65.2303ZM21.6182 71.6523C21.6905 73.4563 21.9797 73.6727 24.2211 73.6727C25.5948 73.6727 26.7516 73.5284 26.7516 73.312C26.7516 73.0955 26.4624 72.3018 26.0286 71.508C25.6671 70.7143 24.7272 69.7762 23.9319 69.3433C23.2088 68.9825 22.3412 68.9104 21.9797 69.1268C21.6905 69.4155 21.5459 70.4978 21.6182 71.6523ZM32.6081 72.9512C32.5358 73.312 33.8372 73.6727 35.4278 73.6727C37.6692 73.6727 38.2476 73.4563 37.9584 72.5904C37.7415 72.0131 37.5969 70.8586 37.5969 70.0649C37.5969 69.2711 37.3077 68.6217 36.8739 68.6217C36.44 68.6217 35.2832 69.4155 34.3433 70.4257C33.4034 71.3637 32.6081 72.5182 32.6081 72.9512ZM24.2211 84.4964C25.2333 86.5168 26.1732 88.1042 26.3901 88.1042C26.607 88.1042 26.7516 86.156 26.7516 83.7748V79.4453C23.4257 79.4453 22.4135 79.8061 22.4135 80.1669C22.4135 80.5999 23.2088 82.5481 24.2211 84.4964ZM32.5358 83.7748C32.5358 86.156 32.6804 88.1042 32.8973 88.1042C33.1142 88.1042 33.9095 87.0219 34.7048 85.7952C35.4278 84.4964 36.44 82.5481 36.8739 81.4657C37.5969 79.5175 37.5246 79.4453 35.0663 79.4453H32.5358V83.7748Z" fill="white"/>
<path fill-rule="evenodd" clip-rule="evenodd" d="M324.635 13.3491V22.3688C328.539 22.008 328.611 21.7916 328.973 17.3178L329.334 12.6276C332.371 18.4723 333.383 19.4825 334.395 19.4825C335.335 19.4825 336.42 18.4002 337.504 16.5962C338.372 15.0088 339.384 13.7099 339.818 13.7099C340.252 13.7099 340.541 15.6582 340.541 18.0394C340.541 22.1524 340.613 22.3688 342.349 22.3688H344.156V4.32947C340.469 4.32947 339.818 5.05104 337.36 9.59696L334.54 14.7923C329.045 5.05104 328.322 4.32947 326.659 4.32947H324.635L324.635 13.3491ZM350.663 13.3491V22.3688L354.64 22.008L355.001 4.32947H350.663V13.3491ZM360.786 13.3491V22.3688C365.051 22.3688 365.124 22.2967 365.124 18.761V15.1531H373.077C373.077 22.1524 373.222 22.3688 374.884 22.3688H376.692V4.32947C373.222 4.32947 373.077 4.6181 373.077 7.57655V10.8236H365.124C365.124 4.47378 365.051 4.32947 362.955 4.32947H360.786V13.3491ZM383.199 13.3491V22.3688H387.537V4.32947H383.199V13.3491ZM397.009 5.26751C395.997 5.77262 394.478 7.28792 393.538 8.65891C392.598 10.0299 391.875 12.1946 391.875 13.3491C391.875 14.5037 392.526 16.5962 393.321 17.8229C394.117 19.1217 395.49 20.7092 396.358 21.2865C397.443 22.008 399.395 22.2967 401.998 22.2245C405.757 22.008 405.974 21.8637 406.119 19.9876C406.336 18.1115 406.263 18.0394 403.227 18.5445C400.552 18.9774 399.973 18.761 398.166 17.1013C397.081 16.019 396.213 14.3594 396.213 13.3491C396.213 12.3389 397.081 10.6793 398.166 9.59696C399.973 7.93734 400.552 7.72087 403.227 8.15381C406.263 8.65891 406.336 8.58676 406.119 6.63851C405.974 4.83457 405.757 4.69025 402.359 4.47378C400.335 4.40163 397.949 4.76241 397.009 5.26751ZM409.951 6.1334C409.951 7.72087 410.24 7.93734 412.481 7.93734H415.012V22.3688H419.35V7.93734C424.122 7.93734 424.411 7.72087 424.411 6.1334V4.32947H409.951V6.1334ZM428.749 13.3491V22.3688C440.245 22.3688 440.317 22.3688 440.317 20.5649C440.317 18.9053 440.028 18.761 436.847 18.5445C433.955 18.4002 433.449 18.1837 433.304 16.7405C433.087 15.2974 433.377 15.1531 436.341 15.1531C439.305 15.1531 439.594 15.0088 439.594 13.3491C439.594 11.7617 439.233 11.5452 436.485 11.3287C433.955 11.1844 433.449 10.8958 433.304 9.5248C433.087 8.08165 433.377 7.93734 436.702 7.93734C440.101 7.93734 440.317 7.79303 440.317 6.1334C440.317 4.32947 440.245 4.32947 434.533 4.32947H428.749V13.3491ZM446.102 13.3491V22.3688C449.861 22.008 450.078 21.6473 450.295 19.2661C450.44 16.7405 450.584 16.5962 453.187 16.1633C454.633 15.9468 456.585 15.0809 457.525 14.215C458.465 13.277 459.116 11.7617 459.116 10.6072C459.116 9.5248 458.899 8.15381 458.61 7.5044C458.248 6.85498 457.164 5.84477 456.079 5.33967C454.922 4.76241 452.247 4.32947 450.078 4.32947H446.102V13.3491ZM450.44 10.1021C450.44 8.5146 450.801 7.93734 451.741 7.93734C452.392 7.93734 453.404 8.22597 453.91 8.5146C454.489 8.80323 454.778 9.66912 454.633 10.4629C454.489 11.4731 453.766 11.9782 452.392 12.0503C450.657 12.2668 450.44 12.0503 450.44 10.1021ZM466.924 5.6283C465.84 6.27772 464.466 7.72087 463.816 8.80323C463.237 9.95775 462.731 11.9782 462.731 13.3491C462.731 14.7201 463.237 16.8849 463.816 18.0394C464.394 19.1939 465.912 20.7092 467.069 21.2865C468.371 21.9359 470.756 22.2967 473.07 22.1524C476.613 22.008 476.83 21.8637 476.974 19.9876C477.191 18.0394 477.191 18.0394 473.721 18.4723C470.901 18.8331 470.033 18.6166 468.66 17.39C467.599 16.3798 467.069 15.0328 467.069 13.3491C467.069 11.6655 467.599 10.3185 468.66 9.30833C470.106 7.93734 470.829 7.79303 473.721 8.22597C477.191 8.65891 477.191 8.65891 476.974 6.63851C476.83 4.76241 476.613 4.69025 472.853 4.54594C470.033 4.40163 468.298 4.69025 466.924 5.6283ZM480.083 6.1334C480.083 7.72087 480.445 7.93734 482.759 8.08165L485.506 8.29813L485.868 22.3688L489.844 22.008L490.206 7.93734C494.978 7.93734 495.267 7.72087 495.267 6.1334V4.32947H480.083V6.1334ZM499.605 13.3491V22.3688C506.618 22.3688 509.438 21.9359 510.45 21.4308C511.462 20.9257 512.619 19.6268 512.981 18.4723C513.559 16.957 513.414 16.019 512.402 14.3594C511.462 12.6997 511.318 11.906 511.968 10.6072C512.547 9.45265 512.547 8.58676 511.968 7.36008C511.535 6.49419 510.378 5.41183 509.366 5.05104C508.353 4.6181 505.751 4.32947 503.581 4.32947H499.605V13.3491ZM504.015 9.66912C504.015 8.15381 504.304 7.86518 505.967 8.08165C507.341 8.22597 507.92 8.73107 507.92 9.74128C507.92 10.8236 507.341 11.2566 505.895 11.3287C504.232 11.5452 503.943 11.2566 504.015 9.66912ZM503.943 16.5962C503.943 14.8645 504.232 14.4315 505.534 14.4315C506.474 14.3594 507.63 14.8645 508.064 15.5139C508.57 16.0911 508.859 17.1013 508.643 17.6786C508.426 18.328 507.413 18.761 506.112 18.761C504.16 18.761 503.943 18.5445 503.943 16.5962ZM520.211 6.63851C518.909 8.0095 517.608 10.1021 517.319 11.5452C517.03 13.2048 517.174 14.9366 517.969 16.7405C518.62 18.2559 520.211 20.1319 521.44 20.9257C522.741 21.7194 525.055 22.3688 526.501 22.3688C528.019 22.3688 530.261 21.8637 531.418 21.2865C532.574 20.7092 534.093 19.1939 534.671 18.0394C535.25 16.8849 535.756 14.7201 535.756 13.3491C535.756 11.9782 535.25 9.81343 534.671 8.65891C534.093 7.43224 532.574 5.98909 531.418 5.41183C530.261 4.83457 527.73 4.32947 525.923 4.32947C523.175 4.32947 522.235 4.69025 520.211 6.63851ZM523.103 9.74128C524.043 8.73107 525.561 7.93734 526.501 7.93734C527.441 7.93734 528.887 8.44244 529.755 9.0197C531.056 9.81343 531.418 10.8236 531.418 12.9884C531.418 14.9126 530.936 16.3557 529.972 17.3178C529.176 18.1115 527.73 18.761 526.718 18.761C525.706 18.761 524.115 17.9672 523.103 16.957C522.091 15.9468 521.295 14.3594 521.295 13.3491C521.368 12.3389 522.163 10.6793 523.103 9.74128ZM329.117 41.1298C327.888 41.9235 326.298 43.5831 325.719 44.7376C325.141 45.9643 324.635 47.6961 324.635 48.7063C324.635 49.7165 325.141 51.4483 325.719 52.675C326.298 53.9016 327.671 55.4891 328.828 56.2828C330.057 57.293 331.865 57.7981 333.889 57.726C335.552 57.726 337.938 57.2209 339.095 56.6436C340.252 56.0664 341.77 54.6232 342.349 53.3965C342.927 52.1699 343.433 50.0051 343.433 48.562C343.361 47.0467 342.999 45.0984 342.493 44.2325C341.987 43.2945 340.613 41.9235 339.457 41.1298C338.227 40.2639 336.058 39.6866 334.395 39.6866C332.733 39.6866 330.491 40.336 329.19 41.1298H329.117ZM330.708 45.0984C331.648 44.0882 333.311 43.2945 334.323 43.2945C335.335 43.2945 336.781 43.9439 337.577 44.7376C338.444 45.6035 339.023 47.1188 339.023 48.7063C339.023 50.2938 338.444 51.8091 337.577 52.675C336.781 53.4687 335.191 54.1181 333.962 54.1181C332.443 54.1181 331.359 53.5408 330.347 52.1699C329.479 51.0153 328.901 49.4279 328.901 48.4898C328.973 47.5518 329.768 46.0365 330.708 45.0984ZM350.591 42.5008C348.422 44.7376 347.844 45.8922 347.771 48.2733C347.771 49.8608 348.205 52.1699 348.784 53.3965C349.362 54.6232 350.953 56.0664 352.254 56.7158C353.483 57.3652 355.869 57.8703 357.46 57.9425C359.05 57.9425 360.786 57.726 361.292 57.4373C361.726 57.2209 362.159 56.2107 362.159 55.2005C362.159 53.4687 362.015 53.3965 358.761 53.9016C355.797 54.2624 355.074 54.1181 353.7 52.8193C352.616 51.8091 352.037 50.3659 352.037 48.9228C352.037 47.6239 352.326 46.1808 352.616 45.7478C352.905 45.3149 353.917 44.5212 354.785 44.0882C355.797 43.5831 357.677 43.3666 359.34 43.5831C361.942 44.0161 362.159 43.8717 362.159 42.2121C362.159 41.2019 361.653 40.2639 361.075 40.0474C360.496 39.8309 358.472 39.6866 356.664 39.6866C353.7 39.6866 352.977 40.0474 350.591 42.5008ZM367.22 48.7063V57.726C374.523 57.726 377.415 57.293 378.427 56.8601C379.439 56.355 380.596 54.984 380.958 53.7573C381.536 52.0255 381.464 51.2318 380.379 49.7887C379.295 48.3455 379.223 47.6239 379.801 45.9643C380.379 44.5212 380.379 43.5831 379.801 42.7172C379.367 42.0678 378.21 41.0576 377.27 40.6247C376.33 40.1196 373.655 39.6866 371.414 39.6866H367.22V48.7063ZM371.631 45.0263C371.631 43.511 371.92 43.2223 373.583 43.4388C374.957 43.5831 375.535 44.0882 375.535 45.0984C375.535 46.1808 375.029 46.6137 373.583 46.758C371.848 46.9024 371.559 46.6137 371.631 45.0263ZM371.92 50.2938C372.282 50.0051 373.005 49.7887 373.655 49.7887C374.306 49.7887 375.246 50.0773 375.752 50.3659C376.33 50.6545 376.62 51.5204 376.475 52.3142C376.33 53.3965 375.607 53.8295 373.872 53.9738C371.92 54.1181 371.559 53.9016 371.414 52.4585C371.342 51.5204 371.559 50.5102 371.92 50.2938ZM386.38 40.6247C386.164 41.1298 386.091 45.0984 386.236 49.5L386.38 57.3652L390.357 57.726V39.6866C387.537 39.6866 386.525 40.1196 386.38 40.6247ZM395.057 40.1917C394.695 40.4082 394.478 41.2741 394.55 41.9957C394.695 43.0059 395.274 43.2945 397.587 43.2945H400.479V57.726H404.817V43.2945C409.589 43.2945 409.878 43.078 409.878 41.4906C409.878 39.6866 409.878 39.6866 402.793 39.6866C398.889 39.6866 395.418 39.9031 395.057 40.1917ZM414.217 48.7063V57.726C417.832 57.7981 418.844 56.8601 422.17 52.242L426.146 46.6859C426.869 57.2209 426.942 57.3652 428.894 57.5817L430.846 57.726V39.6866C427.592 39.6866 426.363 40.9133 423.11 45.5314L418.916 51.3761L418.555 39.6866H414.217V48.7063ZM442.414 48.7063V57.726H446.752V39.6866H442.414V48.7063ZM457.598 48.7063V57.726C461.863 57.726 461.936 57.6538 461.936 54.1181V50.5102H469.889C469.889 57.5817 469.961 57.726 471.913 57.5817L473.865 57.3652V40.0474C469.961 39.6866 469.889 39.8309 469.889 42.9337V46.1808H461.936C461.936 39.8309 461.863 39.6866 459.767 39.6866H457.598V48.7063ZM480.806 48.7063L477.119 57.726C480.951 57.726 481.602 57.293 482.18 55.922C482.831 54.3346 483.337 54.1181 486.88 54.1181C490.567 54.1181 490.856 54.2624 491.218 55.922C491.507 57.3652 492.013 57.726 493.748 57.726C494.905 57.726 495.917 57.5095 495.917 57.2209C495.917 56.8601 494.399 52.8193 492.519 48.129C489.121 39.8309 488.977 39.6866 486.735 39.6866C484.494 39.6866 484.422 39.8309 480.806 48.7063ZM485.217 48.3455C485.651 47.1188 486.301 46.1808 486.663 46.1808C486.952 46.1808 487.603 46.9745 487.964 47.9847C488.326 48.9949 488.687 49.933 488.687 50.1494C488.687 50.3659 487.675 50.5102 486.518 50.5102C484.421 50.5102 484.349 50.4381 485.217 48.3455ZM497.364 40.4082C497.364 40.769 498.665 43.7274 500.256 46.9024C501.846 50.0773 503.148 53.0357 503.148 53.3965C503.148 53.7573 502.497 54.1181 501.702 54.1181C500.617 54.1181 500.256 54.6232 500.256 55.922C500.256 56.9322 500.689 57.9424 501.195 58.1589C501.629 58.3754 503.003 58.1589 504.16 57.5817C505.823 56.8601 507.197 54.9118 510.089 49.0671C512.185 44.882 513.921 41.0576 513.921 40.5525C513.993 40.0474 513.125 39.6866 512.041 39.6866C510.233 39.6145 509.799 40.1196 508.209 44.0161C507.197 46.3973 506.257 48.3455 506.04 48.3455C505.823 48.3455 504.666 46.3973 503.509 44.0161C501.629 40.2639 501.051 39.6866 499.388 39.6866C498.231 39.6866 497.364 40.0474 497.364 40.4082ZM517.608 48.7063V57.726C521.946 57.726 521.946 57.6538 521.946 53.7573C521.946 51.5926 522.308 49.6443 522.669 49.4279C523.031 49.2114 523.392 49.2836 523.392 49.6443C523.392 49.933 524.91 51.8091 526.863 53.9016C529.61 56.9322 530.695 57.6538 532.647 57.726C534.671 57.726 534.96 57.5095 534.96 55.922C534.96 54.6232 534.527 54.0459 533.442 53.9738C532.574 53.8295 530.839 52.5306 529.61 51.0875L527.369 48.4177C532.068 42.5008 533.514 40.5525 533.514 40.2639C533.514 39.9031 532.647 39.6866 531.562 39.6866C529.972 39.6145 528.887 40.4803 526.501 43.6553C524.766 45.82 523.031 47.4796 522.669 47.2631C522.308 47.0467 521.946 45.3149 521.946 43.2945C521.946 39.7588 521.874 39.6866 519.777 39.6866H517.608V48.7063ZM401.998 71.7245C401.925 73.2398 402.214 73.6006 403.588 73.4563C404.649 73.312 405.179 72.7588 405.179 71.7967C405.179 70.8586 404.6 70.2814 403.588 70.1371C402.359 69.9206 401.998 70.2814 401.998 71.7245ZM407.348 70.4978C406.986 70.7143 406.769 71.5802 406.842 72.3018C406.914 73.1677 407.565 73.6006 408.794 73.6006C410.24 73.6006 410.601 73.2398 410.601 71.7967C410.601 70.4978 410.24 69.9927 409.3 69.9927C408.577 69.9927 407.709 70.2092 407.348 70.4978ZM326.008 75.4045C326.008 75.621 327.455 78.6516 329.262 82.2595C331.07 85.8674 332.516 88.898 332.516 89.1145C332.516 89.3309 331.72 89.4753 330.708 89.4753C329.262 89.4753 328.901 89.836 328.901 91.2792C328.901 92.3615 329.407 93.2274 330.202 93.5161C330.853 93.7325 332.371 93.5161 333.456 93.011C335.046 92.2172 336.42 90.1247 339.457 83.9191C341.626 79.4454 343.361 75.621 343.361 75.4045C343.361 75.1881 342.349 75.1159 341.12 75.2602C339.167 75.4045 338.661 75.9096 337.36 79.1567C336.492 81.1771 335.552 83.0532 335.263 83.2697C334.902 83.4862 333.672 81.7544 332.516 79.3732C330.564 75.5489 330.13 75.0438 328.178 75.0438C327.021 75.0438 326.008 75.1881 326.008 75.4045ZM347.048 83.9913L346.976 93.0831C351.242 93.0831 351.314 93.011 351.531 89.0423L351.676 85.0015C355.58 90.269 357.821 92.2894 359.123 92.7945C360.352 93.3717 361.798 93.6604 362.159 93.4439C362.593 93.2274 362.882 92.2894 362.882 91.2792C362.882 90.0525 362.521 89.4753 361.653 89.4753C360.93 89.4753 359.267 88.1764 358.038 86.589L355.652 83.7027C360.641 77.8579 361.87 75.9096 361.581 75.5489C361.292 75.2602 360.352 75.0438 359.484 75.0438C358.4 75.0438 356.737 76.3426 354.785 78.7959L351.676 82.5481C350.953 75.7653 350.736 75.4045 349 75.1881L347.048 74.9716V83.9913ZM367.293 83.9913V93.011C371.486 93.011 371.631 92.8666 371.631 90.3411C371.559 87.6713 371.703 87.5992 374.668 87.0941C376.62 86.8054 378.355 85.9395 379.367 84.785C380.307 83.7748 381.03 82.2595 381.03 81.4658C381.03 80.672 380.669 79.3732 380.307 78.5795C379.873 77.7857 378.572 76.7034 377.415 76.054C376.186 75.4767 373.438 74.9716 371.269 74.9716H367.293V83.9913ZM371.631 81.105C371.631 79.2289 371.92 78.5795 372.86 78.5795C373.583 78.5795 374.812 79.0846 375.607 79.6618C376.764 80.4556 376.909 80.9607 376.258 81.9709C375.824 82.6925 374.595 83.3419 373.511 83.4862C371.775 83.6305 371.631 83.414 371.631 81.105ZM386.814 80.5277C385.513 83.6305 383.85 87.7435 383.127 89.6196L381.753 93.011C385.513 93.011 386.236 92.578 386.814 91.207C387.465 89.6196 387.971 89.4031 391.152 89.4031C394.261 89.4031 394.84 89.6917 395.635 91.2792C396.286 92.578 397.153 93.0831 398.527 93.0831C399.612 93.011 400.552 92.9388 400.552 92.8666C400.552 92.7223 398.961 88.7537 397.081 83.9913C393.755 75.8375 393.466 75.3324 391.369 75.1159C389.272 74.8994 389.128 75.1881 386.814 80.5277ZM389.779 83.6305C390.14 82.476 390.719 81.4658 391.008 81.4658C391.297 81.4658 391.875 82.2595 392.381 83.2697C392.888 84.2799 393.321 85.2901 393.321 85.4344C393.321 85.6509 392.309 85.7952 391.152 85.7952C389.056 85.7952 388.983 85.7231 389.779 83.6305ZM404.167 83.9913V93.011H408.505V74.9716H404.167V83.9913ZM414.289 83.9913V93.011C418.555 93.011 418.627 92.9388 418.627 89.4031V85.7952H426.58C426.58 92.9388 426.58 93.011 428.749 93.011H430.918L430.557 75.3324C426.652 74.9716 426.58 75.1159 426.58 78.5795V82.1873H418.627C418.627 75.0438 418.555 74.9716 416.458 74.9716H414.289V83.9913ZM436.702 83.9913V93.011C440.317 93.0831 441.33 92.1451 444.656 87.527L448.632 82.043L448.994 93.011H453.332V74.9716C450.078 74.9716 448.849 76.1983 445.523 80.8164L441.402 86.7333L441.04 74.9716H436.702V83.9913Z" fill="white"/>
<path d="M253.056 38.965V21.6473V4.32947H293.545V38.965H253.056Z" fill="white"/>
<path d="M96.5226 94.8871L96.3057 50.0051L96.1611 5.05104H99.7762V95.2478L96.5226 94.8871Z" fill="white"/>
<path d="M252.984 94.5984V77.2806V59.9628H293.472V94.5984H252.984Z" fill="white"/>
</svg>
