<svg width="24" height="25" viewBox="0 0 24 25" fill="none" xmlns="http://www.w3.org/2000/svg">
<mask id="mask0_683_1274" style="mask-type:alpha" maskUnits="userSpaceOnUse" x="0" y="0" width="24" height="25">
<rect y="0.532959" width="24" height="24" fill="#D9D9D9"/>
</mask>
<g mask="url(#mask0_683_1274)">
<path d="M9 18.533C8.45 18.533 7.97917 18.3371 7.5875 17.9455C7.19583 17.5538 7 17.083 7 16.533V4.53296C7 3.98296 7.19583 3.51213 7.5875 3.12046C7.97917 2.72879 8.45 2.53296 9 2.53296H18C18.55 2.53296 19.0208 2.72879 19.4125 3.12046C19.8042 3.51213 20 3.98296 20 4.53296V16.533C20 17.083 19.8042 17.5538 19.4125 17.9455C19.0208 18.3371 18.55 18.533 18 18.533H9ZM9 16.533H18V4.53296H9V16.533ZM5 22.533C4.45 22.533 3.97917 22.3371 3.5875 21.9455C3.19583 21.5538 3 21.083 3 20.533V6.53296H5V20.533H16V22.533H5Z" fill="#2F2F2F" fill-opacity="0.6"/>
</g>
</svg>
