<svg width="46" height="53" viewBox="0 0 46 53" fill="none" xmlns="http://www.w3.org/2000/svg">
<path d="M35.8282 0.410159C35.8355 0.410579 35.8569 0.413884 35.8644 0.416019C36.2728 0.540707 36.7777 0.705029 37.4728 1.04102C38.5252 1.56997 39.2938 2.13717 39.9894 2.86719C40.2688 2.99943 40.5187 3.14207 40.7618 3.3291C41.076 3.57798 41.2239 3.72936 41.6134 4.12598C41.9766 4.53965 42.6931 5.14391 43.4786 6.77735C43.5672 6.9742 43.6584 7.18237 43.7521 7.40528C45.0878 10.6511 45.3151 12.8702 45.6222 14.3525C45.6806 14.6648 45.7226 14.9522 45.754 15.2188C46.0398 16.8385 45.5162 20.2625 44.4025 22.625C44.3119 22.8428 44.2037 23.082 44.0909 23.3311C44.0413 23.5949 43.992 23.8593 43.9425 24.1211C43.8067 24.8377 43.6719 25.55 43.5353 26.2451C42.875 29.4675 42.0937 32.4489 41.2814 35.1494C41.2439 35.2646 41.202 35.3861 41.1613 35.5C40.3057 37.7538 39.2723 39.7045 38.3517 41.4971C38.3161 41.5964 38.2822 41.6964 38.2462 41.7949C37.7734 43.085 37.3985 44.3649 37.0128 45.5928C37.0425 45.583 37.0856 45.5737 37.1427 45.5869C37.21 45.6005 37.2693 45.6611 37.2833 45.6875C37.3506 45.8214 37.3138 45.8563 37.3185 45.8731C37.3155 45.895 37.3109 45.9157 37.3058 45.9365C37.2975 45.9696 37.2905 45.9922 37.2804 46.0234C37.2607 46.0833 37.2466 46.1228 37.2238 46.1826C36.9796 47.6692 36.7578 49.3793 36.338 50.9297C36.2904 51.1073 36.2271 51.2996 36.0636 51.4717C35.8988 51.6517 35.6251 51.7057 35.4454 51.6992C35.0336 51.6994 34.6747 51.5475 34.3488 51.4111C34.2493 51.3704 34.1504 51.3281 34.0509 51.2871C34.0456 51.2882 34.0401 51.291 34.0343 51.292C34.0122 51.2936 33.9835 51.2991 33.9298 51.2793C33.9201 51.2765 33.911 51.27 33.9015 51.2637C33.7838 51.4976 33.6613 51.7329 33.5275 51.9658C33.4098 52.1866 33.1277 52.3906 32.8673 52.4209C32.6082 52.459 32.4004 52.4104 32.215 52.3564C31.8471 52.2413 31.55 52.075 31.2589 51.9063C30.6835 51.5673 30.1558 51.1837 29.6261 50.8789C28.0471 49.9856 26.372 49.2084 24.6925 48.4248C23.6895 47.943 22.7324 47.3948 21.795 46.8223C20.1459 45.9548 18.6209 45.1161 17.1769 44.3154C14.4739 42.8148 12.208 41.2012 10.1573 39.5703C10.0069 39.4758 9.85584 39.3819 9.70617 39.2871C7.41733 37.8638 5.44337 36.0368 3.79016 34.0859C1.29009 31.3638 0.211127 27.6209 0.407344 24.2773C0.419124 23.568 0.48386 22.8745 0.592891 22.1982C0.622203 20.5386 0.985625 18.8694 1.91125 17.2988C2.184 16.6132 2.5325 15.9483 2.98059 15.3154C3.06984 15.05 3.16663 14.7849 3.26965 14.5215C4.0714 12.4721 6.34579 11.3646 8.3966 11.0176C9.9793 10.7979 11.4665 11.0834 12.9103 11.6299C12.9815 11.6401 13.0531 11.6492 13.1241 11.6602C13.2692 11.6812 13.4157 11.7036 13.5568 11.7256C15.16 12.1532 16.4143 13 17.5079 14.0137C17.843 14.2108 18.1786 14.4086 18.5157 14.6025C20.1748 15.6419 21.6448 17.0207 22.8986 18.7022C22.976 17.9723 23.1471 17.2442 23.3605 16.5391C23.4751 16.0517 23.5748 15.7548 23.7042 15.418C23.6946 15.3902 23.6714 15.3422 23.7257 15.1553C23.8389 14.7653 23.9664 14.366 24.0997 13.9619C24.2026 13.4495 24.3225 12.9429 24.463 12.4463C24.9569 10.5475 26.0378 8.59595 27.3273 6.90039C28.2556 5.50455 29.7093 4.55526 31.1163 3.67676C32.2641 2.96272 33.5856 2.49496 35.0128 2.37598C35.355 2.34989 35.6859 2.38224 36.004 2.45606C36.5222 2.3372 37.0501 2.30497 37.9259 2.37207C38.3921 2.42455 38.7776 2.47227 39.1212 2.55176C38.1074 1.65515 36.8598 0.968639 36.1339 0.825198C36.0232 0.794872 35.9106 0.76493 35.798 0.736331C34.9781 0.716436 34.1307 0.902279 33.4503 1.23438C33.0771 1.47671 32.7612 1.74889 32.5099 1.97364C32.279 2.18248 32.0956 2.34773 31.9523 2.47071C31.8918 2.52268 31.8565 2.53995 31.8478 2.53125C31.8378 2.51973 31.868 2.46872 31.9386 2.39551C32.2642 2.06796 32.6983 1.55738 33.3243 1.03614C33.3268 1.03449 33.3334 1.03072 33.3361 1.0293C33.3919 0.994999 33.4488 0.960898 33.507 0.927737C34.485 0.403646 35.0048 0.386792 35.8282 0.410159ZM30.3966 49.8467C30.4073 49.8545 30.4195 49.8639 30.4347 49.877C30.4423 49.8836 30.4511 49.8915 30.4611 49.9014C30.4733 49.9168 30.4715 49.9007 30.5343 49.9951C30.5591 50.0397 30.601 50.112 30.5988 50.2461C30.6001 50.3274 30.5607 50.4183 30.5109 50.4912C30.905 50.7415 31.2771 50.9967 31.6573 51.2197C32.1506 51.5417 32.8743 51.7553 32.8419 51.5615C32.9218 51.4232 32.9983 51.2813 33.0734 51.1377C32.9613 51.13 32.851 51.0974 32.7648 51.0449C32.7287 51.0128 32.705 50.9838 32.6886 50.959C32.6421 50.9776 32.5863 51.0005 32.6193 50.9873C32.5715 50.9487 32.5337 50.9176 32.504 50.8936C32.487 50.8886 32.4747 50.8861 32.4591 50.8809C32.4111 50.8641 32.3837 50.8521 32.3517 50.8389C32.281 50.809 32.2396 50.7899 32.1779 50.7607C32.152 50.7484 32.1271 50.7343 32.1017 50.7217C31.9772 50.7141 31.8389 50.6809 31.713 50.6016C31.6517 50.5564 31.6007 50.5128 31.5577 50.4717C31.1686 50.2594 30.7771 50.047 30.382 49.8369C30.3857 49.8395 30.3906 49.8424 30.3966 49.8467ZM36.7228 46.4951C36.1976 48.0729 35.6016 49.5423 34.6739 50.8047C34.5994 50.8994 34.516 50.981 34.4279 51.0576C34.4488 51.0662 34.4694 51.0754 34.4904 51.084C34.8065 51.2185 35.1254 51.3464 35.4464 51.3447C35.759 51.37 35.9231 51.1503 35.9972 50.8418C36.4073 49.3364 36.5983 47.8431 36.8683 46.2705C36.8191 46.3447 36.7707 46.4198 36.7228 46.4951ZM33.005 50.8564C32.9986 50.8606 33.0065 50.8623 33.0079 50.8525L33.006 50.8516C33.0056 50.8532 33.0052 50.8552 33.005 50.8564ZM34.7736 49.7559C34.7661 49.7871 34.7583 49.8138 34.7579 49.8232C34.757 49.8206 34.7599 49.8264 34.753 49.79L34.7521 49.793C34.728 49.8309 34.7152 49.8501 34.6857 49.8877C34.6613 49.9074 34.6855 49.9032 34.6407 49.9277C34.5241 50.1981 34.4078 50.4695 34.295 50.7383C34.3388 50.6951 34.3812 50.6501 34.4181 50.6035C35.037 49.7435 35.5089 48.8083 35.9054 47.8369C35.5261 48.4751 35.1559 49.117 34.7736 49.7559ZM33.2296 50.4238C33.2197 50.4389 33.21 50.4545 33.2003 50.4697C33.1972 50.4893 33.1918 50.5118 33.1857 50.5381C33.2124 50.5494 33.239 50.5609 33.2657 50.5723C33.27 50.5486 33.275 50.5248 33.2804 50.5C33.2922 50.4509 33.3054 50.4023 33.3195 50.3545C33.3064 50.351 33.2923 50.3467 33.2794 50.3398C33.2623 50.3673 33.247 50.3964 33.2296 50.4238ZM36.2189 8.22754C34.8169 7.51598 33.2132 7.83611 31.715 8.37891C31.3937 8.51317 31.0883 8.67968 30.7989 8.87403C30.5839 9.06534 30.3713 9.26855 30.1603 9.4795C28.3485 12.1887 27.1349 15.2396 26.3116 18.3643C26.3102 18.3793 26.3092 18.3943 26.3077 18.4092C26.3009 18.4845 26.2882 18.5066 26.2745 18.5107C26.2401 18.6435 26.206 18.7762 26.173 18.9092C26.0972 19.9907 26.1148 21.1408 26.048 22.1602C26.0274 22.487 25.9858 22.6198 25.9366 22.6992C25.9363 22.7264 25.9359 22.754 25.9357 22.7813C25.9642 22.818 25.9953 22.8539 26.0236 22.8926C26.0658 22.9507 26.1086 23.0113 26.1515 23.082C26.1736 23.119 26.1959 23.1571 26.2208 23.2119C26.233 23.24 26.2468 23.2705 26.2618 23.3311C26.2676 23.3614 26.2808 23.3989 26.2726 23.4941C26.2653 23.5447 26.2566 23.6218 26.1779 23.7217C26.1113 23.8075 25.9968 23.8546 25.9142 23.8682C25.9074 24.0499 25.8993 24.2339 25.8859 24.4189C25.8789 24.4774 25.871 24.5318 25.8595 24.5947C25.8909 24.6738 25.9219 24.7532 25.9513 24.833C25.9653 24.8532 25.9793 24.8735 25.9933 24.8936C26.0447 24.9674 26.092 25.0354 26.1417 25.1045C26.1519 25.1219 26.2245 25.2062 26.1661 25.1436C26.1544 25.1331 26.1396 25.1192 26.0958 25.0918C26.0806 25.0866 26.0601 25.072 26.0294 25.0576C26.0478 25.1117 26.0686 25.1653 26.0861 25.2197C26.0994 25.2448 26.1113 25.2662 26.1212 25.2861C26.1293 25.3025 26.1363 25.3178 26.1437 25.335C26.1458 25.3442 26.155 25.345 26.171 25.4307C26.1729 25.4564 26.1821 25.4915 26.1564 25.5742C26.1406 25.6147 26.1196 25.6721 26.0343 25.7314C25.9531 25.7852 25.8615 25.7867 25.8126 25.7773C25.6357 25.7247 25.6652 25.6985 25.6378 25.6836C25.5659 25.6034 25.5568 25.5824 25.5275 25.5439C25.491 25.4934 25.4581 25.4467 25.4249 25.3994C25.423 25.4134 25.4225 25.4261 25.42 25.4356C25.4152 25.5076 25.4238 25.5381 25.4279 25.5615C25.4485 25.6428 25.4469 25.6226 25.4484 25.6299C25.4474 25.6282 25.4455 25.6251 25.4435 25.6211C25.4383 25.6107 25.43 25.594 25.4191 25.5732C25.3791 25.45 25.3351 25.3284 25.2911 25.208C25.2477 25.1456 25.204 25.0834 25.1603 25.0205C25.1071 25.002 25.069 24.9767 25.0363 24.9522C25.0817 25.0494 25.1279 25.1467 25.172 25.2451C25.2302 25.3752 25.2878 25.507 25.3429 25.6397C25.3709 25.7071 25.3977 25.7726 25.4249 25.8428C25.4381 25.8768 25.4517 25.9132 25.465 25.9502C25.4725 25.9714 25.4776 25.986 25.4874 26.0176C25.4898 26.0253 25.4915 26.0281 25.4962 26.0459C25.4982 26.0539 25.5005 26.0637 25.503 26.0772C25.5048 26.0886 25.5039 26.0736 25.5089 26.1201C25.5069 26.1497 25.5275 26.1775 25.4747 26.3125C25.4491 26.3772 25.3482 26.5012 25.2023 26.5264C25.0659 26.5545 24.955 26.4913 24.9493 26.4883C24.7904 26.382 24.8249 26.3721 24.8019 26.3506C24.7912 26.3332 24.793 26.3338 24.7892 26.3272C24.7836 26.317 24.7788 26.3083 24.7745 26.2998C24.7349 26.2053 24.6942 26.1116 24.6544 26.0186C24.6567 26.385 24.6611 26.753 24.6642 27.1211C24.6635 27.1982 24.6653 27.2446 24.6554 27.3516C24.6532 27.3702 24.6512 27.3899 24.6446 27.4189C24.6307 27.4337 24.6794 27.4355 24.5343 27.625C24.4911 27.6705 24.4061 27.7338 24.2882 27.749C24.1728 27.7672 24.0531 27.718 24.0099 27.6875C23.9401 27.6416 23.9114 27.6014 23.8907 27.5732C23.7835 27.3748 23.8311 27.4329 23.8126 27.3877C23.8003 27.3334 23.7971 27.31 23.7902 27.2695C23.7682 27.1344 23.7541 27.0217 23.7384 26.8955C23.709 26.6545 23.6834 26.4146 23.6583 26.1758C23.6086 25.7001 23.563 25.2272 23.5187 24.7578C23.4823 24.371 23.4488 23.9848 23.4142 23.6016C23.2117 23.2901 22.9929 22.9882 22.7491 22.6982C21.9271 21.7492 21.1505 20.725 20.3536 19.7285C19.4514 18.785 18.4837 17.8556 17.503 16.915C16.6769 16.3062 15.7844 15.6812 14.8019 15.1309C12.8462 14.546 10.5959 14.8686 8.74719 15.582C6.22181 17.9547 6.33548 22.7055 5.93762 26.1885C6.34619 29.8066 9.45442 32.7774 11.4152 35.5586C12.1721 36.5345 13.0137 37.3937 13.8839 38.1816C14.4357 38.5591 14.9918 38.9371 15.5441 39.3223C17.6143 40.7266 19.744 42.1761 21.9708 43.4932C23.0446 43.8697 24.1635 44.193 25.2794 44.5527C26.747 45.0725 28.083 45.9126 29.2462 46.9287C29.2869 46.9646 29.323 46.9965 29.3634 47.0469C29.3863 47.1099 29.5326 47.1539 29.4288 47.5068C29.4115 47.5421 29.3902 47.5711 29.3693 47.5967C29.4841 47.6606 29.5988 47.7252 29.714 47.7891C30.3548 48.1473 30.9842 48.5303 31.6017 48.9473C31.6761 48.7756 31.7503 48.6092 31.8224 48.4482C31.9352 48.1968 31.7219 48.4393 31.8253 48.2129C32.1489 47.5065 32.4932 46.7992 32.8448 46.1045C32.8092 46.0412 32.834 46.0144 32.8253 45.9941C32.8265 45.9184 32.8327 45.8891 32.8419 45.8311C32.9497 45.3419 33.0909 44.9115 33.253 44.4648C34.3752 41.4087 35.3953 38.4689 36.3624 35.7061C37.0881 33.9131 37.7336 32.2069 38.2521 30.5254C38.3412 30.2415 38.4266 29.9659 38.5118 29.6826C38.7895 28.7223 39.0742 27.7775 39.3527 26.8477C39.4431 26.399 39.5287 25.9488 39.6056 25.4971C39.8771 23.7833 40.1472 22.0672 40.3771 20.3457C40.3513 20.326 40.3013 20.4173 40.2921 20.2148C40.2716 19.7847 40.2483 19.2641 40.2296 18.79C40.2242 18.6555 40.2206 18.5243 40.2189 18.4004C40.215 18.1178 40.3139 18.4906 40.3087 18.2061C40.2973 17.5442 40.2714 16.8393 40.2277 16.1689C40.2088 15.8843 40.1377 16.3184 40.1202 15.9473C40.0741 15.0341 40.0356 14.1201 39.9562 13.2529C39.5092 11.9753 38.8696 10.6951 38.1017 9.40821C38.0949 9.39505 38.087 9.38225 38.0802 9.36914C37.4963 8.92274 36.8608 8.54155 36.2189 8.22754ZM22.9073 46.3164C22.9196 46.3447 22.9176 46.398 22.9054 46.4561C23.4442 46.7362 23.981 47.0099 24.5148 47.2783C23.9481 46.924 23.3933 46.5638 22.8507 46.1992C22.8649 46.2243 22.8835 46.2616 22.9073 46.3164ZM37.1486 44.0859C37.1292 44.1319 37.1098 44.1795 37.0909 44.2227C36.9505 44.5431 36.806 44.8535 36.6593 45.166C36.6263 45.2362 36.5918 45.3062 36.5587 45.376C36.3681 45.979 36.1611 46.5799 35.9083 47.1777C36.0599 46.9247 36.2113 46.6714 36.3693 46.4189C36.4132 46.349 36.4574 46.2794 36.5021 46.21C36.7438 45.4828 36.9647 44.7463 37.1915 44.0156C37.1776 44.0384 37.1628 44.0618 37.1486 44.0859ZM16.5343 42.1865C17.0804 42.6251 17.6315 43.0484 18.1896 43.4492C19.6071 44.3427 21.0642 45.1482 22.5177 45.9736C22.1304 45.7097 21.7507 45.4416 21.3761 45.1738C19.7711 44.2497 18.1649 43.2497 16.5343 42.1865ZM37.6183 33.75C37.3632 34.4291 37.0881 35.1313 36.7902 35.8545C35.9628 38.2123 35.0268 40.9113 33.88 44.0606C34.0284 43.7771 34.1781 43.4883 34.3302 43.1973C34.4994 42.682 34.6418 42.4987 34.8282 42.04C35.3249 40.8109 35.8852 39.4222 36.4103 38.0606C36.6321 37.2973 36.8511 36.5311 37.0646 35.7617C37.2453 35.0923 37.4322 34.4217 37.6183 33.75ZM37.2452 43.6689C37.2638 43.6961 37.2663 43.7218 37.2677 43.7314C37.2672 43.7764 37.2637 43.7709 37.2628 43.7793C37.2579 43.8029 37.2471 43.8354 37.2394 43.8574C37.2333 43.8749 37.2238 43.8979 37.215 43.9209C37.2178 43.9196 37.2205 43.9183 37.2228 43.917C37.2721 43.7586 37.3249 43.6011 37.3751 43.4434C37.3312 43.5185 37.2882 43.5942 37.2452 43.6689ZM43.5821 24.4912C43.4482 24.8849 43.3036 25.2737 43.1456 25.6523C42.606 26.8162 42.1519 27.9222 41.7941 28.7959C41.4968 30.1857 41.19 31.5641 40.8292 32.9111C39.7933 36.3449 38.4488 39.4407 37.4337 42.624C37.3138 42.9564 37.2057 43.2899 37.1007 43.6221C37.1121 43.6163 37.1319 43.6111 37.171 43.6182C37.2306 43.5144 37.2903 43.4096 37.3517 43.3057C37.4164 43.1679 37.4849 43.0302 37.5519 42.8916C37.6859 42.4883 37.825 42.0882 37.9757 41.6953C38.9132 39.1496 39.6733 36.5804 40.5939 34.1318C41.4339 31.8578 42.0699 29.5588 42.8429 27.376C43.2109 26.3373 43.4717 25.2837 43.6915 24.2354C43.6549 24.3194 43.6198 24.4054 43.5821 24.4912ZM43.2755 26.707C43.201 26.9528 43.1243 27.1991 43.0392 27.4434C42.2778 29.6297 41.6576 31.923 40.8243 34.2178C40.6086 34.802 40.4013 35.3941 40.1984 35.9912C39.6305 37.6632 39.1275 39.2695 38.6007 40.792C39.4973 39.0354 40.4429 37.1745 41.1661 35.1123C41.9419 32.4989 42.6643 29.6831 43.2755 26.707ZM6.7091 34.4678C7.43876 35.2568 8.19921 36.0168 8.98938 36.7549C10.1377 37.8094 11.2193 38.9565 12.4669 39.7744C12.9459 40.0849 13.418 40.4079 13.8868 40.7344C13.3453 40.2521 12.8161 39.7672 12.296 39.2813C11.4605 38.6484 10.636 37.9715 9.84484 37.2441C8.86747 36.2896 7.78767 35.4049 6.7091 34.4678ZM1.02648 26.0293C1.2335 28.9765 2.39385 31.6545 4.24133 33.6953C4.75565 34.3036 5.28869 34.8816 5.83703 35.4297C4.9929 34.3381 4.25205 33.1744 3.52453 31.9922C3.4024 31.7964 3.28678 31.595 3.1759 31.3906C3.05784 31.2394 2.94006 31.0879 2.82141 30.9375C2.38759 30.2993 2.10433 29.6352 1.90637 28.96C1.85799 28.8737 1.80896 28.7864 1.76184 28.6982C1.49492 27.8573 1.23415 26.9599 1.02648 26.0293ZM39.7257 27.1992C39.4783 28.0212 39.2193 28.8868 38.9503 29.8135C38.9072 29.9581 38.8619 30.1044 38.8165 30.252C38.4319 31.7794 38.0281 33.2185 37.6603 34.5762C38.4407 32.1099 38.9883 30.0546 39.5929 27.7256C39.6381 27.5512 39.6822 27.376 39.7257 27.1992ZM3.08703 29.2314C3.18947 29.523 3.30263 29.81 3.4259 30.0918C4.22716 31.1843 5.1932 32.1662 6.2384 33.1318C6.04457 32.8976 5.85439 32.6606 5.66906 32.4199C5.5559 32.2657 5.44202 32.1116 5.32824 31.958C4.54786 31.0858 3.76921 30.1888 3.08703 29.2314ZM7.51477 15.6221C7.22996 15.6928 6.94947 15.7688 6.6759 15.8525C5.30974 17.4289 4.43959 19.7152 3.70324 21.9004C3.34829 22.9648 3.29621 24.1107 3.44152 25.2666C3.45543 25.3277 3.46901 25.3892 3.48352 25.4502C3.957 26.8322 4.56827 28.1376 5.27746 29.3594C6.01569 30.2275 6.81568 31.0836 7.60852 31.9336C6.40669 30.2717 5.39242 28.4451 5.12902 26.1299C5.26805 24.2195 5.45787 22.2807 5.81359 20.3379C6.2045 18.786 6.29583 16.9809 7.51477 15.6221ZM40.3898 21.8496C40.2423 22.8793 40.089 23.8847 39.9366 24.8652C40.0431 24.4967 40.1466 24.1299 40.2472 23.7656C40.3197 23.1302 40.3687 22.4924 40.3898 21.8496ZM2.28039 24.3389C2.3256 24.5055 2.37873 24.6711 2.43566 24.8359C2.38196 24.5569 2.33351 24.2772 2.29113 23.9971C2.28672 24.1106 2.28296 24.2247 2.28039 24.3389ZM39.463 3.06055C38.7612 2.75081 38.043 2.68426 36.8829 2.76856C37.3065 2.96947 37.6997 3.22478 38.0577 3.4834C40.5525 5.17676 41.8022 8.35313 42.4152 11.2285C43.1127 13.2659 43.1602 15.4075 43.1642 17.5625C43.5016 19.8717 43.2083 22.2111 42.7472 24.4014C42.7758 24.3394 42.8066 24.278 42.8351 24.2158C43.0812 23.2286 43.1998 22.1751 43.507 20.8682C43.8034 19.5303 43.9712 18.9589 44.1359 18.0273C44.212 17.5799 44.2683 17.0342 44.2755 16.2676C44.2946 13.9361 44.1197 11.5763 43.8644 10.5742C43.8495 10.5141 43.8356 10.4578 43.8234 10.4063C43.5998 9.5739 43.7553 9.3359 43.17 8.08594C42.4999 6.78716 41.9703 6.07118 41.1945 5.02735C40.9839 4.74387 40.6289 4.32056 40.2374 3.7959C40.1205 3.61959 39.9865 3.44489 39.84 3.27442C39.7116 3.19617 39.5861 3.12557 39.463 3.06055ZM5.71008 16.2051C4.59666 17.1592 3.61259 18.2308 3.19445 19.5098C3.12569 19.7835 3.06497 20.0573 3.01281 20.3301C2.98258 20.5801 2.97215 20.8378 2.9884 21.1035C2.99559 21.6195 3.01938 22.1383 3.05773 22.6563C3.11331 22.357 3.18787 22.0592 3.28527 21.7666C3.94184 19.9326 4.60202 17.823 5.85461 16.1426C5.80608 16.1628 5.75787 16.1839 5.71008 16.2051ZM25.6925 13.0205C25.4628 13.4553 25.3242 13.8491 25.1505 14.2979C25.0168 14.6477 24.8922 14.9505 24.7648 15.209C24.7156 15.3699 24.6664 15.5316 24.6193 15.6934C24.6175 15.6995 24.6152 15.7058 24.6134 15.7119C24.4605 16.5733 24.3186 17.4369 24.2159 18.2979C24.2388 18.3399 24.2867 18.279 24.2872 18.2998C24.2836 18.6545 24.2338 18.6904 24.172 18.6982C24.1633 18.7806 24.1545 18.8631 24.1466 18.9453C24.1661 19.2713 24.1856 19.5967 24.2013 19.9229C24.2048 19.9564 24.2051 19.9886 24.2052 20.0195C24.2159 20.2555 24.2252 20.4921 24.2286 20.7295C24.2287 20.7352 24.2276 20.7413 24.2277 20.7471C24.2317 20.7542 24.2363 20.7614 24.2404 20.7686C24.3083 20.2953 24.389 19.8233 24.4845 19.3545C24.5174 18.7622 24.5595 18.1819 24.6114 17.668C24.651 17.2772 24.6898 17.477 24.7208 17.209C24.7835 16.6784 24.8039 16.1802 24.8956 15.6514C24.9271 15.4747 24.9816 15.7052 25.0128 15.5215C25.1048 15.0233 25.1585 14.5658 25.3624 13.9795C25.4558 13.7346 25.5528 13.4911 25.6564 13.248C25.6683 13.1725 25.6804 13.0967 25.6925 13.0205ZM44.9415 15.2881C44.9761 15.8262 44.9932 16.3485 44.9835 16.9756C45.0093 16.4112 44.9982 15.8467 44.9415 15.2881ZM9.79504 13.5029C8.39907 13.4305 7.03585 14.0601 5.67395 14.8789C5.33867 15.1356 5.04121 15.459 4.77258 15.8281C4.88607 15.7611 5.00225 15.699 5.11926 15.6397C5.3975 15.3985 5.67638 15.1719 5.94641 14.9619C7.0204 14.1567 8.17869 13.7482 9.36535 13.5938C9.50691 13.5584 9.65036 13.528 9.79504 13.5029ZM13.4113 12.7998C13.794 12.9748 14.1775 13.1544 14.5636 13.3359C15.4543 13.773 16.3118 14.296 17.129 14.8916C17.2502 14.944 17.3702 14.9977 17.4884 15.0537C17.3783 14.9423 17.266 14.8341 17.1544 14.7266C16.0056 14.0525 14.7972 13.3334 13.545 12.7725C13.4932 12.7868 13.4533 12.793 13.4113 12.7998ZM10.9864 12.9004C10.9704 12.9032 10.9538 12.9044 10.9376 12.9072C11.1837 12.9681 11.4339 13.0287 11.6866 13.0908C11.4797 13.0194 11.2713 12.9538 11.0626 12.8916C11.0375 12.8947 11.0116 12.8969 10.9864 12.9004ZM25.8614 12.7236C25.8556 12.7571 25.8507 12.7908 25.8448 12.8242C25.8845 12.7376 25.9244 12.6503 25.9659 12.5635C25.97 12.5549 25.9735 12.5457 25.9777 12.5371C25.9364 12.6003 25.8982 12.6628 25.8614 12.7236ZM38.9835 10.1611C39.2426 10.6327 39.491 11.1206 39.7238 11.6221C39.6667 11.3398 39.6012 11.0588 39.5265 10.7803C39.3579 10.5646 39.177 10.3575 38.9835 10.1611ZM29.0939 6.88086C28.2478 7.85906 27.4395 8.8713 26.7159 9.91797C26.7354 9.91912 26.7613 9.90662 26.7589 9.917C26.7444 9.96638 26.7065 10.0603 26.6661 10.167C26.8524 9.90681 27.0384 9.64611 27.2169 9.38282C27.5849 8.83722 27.9649 8.30783 28.3722 7.81153C28.4937 7.66472 28.459 7.8533 28.5314 7.76758C29.0893 7.13142 29.0423 7.08665 29.0958 6.87793C29.0951 6.87868 29.0946 6.88012 29.0939 6.88086ZM36.9288 7.11035C37.2757 7.48263 37.6024 7.87927 37.8966 8.30567C38.2568 8.54137 38.6056 8.79868 38.9357 9.0791C38.9151 9.03182 38.8963 8.98345 38.8751 8.93653C38.8092 8.7941 38.9044 8.57713 38.6945 8.30664C38.6382 8.31248 38.5887 8.34617 38.5372 8.36621C38.2523 7.92854 37.9237 7.53568 37.5597 7.23828C37.5453 7.22624 37.5302 7.21504 37.5157 7.20313C37.3244 7.15889 37.1284 7.12882 36.9288 7.11035ZM36.3722 7.08985C36.0664 7.09197 35.754 7.11422 35.4376 7.15332C35.8184 7.23067 36.1933 7.35409 36.5538 7.54004C36.6998 7.61236 36.8453 7.68829 36.9904 7.7666C36.7955 7.53577 36.5891 7.3105 36.3722 7.08985ZM35.3693 6.15821C35.2353 6.1567 35.103 6.16927 34.9728 6.20215C33.8266 6.45355 32.7266 6.81494 31.7589 7.36133C31.6825 7.44554 31.6079 7.53209 31.5363 7.6211C31.6107 7.59432 31.6864 7.56785 31.7628 7.542C32.1381 7.34168 32.5404 7.18809 32.9767 7.10352C33.8789 6.90859 34.8732 6.66734 35.8605 6.59668C35.701 6.44895 35.5365 6.30354 35.3693 6.15821ZM35.0724 3.2041C34.5876 3.24354 34.102 3.33282 33.6271 3.4668C33.4649 3.5234 33.305 3.58379 33.1476 3.64649C33.2182 3.64397 33.2849 3.64893 33.3448 3.66309C33.3791 3.66805 33.81 3.76973 34.1876 3.66602C34.2091 3.66008 33.9412 3.57013 34.4161 3.5918C34.6686 3.60814 35.0078 3.63238 35.3585 3.71582C35.646 3.78344 35.9452 3.88178 36.2042 4.01953C36.382 4.11401 36.7427 4.41482 37.3087 4.58594C37.3482 4.58156 38.289 4.84196 38.4103 5.22266C38.4264 5.28642 38.2657 5.39287 38.8321 5.79102C38.9386 5.86991 38.8061 5.66433 39.0685 5.89649C39.2172 6.03088 39.367 6.19842 39.5138 6.38184C39.6744 6.58177 39.8618 6.80546 40.0685 7.02051C39.453 5.89421 38.6518 4.9085 37.5714 4.15528C36.7916 3.58978 35.9344 3.13322 35.0724 3.2041ZM30.3751 5.91114C30.2654 5.97432 30.1583 6.04089 30.0529 6.10938C29.9922 6.15315 29.9279 6.19833 29.8624 6.25C29.8049 6.29521 29.627 6.48173 29.4113 6.64356C29.5752 6.60002 29.8487 6.38991 30.253 6.02735C30.3025 5.98513 30.3407 5.94477 30.3751 5.91114ZM36.4034 6.57715C36.4853 6.57717 36.5671 6.57999 36.6486 6.58301C36.4744 6.47967 36.3029 6.3904 36.132 6.32227C36.2231 6.40597 36.3138 6.49086 36.4034 6.57715ZM33.3282 5.13477C32.9444 5.11538 32.5385 5.15007 32.1446 5.20703C31.7647 5.41218 31.4341 5.6048 31.17 5.80762C30.774 6.1193 30.8114 6.16864 30.7491 6.29004C31.5591 5.79465 32.4384 5.41419 33.3282 5.13477ZM41.9738 5.2666C42.1561 5.5256 42.3273 5.76042 42.4864 5.9795C42.1801 5.47304 41.8404 5.04079 41.5216 4.69043C41.6677 4.87109 41.8198 5.06166 41.9738 5.2666ZM34.172 4.71192C33.9389 4.70165 33.6904 4.7181 33.4386 4.75782C33.6836 4.77956 33.9265 4.82257 34.1642 4.90137C34.324 4.86252 34.4836 4.82651 34.6427 4.79395C34.6806 4.7846 34.7191 4.77821 34.757 4.77051C34.5417 4.73334 34.3389 4.71732 34.172 4.71192Z" fill="#2F2F2F"/>
</svg>
