<svg width="237" height="61" viewBox="0 0 237 61" fill="none" xmlns="http://www.w3.org/2000/svg">
<path d="M55.5802 46.4854C56.9989 46.4911 58.6785 46.4947 60.5105 46.4966C68.8541 46.4992 80.4957 46.5454 87.4409 46.5272C87.5976 46.5267 87.7527 46.5261 87.9061 46.5256C88.4645 46.5237 89.017 46.5209 89.5567 46.517C91 46.5064 92.4243 46.4888 94.0343 46.4587C97.2703 46.4026 101.279 46.2551 107.362 46.2348C111.173 46.2182 115.818 46.2294 121.618 46.2568C125.99 46.2369 130.363 46.2217 134.732 46.2001C136.772 46.1897 138.837 46.1778 140.874 46.1595C146.345 46.1385 151.75 45.9023 157.295 45.838C165.523 45.7504 173.74 45.7843 181.911 45.7076C187.758 45.7125 193.368 45.0921 199.438 44.7498C202.148 44.6706 205.032 43.3477 208.337 42.3711C211.638 41.4675 214.432 38.9153 217.611 36.3875C220.427 34.1595 223.52 30.8534 224.517 28.5362C224.806 27.4128 224.925 26.3518 224.763 25.5366C224.197 22.8984 219.828 20.6993 215.916 18.2295C213.292 16.3987 210.473 14.9146 207.485 13.5306C204.612 12.2183 201.064 11.709 197.479 11.0533C196.733 10.9076 195.644 10.992 194.254 10.8966C193.719 10.8446 193.3 10.8228 192.771 10.8008C192.191 10.7807 191.598 10.767 190.987 10.7548C183.386 10.6289 174.549 10.6261 166.739 10.5848C162.504 10.5655 158.551 10.5436 155.285 10.5121C143.553 10.4 135.597 10.3121 129.046 10.236C106.924 10.1347 84.7731 10.0543 62.6719 10.0496C53.3227 10.1029 43.5384 9.89485 34.6743 10.3643C31.3682 11.0026 28.1489 11.9645 24.6244 12.6022C22.4182 12.9487 20.3633 14.1465 18.1716 15.4402C17.3676 15.9084 16.5345 16.3846 15.639 16.807C12.2521 18.4671 10.0422 22.53 8.90329 26.4509C8.00768 29.6021 8.629 33.0452 9.86071 36.3332C10.6557 38.5991 12.6553 40.4066 14.5917 42.5957C14.9814 43.0481 15.3685 43.5285 15.7236 44.0693C18.5189 47.4157 23.8549 49.6023 28.4689 51.666C31.1791 52.7945 34.1105 53.7055 37.0081 54.6134C38.8204 55.1967 40.643 55.5692 42.5487 55.8644C46.2829 56.411 49.9845 56.6773 53.5539 56.8883C55.8008 57.0154 58.0134 57.0658 60.1622 57.0951C67.9331 57.1821 74.8793 57.0186 80.6356 57.0105C81.6395 57.0083 82.6546 57.0092 83.6818 57.0177C91.6757 57.1094 100.022 57.3337 107.832 57.3791C112.813 57.425 117.584 57.459 121.803 57.486C123.712 57.498 125.503 57.5083 127.169 57.5167C136.423 57.4963 145.678 57.4562 154.932 57.3796C155.548 57.3924 156.17 57.4057 156.805 57.4191C159.43 57.4747 162.279 57.5021 165.427 57.4986C170.838 57.3492 177.403 57.8176 185.079 55.8441C186.398 55.5359 187.766 55.2257 189.187 54.9184C191.797 54.3562 194.583 53.793 197.597 53.3209C200.076 52.9187 202.769 51.9635 205.617 50.9692C207.553 50.2907 209.562 49.6137 211.645 48.9105C214.749 47.8646 217.011 47.126 218.811 46.5443C220.129 46.1152 221.171 45.6331 222.111 45.1733C222.739 44.8633 223.325 44.5526 223.915 44.2246C225.317 43.4449 226.727 42.524 228.317 41.5204C228.92 41.1381 229.488 40.6461 230.011 40.0439C231.177 38.7119 232.066 36.855 232.961 34.5644C233.498 33.1801 233.737 31.3939 233.623 29.4772C233.593 28.9775 233.489 28.4806 233.297 27.9783C232.435 25.7981 230.286 24.1278 228.593 22.3597C226.215 19.8763 223.41 18.7537 220.858 17.3267C217.784 15.5275 215.292 14.2194 212.983 13.368C210.171 12.2919 207.928 11.4339 205.893 10.7337C204.141 10.1293 202.55 9.62734 200.919 9.17904C200.607 9.09326 200.285 9.00784 199.958 8.92437C197.103 8.19707 193.704 7.35571 190.319 6.50972C188.309 6.02182 185.819 5.77209 183.677 4.89066C183.093 4.65929 182.48 4.47801 181.869 4.32894C177.821 3.18303 169.591 3.75896 162.322 3.84704C161.583 3.79231 161.041 3.76833 160.393 3.75144C157.662 3.6845 153.94 3.64161 149.542 3.60529C148.48 3.59703 147.431 3.59014 146.289 3.58427C142.543 3.56528 138.428 3.55945 134.081 3.58229C119.827 3.66117 112.256 3.72469 106.167 3.77243C104.434 3.78655 102.815 3.80002 101.2 3.8145C97.0984 3.85152 92.1902 3.8885 87.1198 3.93933C85.851 3.95205 84.6367 3.96622 83.3586 3.98341C77.3723 4.06225 71.4627 4.2046 66.2267 4.5457C64.7756 4.60417 63.3588 4.67047 62.0488 4.72867C56.402 4.91823 50.752 5.07242 45.0962 5.18098C40.558 5.18103 36.7029 6.25256 31.8633 7.50501C28.0166 8.28792 24.2175 9.11497 20.7854 10.596C19.6812 11.0682 18.5781 11.4823 17.475 11.8731C15.4816 12.5782 13.4953 13.183 11.5955 13.7584C9.11199 14.4873 7.00992 16.2975 5.1948 18.1367L5.40151 17.851C4.28559 19.6776 3.5351 21.455 3.04564 23.1705C2.74294 24.2112 2.51408 25.2111 2.27634 26.1224L2.28753 26.0451C1.7423 29.4796 1.56604 31.5562 1.20717 31.5369C0.91354 31.5242 0.439243 29.5972 0.465169 25.8496C0.466441 25.8383 0.471204 25.8046 0.473305 25.7934C0.572063 24.8762 0.672226 23.8349 0.875216 22.6708C1.19641 20.7531 1.89611 18.5944 2.99589 16.5041C3.02479 16.4531 3.12346 16.3158 3.16333 16.2727C4.9763 14.1924 7.30879 11.8615 10.6326 10.7508C12.5336 10.1144 14.4601 9.48771 16.3717 8.79349C17.4269 8.4101 18.4701 8.00757 19.4744 7.56814C23.2937 5.88966 27.2756 5.00906 31.1844 4.17707C35.2877 3.06375 40.2991 1.66853 45.0155 1.67691C51.1853 1.5119 57.3475 1.29331 63.5173 1.04013C64.3712 1.00575 65.2481 0.969059 66.1112 0.938014C73.0406 0.509221 80.115 0.442564 87.1007 0.37974C98.607 0.296712 110.137 0.273483 121.651 0.278262C129.875 0.28401 138.083 0.299612 146.308 0.351327C151.674 0.413708 156.906 0.353068 162.414 0.696621C162.452 0.699766 162.487 0.70235 162.52 0.704524C163.687 0.77065 165.074 0.720553 166.399 0.68504C172.526 0.50797 178.732 -0.116364 184.824 1.85089C186.739 2.58347 188.792 2.70934 191.112 3.23495C193.285 3.74617 195.324 4.23311 197.176 4.69056C198.462 5.00803 199.678 5.31737 200.833 5.62425C205.618 6.93408 209.083 8.48879 212.141 9.73602C212.815 10.0162 213.467 10.2868 214.103 10.5467C216.034 11.3312 217.808 12.223 219.498 13.1619C220.287 13.5971 221.238 14.1445 222.328 14.7666C222.878 15.0805 223.522 15.406 224.242 15.771C226.147 16.7252 228.619 18.07 230.741 20.2159C232.562 22.2484 236.259 24.3396 236.795 29.2526C236.93 31.3511 236.784 33.5268 235.903 35.7658C234.746 38.5789 233.215 42.0457 229.857 44.073C227.925 45.229 225.974 46.4889 223.894 47.6039C222.649 48.2683 221.302 48.9175 219.803 49.4225C215.58 50.8385 211.022 52.2897 206.605 53.7751C205.793 54.0501 204.978 54.3254 204.159 54.591C202.165 55.2303 200.169 55.8445 198.04 56.1651C193.41 56.8415 189.133 57.7548 185.705 58.5291C183.758 59.0454 181.733 59.4291 180.339 59.592C175.578 60.1792 170.516 60.2717 165.459 60.3264C161.566 60.3573 157.719 60.3612 154.046 60.3603C146.048 60.3571 139.048 60.327 135.07 60.3985C130.312 60.4831 126.262 60.4489 120.229 60.3877C116.872 60.3527 112.862 60.3106 107.815 60.262C106.573 60.2499 105.297 60.2373 103.944 60.2233C95.879 60.1526 90.1802 59.9235 85.3626 59.8116C84.7778 59.7979 84.2217 59.7856 83.6529 59.7741C77.689 59.6672 72.7906 59.7142 65.7924 59.7649C61.6736 59.7885 57.4521 59.7779 53.3796 59.5451C49.0642 59.2859 44.9526 58.9282 41.3201 58.2974C39.7263 58.0202 37.9708 57.6372 36.2415 57.0795C34.5277 56.5454 32.7429 55.9794 30.925 55.3513C29.7791 54.9531 28.6224 54.5366 27.4536 54.0402C23.8522 52.4876 20.2364 50.8125 17.0607 48.6544C15.7684 47.7426 14.557 46.8205 13.6386 45.4357C12.6112 43.8528 11.1196 42.4787 9.96821 41.0011C9.37765 40.2577 8.84242 39.4867 8.40857 38.6734C8.13155 38.1793 7.88737 37.6577 7.69146 37.1128C6.76172 34.5982 6.05606 31.8278 6.17821 28.9904C6.18855 28.4419 6.22879 27.8628 6.31294 27.2606C6.37868 26.7902 6.47138 26.304 6.59826 25.8058C7.28799 23.2321 8.3751 20.1699 10.9765 17.1768C11.9736 16.0671 13.153 15.0993 14.5221 14.4452C17.4766 13.0177 20.378 10.6207 24.1954 10.0257C25.6401 9.78979 27.1475 9.42462 28.6752 9.06899C30.4491 8.65263 32.2684 8.22461 34.1708 7.85441C37.7491 7.47229 40.894 7.62144 44.6119 7.53557C48.5789 7.4886 53.1202 7.43208 57.6141 7.38165C59.2988 7.36271 60.9725 7.34475 62.6635 7.32867C67.4798 7.28201 72.0365 7.25216 75.443 7.26841C77.1877 7.27655 78.617 7.32444 80.1015 7.37214C80.1078 7.37243 80.1142 7.37273 80.1205 7.37303C80.2184 7.37627 80.3167 7.37943 80.4148 7.38266C91.5517 7.32813 102.707 7.27945 113.853 7.23462C114.818 7.22169 115.795 7.209 116.762 7.19655C121.49 7.13569 126.082 7.07807 129.074 6.99534C132.322 6.90562 140.476 6.85752 149.079 6.81468C154.714 6.78652 160.503 6.76072 165.292 6.72461C165.791 6.72083 166.277 6.71966 166.751 6.72065C169.028 6.72555 171.187 6.77648 173.401 6.8304C175.928 6.89184 178.542 6.95679 181.382 6.96508C182.808 6.96937 184.335 6.96058 185.982 6.95531C187.433 6.95098 188.948 6.9479 190.557 6.96558C191.379 6.98493 192.706 6.9741 194.561 7.1368C195.356 7.22397 196.524 7.08802 198.146 7.35351C198.675 7.4534 199.234 7.55446 199.812 7.65989C202.397 8.15163 205.432 8.62159 208.618 9.96359C208.759 10.0233 208.903 10.0865 209.044 10.1507C212.114 11.5423 215.215 13.1386 218.065 15.0977C221.352 17.4552 226.62 18.7257 228.584 24.7785C228.672 25.2176 228.719 25.6542 228.734 26.08C228.802 27.4299 228.603 28.5575 228.411 29.5097C228.172 30.4402 227.916 30.8748 227.685 31.3614C227.237 32.2439 226.835 32.9174 226.397 33.6074C225.8 34.5351 225.146 35.4614 224.13 36.623C223.335 37.535 222.311 38.5121 221.575 39.1115C221.233 39.3913 220.957 39.5926 220.709 39.7712C220.63 39.8281 220.552 39.8833 220.475 39.9385C220.286 40.0731 220.108 40.2043 219.905 40.3695C219.706 40.5313 219.506 40.7142 219.258 40.9403C218.862 41.2998 218.352 41.77 217.501 42.4463C215.496 44.0493 212.828 45.9488 209.683 46.8454C208.282 47.2596 206.861 47.7782 205.31 48.2801C203.587 48.8411 201.628 49.3383 199.659 49.4176C196.753 49.5468 193.956 49.8408 191.488 50.0237C188.866 50.2294 185.543 50.366 181.971 50.379C179.722 50.3891 177.364 50.3817 175.011 50.3727C170.788 50.3557 166.561 50.3305 162.943 50.3372C161.105 50.3407 159.223 50.3591 157.355 50.394C155.608 50.4265 153.879 50.4774 152.164 50.5407C148.174 50.6998 144.281 50.8075 140.917 50.7989C140.673 50.7984 140.426 50.7975 140.177 50.7961C139.474 50.7919 138.572 50.7361 137.472 50.6648C136.689 50.6143 135.779 50.5561 134.753 50.5028C130.276 50.525 125.801 50.5352 121.327 50.5462C121.17 50.5553 121.007 50.5645 120.845 50.5739C120.842 50.5741 120.84 50.5743 120.837 50.5745C117.583 50.7645 113.247 51.0065 107.408 50.9959C106.655 50.9953 105.89 50.9911 105.097 50.9833C103.311 50.9662 102.183 50.9122 101.169 50.8653C100.174 50.8194 99.2817 50.7813 97.9754 50.8028C96.4895 50.8274 94.7329 50.914 92.808 50.9912C91.7856 51.0326 90.7097 51.0723 89.6052 51.1022C87.8242 51.1507 85.9508 51.1749 84.0904 51.1434C83.8838 51.14 83.6609 51.1361 83.4324 51.1322C81.2462 51.0955 78.0128 51.0348 74.7952 50.895C70.0198 50.8746 65.2389 50.8435 60.4617 50.7705C57.2083 50.7136 53.8365 50.6543 50.6208 50.3903C49.1165 50.3087 47.5918 50.2285 46.0425 50.0758C41.8513 49.6828 37.8137 48.625 33.9067 47.4874C28.1423 45.7631 22.9617 43.1726 17.6692 40.9121C14.442 39.4781 9.22005 37.5961 8.78331 32.1845C8.67423 29.8953 8.52042 27.6621 8.74775 25.1741C8.82678 24.5915 8.85591 24.0495 9.23384 23.2114C12.3181 17.3673 15.5472 12.2907 19.5935 8.70884C20.1762 8.29055 20.766 8.00894 21.3334 7.78267C26.9171 5.9614 30.0845 6.88089 30.0625 7.1816C30.133 7.65363 26.8142 7.67496 22.2445 9.78118C21.8104 10.013 21.3905 10.2814 21.0599 10.5774C18.1915 13.6468 14.8703 19.1799 12.156 24.634C12.1425 24.6411 12.0329 25.1098 12.0011 25.5154C11.8374 27.4818 11.988 29.7737 12.1252 31.9818C12.1912 34.6108 15.5301 36.3332 19.0397 37.7161C24.3891 39.9379 29.6219 42.4511 34.9181 43.9635C35.6378 44.166 36.3494 44.3606 37.0596 44.5475C37.6933 44.7092 38.3234 44.8642 38.9481 45.0107C43.0791 46.0219 46.7806 46.3121 50.8179 46.3657C51.4412 46.3838 51.9712 46.4163 52.5045 46.4337C53.5124 46.4694 54.5403 46.4809 55.5802 46.4854Z" fill="#6983D0"/>
</svg>
