<svg width="158" height="55" viewBox="0 0 158 55" fill="none" xmlns="http://www.w3.org/2000/svg">
<path d="M108.387 32.1628C108.358 32.2047 108.328 32.2512 108.298 32.3C108.379 32.2721 108.45 32.2465 108.514 32.2209L108.493 32.214C108.457 32.1989 108.421 32.1826 108.387 32.164" fill="#6983D0"/>
<path d="M39.3047 11.9535C38.7911 12.3719 38.0463 12.5845 37.0911 12.5845C36.6414 12.5845 36.2068 12.5252 35.7978 12.4067C35.383 12.2859 35.0483 12.1557 34.8008 12.0186C34.5487 11.8803 34.307 11.7153 34.0839 11.5317C33.7852 11.2854 33.683 11.1866 33.6493 11.1471C33.5912 11.0855 33.5517 11.0379 33.5284 11.0042L33.2693 10.6172L31.9307 12.6531L32.1584 13.0319C32.263 13.2039 32.4466 13.4026 32.7208 13.6373C32.9834 13.8615 33.3007 14.0847 33.6679 14.2961C34.0467 14.5158 34.5661 14.7017 35.2087 14.8504C35.8431 14.9957 36.5485 15.07 37.3038 15.07C39.1386 15.07 40.5946 14.6285 41.6311 13.7558C42.6827 12.8704 43.216 11.7165 43.216 10.3256C43.216 8.74757 42.4363 7.66574 40.8932 7.09752C42.0122 6.24112 42.5769 5.15233 42.5769 3.85321C42.5769 2.62845 42.154 1.66515 41.3162 0.991189C40.4993 0.334657 39.3431 0 37.8755 0C37.0807 0 36.2638 0.276557 35.4434 0.821537L35.2656 0.190569L33.3309 0.190569L33.2077 4.45861H35.5747L35.67 3.01191C36.2359 2.57268 36.8204 2.35887 37.4513 2.35887C39.3605 2.35887 39.5813 3.34425 39.5813 4.08677C39.5813 4.72587 39.3803 5.22902 38.9654 5.6241C38.5483 6.02383 38.1079 6.21788 37.6187 6.21788H34.8066V8.68482L37.4711 8.65925C38.3717 8.65925 39.0456 8.79056 39.4767 9.05085C39.8613 9.28209 40.0484 9.69228 40.0484 10.3035C40.0484 11.0042 39.8044 11.5433 39.3024 11.9524" fill="#6983D0"/>
<path d="M55.5356 15.07C57.8224 15.07 59.6514 14.3438 60.9726 12.9122C62.2868 11.4876 62.9538 9.60396 62.9538 7.31249C62.9538 5.02102 62.2903 3.2571 60.9842 1.95681C59.6781 0.657694 57.8445 0 55.5356 0C53.2267 0 51.4232 0.65537 50.138 1.94752C48.8529 3.23967 48.2021 5.04426 48.2021 7.31133C48.2021 9.5784 48.8564 11.5027 50.1497 12.9192C51.4488 14.3449 53.2604 15.0677 55.5344 15.0677M52.4028 3.75095C53.1232 2.93987 54.176 2.52736 55.5356 2.52736C56.8951 2.52736 57.9769 2.94103 58.7125 3.75327C59.455 4.57365 59.8315 5.77167 59.8315 7.31249C59.8315 8.85331 59.4469 10.1896 58.6892 11.1413C57.9386 12.0848 56.9056 12.5415 55.5356 12.5415C54.1656 12.5415 53.179 12.0848 52.4353 11.1425C51.6835 10.1919 51.3024 8.90327 51.3024 7.31249C51.3024 5.72171 51.6731 4.57249 52.4028 3.75095Z" fill="#6983D0"/>
<path d="M68.9973 12.3658L67.3229 12.4518L67.4669 14.7293H88.0577L88.2029 12.4518L86.5273 12.3658V2.57589L88.0983 2.4899V0.318115L82.2802 0.318115L82.1338 2.48525L83.4701 2.57124V12.2868H79.2694V2.57008L80.5011 2.48525V0.318115L75.0432 0.318115L74.8968 2.48525L76.2331 2.57124V12.2868H72.0348V2.57008L73.2653 2.48525V0.318115L67.4472 0.318115L67.3008 2.4899L68.9973 2.57705V12.3658Z" fill="#6983D0"/>
<path d="M94.7629 12.3658L93.0885 12.4518L93.2326 14.7293H97.5029L97.6982 14.2761L104.226 5.11138V12.4727L102.573 12.5575L102.719 14.7293H108.687L108.834 12.5575L107.137 12.4715V2.57589L108.728 2.4899V0.318115L104.418 0.318115L104.223 0.771297L97.6714 9.91162V2.57589L99.2645 2.4899V0.318115L93.2117 0.318115L93.0664 2.4899L94.7629 2.57705V12.3658Z" fill="#6983D0"/>
<path d="M115.788 2.76083H118.068V12.366L116.416 12.4531L116.56 14.7295H122.656L122.802 12.4531L121.126 12.366V2.76083H123.461L123.61 4.62933H125.966V0.196289L123.598 0.318299L115.74 0.318299L113.367 0.196289L113.242 4.62933H115.577L115.788 2.76083Z" fill="#6983D0"/>
<path d="M31.7822 33.9338L30.5424 32.6498L30.3204 32.8647C27.6408 35.4525 25.0786 37.4175 22.4815 38.8746C21.7762 39.2941 21.1406 39.4301 20.7827 39.2372C20.3586 39.0094 20.2598 38.2762 20.2389 37.8532C20.1947 37.2339 20.2017 36.5948 20.2551 35.9533C22.4548 34.1871 24.5627 32.3012 26.5288 30.342C28.8644 27.9483 32.512 23.4874 30.6853 20.4975C30.6214 20.3918 30.5354 20.3023 30.4343 20.2314C27.7501 18.3594 24.7916 22.3742 23.3693 24.3042L23.1729 24.5703C20.5224 28.3759 19.0141 31.7945 18.5644 35.0179C17.1909 36.1009 15.7582 37.1537 14.3045 38.1518C13.1739 38.9722 12.4209 39.0501 12.2118 38.9083C12.0421 38.7933 11.8968 38.2123 12.1862 37.1049C13.447 33.1459 14.8286 29.1637 16.2265 25.228C16.9353 25.199 17.6604 25.1781 18.4099 25.1606L18.719 25.1537L18.6748 23.3688L18.3657 23.3758C17.8823 23.3886 17.3827 23.4002 16.8714 23.4165C17.2618 22.3254 17.6511 21.2366 18.0392 20.1547C19.2849 16.6815 20.5735 13.0909 21.7913 9.54215L21.8901 9.25049L20.2017 8.67181L20.1018 8.96347C18.8933 12.4902 17.6116 16.0645 16.3706 19.5214L16.352 19.5772C15.886 20.8763 15.4166 22.1848 14.9459 23.5025C12.6905 23.6303 10.2863 23.9045 7.95301 24.5855L13.3459 8.95418L11.6575 8.37085L5.79981 25.3489C5.72545 25.3803 5.65108 25.4082 5.57787 25.4407C3.70472 26.3447 0.875241 27.7124 0.0757822 30.4838C-0.120597 31.418 0.0664861 32.3093 0.616114 33.0599C1.11578 33.7432 1.85249 34.2266 2.6287 34.5473L0.218709 41.5228L1.90594 42.1061L4.3566 35.0051C4.41238 35.0121 4.46699 35.0203 4.52161 35.0249L4.82838 35.0563L5.01197 33.2819L4.95387 33.2761L7.22211 26.6991C9.42875 25.8753 11.7446 25.5127 14.2964 25.3326C12.9798 29.0534 11.6772 32.8275 10.4746 36.6064C9.87031 38.9013 10.5385 39.9262 11.2055 40.3817C12.2106 41.0696 13.7177 40.7861 15.3341 39.6102C16.3799 38.8932 17.4187 38.1449 18.4296 37.378C18.4343 37.5755 18.4447 37.7707 18.4587 37.9624C18.5435 39.7066 19.3116 40.4747 19.9391 40.8105C20.3074 41.0081 20.7211 41.108 21.1708 41.108C21.8552 41.108 22.6198 40.8698 23.3751 40.4212C26.0919 38.8967 28.7691 36.8458 31.5603 34.1487L31.7822 33.9338ZM20.7722 33.2122C21.4439 30.8545 22.7105 28.3562 24.622 25.6127L24.8055 25.364C25.5725 24.3228 27.6106 21.5573 28.9644 21.5573C29.0701 21.5573 29.1654 21.5747 29.256 21.6107C29.8812 23.0597 28.3624 25.909 25.2611 29.0859C23.8376 30.5047 22.3316 31.8898 20.7734 33.2122M4.97247 27.7438L3.20854 32.8543C2.73793 32.6474 2.31729 32.3627 2.05584 32.0048C1.80601 31.6632 1.72699 31.2972 1.80484 30.9114C2.21968 29.4798 3.63035 28.477 4.97247 27.7438Z" fill="#6983D0"/>
<path d="M153.74 24.9587C152.657 27.0538 151.608 29.2477 150.694 31.1766C150.51 31.0616 150.318 30.95 150.124 30.8478C148.205 29.616 146.214 28.4157 144.034 27.1805L143.765 27.0271L142.885 28.5807L143.153 28.7329C143.714 29.0525 144.265 29.3697 144.808 29.6858C144.507 29.6881 144.216 29.8403 144.05 30.118L144.009 30.1843C142.994 31.8831 141.841 33.8109 140.292 34.8729C139.826 35.1879 139.489 35.2483 139.375 35.1704C139.25 35.0868 139.034 34.6336 139.207 33.8434C139.464 32.6233 139.79 31.4694 140.179 30.4143C140.835 29.3581 141.433 28.1891 141.91 27.0283C142.049 26.6913 141.986 26.2916 141.726 26.0348C141.32 25.6373 140.688 25.7105 140.376 26.137C139.702 27.0492 139.094 28.217 138.571 29.6056C137.072 31.9679 135.347 33.5878 133.708 34.1757C133.248 34.2362 133.066 34.1304 132.985 34.0503C134.336 32.7151 136.427 30.283 136.643 27.8475C136.65 27.7638 136.647 27.6767 136.631 27.5942C136.396 26.3834 135.641 26.1626 135.327 26.1231C133.616 25.9127 132.152 28.9479 132.149 28.9537C131.599 29.881 130.854 31.8204 130.981 33.4739C128.626 35.5632 125.894 37.0412 124.138 37.1656C123.493 37.2295 122.899 37.0308 122.423 36.5962C121.762 35.9954 121.354 34.9822 121.357 33.9387C121.347 33.6598 121.35 33.374 121.364 33.087C123.793 31.6798 125.762 30.1517 126.501 29.4569C128.471 27.6523 129.67 25.8233 130.068 24.0222C130.335 22.8323 129.824 22.2327 129.496 21.9794C128.859 21.4913 127.875 21.496 126.934 21.9887C123.084 23.8513 120.248 27.7685 119.672 32.0028C118.144 32.8232 116.086 33.7563 114.365 33.9387C115.179 32.2921 115.622 30.6863 115.533 29.6753C115.53 28.8503 115.235 27.6616 114.415 27.0306C113.917 26.646 113.305 26.5321 112.624 26.711C111.087 27.2363 110.05 29.0548 109.715 30.7688C109.59 30.2493 109.178 30.0576 109.043 30.0076C108.001 29.6265 106.969 30.8826 106.525 31.839C106.394 32.1701 106.274 32.4967 106.17 32.8127C104.25 33.3321 102.386 33.6029 100.202 33.6772L101.408 28.425C101.543 27.837 101.823 26.6227 102.274 26.3067L102.439 26.2288C102.813 26.0533 103.046 25.6501 102.969 25.2457C102.862 24.6938 102.303 24.3905 101.797 24.5637C101.654 24.6136 101.517 24.6764 101.413 24.7391C98.6343 26.087 96.1197 28.2042 94.0583 30.9175C94.6056 29.0943 95.1645 27.2676 95.7269 25.4665L95.8187 25.1725L94.1141 24.6403L94.0223 24.9343C92.5372 29.6869 91.094 34.565 89.7345 39.4234C89.4835 40.21 89.2569 41.0234 89.0617 41.8438C89.0012 42.096 89.0315 42.3702 89.1744 42.5875C89.4684 43.0325 90.0587 43.1162 90.47 42.8025C90.6292 42.6816 90.7326 42.5015 90.7849 42.3086C91.0034 41.5173 91.223 40.7248 91.4414 39.9439C91.919 38.4519 92.5012 37.0238 93.1763 35.6933C93.9072 36.2523 94.7648 36.9994 95.4504 38.0104C96.2893 39.2456 96.7146 40.7573 96.5113 41.7753C96.4311 42.175 96.6368 42.5956 97.0075 42.7641C97.5396 43.007 98.1323 42.6898 98.2554 42.1552L99.7881 35.4784C101.982 35.4319 103.834 35.2123 105.695 34.7753C105.353 37.2388 106.31 38.4287 107.205 38.9992C107.256 39.0248 107.304 39.0492 107.355 39.0759C108.138 39.3862 109.399 39.5117 110.957 38.352C111.768 37.7477 112.586 36.8449 113.329 35.734C114.964 35.8595 117.06 35.2948 119.571 34.0526C119.588 35.5492 120.201 36.9901 121.219 37.9174C122.08 38.7006 123.146 39.0562 124.288 38.9458C126.306 38.8017 129.11 37.3933 131.663 35.2518C132.087 35.7201 132.822 36.1279 134.059 35.9292C134.109 35.9164 134.161 35.9036 134.21 35.892C135.293 35.5225 136.358 34.852 137.388 33.8911C137.244 35.0798 137.61 36.1337 138.372 36.6508C138.835 36.9646 139.83 37.341 141.295 36.3499C141.569 36.1628 141.836 35.9525 142.1 35.7166C141.583 37.8558 141.26 39.9916 141.221 41.6021L141.215 41.9112L142.998 41.9542L143.005 41.6451C143.08 38.5368 144.32 33.4576 145.605 30.9907C145.747 30.72 145.737 30.412 145.604 30.1622C146.839 30.8943 148.036 31.631 149.216 32.3863C149.471 32.5234 149.708 32.6651 149.922 32.8092C149.364 33.9933 148.806 35.1727 148.229 36.3754C147.77 37.4561 147.873 38.3624 148.514 38.8644C148.545 38.8865 148.576 38.9098 148.61 38.9283C148.876 39.0852 149.166 39.1642 149.47 39.1642C150.295 39.1642 151.207 38.5704 152.109 37.4445C152.989 36.3394 153.324 35.2332 153.103 34.156C152.973 33.5122 152.641 32.8987 152.12 32.3328C153.126 30.2029 154.2 27.9521 155.321 25.7803L155.463 25.506L153.878 24.6857L153.736 24.9599L153.74 24.9587ZM134.762 28.2704C134.531 29.1745 133.949 30.218 133.069 31.3091C133.236 30.7641 133.457 30.2412 133.694 29.8473C133.709 29.8229 133.723 29.7973 133.738 29.7671C134.023 29.1582 134.438 28.6156 134.762 28.2716M121.765 30.7769C122.663 27.6697 124.896 24.9587 127.737 23.5852C128.047 23.4214 128.348 23.5341 128.326 23.6352C128.01 25.0738 126.988 26.5902 125.288 28.1496C124.476 28.9119 123.165 29.8868 121.765 30.7769ZM112.466 33.6935C112.123 33.5134 111.861 33.2403 111.672 32.8604C111.405 32.3224 111.347 31.6995 111.465 31.1104C111.695 29.967 112.39 28.6771 113.137 28.4203C113.248 28.3913 113.286 28.411 113.327 28.4447C113.561 28.626 113.748 29.1919 113.753 29.7578C113.822 30.5608 113.287 32.1841 112.466 33.6935ZM111.514 35.2053C110.985 35.9315 110.429 36.5207 109.894 36.9192C109.208 37.4294 108.603 37.6048 108.094 37.4433C107.246 36.8309 107.337 35.4563 107.594 34.3373C108.727 34.0886 108.964 34.0177 109.856 33.0951C110.194 33.8597 110.843 34.816 111.515 35.2053M97.9568 35.4818L97.4188 37.8244C97.2689 37.5432 97.1051 37.269 96.9261 37.0064C96.5508 36.4521 96.1127 35.9304 95.5968 35.4249C96.4137 35.4493 97.1934 35.4714 97.9556 35.4818M99.7149 27.8207C99.6975 27.8928 99.6824 27.9614 99.6673 28.0253L98.3647 33.6982C97.4118 33.6924 96.4102 33.6621 95.4387 33.6343L95.3214 33.6308C95.0076 33.6215 94.6869 33.6122 94.3616 33.6029C95.864 31.2301 97.6593 29.2895 99.7149 27.8207ZM149.816 37.2132C149.829 37.1795 149.841 37.1447 149.857 37.1075C150.323 36.1419 150.786 35.1646 151.25 34.1827C151.3 34.2931 151.337 34.4035 151.359 34.5127C151.468 35.0461 151.252 35.6585 150.718 36.3289C150.355 36.7821 150.041 37.0598 149.817 37.2132" fill="#6983D0"/>
<path d="M156.385 18.7552L154.76 22.3167L156.384 23.0577L158.009 19.4962L156.385 18.7552Z" fill="#6983D0"/>
<path d="M91.8199 25.8638L92.0058 25.6175L90.58 24.5426L90.3941 24.7901C88.9044 26.7655 87.1789 28.5388 85.3185 30.1574C86.2678 28.1216 87.237 26.08 88.227 24.0383L88.3618 23.7606L86.7571 22.9809L86.6211 23.2598C85.2813 26.0219 83.9787 28.7851 82.7133 31.5344C81.3793 29.6032 80.8029 27.9984 80.8204 26.0869C80.904 25.7174 80.9877 25.3572 81.0714 24.9877C81.2794 24.4497 80.9889 23.8419 80.4311 23.6735C79.8408 23.4933 79.2331 23.8884 79.1541 24.4985V24.5113C79.1064 24.8715 79.0042 25.2247 78.845 25.5512C76.7441 29.8576 73.9088 33.4912 70.5517 36.1522C69.2782 37.1899 68.1243 37.614 67.5398 37.2619C67.0088 36.9412 66.8113 35.9198 67.0076 34.5173C68.0569 33.6063 69.0574 32.7104 69.9917 31.847C71.3384 30.5339 75.4322 26.539 73.2615 23.4678C73.1941 23.3737 73.1105 23.2946 73.0152 23.2331C72.2645 22.7508 71.443 22.6904 70.6377 23.0611C67.5027 24.4996 65.5842 32.2339 65.3541 33.5877C63.2311 35.4178 61.1325 37.1283 59.5371 38.4158C59.2118 38.6714 58.9852 38.8295 58.8329 38.9236C58.8306 38.769 58.8376 38.5343 58.8701 38.1822C58.8829 38.0567 58.8922 37.9394 58.8957 37.8836C59.1908 35.2656 59.9578 32.729 60.9245 30.2783L60.9385 30.2632L61.0535 29.9529C61.7182 28.3006 62.4677 26.6877 63.2172 25.119L63.3508 24.8401L61.7403 24.0697L61.6066 24.3486C60.8606 25.9068 60.0891 27.572 59.393 29.3092C57.3142 31.5588 50.0691 37.7813 48.2018 37.6651C48.1437 36.7495 48.3865 35.6921 48.8502 34.7125C49.2801 34.1292 49.688 33.5272 50.061 32.9009L50.0784 32.8812L50.0749 32.8777C50.7314 31.7715 51.2753 30.5955 51.6239 29.3464C51.7691 28.8513 51.8446 28.3575 51.8737 27.8811C51.9516 26.6145 51.2439 25.4339 50.09 24.9052L50.0703 24.8959C49.9401 24.8355 49.8018 24.7901 49.6578 24.7785C48.4377 24.6867 47.2977 25.65 46.4297 26.5192C44.2533 28.6747 42.8914 31.4473 41.8038 33.9828C41.8038 33.9828 39.1161 35.8269 38.3979 36.3451C38.1783 35.8989 37.889 35.5654 37.5195 35.3307C36.8339 34.8961 36.0507 34.9158 35.2268 35.0832C35.4302 34.8554 35.6359 34.6277 35.845 34.3964L35.8717 34.3674C38.1225 31.8737 40.6731 29.05 41.2135 25.4083C41.2727 24.5682 40.9462 23.8187 40.3152 23.3493C39.6517 22.8554 38.7477 22.7543 37.8878 23.082C34.9828 24.2916 33.1654 26.862 31.4073 29.3498C31.2168 29.6194 31.0262 29.889 30.8356 30.1539L30.6555 30.4049L32.1057 31.4449L32.2858 31.1939C32.4647 30.9464 32.6414 30.6954 32.8192 30.4433L32.8645 30.3794C34.4773 28.0995 36.1436 25.7418 38.5478 24.7413C38.8139 24.6391 39.0777 24.6565 39.2497 24.7832C39.3845 24.8819 39.4507 25.0458 39.4403 25.2166C38.9871 28.2552 36.7281 30.7547 34.5459 33.1728C34.2728 33.475 34.0032 33.7748 33.729 34.0804C33.5152 34.329 32.4775 35.6177 33.0039 36.5589C33.1259 36.7785 33.5047 37.2747 34.403 37.1318C34.4355 37.1271 34.4669 37.119 34.5006 37.1109L34.5924 37.0841C35.3593 36.8715 36.2285 36.6298 36.5608 36.8401C36.6433 36.8912 36.7909 37.0388 36.9152 37.4409C31.6176 41.4533 27.7482 45.5005 25.0767 49.8302C24.1692 51.6359 24.2052 53.1884 25.1743 53.9855C25.5357 54.283 25.9761 54.434 26.4816 54.434C27.2694 54.434 28.1607 54.0633 29.0485 53.3696C32.0139 51.2548 38.829 42.9627 38.829 38.2403C39.4344 37.7953 40.0724 37.3398 40.7522 36.868C40.629 37.3514 40.5395 37.8534 40.5221 38.3751C40.5906 39.7579 41.2321 40.2541 41.7573 40.4261C41.9246 40.4795 42.1024 40.5074 42.2883 40.5074C43.8907 40.5074 45.7511 38.4077 46.0323 38.073H46.0346C46.1601 37.9359 46.2868 37.7964 46.4134 37.6547C46.4192 37.8081 46.4297 37.9603 46.4471 38.109C46.4564 38.1741 46.4692 38.2392 46.4925 38.3019C46.7156 38.9073 47.1862 39.3024 47.8137 39.4174C47.9275 39.4372 48.0495 39.4488 48.1762 39.4488C50.5374 39.4488 55.1076 35.7211 58.0985 33.0009C57.6442 34.5428 57.2933 36.1232 57.1132 37.7279C57.1085 37.815 57.0992 37.9115 57.0888 38.0184C57.0121 38.8434 56.8703 40.3807 58.1787 40.8026C58.2217 40.8165 58.2624 40.827 58.3054 40.8339C58.3856 40.8479 58.4646 40.8537 58.5448 40.8537C59.2617 40.8537 59.974 40.3401 60.6445 39.8114C61.8809 38.8144 63.4833 37.5118 65.1728 36.0837C65.2902 37.3595 65.7817 38.2891 66.616 38.79C67.3713 39.2443 69.0318 39.687 71.6649 37.5431C74.6443 35.1831 77.2298 32.105 79.2958 28.5004C79.6828 30.1214 80.4846 31.546 81.614 33.0776C78.5603 35.2865 75.3415 37.2085 72.3157 39.0107L72.0496 39.1688L72.9641 40.7026L73.229 40.5446C75.6692 39.0898 78.2326 37.5617 80.7448 35.8652C79.8489 37.8697 78.9763 39.8648 78.1315 41.8402L78.0106 42.1238L79.6526 42.8256L79.7746 42.5421C80.8332 40.0624 81.9371 37.5548 83.0782 35.0297C84.3238 36.71 86.054 38.8411 87.8656 38.9573C87.9167 38.9608 87.9702 38.9619 88.0201 38.9619C88.7069 38.9619 89.3437 38.6714 89.8643 38.123L90.0769 37.8999L88.7836 36.6716L88.5698 36.8947C88.2862 37.1945 88.0783 37.1829 87.9795 37.1748C86.8082 37.1004 85.0013 34.6381 84.1332 33.4517L84.1216 33.4366C86.9592 31.252 89.6167 28.7805 91.8141 25.8638M71.3826 24.6832C71.4918 24.6333 71.5883 24.6089 71.68 24.6089C71.7521 24.6089 71.8253 24.624 71.9008 24.6553C72.849 25.2898 71.4755 27.9066 68.7623 30.5525C68.4195 30.8697 68.0639 31.1939 67.6979 31.524C68.6228 28.4656 70.1172 25.2642 71.3814 24.6832M27.9852 51.938C27.0115 52.6968 26.4177 52.6933 26.3108 52.605C26.1911 52.5086 26.0516 51.8695 26.6373 50.6993C28.9636 46.931 32.2928 43.3555 36.8025 39.787C35.644 43.7203 30.731 49.9789 27.9852 51.9369M47.321 33.7771C46.489 34.8914 45.5698 35.9361 44.6855 36.9098C43.8826 37.8941 42.7334 38.661 42.3755 38.7249C42.3499 38.6575 42.3185 38.5366 42.3092 38.3623C42.3418 37.4641 42.7229 36.488 43.0913 35.5422L43.1807 35.3121C44.2428 32.7801 45.5547 29.9018 47.6905 27.7858C48.7014 26.7725 49.2278 26.5599 49.4916 26.5599C49.5137 26.5599 49.5369 26.561 49.5578 26.5645C49.631 26.5785 49.7077 26.6226 49.7856 26.6958C50.0098 26.9096 50.1086 27.2245 50.1016 27.5348C50.0889 28.0193 50.0261 28.4539 49.9064 28.8548C49.6148 29.9076 49.15 30.9162 48.5852 31.8807L48.5225 31.9539C48.0495 32.507 47.644 33.1252 47.3198 33.7759" fill="#6983D0"/>
</svg>
