<svg width="142" height="49" viewBox="0 0 142 49" fill="none" xmlns="http://www.w3.org/2000/svg">
<path d="M97.4115 28.9059C97.3854 28.9435 97.3582 28.9853 97.3311 29.0291C97.4042 29.0041 97.4679 28.9811 97.5253 28.9581L97.5065 28.9518C97.4741 28.9383 97.4418 28.9236 97.4115 28.9069" fill="#2F2F2F"/>
<path d="M35.3246 10.7431C34.863 11.119 34.1936 11.3101 33.3351 11.3101C32.931 11.3101 32.5404 11.2569 32.1728 11.1503C31.8 11.0417 31.4992 10.9248 31.2768 10.8015C31.0501 10.6773 30.8329 10.529 30.6324 10.364C30.364 10.1426 30.2721 10.0538 30.2418 10.0183C30.1896 9.96293 30.1541 9.92012 30.1332 9.88983L29.9003 9.54207L28.6973 11.3717L28.902 11.7122C28.9959 11.8668 29.1609 12.0453 29.4074 12.2563C29.6434 12.4578 29.9285 12.6584 30.2585 12.8484C30.599 13.0458 31.0658 13.2129 31.6433 13.3466C32.2135 13.4771 32.8474 13.544 33.5263 13.544C35.1753 13.544 36.4838 13.1471 37.4154 12.3628C38.3605 11.567 38.8398 10.53 38.8398 9.27994C38.8398 7.86174 38.1391 6.88946 36.7522 6.37878C37.7579 5.60911 38.2654 4.63057 38.2654 3.46301C38.2654 2.36228 37.8853 1.49653 37.1323 0.890816C36.3982 0.300768 35.3591 0 34.0401 0C33.3257 0 32.5916 0.248551 31.8543 0.738343L31.6945 0.171271L29.9557 0.171271L29.845 4.0071H31.9723L32.0579 2.70691C32.5665 2.31215 33.0918 2.12 33.6589 2.12C35.3747 2.12 35.5732 3.00559 35.5732 3.67292C35.5732 4.2473 35.3925 4.6995 35.0197 5.05457C34.6447 5.41382 34.2489 5.58822 33.8093 5.58822H31.282V7.80534L33.6766 7.78237C34.486 7.78237 35.0917 7.90038 35.4792 8.13431C35.8248 8.34213 35.993 8.71078 35.993 9.2601C35.993 9.88983 35.7737 10.3744 35.3225 10.742" fill="#2F2F2F"/>
<path d="M49.9121 13.544C51.9673 13.544 53.6111 12.8912 54.7985 11.6046C55.9796 10.3243 56.5791 8.63141 56.5791 6.57199C56.5791 4.51256 55.9828 2.92726 54.809 1.75866C53.6351 0.591092 51.9872 0 49.9121 0C47.837 0 46.2162 0.589004 45.0611 1.7503C43.9061 2.9116 43.3213 4.53345 43.3213 6.57094C43.3213 8.60843 43.9092 10.3378 45.0716 11.6109C46.2392 12.8923 47.8673 13.5419 49.911 13.5419M47.0966 3.37111C47.744 2.64216 48.6902 2.27142 49.9121 2.27142C51.1339 2.27142 52.1062 2.64321 52.7673 3.37319C53.4346 4.11049 53.773 5.1872 53.773 6.57199C53.773 7.95677 53.4273 9.15775 52.7464 10.0131C52.0718 10.8611 51.1433 11.2715 49.9121 11.2715C48.6808 11.2715 47.7942 10.8611 47.1258 10.0141C46.4501 9.15984 46.1076 8.00168 46.1076 6.57199C46.1076 5.14229 46.4407 4.10945 47.0966 3.37111Z" fill="#2F2F2F"/>
<path d="M62.0101 11.1135L60.5052 11.1908L60.6347 13.2377H79.1403L79.2708 11.1908L77.7649 11.1135V2.31503L79.1768 2.23775V0.285889L73.9478 0.285889L73.8163 2.23357L75.0172 2.31085V11.0425H71.242V2.30981L72.349 2.23357V0.285889L67.4437 0.285889L67.3122 2.23357L68.5131 2.31085V11.0425H64.74V2.30981L65.8459 2.23357V0.285889L60.6169 0.285889L60.4854 2.23775L62.0101 2.31607V11.1135Z" fill="#2F2F2F"/>
<path d="M85.1663 11.1135L83.6614 11.1908L83.7909 13.2377H87.6289L87.8043 12.8304L93.6714 4.59376V11.2096L92.1853 11.2858L92.3169 13.2377H97.6806L97.8122 11.2858L96.2874 11.2086V2.31503L97.7171 2.23775V0.285889L93.8437 0.285889L93.6682 0.693178L87.7803 8.9079V2.31503L89.2121 2.23775V0.285889L83.7721 0.285889L83.6416 2.23775L85.1663 2.31607V11.1135Z" fill="#2F2F2F"/>
<path d="M104.063 2.48123H106.112V11.1137L104.626 11.192L104.756 13.2379H110.235L110.366 11.192L108.86 11.1137V2.48123H110.958L111.092 4.16052H113.21V0.176392L111.082 0.286047L104.02 0.286047L101.886 0.176392L101.774 4.16052H103.872L104.063 2.48123Z" fill="#2F2F2F"/>
<path d="M28.5638 30.4975L27.4495 29.3435L27.25 29.5367C24.8418 31.8624 22.539 33.6284 20.2049 34.938C19.571 35.315 18.9998 35.4372 18.6781 35.2638C18.2969 35.0591 18.2082 34.4001 18.1894 34.02C18.1497 33.4634 18.156 32.889 18.204 32.3125C20.1809 30.7251 22.0753 29.0302 23.8423 27.2694C25.9415 25.1181 29.2196 21.1089 27.5779 18.4218C27.5205 18.3268 27.4432 18.2464 27.3523 18.1827C24.9399 16.5003 22.2811 20.1084 21.0028 21.8431L20.8263 22.0822C18.4442 25.5024 17.0886 28.5749 16.6845 31.4718C15.4501 32.4451 14.1624 33.3913 12.856 34.2884C11.8398 35.0257 11.1631 35.0957 10.9751 34.9683C10.8226 34.8649 10.6921 34.3427 10.9521 33.3475C12.0852 29.7894 13.327 26.2105 14.5833 22.6733C15.2203 22.6472 15.872 22.6284 16.5456 22.6128L16.8234 22.6065L16.7837 21.0024L16.5059 21.0087C16.0715 21.0201 15.6224 21.0306 15.1629 21.0452C15.5138 20.0646 15.8636 19.086 16.2124 18.1138C17.332 14.9923 18.4901 11.7653 19.5846 8.57588L19.6734 8.31375L18.156 7.79368L18.0661 8.0558C16.98 11.2254 15.8281 14.4377 14.7128 17.5446L14.6961 17.5947C14.2773 18.7623 13.8554 19.9382 13.4324 21.1225C11.4054 21.2374 9.24466 21.4838 7.14764 22.0958L11.9944 8.04745L10.477 7.52319L5.21249 22.7819C5.14565 22.8101 5.07882 22.8352 5.01302 22.8644C3.32956 23.6769 0.786609 24.9061 0.068108 27.3968C-0.108384 28.2365 0.0597534 29.0375 0.553723 29.7121C1.00279 30.3262 1.66489 30.7606 2.36251 31.0489L0.196561 37.318L1.71293 37.8423L3.91543 31.4603C3.96556 31.4666 4.01464 31.4739 4.06372 31.4781L4.33943 31.5063L4.50443 29.9116L4.45222 29.9064L6.49075 23.9955C8.47394 23.255 10.5553 22.9292 12.8487 22.7673C11.6654 26.1113 10.4947 29.5033 9.41384 32.8994C8.87079 34.962 9.47128 35.8831 10.0707 36.2925C10.9741 36.9107 12.3286 36.6559 13.7812 35.599C14.7211 34.9547 15.6548 34.2821 16.5633 33.5929C16.5675 33.7704 16.5769 33.9459 16.5895 34.1182C16.6657 35.6857 17.356 36.376 17.9199 36.6778C18.251 36.8554 18.6228 36.9452 19.0269 36.9452C19.642 36.9452 20.3292 36.7311 21.008 36.328C23.4497 34.9578 25.8558 33.1146 28.3643 30.6907L28.5638 30.4975ZM18.6687 29.8489C19.2723 27.73 20.4107 25.4847 22.1286 23.019L22.2936 22.7955C22.9829 21.8598 24.8146 19.3743 26.0313 19.3743C26.1263 19.3743 26.2119 19.3899 26.2934 19.4223C26.8552 20.7246 25.4903 23.2853 22.703 26.1405C21.4237 27.4156 20.0702 28.6605 18.6698 29.8489M4.46893 24.9343L2.88363 29.5273C2.46067 29.3414 2.08263 29.0855 1.84765 28.7639C1.62312 28.4568 1.5521 28.1279 1.62207 27.7812C1.9949 26.4945 3.26272 25.5933 4.46893 24.9343Z" fill="#2F2F2F"/>
<path d="M138.172 22.4313C137.198 24.3142 136.255 26.2859 135.434 28.0195C135.268 27.9161 135.096 27.8159 134.922 27.724C133.197 26.617 131.408 25.5382 129.448 24.4281L129.207 24.2902L128.416 25.6865L128.657 25.8233C129.161 26.1105 129.656 26.3956 130.144 26.6796C129.873 26.6817 129.612 26.8185 129.463 27.0681L129.426 27.1277C128.514 28.6545 127.478 30.387 126.086 31.3415C125.667 31.6245 125.364 31.6789 125.262 31.6089C125.149 31.5337 124.955 31.1264 125.11 30.4163C125.341 29.3197 125.634 28.2827 125.984 27.3344C126.573 26.3851 127.111 25.3345 127.539 24.2912C127.665 23.9884 127.608 23.6291 127.374 23.3983C127.01 23.0412 126.442 23.107 126.161 23.4902C125.555 24.31 125.009 25.3596 124.539 26.6076C123.192 28.7307 121.641 30.1865 120.168 30.7149C119.755 30.7692 119.591 30.6742 119.519 30.6021C120.732 29.4022 122.612 27.2164 122.806 25.0275C122.813 24.9523 122.81 24.874 122.795 24.7998C122.584 23.7116 121.905 23.5132 121.623 23.4777C120.086 23.2887 118.77 26.0165 118.767 26.0217C118.273 26.8551 117.604 28.5981 117.717 30.0842C115.6 31.9619 113.145 33.2903 111.567 33.402C110.988 33.4594 110.454 33.2809 110.026 32.8903C109.432 32.3504 109.065 31.4397 109.068 30.5019C109.059 30.2512 109.062 29.9943 109.074 29.7364C111.257 28.4717 113.027 27.0984 113.691 26.4739C115.462 24.852 116.539 23.2083 116.897 21.5896C117.137 20.5202 116.677 19.9813 116.383 19.7536C115.81 19.315 114.926 19.3192 114.08 19.762C110.62 21.436 108.071 24.9565 107.554 28.762C106.181 29.4993 104.331 30.3379 102.784 30.5019C103.515 29.0221 103.913 27.5788 103.834 26.6702C103.831 25.9288 103.566 24.8604 102.829 24.2933C102.381 23.9477 101.831 23.8453 101.219 24.0061C99.8384 24.4782 98.9058 26.1126 98.605 27.653C98.4922 27.1861 98.1225 27.0138 98.0014 26.9689C97.0646 26.6264 96.1373 27.7553 95.7383 28.6148C95.6203 28.9124 95.5128 29.2059 95.4188 29.4899C93.6935 29.9567 92.0184 30.2001 90.0551 30.2669L91.1391 25.5465C91.2602 25.0181 91.5119 23.9268 91.9171 23.6427L92.0654 23.5727C92.4017 23.415 92.6116 23.0527 92.5416 22.6892C92.4456 22.1932 91.9432 21.9206 91.4889 22.0762C91.3605 22.1211 91.2373 22.1775 91.1433 22.2339C88.6463 23.4453 86.3863 25.3481 84.5337 27.7866C85.0256 26.1481 85.5279 24.5064 86.0334 22.8877L86.1159 22.6234L84.5838 22.1451L84.5013 22.4094C83.1667 26.6807 81.8696 31.0648 80.6477 35.4311C80.4222 36.1381 80.2185 36.8692 80.0431 37.6065C79.9888 37.8331 80.0159 38.0796 80.1444 38.2749C80.4086 38.6748 80.9391 38.75 81.3088 38.4681C81.4519 38.3594 81.5448 38.1976 81.5918 38.0242C81.7881 37.313 81.9855 36.6008 82.1819 35.899C82.6111 34.5581 83.1343 33.2746 83.741 32.0788C84.3979 32.5812 85.1686 33.2527 85.7848 34.1612C86.5388 35.2714 86.921 36.63 86.7383 37.5449C86.6662 37.9041 86.8511 38.2822 87.1842 38.4336C87.6625 38.6519 88.1951 38.3668 88.3058 37.8864L89.6833 31.8856C91.655 31.8439 93.3197 31.6465 94.9916 31.2538C94.6846 33.4678 95.5451 34.5372 96.3493 35.05C96.3952 35.0729 96.438 35.0949 96.484 35.1189C97.1879 35.3977 98.321 35.5105 99.7214 34.4683C100.45 33.9252 101.186 33.1138 101.853 32.1154C103.322 32.2282 105.206 31.7206 107.463 30.6042C107.478 31.9493 108.029 33.2443 108.944 34.0777C109.718 34.7816 110.675 35.1011 111.702 35.0019C113.516 34.8724 116.036 33.6067 118.33 31.682C118.712 32.1028 119.372 32.4694 120.484 32.2908C120.529 32.2793 120.576 32.2679 120.62 32.2574C121.593 31.9253 122.549 31.3227 123.476 30.4591C123.346 31.5274 123.675 32.4746 124.36 32.9394C124.776 33.2213 125.67 33.5597 126.987 32.6689C127.233 32.5007 127.474 32.3117 127.711 32.0997C127.246 34.0223 126.956 35.9418 126.92 37.3893L126.915 37.6671L128.518 37.7057L128.524 37.4279C128.591 34.6343 129.705 30.0695 130.86 27.8524C130.988 27.6091 130.979 27.3323 130.859 27.1078C131.969 27.7657 133.045 28.4278 134.106 29.1067C134.335 29.2299 134.548 29.3573 134.74 29.4868C134.239 30.551 133.737 31.611 133.218 32.6919C132.806 33.6631 132.899 34.4777 133.475 34.9288C133.502 34.9487 133.531 34.9695 133.561 34.9863C133.8 35.1272 134.061 35.1983 134.334 35.1983C135.075 35.1983 135.895 34.6646 136.705 33.6526C137.497 32.6595 137.798 31.6653 137.599 30.6972C137.482 30.1186 137.184 29.5672 136.716 29.0586C137.62 27.1444 138.585 25.1215 139.593 23.1696L139.72 22.9232L138.296 22.1859L138.169 22.4323L138.172 22.4313ZM121.116 25.4076C120.908 26.2201 120.385 27.1579 119.594 28.1386C119.744 27.6488 119.943 27.1788 120.156 26.8248C120.169 26.8029 120.182 26.7799 120.196 26.7527C120.451 26.2055 120.824 25.7178 121.116 25.4087M109.435 27.6603C110.242 24.8677 112.248 22.4313 114.802 21.1969C115.08 21.0496 115.351 21.1509 115.331 21.2418C115.047 22.5347 114.129 23.8975 112.601 25.299C111.871 25.9841 110.693 26.8603 109.435 27.6603ZM101.077 30.2815C100.769 30.1197 100.534 29.8742 100.364 29.5327C100.123 29.0492 100.071 28.4895 100.178 27.96C100.385 26.9324 101.009 25.7732 101.681 25.5424C101.78 25.5162 101.814 25.534 101.851 25.5643C102.062 25.7272 102.23 26.2358 102.234 26.7444C102.296 27.466 101.815 28.9249 101.077 30.2815ZM100.222 31.6402C99.7465 32.2929 99.2462 32.8224 98.7659 33.1806C98.1497 33.6391 97.6056 33.7968 97.1482 33.6516C96.3858 33.1012 96.4673 31.8658 96.6991 30.8601C97.7173 30.6366 97.9304 30.5729 98.7314 29.7437C99.0353 30.4309 99.6191 31.2904 100.223 31.6402M88.0374 31.8888L87.5539 33.9941C87.4192 33.7414 87.2719 33.4949 87.1111 33.2589C86.7738 32.7608 86.3801 32.2919 85.9164 31.8376C86.6506 31.8595 87.3513 31.8794 88.0364 31.8888M89.6175 25.0035C89.6018 25.0682 89.5883 25.1298 89.5747 25.1873L88.404 30.2857C87.5476 30.2805 86.6474 30.2533 85.7744 30.2283L85.6689 30.2251C85.3869 30.2168 85.0987 30.2084 84.8063 30.2001C86.1566 28.0675 87.7701 26.3235 89.6175 25.0035ZM134.645 33.4448C134.656 33.4145 134.668 33.3832 134.682 33.3498C135.1 32.4819 135.517 31.6037 135.934 30.7212C135.979 30.8204 136.012 30.9196 136.032 31.0178C136.13 31.4971 135.936 32.0475 135.455 32.6501C135.13 33.0574 134.848 33.307 134.646 33.4448" fill="#2F2F2F"/>
<path d="M140.549 16.856L139.088 20.0568L140.547 20.7227L142.008 17.5219L140.549 16.856Z" fill="#2F2F2F"/>
<path d="M82.522 23.2447L82.6891 23.0233L81.4077 22.0573L81.2406 22.2797C79.9018 24.0551 78.351 25.6487 76.679 27.1035C77.5322 25.2738 78.4032 23.4389 79.293 21.604L79.4141 21.3544L77.9719 20.6537L77.8497 20.9043C76.6456 23.3867 75.4749 25.8701 74.3376 28.341C73.1387 26.6054 72.6207 25.1631 72.6364 23.4452C72.7116 23.1131 72.7868 22.7894 72.862 22.4573C73.0489 21.9737 72.7878 21.4275 72.2865 21.2761C71.756 21.1142 71.2098 21.4693 71.1388 22.0176V22.0291C71.096 22.3528 71.0041 22.6703 70.861 22.9638C68.9729 26.8341 66.4247 30.0997 63.4076 32.4912C62.263 33.4238 61.226 33.805 60.7007 33.4886C60.2234 33.2003 60.0459 32.2823 60.2224 31.0218C61.1654 30.2031 62.0646 29.3979 62.9043 28.622C64.1146 27.4419 67.7938 23.8514 65.843 21.0913C65.7824 21.0067 65.7072 20.9357 65.6216 20.8803C64.947 20.4469 64.2086 20.3926 63.4849 20.7258C60.6673 22.0186 58.9431 28.9697 58.7363 30.1864C56.8283 31.8312 54.9423 33.3685 53.5084 34.5256C53.216 34.7553 53.0123 34.8974 52.8755 34.9819C52.8734 34.843 52.8797 34.6321 52.9089 34.3157C52.9204 34.2029 52.9288 34.0974 52.9319 34.0473C53.1972 31.6944 53.8864 29.4146 54.7553 27.2121L54.7678 27.1985L54.8712 26.9197C55.4686 25.4347 56.1422 23.9851 56.8158 22.5753L56.9359 22.3246L55.4884 21.6322L55.3683 21.8829C54.6979 23.2833 54.0044 24.7799 53.3789 26.3411C51.5106 28.363 44.9992 33.9554 43.3209 33.8509C43.2687 33.028 43.487 32.0777 43.9037 31.1973C44.2901 30.673 44.6566 30.1321 44.9919 29.5692L45.0075 29.5514L45.0044 29.5483C45.5944 28.5541 46.0832 27.4972 46.3965 26.3746C46.527 25.9297 46.5949 25.4858 46.621 25.0577C46.691 23.9193 46.055 22.8583 45.018 22.3831L45.0002 22.3748C44.8832 22.3205 44.759 22.2797 44.6295 22.2693C43.5329 22.1868 42.5084 23.0525 41.7283 23.8337C39.7723 25.7709 38.5483 28.2627 37.5708 30.5414C37.5708 30.5414 35.1553 32.1988 34.5099 32.6646C34.3125 32.2635 34.0525 31.9638 33.7204 31.7529C33.1042 31.3623 32.4003 31.38 31.6599 31.5304C31.8427 31.3257 32.0275 31.121 32.2155 30.9132L32.2395 30.8871C34.2624 28.646 36.5547 26.1082 37.0403 22.8353C37.0936 22.0803 36.8001 21.4067 36.233 20.9848C35.6367 20.5409 34.8242 20.4501 34.0514 20.7446C31.4406 21.8317 29.8073 24.1418 28.2272 26.3777C28.0559 26.62 27.8846 26.8623 27.7134 27.1004L27.5515 27.3259L28.8548 28.2606L29.0167 28.035C29.1775 27.8126 29.3363 27.587 29.496 27.3604L29.5368 27.303C30.9863 25.254 32.4839 23.135 34.6446 22.2359C34.8838 22.144 35.1208 22.1596 35.2754 22.2735C35.3965 22.3622 35.4561 22.5095 35.4467 22.663C35.0394 25.3939 33.0092 27.6403 31.0479 29.8135C30.8025 30.0851 30.5602 30.3545 30.3138 30.6292C30.1216 30.8527 29.189 32.0108 29.6621 32.8567C29.7717 33.0541 30.1122 33.5 30.9195 33.3716C30.9487 33.3674 30.9769 33.3601 31.0072 33.3528L31.0897 33.3288C31.779 33.1377 32.5601 32.9204 32.8588 33.1095C32.9329 33.1554 33.0656 33.288 33.1773 33.6494C28.4162 37.2555 24.9386 40.8929 22.5377 44.784C21.722 46.4069 21.7544 47.8022 22.6254 48.5186C22.9502 48.7859 23.346 48.9217 23.8003 48.9217C24.5083 48.9217 25.3093 48.5886 26.1072 47.9651C28.7723 46.0644 34.8973 38.612 34.8973 34.3679C35.4414 33.9679 36.0148 33.5585 36.6257 33.1345C36.515 33.569 36.4346 34.0201 36.4189 34.489C36.4805 35.7318 37.057 36.1777 37.529 36.3323C37.6794 36.3803 37.8392 36.4054 38.0063 36.4054C39.4464 36.4054 41.1184 34.5183 41.3712 34.2175H41.3732C41.486 34.0943 41.5999 33.9689 41.7137 33.8415C41.7189 33.9794 41.7283 34.1162 41.744 34.2499C41.7523 34.3083 41.7638 34.3668 41.7847 34.4232C41.9852 34.9673 42.4082 35.3224 42.9721 35.4258C43.0745 35.4435 43.1841 35.454 43.2979 35.454C45.42 35.454 49.5274 32.1038 52.2155 29.659C51.8072 31.0448 51.4918 32.4651 51.3299 33.9073C51.3257 33.9857 51.3174 34.0723 51.308 34.1684C51.239 34.9099 51.1116 36.2915 52.2876 36.6706C52.3262 36.6832 52.3628 36.6926 52.4014 36.6988C52.4735 36.7114 52.5445 36.7166 52.6165 36.7166C53.2609 36.7166 53.9011 36.255 54.5036 35.7798C55.6148 34.8838 57.0549 33.7131 58.5734 32.4296C58.6789 33.5763 59.1206 34.4117 59.8705 34.8618C60.5493 35.2702 62.0416 35.6681 64.4081 33.7413C67.0858 31.6202 69.4094 28.8538 71.2662 25.6143C71.614 27.0711 72.3346 28.3515 73.3497 29.7279C70.6052 31.7132 67.7124 33.4405 64.9929 35.0603L64.7538 35.2023L65.5756 36.5808L65.8138 36.4388C68.0069 35.1313 70.3107 33.758 72.5685 32.2333C71.7633 34.0347 70.979 35.8279 70.2198 37.6032L70.1112 37.858L71.5868 38.4888L71.6965 38.234C72.6479 36.0054 73.64 33.7517 74.6655 31.4824C75.785 32.9925 77.3401 34.9078 78.9682 35.0122C79.0141 35.0154 79.0622 35.0164 79.1071 35.0164C79.7243 35.0164 80.2966 34.7553 80.7644 34.2624L80.9555 34.0619L79.7932 32.958L79.601 33.1585C79.3462 33.428 79.1593 33.4175 79.0705 33.4102C78.0178 33.3434 76.3939 31.1304 75.6138 30.0642L75.6033 30.0506C78.1536 28.0873 80.542 25.866 82.5168 23.2447M64.1543 22.1836C64.2525 22.1387 64.3392 22.1168 64.4217 22.1168C64.4864 22.1168 64.5522 22.1304 64.6201 22.1586C65.4723 22.7288 64.2379 25.0806 61.7993 27.4586C61.4913 27.7437 61.1717 28.035 60.8427 28.3316C61.674 25.583 63.017 22.7058 64.1533 22.1836M25.1516 46.6785C24.2765 47.3604 23.7428 47.3573 23.6467 47.2779C23.5392 47.1912 23.4139 46.6169 23.9402 45.5652C26.0309 42.1784 29.023 38.965 33.076 35.7579C32.0348 39.2929 27.6194 44.9177 25.1516 46.6774M42.5293 30.3566C41.7816 31.3581 40.9555 32.297 40.1608 33.1721C39.4391 34.0567 38.4063 34.7459 38.0846 34.8034C38.0617 34.7428 38.0335 34.6342 38.0251 34.4775C38.0543 33.6703 38.3969 32.793 38.7279 31.9429L38.8084 31.7362C39.7629 29.4606 40.9419 26.8737 42.8614 24.972C43.77 24.0614 44.2431 23.8702 44.4801 23.8702C44.5 23.8702 44.5209 23.8713 44.5397 23.8744C44.6054 23.887 44.6744 23.9266 44.7443 23.9924C44.9459 24.1846 45.0347 24.4676 45.0284 24.7464C45.0169 25.1819 44.9605 25.5725 44.853 25.9328C44.5908 26.879 44.1731 27.7854 43.6656 28.6522L43.6092 28.718C43.1841 29.2151 42.8196 29.7707 42.5283 30.3556" fill="#2F2F2F"/>
</svg>
