<svg width="101" height="41" viewBox="0 0 101 41" fill="none" xmlns="http://www.w3.org/2000/svg">
<path fill-rule="evenodd" clip-rule="evenodd" d="M100.313 13.6616L100.313 13.6522C100.335 12.0526 99.7874 10.4961 98.7665 9.25678C97.0074 7.31202 94.0473 7.0736 91.7631 7.13266L91.7543 7.13288L91.7454 7.13288C88.5996 7.13288 54.5721 8.31301 50.6951 8.50192L50.6784 8.50273L50.6617 8.50273L50.4476 8.50273L49.761 8.50273L49.761 7.81609L49.761 7.81457L49.761 7.81305L49.761 7.81153L49.761 7.81001L49.761 7.80849L49.761 7.80698L49.761 7.80546L49.761 7.80395L49.761 7.80244L49.761 7.80093L49.761 7.79942L49.761 7.79791L49.761 7.7964L49.761 7.7949L49.761 7.7934L49.761 7.7919L49.761 7.7904L49.761 7.7889L49.761 7.7874L49.761 7.78591L49.761 7.78442L49.761 7.78293L49.761 7.78144L49.761 7.77995L49.761 7.77847L49.761 7.77699L49.761 7.77551L49.761 7.77403L49.761 7.77255L49.761 7.77108L49.761 7.76961L49.761 7.76814L49.761 7.76667L49.761 7.76521L49.761 7.76374L49.761 7.76228L49.761 7.76083L49.761 7.75937L49.761 7.75792L49.761 7.75647L49.761 7.75502L49.761 7.75358L49.761 7.75213L49.761 7.75069L49.761 7.74926L49.761 7.74782L49.761 7.74639L49.761 7.74497L49.761 7.74354L49.761 7.74212L49.761 7.7407L49.761 7.73928L49.761 7.73787L49.761 7.73646L49.761 7.73505L49.761 7.73365L49.761 7.73225L49.761 7.73085L49.761 7.72946L49.761 7.72807L49.761 7.72668L49.761 7.7253L49.761 7.72392L49.761 7.72254L49.761 7.72048L49.761 7.71911L49.761 7.71775L49.761 7.71639L49.761 7.71503L49.761 7.71368L49.761 7.71233L49.761 7.71098L49.761 7.70964L49.761 7.7083L49.761 7.70697L49.761 7.70564L49.761 7.70431L49.761 7.70299L49.761 7.70167L49.761 7.70035L49.761 7.69904L49.761 7.69774L49.761 7.69644L49.761 7.69514L49.761 7.69385L49.761 7.69256L49.761 7.69127L49.761 7.68999L49.761 7.68872L49.761 7.68745L49.761 7.68618L49.761 7.68492L49.761 7.68366L49.761 7.68241L49.761 7.68116L49.761 7.67992L49.761 7.67868L49.761 7.67744L49.761 7.67622L49.761 7.67499L49.761 7.67377L49.761 7.67256L49.761 7.67135L49.761 7.67014L49.761 7.66895L49.761 7.66775L49.761 7.66656L49.761 7.66538L49.761 7.6642L49.761 7.66303L49.761 7.66186L49.761 7.6607L49.761 7.65954L49.761 7.65839L49.761 7.65724L49.761 7.6561L49.761 7.65496L49.761 7.65383L49.761 7.65271L49.761 7.65159L49.761 7.65048L49.761 7.64937L49.761 7.64827L49.761 7.64717L49.761 7.64608L49.761 7.645L49.761 7.64392L49.761 7.64285L49.761 7.64178L49.761 7.64072L49.761 7.63966L49.761 7.63862L49.761 7.63757L49.761 7.63654L49.761 7.63551L49.761 7.63448L49.761 7.63347L49.761 7.63246L49.761 7.63145L49.761 7.62946L49.761 7.6275L49.761 7.62556L49.761 7.62365L49.761 7.62176L49.761 7.6199L49.761 7.61807C49.5632 6.27808 48.9745 5.0232 48.0665 4.01015C47.1948 3.11517 46.1282 2.42932 44.948 2.00546C43.7636 1.58011 42.4966 1.42999 41.2445 1.56676L41.2204 1.56939L41.1962 1.57032C36.88 1.73556 33.8601 4.73103 32.4103 6.58445L32.4093 6.58581L32.2922 6.73691L31.983 7.13597L31.5099 6.95984L31.3331 6.89404C28.1013 5.84516 24.6419 5.69297 21.329 6.45414L21.3217 6.45581C17.0592 7.38668 13.0597 9.24909 9.61408 11.9072C3.43616 17.0121 0.3727 23.015 0.712148 28.7714C0.810941 30.3816 1.27072 31.9498 2.05813 33.3616C2.84567 34.7736 3.94116 35.9935 5.26495 36.9321L5.26949 36.9353L5.27397 36.9386C7.53081 38.5942 10.5485 39.2358 13.4583 39.3733C16.3549 39.5102 19.0581 39.1438 20.6108 38.8599C24.1838 38.1977 79.4921 27.4539 86.7415 25.9555C90.0306 25.2801 93.1422 24.3769 95.5623 22.7301C97.9485 21.1063 99.6886 18.7427 100.225 15.0508C100.287 14.6203 100.317 14.1855 100.313 13.7505L100.313 13.7442L100.313 13.6616ZM20.7351 39.5352C17.5712 40.1138 9.69699 41.0349 4.86781 37.4922C3.4608 36.4947 2.296 35.1977 1.45845 33.696C0.620896 32.1944 0.131728 30.5259 0.0267372 28.8126C-0.330098 22.7663 2.89333 16.5666 9.18553 11.3706C12.7139 8.6465 16.8099 6.73825 21.1752 5.78493C24.614 4.99484 28.205 5.15411 31.5591 6.24549L31.7494 6.31634L31.8684 6.16282C33.3552 4.26157 36.5429 1.06131 41.1699 0.884178C42.5256 0.736093 43.8975 0.898604 45.1801 1.35922C46.4626 1.81984 47.6218 2.5663 48.5683 3.54121C49.5829 4.66893 50.237 6.07055 50.4476 7.5681L50.4476 7.81609L50.6617 7.81609C50.788 7.80994 50.9462 7.80273 51.1343 7.79455C56.7233 7.5515 88.6845 6.44624 91.7454 6.44624C94.0291 6.38719 97.3001 6.59976 99.2865 8.80805C100.417 10.1744 101.024 11.8937 100.999 13.6616L100.999 13.7442C101.004 14.2144 100.972 14.6842 100.904 15.1495C99.7742 22.9317 93.4939 25.2699 86.8805 26.6279C79.6249 28.1277 24.3035 38.8739 20.7351 39.5352Z" fill="#515151"/>
<path fill-rule="evenodd" clip-rule="evenodd" d="M96.7547 14.5006C96.6378 14.8038 96.4591 15.0799 96.2299 15.3115C96.0007 15.5432 95.7259 15.7254 95.4225 15.8468L95.1846 15.8468C95.1846 15.8468 95.3749 14.5006 95.3749 14.0873C95.3749 12.245 94.923 10.3084 92.0088 10.5445C90.7541 10.7163 89.5993 11.3177 88.7437 12.2448C87.888 13.1719 87.3853 14.3665 87.3224 15.6224C87.3158 15.6456 87.3158 15.6701 87.3224 15.6933C86.8942 16.8742 86.1329 18.4802 85.5263 18.5629C85.4682 18.5701 85.4091 18.5643 85.3536 18.5459C85.298 18.5275 85.2473 18.497 85.2051 18.4566C85.1455 18.3939 85.0999 18.3194 85.0712 18.238C85.0425 18.1566 85.0314 18.0702 85.0386 17.9842C85.0937 17.4409 85.1972 16.9034 85.3479 16.3782C85.5833 15.4638 85.7424 14.5316 85.8236 13.5913C86.0021 11.3239 84.6342 10.8988 83.1593 11.0287C82.2682 11.1061 81.4297 11.4807 80.7804 12.0915L80.2689 12.6938C80.2689 12.6938 80.483 11.5129 80.5544 11.2649L77.331 11.5129L76.2723 16.1302C75.932 16.636 75.4414 17.0239 74.8688 17.2403L74.6547 17.2403L74.6547 17.0159C74.6334 16.7809 74.5937 16.548 74.5358 16.3192C74.4525 15.7996 73.9648 14.04 72.2401 14.2172C67.7797 14.6541 67.9938 20.1217 70.6463 19.3305L70.9555 19.2242L70.9555 19.5548C70.6343 21.7395 69.7066 22.9086 68.4339 23.0976C68.3398 23.1101 68.244 23.1018 68.1535 23.0732C68.063 23.0446 67.98 22.9965 67.9105 22.9322C67.7811 22.7863 67.6827 22.6158 67.6214 22.4312C67.5601 22.2465 67.537 22.0514 67.5537 21.8576C67.5537 20.783 69.5639 11.8317 69.5639 11.8317L65.4246 12.0561C65.2342 12.8709 64.4254 16.4254 64.4254 16.4372L64.3065 16.8978L64.2447 17.1422C64.1228 17.6237 64.0349 17.9708 63.9734 18.3267L63.9734 18.4094C63.343 20.0981 62.2368 21.9521 61.3804 22.0584C61.3011 22.0681 61.2206 22.0604 61.1446 22.036C61.0685 22.0115 60.9988 21.9708 60.9403 21.9167C60.8737 21.8525 60.8212 21.7753 60.7864 21.6899C60.7516 21.6045 60.7352 21.5128 60.7381 21.4207L60.7976 20.6885C60.7976 20.6885 62.8672 12.6702 63.01 12.1388L58.2522 12.3041L57.8478 13.7684C57.6839 13.342 57.4166 12.9623 57.0696 12.6629C56.7226 12.3636 56.3066 12.1538 55.8584 12.0522C55.4102 11.9506 54.9438 11.9603 54.5003 12.0804C54.0568 12.2006 53.65 12.4275 53.3159 12.741C51.3415 14.5714 50.8419 17.2639 50.5802 19.9209L50.5802 20.0154C50.2115 23.2038 49.5097 25.4003 47.2735 25.731C46.8363 25.8263 46.3794 25.7722 45.977 25.5775C46.6159 25.1336 47.1547 24.5625 47.559 23.9006C47.7421 23.6685 47.8758 23.4019 47.9519 23.1169C48.0279 22.8319 48.0447 22.5345 48.0013 22.2429C47.9579 21.9512 47.8552 21.6714 47.6994 21.4204C47.5436 21.1694 47.338 20.9526 47.0951 20.783C46.7104 20.5681 46.2777 20.4524 45.8363 20.4464C45.395 20.4405 44.9591 20.5444 44.5687 20.7488C44.1783 20.9532 43.8457 21.2515 43.6013 21.6164C43.357 21.9813 43.2086 22.4012 43.1699 22.8378C43.0309 23.7055 43.2217 24.5935 43.7052 25.3295C43.151 25.7495 42.5087 26.0401 41.8258 26.1797C41.6116 26.218 41.3911 26.2036 41.1837 26.1377C40.9764 26.0719 40.7884 25.9565 40.6364 25.8018C40.1368 25.1523 40.7672 23.0031 40.8624 22.7315C40.8624 22.7315 43.7765 13.6385 43.9431 13.0717L37.4962 13.4023C37.4354 13.5835 37.326 13.9335 37.1823 14.3931C36.8765 15.3714 36.4155 16.846 35.938 18.244C34.5464 22.2591 30.4428 27.7621 26.1489 28.9548C23.8532 29.5807 22.0691 29.4981 20.9153 28.8249C19.3452 27.9038 18.4293 25.6365 18.9765 22.4481C19.188 20.9292 19.6333 19.4516 20.2967 18.0669C23.7818 10.3792 29.6339 12.0089 29.289 12.5993C28.906 12.7362 28.5359 12.9061 28.1828 13.1071C27.5129 13.4988 26.9473 14.0442 26.5334 14.6975C26.1195 15.3509 25.8694 16.0933 25.8039 16.8624C25.7623 17.3506 25.8256 17.8421 25.9897 18.3042C26.1537 18.7663 26.4147 19.1886 26.7555 19.543C27.1003 19.8463 27.5083 20.0703 27.9504 20.1989C28.3924 20.3275 28.8577 20.3576 29.3128 20.287C30.4528 20.1919 31.5147 19.6733 32.2864 18.8349C33.0581 17.9965 33.4829 16.8999 33.4759 15.7641C33.5197 15.1594 33.4366 14.5523 33.2318 13.9811C33.0271 13.4099 32.7052 12.8871 32.2864 12.4458C30.978 11.135 29.4555 10.4855 26.0894 10.6272C20.9153 10.8516 13.0768 14.6659 10.9358 22.8732C10.6098 24.2022 10.624 25.5911 10.9772 26.9133C11.3304 28.2355 12.0113 29.4488 12.9579 30.4428C15.3368 32.4976 18.1795 33.2297 23.1871 32.226C27.6476 31.3049 31.2754 28.2227 33.8922 24.9988C33.8868 25.0498 33.8868 25.1013 33.8922 25.1523C33.2856 27.5141 34.2015 29.9586 38.1148 29.3918C40.4315 28.977 42.6187 28.0308 44.5021 26.6285C45.1191 27.078 45.8247 27.3935 46.5727 27.5542C47.3208 27.7149 48.0945 27.7174 48.8436 27.5614C49.7313 27.3685 50.5695 26.9964 51.3061 26.4682C52.0428 25.94 52.6621 25.267 53.1256 24.491C54.4115 22.6054 55.0187 18.9658 55.3535 16.9591L55.3618 16.9096C55.4302 16.2995 55.5617 15.698 55.7543 15.1146C55.8587 14.8238 56.0658 14.5805 56.3372 14.4297C57.027 14.1227 57.4076 14.8076 57.2768 15.3154C57.146 15.8232 56.4561 18.3621 56.4561 18.3621L56.3253 18.7636C55.8215 20.0888 55.5246 21.4826 55.4451 22.8968C55.4046 23.3441 55.4611 23.7947 55.6109 24.2184C55.7606 24.6422 56.0002 25.0291 56.3133 25.3531C56.6126 25.6063 56.9681 25.7854 57.3506 25.8757C57.7332 25.9661 58.1318 25.965 58.5138 25.8727C60.976 25.4712 62.6888 22.9677 63.4977 21.5033L63.6047 21.3026L63.7712 21.0074L63.8783 21.5506C64.3065 23.7116 66.0312 24.5501 68.6361 24.1368C71.9784 23.5935 73.9529 21.834 74.5239 18.8345L74.5239 18.7046L74.6428 18.7046C74.9645 18.5759 75.2715 18.4136 75.5587 18.2204L75.8085 18.0433L74.6904 22.8614L78.5561 22.1765C78.5561 21.8812 79.8883 16.0357 79.8883 16.0357C80.1024 15.0202 80.7328 13.0953 81.4702 13.0362C81.5452 13.0273 81.6211 13.0365 81.6916 13.0633C81.7621 13.09 81.8249 13.1335 81.8747 13.1898C82.0598 13.3977 82.1576 13.6682 82.1482 13.9455C82.0918 14.6879 81.9481 15.4211 81.7201 16.1302C81.4117 17.2478 81.2008 18.3896 81.0897 19.543C81.0316 19.8178 81.0461 20.1028 81.1316 20.3704C81.2172 20.638 81.3709 20.8791 81.5779 21.0704C81.7849 21.2617 82.0382 21.3966 82.3131 21.4621C82.5881 21.5276 82.8755 21.5215 83.1474 21.4443C84.3368 21.2553 85.9783 20.6058 87.2986 17.5827L87.3818 17.9016C87.5293 18.6636 87.972 19.3379 88.6148 19.7795C89.2575 20.2211 90.049 20.3948 90.8194 20.2634C91.6988 20.1473 92.5298 19.7958 93.2233 19.2466C93.9169 18.6974 94.4469 17.9712 94.7564 17.1458L94.7564 17.0277L94.8754 17.0277C95.3643 16.9017 95.811 16.6497 96.1703 16.2971C96.5296 15.9446 96.7886 15.5041 96.9213 15.0202C96.8763 14.8438 96.8207 14.6703 96.7547 14.5006ZM45.644 21.7041C44.7757 21.6805 43.955 23.2275 44.847 24.5737C45.4304 24.1546 45.9103 23.6095 46.2506 22.9795C46.6312 22.141 46.5123 21.7277 45.644 21.7041ZM70.8894 17.938C71.0324 17.8691 71.1601 17.7724 71.2648 17.6536C71.3108 17.4661 71.3187 17.2713 71.2881 17.0807C71.2575 16.8901 71.1889 16.7075 71.0864 16.5435C71.004 16.4934 70.9093 16.4669 70.8128 16.4669C70.7162 16.4669 70.6215 16.4934 70.5392 16.5435C70.3209 16.6686 70.1405 16.8497 70.017 17.0679C69.8935 17.2861 69.8315 17.5333 69.8374 17.7835C69.8612 17.8898 69.9801 18.1259 70.4321 18.0551C70.5909 18.0468 70.7464 18.007 70.8894 17.938ZM92.5414 15.1872C92.5784 15.4298 92.7018 15.6512 92.889 15.8114C93.0119 15.3407 93.0758 14.8568 93.0793 14.3707C93.0106 14.3393 92.9328 14.3341 92.8605 14.3558C92.7882 14.3776 92.7264 14.4249 92.6868 14.4888C92.5559 14.6969 92.5043 14.9446 92.5414 15.1872ZM93.1269 13.1071L93.1269 13.0362C93.2352 12.52 93.1371 11.9822 92.8533 11.5365C92.7973 11.4692 92.7262 11.4159 92.6456 11.381C92.565 11.3461 92.4772 11.3306 92.3894 11.3357C91.1286 11.4184 90.2484 15.8586 90.2484 17.6418C90.2484 18.3857 90.3554 18.5983 90.6171 18.8227C90.7012 18.8941 90.8008 18.9452 90.9082 18.9718C91.0155 18.9985 91.1276 19 91.2357 18.9762C91.985 18.8699 92.3419 17.9606 92.6154 17.134L92.6154 16.8742C92.3215 16.6934 92.0809 16.4387 91.918 16.136C91.7551 15.8332 91.6757 15.4931 91.6877 15.1501C91.7947 13.1898 93.1269 13.1071 93.1269 13.1071Z" fill="#515151"/>
<path d="M45.2605 9.12679C45.1297 11.1225 43.2503 12.0082 41.3234 12.1263C40.7755 12.2176 40.2135 12.1738 39.6867 11.9987C39.1598 11.8237 38.6844 11.5228 38.3022 11.1225C38.0792 10.8207 37.9316 10.4706 37.8716 10.101C37.8116 9.73142 37.841 9.35298 37.9573 8.99689C38.1157 8.26639 38.539 7.61917 39.1467 7.1783C40.0243 6.55716 41.0932 6.26053 42.168 6.33985C44.2733 6.42252 45.3438 7.79237 45.2605 9.12679Z" fill="#515151"/>
</svg>
