<svg width="100" height="100" viewBox="0 0 100 100" fill="none" xmlns="http://www.w3.org/2000/svg">
<path fill-rule="evenodd" clip-rule="evenodd" d="M47.9765 30.4517C42.9937 22.0432 26.7996 12.0775 18.0796 16.1261C18.0796 16.1261 15.8997 16.7489 15.8997 19.8632C15.8997 22.9774 16.5225 69.6914 16.5225 69.6914C16.5225 70.3142 17.4568 71.2485 19.3253 71.2485C30.8481 70.6256 42.0595 75.9199 47.6651 81.2141L47.9765 30.4517Z" fill="#6983D0"/>
<path fill-rule="evenodd" clip-rule="evenodd" d="M12.1617 27.3374C10.6046 27.9603 9.04747 28.5831 7.49034 29.5174C7.49034 29.5174 4.6875 31.0745 4.6875 34.5002C4.6875 37.6145 5.31035 84.017 5.31035 84.017C5.31035 84.6398 6.55606 85.2627 9.04747 84.3284C20.2588 80.2798 30.8473 79.0341 38.9444 79.657C33.0273 76.5427 25.5531 74.6742 19.3245 74.9856C16.2103 74.9856 12.7846 73.4285 12.4732 69.6914C12.4732 55.6772 12.1617 41.3516 12.1617 27.3374Z" fill="#6983D0"/>
<path fill-rule="evenodd" clip-rule="evenodd" d="M52.3362 30.4517C57.0076 22.0432 73.2017 12.0775 81.9217 16.1261C81.9217 16.1261 84.1016 16.7489 84.1016 19.8632C84.1016 22.9774 83.7902 69.6914 83.7902 69.6914C83.7902 70.3142 82.8559 71.2485 80.9874 71.2485C69.1532 70.6256 58.2533 75.9199 52.3362 81.2141V30.4517Z" fill="#F1CC7D"/>
<path fill-rule="evenodd" clip-rule="evenodd" d="M87.8389 27.3374C89.7075 27.9603 91.2646 28.5831 92.5103 29.5174C92.5103 29.5174 95.3131 31.0745 95.3131 34.5002C95.3131 37.6145 94.6903 84.017 94.6903 84.017C94.6903 84.6398 93.4446 85.2627 90.9532 84.3284C80.0532 80.2798 69.4648 79.0341 61.3677 79.657C67.2848 76.5427 74.4476 74.6742 80.6761 74.9856C83.7904 74.9856 87.5275 73.4285 87.5275 69.6914C87.5275 55.6772 87.8389 41.3516 87.8389 27.3374Z" fill="#F1CC7D"/>
</svg>
