<svg width="237" height="61" viewBox="0 0 237 61" fill="none" xmlns="http://www.w3.org/2000/svg">
<path d="M55.5802 47.0462C56.9989 47.0519 58.6785 47.0555 60.5105 47.0574C68.8541 47.06 80.4957 47.1062 87.4409 47.088C87.5976 47.0874 87.7527 47.0869 87.9061 47.0863C88.4645 47.0845 89.017 47.0817 89.5567 47.0778C91 47.0672 92.4243 47.0496 94.0343 47.0195C97.2703 46.9634 101.279 46.8159 107.362 46.7956C111.173 46.779 115.818 46.7902 121.618 46.8176C125.99 46.7977 130.363 46.7825 134.732 46.7609C136.772 46.7505 138.837 46.7386 140.874 46.7203C146.345 46.6993 151.75 46.4631 157.295 46.3988C165.523 46.3112 173.74 46.3451 181.911 46.2684C187.758 46.2733 193.368 45.6529 199.438 45.3106C202.148 45.2314 205.032 43.9085 208.337 42.9319C211.638 42.0283 214.432 39.4761 217.611 36.9482C220.427 34.7203 223.52 31.4142 224.517 29.097C224.806 27.9736 224.925 26.9126 224.763 26.0973C224.197 23.4592 219.828 21.2601 215.916 18.7903C213.292 16.9595 210.473 15.4754 207.485 14.0914C204.612 12.7791 201.064 12.2697 197.479 11.6141C196.733 11.4684 195.644 11.5528 194.254 11.4574C193.719 11.4053 193.3 11.3836 192.771 11.3616C192.191 11.3415 191.598 11.3278 190.987 11.3156C183.386 11.1897 174.549 11.1869 166.739 11.1456C162.504 11.1263 158.551 11.1043 155.285 11.0729C143.553 10.9608 135.597 10.8729 129.046 10.7968C106.924 10.6955 84.7731 10.6151 62.6719 10.6104C53.3227 10.6637 43.5384 10.4556 34.6743 10.9251C31.3682 11.5634 28.1489 12.5253 24.6244 13.163C22.4182 13.5095 20.3633 14.7073 18.1716 16.001C17.3676 16.4692 16.5345 16.9454 15.639 17.3678C12.2521 19.0279 10.0422 23.0908 8.90329 27.0117C8.00768 30.1629 8.629 33.606 9.86071 36.894C10.6557 39.1599 12.6553 40.9674 14.5917 43.1565C14.9814 43.6088 15.3685 44.0893 15.7236 44.6301C18.5189 47.9765 23.8549 50.1631 28.4689 52.2268C31.1791 53.3553 34.1105 54.2663 37.0081 55.1742C38.8204 55.7575 40.643 56.13 42.5487 56.4252C46.2829 56.9718 49.9845 57.2381 53.5539 57.4491C55.8008 57.5762 58.0134 57.6266 60.1622 57.6558C67.9331 57.7429 74.8793 57.5794 80.6356 57.5712C81.6395 57.5691 82.6546 57.57 83.6818 57.5785C91.6757 57.6702 100.022 57.8945 107.832 57.9399C112.813 57.9858 117.584 58.0198 121.803 58.0467C123.712 58.0588 125.503 58.0691 127.169 58.0775C136.423 58.0571 145.678 58.017 154.932 57.9404C155.548 57.9532 156.17 57.9665 156.805 57.9799C159.43 58.0355 162.279 58.0629 165.427 58.0594C170.838 57.91 177.403 58.3784 185.079 56.4049C186.398 56.0967 187.766 55.7865 189.187 55.4792C191.797 54.9169 194.583 54.3538 197.597 53.8817C200.076 53.4795 202.769 52.5243 205.617 51.53C207.553 50.8515 209.562 50.1745 211.645 49.4713C214.749 48.4253 217.011 47.6868 218.811 47.1051C220.129 46.676 221.171 46.1939 222.111 45.7341C222.739 45.424 223.325 45.1134 223.915 44.7854C225.317 44.0057 226.727 43.0848 228.317 42.0812C228.92 41.6989 229.488 41.2069 230.011 40.6047C231.177 39.2727 232.066 37.4158 232.961 35.1252C233.498 33.7409 233.737 31.9547 233.623 30.038C233.593 29.5382 233.489 29.0414 233.297 28.5391C232.435 26.3589 230.286 24.6886 228.593 22.9205C226.215 20.4371 223.41 19.3145 220.858 17.8875C217.784 16.0882 215.292 14.7802 212.983 13.9288C210.171 12.8527 207.928 11.9947 205.893 11.2944C204.141 10.6901 202.55 10.1881 200.919 9.73984C200.607 9.65405 200.285 9.56863 199.958 9.48517C197.103 8.75787 193.704 7.91651 190.319 7.07051C188.309 6.58261 185.819 6.33288 183.677 5.45145C183.093 5.22008 182.48 5.0388 181.869 4.88973C177.821 3.74382 169.591 4.31975 162.322 4.40783C161.583 4.3531 161.041 4.32912 160.393 4.31223C157.662 4.24529 153.94 4.2024 149.542 4.16608C148.48 4.15782 147.431 4.15093 146.289 4.14506C142.543 4.12607 138.428 4.12024 134.081 4.14308C119.827 4.22196 112.256 4.28548 106.167 4.33322C104.434 4.34735 102.815 4.36081 101.2 4.37529C97.0984 4.41231 92.1902 4.44929 87.1198 4.50012C85.851 4.51284 84.6367 4.52701 83.3586 4.5442C77.3723 4.62304 71.4627 4.76539 66.2267 5.1065C64.7756 5.16496 63.3588 5.23126 62.0488 5.28946C56.402 5.47902 50.752 5.63321 45.0962 5.74177C40.558 5.74182 36.7029 6.81335 31.8633 8.0658C28.0166 8.84871 24.2175 9.67576 20.7854 11.1567C19.6812 11.629 18.5781 12.0431 17.475 12.4339C15.4816 13.139 13.4953 13.7438 11.5955 14.3192C9.11199 15.0481 7.00992 16.8583 5.1948 18.6975L5.40151 18.4118C4.28559 20.2384 3.5351 22.0158 3.04564 23.7313C2.74294 24.772 2.51408 25.7719 2.27634 26.6832L2.28753 26.6059C1.7423 30.0404 1.56604 32.117 1.20717 32.0977C0.91354 32.085 0.439243 30.158 0.465169 26.4104C0.466441 26.3991 0.471204 26.3654 0.473305 26.3542C0.572063 25.4369 0.672226 24.3957 0.875216 23.2315C1.19641 21.3139 1.89611 19.1552 2.99589 17.0649C3.02479 17.0139 3.12346 16.8766 3.16333 16.8335C4.9763 14.7531 7.30879 12.4223 10.6326 11.3116C12.5336 10.6752 14.4601 10.0485 16.3717 9.35428C17.4269 8.97089 18.4701 8.56836 19.4744 8.12893C23.2937 6.45045 27.2756 5.56985 31.1844 4.73786C35.2877 3.62454 40.2991 2.22932 45.0155 2.2377C51.1853 2.07269 57.3475 1.8541 63.5173 1.60092C64.3712 1.56654 65.2481 1.52985 66.1112 1.49881C73.0406 1.07001 80.115 1.00336 87.1007 0.940531C98.607 0.857503 110.137 0.834274 121.651 0.839053C129.875 0.844801 138.083 0.860403 146.308 0.912118C151.674 0.974499 156.906 0.913859 162.414 1.25741C162.452 1.26056 162.487 1.26314 162.52 1.26532C163.687 1.33144 165.074 1.28134 166.399 1.24583C172.526 1.06876 178.732 0.444427 184.824 2.41168C186.739 3.14426 188.792 3.27013 191.112 3.79574C193.285 4.30696 195.324 4.7939 197.176 5.25135C198.462 5.56882 199.678 5.87816 200.833 6.18505C205.618 7.49487 209.083 9.04958 212.141 10.2968C212.815 10.5769 213.467 10.8476 214.103 11.1075C216.034 11.892 217.808 12.7838 219.498 13.7226C220.287 14.1579 221.238 14.7053 222.328 15.3274C222.878 15.6413 223.522 15.9668 224.242 16.3318C226.147 17.286 228.619 18.6308 230.741 20.7767C232.562 22.8092 236.259 24.9004 236.795 29.8134C236.93 31.9119 236.784 34.0876 235.903 36.3266C234.746 39.1396 233.215 42.6065 229.857 44.6338C227.925 45.7898 225.974 47.0497 223.894 48.1647C222.649 48.8291 221.302 49.4783 219.803 49.9832C215.58 51.3993 211.022 52.8505 206.605 54.3359C205.793 54.6109 204.978 54.8862 204.159 55.1518C202.165 55.791 200.169 56.4053 198.04 56.7259C193.41 57.4023 189.133 58.3156 185.705 59.0899C183.758 59.6062 181.733 59.9899 180.339 60.1528C175.578 60.74 170.516 60.8324 165.459 60.8872C161.566 60.9181 157.719 60.922 154.046 60.9211C146.048 60.9179 139.048 60.8878 135.07 60.9593C130.312 61.0439 126.262 61.0097 120.229 60.9485C116.872 60.9135 112.862 60.8714 107.815 60.8228C106.573 60.8107 105.297 60.7981 103.944 60.7841C95.879 60.7134 90.1802 60.4843 85.3626 60.3724C84.7778 60.3587 84.2217 60.3464 83.6529 60.3349C77.689 60.2279 72.7906 60.275 65.7924 60.3257C61.6736 60.3493 57.4521 60.3387 53.3796 60.1059C49.0642 59.8467 44.9526 59.489 41.3201 58.8582C39.7263 58.581 37.9708 58.198 36.2415 57.6403C34.5277 57.1062 32.7429 56.5402 30.925 55.9121C29.7791 55.5139 28.6224 55.0974 27.4536 54.601C23.8522 53.0484 20.2364 51.3733 17.0607 49.2152C15.7684 48.3034 14.557 47.3813 13.6386 45.9965C12.6112 44.4136 11.1196 43.0395 9.96821 41.5619C9.37765 40.8185 8.84242 40.0475 8.40857 39.2342C8.13155 38.7401 7.88737 38.2185 7.69146 37.6736C6.76172 35.159 6.05606 32.3886 6.17821 29.5512C6.18855 29.0026 6.22879 28.4236 6.31294 27.8214C6.37868 27.351 6.47138 26.8647 6.59826 26.3666C7.28799 23.7929 8.3751 20.7307 10.9765 17.7375C11.9736 16.6279 13.153 15.6601 14.5221 15.006C17.4766 13.5785 20.378 11.1815 24.1954 10.5865C25.6401 10.3506 27.1475 9.98541 28.6752 9.62979C30.4491 9.21342 32.2684 8.7854 34.1708 8.4152C37.7491 8.03308 40.894 8.18223 44.6119 8.09636C48.5789 8.0494 53.1202 7.99287 57.6141 7.94244C59.2988 7.92351 60.9725 7.90554 62.6635 7.88946C67.4798 7.84281 72.0365 7.81295 75.443 7.8292C77.1877 7.83734 78.617 7.88523 80.1015 7.93293C80.1078 7.93323 80.1142 7.93352 80.1205 7.93382C80.2184 7.93706 80.3167 7.94022 80.4148 7.94345C91.5517 7.88893 102.707 7.84024 113.853 7.79541C114.818 7.78248 115.795 7.76979 116.762 7.75734C121.49 7.69648 126.082 7.63886 129.074 7.55613C132.322 7.46641 140.476 7.41831 149.079 7.37547C154.714 7.34731 160.503 7.32152 165.292 7.2854C165.791 7.28162 166.277 7.28045 166.751 7.28145C169.028 7.28634 171.187 7.33727 173.401 7.3912C175.928 7.45263 178.542 7.51759 181.382 7.52587C182.808 7.53016 184.335 7.52137 185.982 7.5161C187.433 7.51178 188.948 7.50869 190.557 7.52637C191.379 7.54572 192.706 7.53489 194.561 7.69759C195.356 7.78476 196.524 7.64881 198.146 7.9143C198.675 8.01419 199.234 8.11526 199.812 8.22068C202.397 8.71242 205.432 9.18238 208.618 10.5244C208.759 10.5841 208.903 10.6473 209.044 10.7115C212.114 12.1031 215.215 13.6994 218.065 15.6585C221.352 18.016 226.62 19.2865 228.584 25.3393C228.672 25.7784 228.719 26.215 228.734 26.6408C228.802 27.9907 228.603 29.1183 228.411 30.0705C228.172 31.001 227.916 31.4356 227.685 31.9222C227.237 32.8047 226.835 33.4782 226.397 34.1682C225.8 35.0959 225.146 36.0222 224.13 37.1838C223.335 38.0958 222.311 39.0729 221.575 39.6723C221.233 39.9521 220.957 40.1534 220.709 40.332C220.63 40.3889 220.552 40.4441 220.475 40.4993C220.286 40.6339 220.108 40.7651 219.905 40.9303C219.706 41.0921 219.506 41.275 219.258 41.5011C218.862 41.8606 218.352 42.3308 217.501 43.0071C215.496 44.6101 212.828 46.5096 209.683 47.4062C208.282 47.8204 206.861 48.339 205.31 48.8409C203.587 49.4019 201.628 49.8991 199.659 49.9784C196.753 50.1075 193.956 50.4016 191.488 50.5845C188.866 50.7902 185.543 50.9268 181.971 50.9398C179.722 50.9499 177.364 50.9425 175.011 50.9335C170.788 50.9165 166.561 50.8913 162.943 50.898C161.105 50.9014 159.223 50.9198 157.355 50.9548C155.608 50.9873 153.879 51.0382 152.164 51.1014C148.174 51.2606 144.281 51.3682 140.917 51.3597C140.673 51.3592 140.426 51.3583 140.177 51.3569C139.474 51.3526 138.572 51.2969 137.472 51.2256C136.689 51.1751 135.779 51.1169 134.753 51.0636C130.276 51.0857 125.801 51.096 121.327 51.107C121.17 51.1161 121.007 51.1253 120.845 51.1347C120.842 51.1349 120.84 51.1351 120.837 51.1353C117.583 51.3252 113.247 51.5673 107.408 51.5567C106.655 51.5561 105.89 51.5519 105.097 51.5441C103.311 51.527 102.183 51.473 101.169 51.426C100.174 51.3802 99.2817 51.3421 97.9754 51.3636C96.4895 51.3882 94.7329 51.4748 92.808 51.552C91.7856 51.5934 90.7097 51.6331 89.6052 51.663C87.8242 51.7115 85.9508 51.7357 84.0904 51.7042C83.8838 51.7007 83.6609 51.6969 83.4324 51.693C81.2462 51.6563 78.0128 51.5955 74.7952 51.4558C70.0198 51.4354 65.2389 51.4043 60.4617 51.3313C57.2083 51.2744 53.8365 51.2151 50.6208 50.9511C49.1165 50.8695 47.5918 50.7893 46.0425 50.6366C41.8513 50.2435 37.8137 49.1858 33.9067 48.0482C28.1423 46.3239 22.9617 43.7334 17.6692 41.4728C14.442 40.0389 9.22005 38.1569 8.78331 32.7453C8.67423 30.4561 8.52042 28.2228 8.74775 25.7349C8.82678 25.1522 8.85591 24.6103 9.23384 23.7722C12.3181 17.9281 15.5472 12.8515 19.5935 9.26963C20.1762 8.85134 20.766 8.56973 21.3334 8.34346C26.9171 6.52219 30.0845 7.44168 30.0625 7.74239C30.133 8.21442 26.8142 8.23575 22.2445 10.342C21.8104 10.5738 21.3905 10.8422 21.0599 11.1382C18.1915 14.2076 14.8703 19.7406 12.156 25.1947C12.1425 25.2019 12.0329 25.6706 12.0011 26.0762C11.8374 28.0426 11.988 30.3344 12.1252 32.5426C12.1912 35.1715 15.5301 36.894 19.0397 38.2769C24.3891 40.4987 29.6219 43.0119 34.9181 44.5243C35.6378 44.7268 36.3494 44.9214 37.0596 45.1083C37.6933 45.27 38.3234 45.425 38.9481 45.5715C43.0791 46.5827 46.7806 46.8729 50.8179 46.9265C51.4412 46.9446 51.9712 46.9771 52.5045 46.9945C53.5124 47.0302 54.5403 47.0417 55.5802 47.0462Z" fill="#6983D0"/>
</svg>
