<svg width="24" height="25" viewBox="0 0 24 25" fill="none" xmlns="http://www.w3.org/2000/svg">
<path d="M12 3.08664C15.1807 3.08664 15.6145 3.08664 16.9157 3.08664C18.0723 3.08664 18.6506 3.3758 19.0843 3.52038C19.6627 3.80954 20.0964 3.95411 20.5301 4.38785C20.9639 4.82158 21.253 5.25532 21.3976 5.83363C21.5422 6.26737 21.6867 6.84568 21.8313 8.00231C21.8313 9.30351 21.8313 9.59267 21.8313 12.918C21.8313 16.2433 21.8313 16.5324 21.8313 17.8336C21.8313 18.9903 21.5422 19.5686 21.3976 20.0023C21.1084 20.5806 20.9639 21.0144 20.5301 21.4481C20.0964 21.8818 19.6627 22.171 19.0843 22.3156C18.6506 22.4601 18.0723 22.6047 16.9157 22.7493C15.6145 22.7493 15.3253 22.7493 12 22.7493C8.6747 22.7493 8.38554 22.7493 7.08434 22.7493C5.92771 22.7493 5.3494 22.4601 4.91566 22.3156C4.33735 22.0264 3.90362 21.8818 3.46988 21.4481C3.03615 21.0144 2.74699 20.5806 2.60241 20.0023C2.45783 19.5686 2.31325 18.9903 2.16867 17.8336C2.16867 16.5324 2.16867 16.2433 2.16867 12.918C2.16867 9.59267 2.16867 9.30351 2.16867 8.00231C2.16867 6.84568 2.45783 6.26737 2.60241 5.83363C2.89157 5.25532 3.03615 4.82158 3.46988 4.38785C3.90362 3.95411 4.33735 3.66496 4.91566 3.52038C5.3494 3.3758 5.92771 3.23122 7.08434 3.08664C8.38554 3.08664 8.81928 3.08664 12 3.08664ZM12 0.917969C8.6747 0.917969 8.38554 0.917969 7.08434 0.917969C5.78313 0.917969 4.91566 1.20713 4.19277 1.49628C3.46988 1.78544 2.74699 2.21917 2.0241 2.94207C1.30121 3.66496 1.01205 4.24327 0.578314 5.11074C0.289157 5.83363 0.144578 6.7011 0 8.00231C0 9.30351 0 9.73725 0 12.918C0 16.2433 0 16.5324 0 17.8336C0 19.1348 0.289157 20.0023 0.578314 20.7252C0.867471 21.4481 1.30121 22.171 2.0241 22.8939C2.74699 23.6168 3.3253 23.9059 4.19277 24.3397C4.91566 24.6288 5.78313 24.7734 7.08434 24.918C8.38554 24.918 8.81928 24.918 12 24.918C15.1807 24.918 15.6145 24.918 16.9157 24.918C18.2169 24.918 19.0843 24.6288 19.8072 24.3397C20.5301 24.0505 21.253 23.6168 21.9759 22.8939C22.6988 22.171 22.988 21.5927 23.4217 20.7252C23.7108 20.0023 23.8554 19.1348 24 17.8336C24 16.5324 24 16.0987 24 12.918C24 9.73725 24 9.30351 24 8.00231C24 6.7011 23.7108 5.83363 23.4217 5.11074C23.1325 4.38785 22.6988 3.66496 21.9759 2.94207C21.253 2.21917 20.6747 1.93002 19.8072 1.49628C19.0843 1.20713 18.2169 1.06255 16.9157 0.917969C15.6145 0.917969 15.3253 0.917969 12 0.917969Z" fill="white"/>
<path d="M12 6.7011C8.53012 6.7011 5.78313 9.44809 5.78313 12.918C5.78313 16.3879 8.53012 19.1348 12 19.1348C15.4699 19.1348 18.2169 16.3879 18.2169 12.918C18.2169 9.44809 15.4699 6.7011 12 6.7011ZM12 16.9662C9.83133 16.9662 7.95181 15.2312 7.95181 12.918C7.95181 10.7493 9.68675 8.86978 12 8.86978C14.1687 8.86978 16.0482 10.6047 16.0482 12.918C16.0482 15.0866 14.1687 16.9662 12 16.9662Z" fill="white"/>
<path d="M18.3614 8.00231C19.1599 8.00231 19.8072 7.35501 19.8072 6.55652C19.8072 5.75804 19.1599 5.11074 18.3614 5.11074C17.563 5.11074 16.9157 5.75804 16.9157 6.55652C16.9157 7.35501 17.563 8.00231 18.3614 8.00231Z" fill="white"/>
</svg>
