<svg width="19" height="18" viewBox="0 0 19 18" fill="none" xmlns="http://www.w3.org/2000/svg">
<path d="M18.5996 10.8111V17.43H14.7252V11.2147C14.7252 9.6811 14.1601 8.63178 12.788 8.63178C11.7386 8.63178 11.0929 9.35823 10.8507 10.004C10.77 10.2461 10.6893 10.569 10.6893 10.9726V17.43H6.81485C6.81485 17.43 6.89557 6.93671 6.81485 5.88738H10.6893V7.50173C11.1736 6.69456 12.1422 5.56451 14.1601 5.56451C16.6624 5.56451 18.5996 7.25958 18.5996 10.8111ZM2.77898 0.317871C1.4875 0.317871 0.599609 1.20576 0.599609 2.33581C0.599609 3.46585 1.40678 4.35375 2.69826 4.35375C4.07046 4.35375 4.87764 3.46585 4.87764 2.33581C4.95835 1.12505 4.15118 0.317871 2.77898 0.317871ZM0.841761 17.43H4.7162V5.88738H0.841761V17.43Z" fill="white"/>
</svg>
