<svg width="155" height="26" viewBox="0 0 155 26" fill="none" xmlns="http://www.w3.org/2000/svg">
<path d="M129.904 1.55033C129.713 1.54812 128.927 1.53098 128.579 1.5254C128.976 1.51887 130.613 1.55851 129.904 1.55033ZM94.625 2.02189C94.9103 2.02172 95.1954 2.02157 95.4803 2.02144C94.6708 2.01021 93.5805 2.00072 92.8276 1.98953C92.7046 1.98769 93.0238 1.9815 92.7328 1.97796C92.4416 1.97443 92.4977 1.98814 92.0742 1.98506C91.5993 1.98147 89.4237 1.94995 88.67 1.94284C85.8529 1.91582 83.0097 1.89753 80.1858 1.86929C83.1078 1.88365 80.161 1.84925 79.3474 1.84722C79.1666 1.84696 79.1972 1.87073 76.2712 1.84341C74.4204 1.82678 76.1216 1.80292 73.0303 1.80055C75.4035 1.84016 73.0779 1.82292 71.1963 1.81318C70.8809 1.81132 68.266 1.79392 67.1257 1.79048C66.7284 1.78915 66.1264 1.79948 65.607 1.79791C65.2472 1.79681 64.9883 1.78888 64.447 1.78747C61.9633 1.78103 59.5045 1.77727 57.0279 1.77611C58.4907 1.74268 55.8727 1.76264 55.7634 1.76169C55.1654 1.75324 57.8646 1.74841 56.7947 1.74365C55.3088 1.74564 53.8236 1.74969 52.3474 1.75658C53.3878 1.75603 51.5231 1.77983 50.6341 1.78443C50.4508 1.7853 50.3028 1.78542 50.2169 1.78424C50.4297 1.79936 43.4682 1.84014 42.4006 1.8991C42.1794 1.90968 43.6287 1.8732 40.2705 1.97641C39.9068 1.98868 40.0442 1.97503 39.8546 1.98279C39.7398 1.98753 39.0652 2.04027 38.314 2.0573C38.046 2.06676 39.7621 1.95921 35.9899 2.15221C37.4962 2.08704 30.7642 2.4739 29.5327 2.61621C29.7791 2.59766 30.0345 2.57899 30.2821 2.56166C29.0372 2.6594 28.8516 2.69123 28.5654 2.71776C27.4475 2.82357 25.944 2.9843 24.9122 3.12248C23.7094 3.28603 23.7049 3.3013 22.323 3.51265C22.6448 3.46441 22.9745 3.41695 23.3128 3.37031C22.3426 3.51452 21.3955 3.67185 20.4335 3.85354C22.6494 3.42524 19.9627 3.93335 19.7779 3.981C19.4974 4.03866 19.8966 3.94746 19.4313 4.04399C19.3832 4.05497 19.457 4.04511 18.7285 4.20427C17.2213 4.54689 17.4567 4.49138 16.8316 4.64754C16.777 4.66382 16.9704 4.61266 15.8973 4.90927C12.4894 5.93141 15.9017 4.88516 16.0429 4.8612C16.2212 4.82239 15.0163 5.06781 17.9568 4.3491C16.9726 4.5793 16.8654 4.59982 16.7586 4.62542C16.6491 4.64552 14.9716 5.11968 14.8706 5.1591C14.0529 5.41624 14.7754 5.20396 14.6166 5.25489C14.4782 5.28811 12.4688 5.946 12.0107 6.15693C11.0429 6.48739 12.5463 5.90834 14.1632 5.3859C14.3982 5.298 12.6185 5.88637 12.5316 5.92549C10.2581 6.75181 11.5234 6.31931 11.0323 6.51537C10.7758 6.61961 9.84213 6.9551 10.7052 6.65196C10.5364 6.71574 10.3904 6.77092 10.2641 6.81857C8.89285 7.37446 9.89252 6.95594 9.77428 7.00068C9.57743 7.07429 8.90492 7.39778 8.8217 7.44441C8.69877 7.506 9.1208 7.28148 8.6378 7.52705C8.5566 7.56842 7.7947 7.99428 8.79024 7.46839C7.46388 8.17949 7.60116 8.16812 7.15942 8.42519C6.33603 9.05839 6.53624 8.84934 6.20988 9.09851C5.36739 9.7895 5.63937 9.62181 5.59416 9.65693C5.25768 9.87841 3.2285 12.124 2.87416 12.7932C2.99283 12.5177 4.31311 10.8792 4.66095 10.5604C5.71745 9.40735 3.18001 12.1949 3.91796 11.3316C3.61721 11.7028 3.33216 12.0864 3.06383 12.4806C2.57163 13.2011 3.18168 12.1245 1.99983 14.1581C1.81377 14.4921 2.83876 12.7235 2.64526 13.0846C2.50611 13.2856 1.84071 14.4732 1.84421 14.5054C1.82736 14.5239 2.41971 13.4508 2.33552 13.6235C2.26655 13.7493 1.95978 14.2789 1.70132 14.8262C1.46937 15.3024 1.39317 15.8707 1.3735 16.0247C1.37768 16.1925 1.28775 15.8892 1.63986 14.9271C1.33076 15.7271 1.28601 16.2257 1.31316 17.0228C1.32775 17.2823 1.31346 16.6809 1.33326 16.5661C1.39466 16.4463 1.16076 16.8218 1.67123 18.9846C1.64424 19.0878 1.31597 17.2507 1.35906 17.2012C1.35185 17.1337 1.34501 17.4704 1.3516 17.5288C1.35897 17.6049 1.42662 18.3118 1.68145 19.1711C1.95479 20.4523 3.33241 21.4907 4.01107 21.8718C4.06373 21.9045 4.11772 21.9341 4.16494 21.9587C4.00947 21.8762 4.71326 22.231 5.69101 22.4391C6.64568 22.6612 7.70245 22.8106 7.93684 22.842C8.05375 22.8573 7.6189 22.7824 7.74384 22.7993C8.48891 22.9116 10.5515 23.163 11.5032 23.2423C12.5901 23.3383 12.4354 23.3118 12.5 23.3179C12.9723 23.3563 12.5934 23.3329 12.8845 23.3559C13.3127 23.3972 16.3363 23.5945 16.4707 23.5954C16.515 23.5974 16.0257 23.558 16.6805 23.5931C16.7955 23.5979 16.7197 23.6133 18.6687 23.7042C20.9928 23.8072 17.0415 23.6082 18.0114 23.6403C19.5262 23.7359 19.4582 23.7096 19.8733 23.7303C20.0249 23.7377 21.0567 23.8004 22.2053 23.8423C21.383 23.8141 20.5791 23.7841 19.7473 23.7498C20.5586 23.79 22.12 23.848 22.7767 23.8745C23.1018 23.8878 22.8303 23.8925 23.543 23.9169C23.6879 23.9212 24.2878 23.9096 22.4374 23.8583C22.2906 23.8407 23.1636 23.8808 23.5795 23.8913C23.6403 23.8928 23.8775 23.8806 24.3953 23.9103C24.5194 23.9159 23.1629 23.9384 26.6642 23.9986C26.7778 24.0004 26.3833 23.9818 26.4943 23.9834C26.5709 23.9847 27.4688 24.0124 27.5631 24.0136C27.6631 24.0152 27.2359 23.9956 27.355 23.9971C27.9652 24.0052 28.7746 24.0584 27.5073 24.0229C27.9283 24.0381 28.3539 24.053 28.7841 24.0676C28.329 24.0319 29.4481 24.0772 30.035 24.0894C33.8033 24.1654 31.2803 24.0953 31.9284 24.1009C32.972 24.1082 32.1865 24.1354 33.7214 24.1511C33.8659 24.1518 31.9936 24.1034 35.6467 24.1746C35.1121 24.1668 34.5716 24.1585 34.0295 24.1497C34.3459 24.1793 35.9736 24.1805 36.1017 24.1818C37.5486 24.2001 36.5613 24.1951 38.6985 24.2116C38.8921 24.2131 39.3043 24.2241 39.7082 24.2261C41.393 24.2346 37.4803 24.1913 37.378 24.1788C37.3207 24.175 41.5371 24.2283 41.6774 24.2302C42.2921 24.2469 39.7675 24.2135 40.2487 24.231C40.4357 24.2406 46.4212 24.2881 47.6237 24.2976C49.0129 24.3123 49.6332 24.3474 49.6439 24.3116C49.9579 24.3416 50.244 24.3333 50.4378 24.3294C50.4872 24.3284 50.5305 24.3277 50.5667 24.328C52.7202 24.3461 52.7194 24.3475 54.5637 24.3727C54.9704 24.3789 55.3144 24.3963 55.4581 24.3974C55.5418 24.398 55.3851 24.3832 55.7945 24.3881C56.3686 24.3916 59.7858 24.4933 60.0406 24.5069C60.2943 24.5201 58.597 24.4712 58.9005 24.4897C60.1295 24.5235 61.3102 24.5534 62.5436 24.5805C63.0603 24.5918 62.7933 24.5935 63.0149 24.5981C63.1113 24.6015 64.8818 24.6233 64.8076 24.6183C64.6307 24.6221 59.157 24.4977 60.5988 24.5183C60.8767 24.5233 61.861 24.564 61.704 24.5397C65.4253 24.6359 69.1516 24.6433 72.8823 24.6023C74.0448 24.5898 75.2102 24.5741 76.3836 24.5557C75.254 24.5806 74.0778 24.5992 72.8825 24.6129C71.0677 24.6336 69.2247 24.64 67.4609 24.6353C67.0514 24.6353 65.6967 24.6231 65.8576 24.6344C68.0343 24.6573 70.643 24.6427 72.8825 24.6191C73.2188 24.6157 73.554 24.6122 73.8831 24.6087C73.9614 24.6079 73.6746 24.621 73.9666 24.6186C74.4914 24.615 76.2677 24.5725 76.5526 24.5711C76.6059 24.5712 75.6033 24.5998 75.9085 24.6026C76.6915 24.6099 76.8847 24.5622 77.5583 24.5507C78.0759 24.5435 81.5628 24.4931 82.4307 24.4572C83.3552 24.4218 79.8557 24.5074 80.1189 24.4887C82.4748 24.4273 84.8783 24.3796 87.1042 24.3145C87.1434 24.3133 86.8029 24.3138 87.2991 24.2983C88.1659 24.271 88.3953 24.277 88.8152 24.2665C89.2717 24.2552 90.877 24.2023 91.0952 24.1995C91.1227 24.1993 90.796 24.223 90.7466 24.2249C90.045 24.253 89.7984 24.2436 89.7347 24.2455C89.4944 24.2524 89.2579 24.2661 89.0394 24.2725C88.6785 24.2828 88.4851 24.2827 88.0076 24.2963C87.6785 24.3056 87.9962 24.3078 87.6795 24.3165C87.5625 24.3199 86.3146 24.3291 86.1964 24.3589C86.1618 24.3809 96.3853 24.0572 97.4076 23.9935C96.5296 24.0255 95.6548 24.056 94.7774 24.0853C96.5583 24.0279 98.6937 23.9179 98.8475 23.9427C105.392 23.6679 111.943 23.3249 118.464 22.8053C118.516 22.8011 118.568 22.7969 118.62 22.7928C119.8 22.6975 119.152 22.7755 121.082 22.5995C120.59 22.6372 120.08 22.6751 119.585 22.7105C120.577 22.6409 124.959 22.2279 125.666 22.1377C125.76 22.1267 125.877 22.0976 126.976 21.9726C127.941 21.8612 128.104 21.8546 128.618 21.7957C129.058 21.7449 129.541 21.681 129.669 21.6657C129.769 21.6537 129.81 21.6571 130.049 21.6281C130.802 21.5359 130.187 21.5917 130.937 21.521C130.752 21.5465 130.575 21.5706 130.394 21.5951C131.303 21.482 132.533 21.3253 131.207 21.511C130.977 21.5427 131.174 21.5083 131.001 21.5311C124.292 22.3626 129.654 21.7414 132 21.4012C132.601 21.3398 135.979 20.8217 136.089 20.7981C136.245 20.7762 135.671 20.8794 136.426 20.7648C136.59 20.7574 141.073 19.934 139.46 20.2456C139.13 20.3152 136.977 20.6901 136.455 20.7717C137.679 20.6059 140.537 20.0372 140.851 19.9681C142.151 19.7155 138.37 20.4785 141.288 19.9064C143.516 19.4469 141.426 19.8646 142.277 19.6791C142.762 19.5823 145.278 19.016 145.205 19.0001C146.061 18.7839 145.564 18.9209 145.67 18.8956C145.756 18.876 146.923 18.5694 147.624 18.3662C147.775 18.3231 147.902 18.2865 147.994 18.2602C148.059 18.2417 147.858 18.314 147.926 18.2952C148.062 18.2663 149.653 17.756 149.709 17.7232C149.75 17.7086 149.373 17.8276 149.526 17.7718C149.713 17.7204 151.193 17.1386 151.26 17.0805C151.386 17.0471 149.558 17.7748 149.857 17.6365C150.723 17.347 152.05 16.7132 152.489 16.3476C152.386 16.4422 151.652 16.8778 151.372 16.9976C151.43 16.9603 151.877 16.7364 152.21 16.521C152.543 16.3089 152.77 16.1228 152.53 16.3159C152.835 16.0743 152.624 16.2319 152.787 16.0896C152.837 16.0564 153.223 15.6774 153.28 15.588C153.295 15.5831 152.904 15.9805 152.977 15.8962C153.05 15.8255 153.372 15.4981 153.607 15.1053C153.847 14.7173 154.032 14.2794 154.063 14.2147C154.236 13.8556 153.648 15.1394 153.565 15.2085C153.578 15.2443 154.129 14.1952 154.125 14.1628C154.181 14.1199 153.572 15.2943 153.64 15.1546C153.812 14.8847 153.959 14.5918 154.098 14.2858C153.848 14.8858 153.416 15.6607 152.783 16.1595C152.164 16.6717 151.47 16.9863 151.198 17.1233C153.068 16.4249 153.985 14.6526 153.983 14.6523C154.005 14.6678 153.611 15.3733 153.62 15.3404C153.72 15.2691 154.215 14.2438 154.221 14.1941C154.236 14.1619 154.243 14.1472 154.244 14.1475V14.1475C154.275 14.1743 153.529 15.6058 153.43 15.6273C153.358 15.7417 153.795 15.1831 153.789 15.1775C153.805 15.2215 153.086 16.1047 153.339 15.8161C153.633 15.5522 154.116 14.6549 154.121 14.6151C154.164 14.5266 154.006 14.8963 153.782 15.2569C153.563 15.6216 153.25 15.95 153.231 15.9693C153.231 16.0063 153.826 15.2696 153.823 15.2316C153.846 15.2187 153.443 15.8193 153.233 16.0172C153.091 16.1759 153.521 15.7291 153.446 15.8073C153.421 15.8387 153.131 16.1706 152.775 16.4373C152.425 16.709 152.029 16.9265 151.996 16.9462C151.889 17.0096 152.239 16.8189 152.19 16.8488C152.12 16.8999 151.636 17.1545 151.699 17.123C151.722 17.1112 152.22 16.8749 152.661 16.5655C153.11 16.263 153.467 15.867 153.464 15.874C153.51 15.9528 151.721 17.3643 153.367 16.0327C153.384 16.0273 153.713 15.6292 153.715 15.6132C153.813 15.4872 153.622 15.7619 153.544 15.8553C153.452 15.939 153.592 15.9243 154.101 15.0426C153.649 15.8776 153.233 16.1997 153.069 16.3566C152.896 16.5064 152.928 16.4814 153.04 16.3927C153.274 16.2241 153.73 15.6988 153.554 15.92C153.46 16.1384 152.268 17.0255 152.243 16.9975C152.372 16.9388 152.762 16.6704 152.89 16.5717C152.978 16.5462 151.862 17.2598 152.117 17.105C152.271 17.0685 153.41 16.2167 153.419 16.1372C153.807 15.728 153.345 16.242 153.431 16.154C153.507 16.112 154.032 15.4246 154.028 15.396C154.075 15.3818 153.364 16.3195 153.147 16.4534C153.012 16.5828 153.532 16.1125 153.435 16.2005C152.905 16.7985 151.432 17.5744 152.805 16.7618C152.892 16.7131 153.356 16.3202 153.364 16.3006C153.651 16.0527 152.818 16.8121 152.636 16.9038C152.366 17.1185 153.667 16.1688 152.585 16.9567C153.413 16.4049 153.866 15.9664 154.399 14.9233C153.684 16.4244 152.57 16.9675 152.406 17.1053C152.305 17.1698 152.389 17.1337 152.684 16.9432C152.971 16.7457 153.508 16.4003 154.037 15.6327C153.326 16.5707 153.354 16.4278 153.103 16.6676C152.957 16.8503 151.486 17.6433 152.179 17.3113C152.273 17.2863 153.12 16.7062 152.861 16.8956C150.761 18.1492 152.835 16.9682 152.825 16.9315C152.865 17.095 149.792 18.5149 147.802 18.9882C147.169 19.1687 146.659 19.3024 146.426 19.3646C145.31 19.6616 144.319 19.9109 144.079 19.9664C143.274 20.1499 143.937 19.9878 143.758 20.0247C143.58 20.068 141.292 20.574 141.18 20.5891C140.73 20.6741 141.184 20.5708 141.137 20.5795C140.588 20.6915 137.499 21.2656 136.634 21.3952C136.664 21.4007 138.394 21.1065 137.319 21.3033C136.056 21.531 135.977 21.5022 135.943 21.507C130.168 22.4286 124.354 23.057 118.523 23.5303C118.502 23.5319 118.482 23.5336 118.461 23.5352C118.466 23.5361 118.487 23.5355 118.523 23.5337C119.034 23.5119 122.366 23.2041 122.443 23.1946C122.756 23.1743 120.519 23.3915 118.524 23.55C117.225 23.655 116.022 23.7407 115.705 23.761C116.315 23.721 116.905 23.681 117.514 23.638C116.489 23.7414 114.21 23.8763 112.722 23.9815C112.243 24.0159 113.166 23.9644 113.147 23.966C112.603 24.0109 111.743 24.0588 112.388 24.0059C111.07 24.101 111.262 24.0762 110.25 24.1366C110.198 24.1396 110.634 24.1228 109.831 24.1742C109.458 24.1991 107.455 24.3121 107.188 24.3336C107.078 24.3431 108.095 24.3222 108.218 24.285C110.398 24.1753 108.914 24.2317 109.758 24.1834C109.887 24.1751 109.593 24.2128 111.721 24.0729C111.314 24.1304 108.865 24.2536 108.443 24.2797C107.577 24.3375 111.15 24.147 111.804 24.0785C111.499 24.1213 112.059 24.0662 112.853 24.0153C113.727 23.9587 113.346 23.9909 113.818 23.9593C115.104 23.8713 114.575 23.8913 115.633 23.8309C114.596 23.8596 117.453 23.6932 118.286 23.6355C116.93 23.7462 115.583 23.8476 114.224 23.9433C114.301 23.9404 114.38 23.9375 114.458 23.9345C114.098 23.9591 113.747 23.9825 113.389 24.0061C113.446 23.9999 113.503 23.9938 113.56 23.9876C111.72 24.125 111.268 24.1328 111.12 24.1424C109.188 24.2599 106.958 24.3839 105.004 24.4825C104.711 24.4968 104.913 24.5044 102.777 24.595C102.095 24.6232 102.738 24.5813 101.965 24.619C101.001 24.6955 101.018 24.6686 100.73 24.6814C99.9059 24.718 99.4023 24.7472 99.3262 24.7506C98.3078 24.7954 96.8143 24.8544 95.6969 24.8979C95.6761 24.8988 96.2593 24.8865 95.5312 24.9113C95.2745 24.9203 92.9852 24.9636 90.9834 25.0421C91.506 25.0278 92.0223 25.0134 92.5458 24.9982C91.9333 25.0181 87.6421 25.1622 88.6922 25.1406C89.336 25.1285 90.9031 25.0512 91.0786 25.0713C89.6473 25.1196 81.7656 25.3424 81.152 25.3419C81.0688 25.3429 81.587 25.3228 81.4705 25.3244C81.382 25.326 79.5758 25.3668 79.3312 25.368C79.1869 25.369 79.9912 25.3474 79.9261 25.3456C79.8631 25.3454 77.6051 25.3858 77.4835 25.3979C78.0295 25.3842 79.5917 25.357 78.7775 25.382C78.6787 25.3851 78.1223 25.3889 77.9973 25.3925C76.8118 25.4282 80.3587 25.3574 80.9012 25.3437C78.7405 25.405 75.437 25.4506 72.8926 25.4864C72.8151 25.4876 72.7387 25.4887 72.6634 25.4898C72.144 25.491 72.5177 25.4837 72.8925 25.4762C73.2563 25.4687 73.6183 25.4612 73.0302 25.4646C72.9825 25.4649 72.9366 25.4652 72.8924 25.4654C70.6603 25.4756 72.3769 25.4842 72.3009 25.4862C71.6939 25.5029 69.6363 25.4677 69.6257 25.5029C68.7509 25.4999 69.0266 25.4959 67.7766 25.4994C67.9397 25.5022 68.1052 25.505 68.273 25.5075C66.8782 25.5332 63.9441 25.4432 64.1641 25.44C64.757 25.4396 66.2916 25.471 66.4162 25.4705C66.6149 25.4701 67.1402 25.4423 69.2639 25.4713C70.1362 25.4481 65.9064 25.4522 67.8275 25.4384C66.5316 25.4547 61.1932 25.3436 60.4271 25.3236C60.3356 25.3225 60.761 25.3587 59.4447 25.3111C58.8191 25.2885 60.3272 25.3284 60.0411 25.3151C59.4891 25.2924 54.5808 25.1416 50.4337 25.1322C47.9519 25.1207 45.7735 25.1056 44.9108 25.0987C44.7628 25.0974 44.8171 25.0902 44.6718 25.0891C44.2288 25.0858 42.5986 25.0823 41.8042 25.0702C43.4553 25.1014 40.2429 25.0696 39.4306 25.057C38.1928 25.0391 38.2629 25.0261 37.7297 25.0161C35.6657 24.9778 32.4624 24.9533 30.8691 24.8878C30.9491 24.9201 28.0851 24.8112 26.7901 24.773C25.7607 24.7445 24.2983 24.718 25.6655 24.772C23.8978 24.7179 22.0571 24.6585 20.4035 24.5897C20.1328 24.5784 20.5128 24.586 20.0401 24.5663C19.9976 24.5646 19.9363 24.5707 19.5349 24.5535C16.232 24.4029 17.8446 24.4593 17.2311 24.4237C16.8799 24.4018 16.6224 24.3858 16.4359 24.3746C18.3559 24.4842 20.5904 24.5743 21.1728 24.597C20.6844 24.5634 16.9064 24.4103 15.8159 24.3315C15.7786 24.3291 15.9092 24.3264 15.8713 24.3241C15.8705 24.324 15.8697 24.324 15.8689 24.3239C15.4426 24.303 12.8274 24.1234 13.3673 24.1729C13.5057 24.1867 14.7159 24.2764 16.1529 24.3585C15.7703 24.3383 16.0551 24.3669 15.9876 24.3634C15.1403 24.3219 13.1429 24.1729 12.3982 24.1072C12.2347 24.0935 12.2462 24.1019 12.2195 24.0997C11.5773 24.0437 11.827 24.0442 11.1584 24.0058C9.98191 23.8743 13.3749 24.1952 13.1537 24.1512C12.9679 24.1942 5.37665 23.3439 5.40923 23.1794C5.38336 23.1706 5.2733 23.1426 5.06859 23.0852C4.84074 23.0143 4.21702 22.8739 3.6156 22.5269C3.04239 22.1897 2.50675 21.7675 2.36072 21.6321C2.31137 21.589 2.31703 21.6219 2.25694 21.5669C2.15618 21.5001 1.20125 20.5237 0.928438 19.3923C0.773328 18.8649 0.675078 18.3579 0.621867 18.0299C0.68967 18.4912 0.788323 18.9476 0.917106 19.3956C0.938273 19.4691 0.96048 19.5409 0.984578 19.6134C0.959437 19.539 0.936938 19.4673 0.91596 19.396C0.510286 17.9425 0.541769 17.2932 0.518437 17.1781C0.511387 17.059 0.518727 17.4558 0.593623 17.9829C0.60151 18.037 0.608796 18.089 0.617129 18.1406C0.682365 18.5622 0.790706 19.0366 0.897074 19.4015C1.00278 19.7702 1.12096 20.0289 1.12261 20.0366C1.12895 20.0506 1.00776 19.802 0.889809 19.4037C0.680662 18.7257 0.469177 17.5911 0.480803 16.7064C0.480866 15.8224 0.658651 15.2202 0.576353 15.6462C0.441035 15.8066 0.573675 18.3919 0.512289 17.1134C0.450673 16.8946 0.606562 15.2113 0.698252 15.1268C0.792151 14.8352 0.537933 15.601 0.52555 16.3867C0.493617 17.1718 0.627992 17.9501 0.603255 17.7316C0.485 16.8734 0.474748 15.7131 0.862469 14.7201C0.900038 14.6235 0.935054 14.5432 0.965699 14.4764C1.06811 14.2541 1.10021 14.1797 1.11871 14.1421C1.49933 13.4074 1.29519 13.8236 1.42557 13.5818C1.48023 13.442 2.3365 12.059 2.20115 12.3367C5.54638 8.15898 2.82898 10.9658 1.2524 13.8731C1.70584 12.9316 2.88466 11.2629 3.50394 10.5869C3.71934 10.3413 3.5805 10.4751 3.95453 10.0672C4.54257 9.24882 7.97495 6.57909 9.96134 6.01592C10.2277 5.91607 10.455 5.8309 10.6192 5.76966C9.8211 6.07415 10.0588 5.99666 10.6754 5.76396C11.293 5.53202 10.7682 5.71193 10.8883 5.66527C11.0089 5.60384 13.9427 4.57261 14.4437 4.44225C12.2149 5.16745 12.724 5.00396 14.6148 4.40893C14.344 4.4947 14.0669 4.58505 13.7962 4.676C14.8987 4.29623 17.2728 3.68611 17.9272 3.54332C18.0303 3.51841 17.6569 3.59563 17.7151 3.58166C18.2893 3.43151 20.2621 3.04011 20.3478 3.02751C20.428 3.00848 19.5824 3.1646 19.8957 3.09948C19.9689 3.08394 20.7761 2.93973 21.5697 2.80217C21.8665 2.75061 21.6862 2.77199 21.7611 2.7588C22.3976 2.65002 22.0112 2.72391 23.1629 2.54493C23.9947 2.41979 24.6117 2.3177 25.786 2.17874C21.9631 2.6626 25.1715 2.22628 26.7638 2.04754C27.0232 2.01923 26.7994 2.02021 28.3288 1.8728C25.0955 2.24179 29.2429 1.78418 30.1192 1.72336C30.1691 1.71927 30.1808 1.72873 30.5952 1.69436C30.6307 1.69149 30.5777 1.68812 30.9671 1.65603C34.668 1.37305 32.3027 1.55972 33.0081 1.51493C33.3256 1.49417 35.1104 1.3733 35.5945 1.34878C35.7048 1.34279 35.6527 1.35297 36.0824 1.32993C36.8517 1.28895 37.5342 1.24917 38.0338 1.22655C38.0946 1.22417 38.0879 1.23501 39.063 1.19153C39.3285 1.17985 39.6229 1.16431 39.2488 1.17533C37.9553 1.21215 35.5992 1.34583 34.144 1.42763C32.8446 1.49397 36.9399 1.25212 37.1757 1.25064C37.2598 1.2465 36.444 1.29182 37.2653 1.25354C37.9403 1.22201 39.2427 1.14572 40.2657 1.1148C40.343 1.11207 41.187 1.10151 41.1496 1.10402C41.1091 1.10535 39.8249 1.15379 40.0132 1.15261C40.0334 1.15218 40.8493 1.12367 40.9595 1.12418C41.0964 1.12427 41.4386 1.15889 41.6092 1.15486C42.0477 1.14442 41.7617 1.14263 42.0468 1.13494C42.6687 1.11622 44.7943 1.08039 44.8685 1.06455C44.5129 1.07086 44.1614 1.07764 43.8137 1.08488C45.7664 1.03996 44.9414 1.05259 45.2181 1.0435C45.5185 1.03463 45.451 1.04939 46.096 1.03954C46.2244 1.03509 49.0183 0.996536 48.9538 0.993515C47.4489 1.01839 47.9936 0.996316 47.9292 0.996413C47.6552 0.998603 47.3079 1.01273 46.9475 1.01782C44.4402 1.05677 46.9641 1.00029 46.3734 1.00608C46.1691 1.00801 45.7672 1.02321 45.6823 1.02437C45.3924 1.0283 45.3876 1.0177 45.1954 1.02227C44.7483 1.0331 45.2705 1.03799 45.2353 1.0395C44.8285 1.056 43.2985 1.07923 44.2519 1.04104C43.675 1.0481 43.6253 1.06954 43.1567 1.07328C42.2292 1.08159 43.6227 1.04896 43.9739 1.03897C45.2963 1.00044 45.6909 0.99895 47.5731 0.970175C48.2769 0.959972 49.0361 0.942955 49.3589 0.93973C49.4668 0.938572 50.078 0.943655 50.6294 0.941083C51.0612 0.938999 51.4547 0.930912 51.4793 0.906761C52.2076 0.908306 53.3445 0.939279 54.0902 0.935891C54.7663 0.932792 54.5526 0.914554 54.6155 0.913667C54.7203 0.912245 55.5191 0.912277 55.7925 0.909328C56.1129 0.905799 55.9517 0.898766 56.4637 0.895358C57.7543 0.88719 57.6985 0.906799 57.8328 0.907954C59.3405 0.922662 58.6831 0.895337 59.0192 0.893269C59.3488 0.890309 63.701 0.909006 64.6445 0.906427C64.2644 0.909011 63.8864 0.91169 63.5106 0.914468C64.1818 0.928327 64.9079 0.91129 64.9141 0.932788C65.0469 0.898487 66.4285 0.926793 66.8507 0.927766C67.0161 0.928091 67.003 0.922126 67.2106 0.922761C68.0063 0.924985 69.8217 0.938702 70.2583 0.93817C72.1368 0.935146 67.3245 0.888559 66.9453 0.886657C67.7018 0.889393 71.9957 0.904319 70.0273 0.877248C69.719 0.873038 69.1757 0.885805 69.0043 0.885578C67.8446 0.883961 68.7564 0.874459 68.6655 0.872696C68.5104 0.869788 67.7506 0.879704 67.5518 0.877251C67.4817 0.876457 67.9258 0.865707 66.808 0.860691C67.3557 0.850298 70.4693 0.875574 70.8676 0.87532C71.0155 0.875267 70.0945 0.843421 72.7669 0.884627C72.7358 0.882015 72.7047 0.879405 72.6736 0.876794C74.1446 0.884753 75.6396 0.893835 77.1132 0.903616C76.9521 0.908011 76.1211 0.913199 77.168 0.918422C77.7717 0.921492 77.3251 0.905777 77.3802 0.905821C77.9227 0.903811 87.5014 0.990193 89.3565 1.01015C89.9887 1.01595 91.7479 1.0242 91.8822 1.02549C92.6839 1.03272 95.5262 1.07036 96.0925 1.07553C96.4471 1.07864 96.1102 1.06444 96.4268 1.06852C96.7211 1.07233 96.4161 1.0789 96.5035 1.08032C97.2262 1.0915 102.722 1.14403 104.023 1.17075C103.23 1.15746 99.249 1.12907 99.3281 1.13738C99.3457 1.13855 100.313 1.15775 100.512 1.15645C100.841 1.16909 101.971 1.15642 102.589 1.16934C102.658 1.17081 102.385 1.18218 103.482 1.19865C103.858 1.2043 104.85 1.20529 105.849 1.23126C107.286 1.24231 114.89 1.36774 115.395 1.36047C115.411 1.35984 114.35 1.33884 115.067 1.34278C116.02 1.34808 115.163 1.36473 116.286 1.3839C116.457 1.38658 119.568 1.43091 119.67 1.43091C120.614 1.42906 117.887 1.38026 117.925 1.37909C118.02 1.37559 120.29 1.40769 120.372 1.41025C120.461 1.41281 118.627 1.40592 120.831 1.43217C120.57 1.42545 120.326 1.41902 120.073 1.41247C121.1 1.42346 121.219 1.44051 121.469 1.44538C122.258 1.46087 123.09 1.45131 124.359 1.50057C124.691 1.51357 124.14 1.51279 124.181 1.5146C124.583 1.53135 125.079 1.51254 125.682 1.54289C125.724 1.54516 124.32 1.53331 126.779 1.57517C126.612 1.57036 126.444 1.56555 126.275 1.56074C126.618 1.56206 129.096 1.60271 129.422 1.60979C130.38 1.63 129.533 1.62857 130.523 1.64489C129.904 1.61435 132.853 1.66648 132.697 1.68023C132.869 1.67505 133.4 1.68286 134.024 1.69531C134.98 1.71433 136.103 1.74273 136.821 1.75805C137.543 1.77321 139.102 1.79833 139.32 1.80443C139.617 1.8124 139.53 1.82441 140.055 1.83953C140.203 1.84378 141.742 1.86877 143.124 1.91906C143.378 1.92836 143.941 1.96702 143.444 1.9599C142.62 1.94817 141.019 1.89052 141.033 1.90507C141.068 1.92051 143.206 1.96398 143.782 1.98192C146.451 2.06402 144.913 2.03822 144.976 2.04445C145.161 2.06094 146.617 2.1038 146.671 2.10705C146.923 2.11945 145.895 2.09721 145.868 2.10384C145.867 2.11273 147.245 2.1723 146.935 2.16589C146.495 2.15593 145.195 2.10379 145.113 2.10244C144.018 2.08083 145.526 2.14441 145.901 2.16657C146.02 2.17334 145.544 2.16466 145.643 2.16855C147.194 2.22953 145.976 2.14769 146.994 2.18236C147.93 2.21526 146.716 2.19021 146.766 2.19281C146.811 2.19478 147.896 2.23088 148.082 2.24278C148.166 2.24596 145.3 2.18398 145.439 2.20206C146.341 2.22541 147.257 2.25108 148.163 2.27994C148.225 2.29776 146.929 2.24263 146.787 2.24037C146.516 2.23515 147.277 2.2674 147.246 2.27165C147.228 2.27416 146.324 2.25708 147.141 2.28783C147.422 2.29873 147.999 2.3053 149.005 2.35448C145.506 2.2468 147.923 2.34002 148.029 2.34889C148.113 2.35746 146.466 2.31449 148.488 2.38183C148.569 2.41627 148.458 2.39029 147.861 2.37536C147.161 2.35938 148.796 2.42119 146.213 2.33185C146.354 2.34965 148.439 2.41696 148.541 2.42332C148.635 2.42771 148.18 2.41873 148.342 2.42696C150.283 2.52726 148.95 2.46481 149.505 2.50416C149.572 2.50686 151.4 2.594 150 2.53542C147.452 2.43715 146.395 2.39323 145.951 2.42267C147.851 2.49642 150.126 2.55605 150.698 2.58493C151.585 2.62671 150.653 2.59089 150.772 2.59929C150.813 2.60149 151.558 2.63821 151.579 2.6407C152.112 2.69332 148.226 2.48691 146.98 2.46265C147.325 2.47875 147.633 2.49398 147.97 2.51064C147.529 2.4957 147.065 2.48084 146.631 2.46754C148.768 2.5467 146.693 2.47237 146.175 2.48496C146.056 2.48749 147.464 2.51975 145.849 2.48798C147.047 2.52818 146.659 2.52164 147.721 2.54878C147.706 2.5579 145.301 2.49508 144.353 2.47646C147.683 2.58488 145.804 2.4856 148.671 2.60453C149.208 2.61036 147.841 2.56374 147.944 2.56557C148.361 2.57204 149.288 2.61607 150.439 2.63877C150.624 2.64276 149.841 2.59182 151.001 2.64667C151.131 2.65238 151.873 2.70446 151.856 2.70505C151.766 2.70868 151.03 2.66678 150.997 2.66978C150.972 2.67166 151.789 2.71192 151.788 2.7138C151.818 2.72687 151.104 2.6817 151.21 2.69128C151.434 2.70937 154.359 2.89847 150.535 2.68549C153.706 2.83721 150.934 2.68169 149.7 2.64162C149.362 2.62934 149.316 2.63455 148.849 2.61955C148.276 2.60133 147.587 2.57479 147.292 2.56657C146.969 2.55797 148.807 2.6328 146.147 2.54409C147.505 2.60088 149.88 2.66447 151.212 2.74608C153.879 2.91426 149.353 2.67707 148.87 2.677C148.741 2.6728 149.171 2.69866 149.085 2.69603C148.934 2.68866 146.367 2.59834 146.11 2.60057C145.865 2.60102 147.036 2.62851 147.135 2.64046C147.179 2.64559 144.09 2.565 145.755 2.61748C146.917 2.65261 149.068 2.70521 149.418 2.74522C147.726 2.68088 146.001 2.63122 144.3 2.58672C145.229 2.62124 146.177 2.65803 147.102 2.69705C145.176 2.63855 143.534 2.58515 141.708 2.55367C146.072 2.69315 140.283 2.54093 140.222 2.54578C140.187 2.54687 141.936 2.61238 142.189 2.62343C140.669 2.59299 136.025 2.49798 138.746 2.58671C138.26 2.56914 137.051 2.56004 137.076 2.56188C137.207 2.57727 139.816 2.62594 139.398 2.62881C138.907 2.63153 138.23 2.59792 137.46 2.58306C135.432 2.54436 134.775 2.55269 134.007 2.55475C133.363 2.55801 132.582 2.55557 130.753 2.51676C130.831 2.52063 130.908 2.5245 130.986 2.52836C126.719 2.44611 122.528 2.37346 118.272 2.30456C116.626 2.29994 112.211 2.2484 110.037 2.2167C109.609 2.21025 107.465 2.17041 107.299 2.16638C106.999 2.15867 108.652 2.17932 107.905 2.16242C107.739 2.15849 104.126 2.10688 104.379 2.12206C104.788 2.12858 106.062 2.13919 106.269 2.14469C107.731 2.18155 96.552 2.02695 95.9976 2.03141C96.2455 2.03801 96.4934 2.04463 96.7411 2.05126C96.0345 2.04132 95.3299 2.03154 94.625 2.02189ZM127.053 1.53329C127.462 1.52855 128.544 1.55625 129.165 1.56407C130.004 1.57428 131.516 1.55688 130.871 1.5904C129.574 1.57016 128.319 1.55152 127.053 1.53329ZM108.461 1.23299C109.314 1.25082 108.654 1.2672 107.952 1.24728C107.874 1.24505 107.304 1.20898 108.461 1.23299ZM117.403 1.37247C117.367 1.37226 116.632 1.36056 116.606 1.35978C115.946 1.33971 118.162 1.37506 117.403 1.37247ZM74.1998 0.905776C75.1411 0.9109 74.4586 0.883301 73.8751 0.889021C73.8384 0.889385 74.1379 0.905422 74.1998 0.905776ZM74.8695 0.910822C75.6084 0.936349 77.0656 0.904958 75.9032 0.90094C75.7938 0.900567 74.8348 0.909557 74.8695 0.910822ZM111.502 1.28479C111.406 1.29135 110.525 1.27526 110.145 1.26817C110.156 1.26108 111.135 1.28051 111.502 1.28479ZM89.1907 1.0185C89.1537 1.02413 92.2119 1.05524 92.4201 1.04949C91.9377 1.04765 89.2263 1.0131 89.1907 1.0185ZM81.3493 0.955124C81.4261 0.956806 82.4805 0.964119 82.4501 0.958402C81.9344 0.946748 81.0016 0.947362 81.3493 0.955124ZM65.7549 0.857316C65.6987 0.858562 66.4837 0.896064 64.62 0.86661C64.3457 0.862316 65.3248 0.85652 65.2268 0.854958C65.0235 0.851794 64.8638 0.850111 64.7348 0.849474C65.5968 0.849441 66.5077 0.851779 66.5961 0.854264C67.0096 0.865925 65.7786 0.856762 65.7549 0.857316ZM57.574 0.867448C57.4098 0.873059 56.231 0.870733 55.9768 0.868815C55.9323 0.868438 56.1262 0.853195 55.6123 0.855007C55.2017 0.856564 55.8131 0.870868 55.0167 0.869775C54.1885 0.868937 55.2948 0.855841 55.2165 0.85526C55.1369 0.854218 53.8408 0.864015 53.8873 0.855119C53.9125 0.848291 55.2891 0.849715 55.6099 0.848052C56.0364 0.845688 55.5173 0.835302 56.2337 0.836855C56.6861 0.837905 56.4355 0.857483 56.5311 0.858374C56.6163 0.858905 58.1882 0.847386 57.5716 0.867388C57.5724 0.867408 57.5732 0.867428 57.574 0.867448ZM64.4956 0.849538C64.5621 0.849101 64.6401 0.849011 64.7348 0.849474C64.6545 0.849467 64.5745 0.849508 64.4956 0.849538ZM124.589 1.5001C124.154 1.48692 125.437 1.50057 125.957 1.51726C125.958 1.52353 124.659 1.50215 124.589 1.5001ZM63.6803 0.862769C62.3861 0.854392 63.3309 0.850023 64.4956 0.849538C64.1259 0.851991 64.1174 0.86568 63.6803 0.862769ZM100.512 1.15645C100.458 1.15435 100.423 1.15168 100.419 1.14793C100.562 1.15371 100.575 1.15604 100.512 1.15645ZM97.4863 1.1141C96.4493 1.11339 98.5557 1.13727 98.5415 1.12914C98.5356 1.126 97.528 1.11412 97.4863 1.1141ZM72.9984 0.897038C73.0941 0.898759 71.6243 0.923551 73.7559 0.91139C72.6181 0.900181 73.8182 0.904059 73.8009 0.900996C73.757 0.892042 71.8353 0.888426 71.4096 0.882458C71.0747 0.895797 72.6863 0.891368 72.996 0.897023C72.9968 0.897028 72.9976 0.897033 72.9984 0.897038ZM42.8115 0.999005C43.0831 0.982593 43.8948 0.965182 44.4504 0.953972C44.1846 0.968516 43.3908 0.983859 42.8115 0.999005ZM94.8249 24.9406C91.0149 25.086 90.5151 25.0638 94.0067 24.9567C94.0768 24.9546 95.0555 24.9284 94.8249 24.9406ZM62.0836 25.4343C61.7247 25.4102 62.9133 25.4352 63.695 25.4545C63.8723 25.4591 64.5289 25.4856 63.7788 25.4767C63.8035 25.4582 62.648 25.4299 62.0836 25.4343ZM62.9483 0.870944C62.5793 0.880528 61.4046 0.870351 60.7934 0.867876C61.1634 0.859628 62.4188 0.866144 62.9483 0.870944ZM82.2933 25.299C81.8885 25.3073 81.6196 25.3272 81.6886 25.3268C81.9969 25.3252 82.7555 25.2961 82.2933 25.299ZM66.7025 0.88528C66.7536 0.891736 65.2141 0.8919 65.1108 0.875973C65.435 0.878158 66.6627 0.881074 66.7025 0.88528ZM43.8629 0.977495C44.1031 0.974823 42.8673 1.01033 42.4848 1.01844C42.5127 1.01037 43.719 0.978156 43.8629 0.977495ZM75.8186 25.4318C75.4579 25.4365 74.5592 25.4494 74.4585 25.4562C74.3353 25.4652 75.654 25.4434 75.8186 25.4318ZM142.591 20.3575C142.633 20.3528 141.274 20.6558 140.662 20.768C139.502 20.9879 142.546 20.3754 142.591 20.3575ZM86.0974 25.1951C87.2366 25.1767 85.9712 25.1991 86.0224 25.2114C86.7928 25.1913 88.6854 25.1364 87.3799 25.1608C87.1269 25.1656 86.4546 25.1863 86.0974 25.1951ZM85.0511 25.2186C84.928 25.2264 84.1107 25.2617 84.8181 25.2424C85.1456 25.2333 85.6775 25.2034 85.0511 25.2186ZM134.073 21.8806C133.066 22.0271 137.686 21.3148 137.815 21.2774C137.886 21.2663 137.932 21.2593 137.958 21.2556C138.128 21.223 138.997 21.0671 139.099 21.0578C138.838 21.1052 138.127 21.2321 138.044 21.2451C138.008 21.2509 137.981 21.2551 137.962 21.2578C137.659 21.3293 134.269 21.8626 134.073 21.8806ZM126.392 22.8542C127.554 22.7069 127.757 22.7119 127.658 22.7248C126.402 22.8814 127.22 22.7648 127.181 22.7684C127.095 22.7768 126.195 22.8876 126.396 22.8538C126.394 22.8539 126.393 22.8541 126.392 22.8542ZM132.503 22.1017C132.548 22.0956 133.521 21.9578 133.56 21.952C134.356 21.8489 131.612 22.2368 132.503 22.1017ZM51.3969 0.903374C50.705 0.903814 51.3802 0.888931 51.8482 0.890961C51.8872 0.891218 52.0122 0.903163 51.3969 0.903374ZM84.4914 25.2362C84.3325 25.2405 80.1792 25.3292 80.4275 25.339C80.7864 25.3324 85.4979 25.2257 84.4914 25.2362ZM53.4754 25.2153C54.2042 25.2259 53.4127 25.2303 53.0191 25.2196C52.8727 25.2155 53.295 25.2127 53.4754 25.2153ZM68.7774 0.909249C69.539 0.904139 69.381 0.933083 68.7213 0.919659C68.6954 0.919135 68.7475 0.90945 68.7774 0.909249ZM59.3118 25.351C56.7926 25.2946 57.3869 25.2584 60.667 25.3626C60.5643 25.3623 60.462 25.3619 60.3591 25.3615C64.1456 25.4619 60.617 25.3739 59.6909 25.3503C59.3386 25.342 59.6339 25.3584 59.3143 25.3511C59.3135 25.3511 59.3127 25.351 59.3118 25.351ZM49.6232 25.1815C48.2416 25.1528 49.1404 25.1572 50.4335 25.1658C51.4081 25.1719 52.5964 25.1872 53.1692 25.1929C51.8762 25.1913 50.2017 25.177 52.4849 25.2128C51.2986 25.2014 50.7148 25.1981 50.4334 25.1945C49.9347 25.1883 50.4864 25.1849 50.3998 25.1837C50.2402 25.1815 49.7269 25.1836 49.6232 25.1815ZM56.0345 25.2593C56.1699 25.2608 57.2336 25.2926 57.6105 25.3012C57.0776 25.2989 55.1013 25.2466 56.0345 25.2593ZM118.317 23.626C118.353 23.619 118.412 23.6107 118.528 23.5987C118.693 23.5818 118.973 23.5577 119.456 23.5194C119.248 23.5408 118.858 23.5766 118.529 23.6066C118.454 23.6134 118.382 23.62 118.317 23.626ZM127.847 1.59821C128.439 1.60917 129.575 1.63311 129.226 1.61667C129.193 1.61514 127.853 1.59252 127.847 1.59821ZM72.4321 25.4562C72.3231 25.4591 69.1459 25.479 70.2385 25.4828C70.5763 25.4868 73.4465 25.4565 72.4321 25.4562ZM88.8262 25.108C88.564 25.116 87.4844 25.1496 87.4624 25.1524C87.3891 25.1627 88.7128 25.1193 88.8262 25.108ZM130.76 1.66021C130.843 1.66261 132.576 1.69315 132.395 1.68513C132.011 1.66883 130.509 1.65208 130.76 1.66021ZM48.8494 0.943862C48.7037 0.945639 48.5121 0.9371 48.4621 0.937528C48.3594 0.93622 45.6388 0.980076 46.6726 0.951188C46.8181 0.945507 49.3584 0.916173 50.6292 0.913373C50.9129 0.912232 51.1283 0.911538 51.2231 0.911314C51.3121 0.917556 51.0111 0.919679 50.6293 0.920762C50.1589 0.92207 49.5741 0.922972 49.3575 0.925702C49.2869 0.926624 49.2404 0.939008 48.8507 0.943789C48.8503 0.943813 48.8498 0.943838 48.8494 0.943862ZM122.657 23.2359C122.781 23.2195 125.924 22.8927 125.891 22.903C124.805 23.0218 123.742 23.131 122.657 23.2359ZM121.056 23.3822C120.384 23.4358 121.964 23.2925 122.422 23.2508C122.433 23.2567 121.15 23.3755 121.056 23.3822ZM82.8294 25.2365C82.5133 25.2464 83.4866 25.2363 83.2691 25.2442C83.1279 25.2493 82.4245 25.2611 82.1933 25.2707C82.1295 25.2735 82.8559 25.2691 83.0628 25.2634C83.3598 25.2555 83.0711 25.2526 83.396 25.2445C84.4775 25.2177 85.4302 25.1997 86.4412 25.1714C86.5328 25.1689 85.8222 25.1816 86.6038 25.1599C86.7289 25.1564 87.4419 25.147 88.3784 25.1175C90.4333 25.023 91.9454 25.0065 94.552 24.9C94.4539 24.9011 92.5044 24.962 92.3869 24.9652C90.2058 25.0364 86.2947 25.1523 84.0158 25.208C83.4268 25.2227 83.7126 25.2224 83.4591 25.2289C83.2596 25.234 83.4947 25.2157 82.8294 25.2365ZM127.544 1.59995C127.806 1.61717 128.798 1.6265 129.399 1.63796C129.191 1.62276 128.143 1.61312 127.544 1.59995ZM106.882 24.3534C106.574 24.3707 105.621 24.4167 105.542 24.4244C105.442 24.4349 106.816 24.3659 106.882 24.3534ZM33.6842 1.44894C33.6632 1.45026 32.908 1.49989 32.8811 1.50173C32.2166 1.5359 34.4432 1.39007 33.6842 1.44894ZM16.0911 3.95292C15.5533 4.09907 15.001 4.26571 14.8147 4.31108C15.1585 4.20639 16.1538 3.92663 16.0911 3.95292ZM1.24868 20.2944C1.22737 20.2332 1.41176 20.6269 1.71744 21.0118C2.01717 21.4019 2.42891 21.7536 2.56068 21.8583C2.51076 21.8216 2.12921 21.5229 1.81272 21.1466C1.48991 20.7757 1.26377 20.337 1.24868 20.2944ZM118.193 23.5934C118.322 23.5832 118.432 23.5742 118.525 23.5662C119.186 23.5092 119.09 23.5024 119.66 23.4626C119.765 23.455 120.117 23.469 118.982 23.5474C118.796 23.56 119.438 23.4991 118.526 23.5682C118.432 23.5752 118.322 23.5836 118.193 23.5934ZM61.2014 25.3765C61.4654 25.3743 62.2848 25.3964 62.8429 25.4081C62.7151 25.4126 61.5988 25.3862 61.2014 25.3765ZM133.923 1.73015C133.951 1.73143 133.985 1.73275 134.023 1.73409C134.691 1.75641 136.609 1.78679 136.097 1.76854C136.008 1.76559 134.541 1.74155 134.023 1.73209C133.982 1.73132 133.948 1.73067 133.923 1.73015ZM60.3194 0.906365C59.4057 0.91508 61.2968 0.920566 61.9135 0.912443C61.6344 0.912375 60.3787 0.905702 60.3194 0.906365ZM1.03844 14.2535C1.03269 14.2654 0.990411 14.3504 0.936941 14.4628C0.780835 14.7675 0.641581 15.3003 0.638247 15.3328C0.534347 15.8399 0.65909 14.9903 0.930433 14.4597C1.08918 14.1308 1.20264 13.921 1.03844 14.2535ZM21.8255 2.74064C21.4825 2.79633 19.189 3.2199 18.6777 3.33499C19.1643 3.19527 22.2531 2.64745 21.8255 2.74064ZM113.946 23.9115C114.683 23.861 115.379 23.8143 116.058 23.768C115.912 23.7868 114.022 23.9125 113.946 23.9115ZM0.593623 17.9829C0.60151 18.037 0.608796 18.089 0.617129 18.1406C0.608632 18.0867 0.600914 18.0346 0.593623 17.9829ZM97.4499 24.7734C96.8314 24.7955 96.9601 24.8028 96.9983 24.8017C97.465 24.7873 98.1482 24.7482 97.4499 24.7734ZM128.254 1.63103C128.475 1.64624 129.507 1.6557 130.1 1.66919C129.92 1.65692 128.749 1.63846 128.254 1.63103ZM47.0193 25.1419C46.2437 25.1244 49.3998 25.1312 50.0712 25.142C50.1148 25.1504 47.1379 25.145 47.0193 25.1419ZM63.181 0.92924C63.2404 0.938202 64.5742 0.931507 64.2912 0.92646C64.1097 0.923154 63.143 0.923569 63.181 0.92924ZM51.6662 25.1575C51.9585 25.1571 52.6546 25.1733 52.4097 25.176C52.0883 25.1794 51.5928 25.1576 51.6662 25.1575ZM78.2944 25.3262C78.1626 25.3277 76.4174 25.3678 77.1407 25.3641C77.649 25.3614 77.7179 25.3472 77.8373 25.345C77.9712 25.3432 80.7699 25.3037 78.2944 25.3262ZM29.3224 24.8857C29.971 24.8977 30.7904 24.9198 31.4655 24.9334C31.1949 24.9338 29.594 24.8999 29.3224 24.8857ZM58.0636 0.924081C58.2239 0.926595 62.5761 0.93468 60.1095 0.920192C59.9814 0.91901 57.5697 0.912877 58.0636 0.924081ZM118.193 23.5934C118.063 23.6036 117.913 23.6151 117.739 23.6278C117.912 23.6146 118.062 23.6034 118.193 23.5934ZM106.465 24.3536C106.703 24.3347 105.506 24.396 105.151 24.4172C105.043 24.4309 106.433 24.3566 106.465 24.3536ZM31.5178 24.9255C31.9097 24.9299 32.6463 24.9484 33.1303 24.9569C33.0568 24.9618 31.6834 24.9353 31.5178 24.9255ZM3.65109 22.5704C4.42987 23.0033 5.39454 23.1738 5.41776 23.1826C5.43447 23.1877 5.47364 23.1983 5.54059 23.215C5.59052 23.232 6.43827 23.4041 6.80545 23.4647C8.04242 23.6275 5.21675 23.4097 3.60307 22.5477C2.65217 21.9381 2.19607 21.6078 3.61074 22.535C3.84528 22.6758 4.16074 22.8088 4.52506 22.9267C4.23326 22.8348 3.93846 22.729 3.65109 22.5704ZM24.939 2.29863C25.3844 2.24754 26.6321 2.08959 26.3074 2.12443C26.096 2.14322 24.4873 2.3468 24.939 2.29863ZM8.26885 6.80615C8.38439 6.732 9.51946 6.20223 9.55338 6.1963C8.87698 6.45145 7.71453 7.09406 8.26885 6.80615ZM28.3708 1.91911C28.6639 1.89137 29.003 1.84494 28.9732 1.84713C28.7036 1.86657 27.8895 1.95896 28.3708 1.91911ZM116.052 23.718C115.631 23.7454 114.305 23.8491 114.015 23.8778C113.961 23.8796 113.817 23.8871 113.55 23.9021C113.551 23.902 113.552 23.902 113.553 23.9019C113.193 23.9452 102.435 24.5463 109.651 24.1571C109.876 24.1443 109.568 24.1544 110.488 24.1007C110.549 24.0972 110.58 24.1023 110.767 24.0913C111.196 24.0674 113.501 23.9237 113.96 23.8853C113.964 23.8863 113.994 23.8855 114.057 23.8823C114.627 23.8547 116.375 23.698 116.052 23.718ZM6.17257 8.13086C6.37237 7.97747 7.03045 7.52701 7.09931 7.4811C6.75544 7.67969 5.70099 8.47666 6.17257 8.13086ZM58.198 0.949433C58.6943 0.954473 59.9859 0.946205 59.5959 0.940802C59.3506 0.937237 57.6199 0.943424 58.198 0.949433ZM13.3268 4.82579C10.5911 5.76661 12.6749 5.05017 12.2598 5.2037C12.6109 5.07557 12.9718 4.94752 13.3268 4.82579ZM129.326 22.4617C128.87 22.5155 129.402 22.4329 129.905 22.3791C130.063 22.3622 129.579 22.4318 129.326 22.4617ZM149.688 18.4239C149.311 18.5476 151.134 17.8882 150.43 18.1619C150.392 18.1796 149.717 18.4169 149.688 18.4239ZM135.516 21.5851C135.209 21.6438 135.008 21.678 134.138 21.8056C135.427 21.6076 134.223 21.7823 135.516 21.5851ZM5.40923 23.1794C5.41435 23.181 5.4187 23.1824 5.41776 23.1826C5.41201 23.1808 5.40957 23.1798 5.40923 23.1794ZM31.0668 1.6762C31.4356 1.65501 32.4365 1.58074 32.1375 1.59359C32.1154 1.59378 31.2145 1.65694 31.0668 1.6762ZM114.015 23.8778C114.063 23.8762 114.039 23.8789 113.96 23.8853C113.956 23.8843 113.976 23.8818 114.015 23.8778ZM25.6667 2.22208C25.6911 2.20962 24.1796 2.40295 24.1076 2.41681C23.2329 2.5511 25.0258 2.29617 25.6667 2.22208ZM68.361 0.985935C68.44 0.985593 67.9305 0.9656 67.6202 0.971126C67.3797 0.975403 68.0644 0.98722 68.361 0.985935ZM138.458 21.0886C138.943 21.0029 139.612 20.8788 139.741 20.8628C139.414 20.924 138.45 21.0969 138.458 21.0886ZM148.966 18.6492C148.695 18.74 148.279 18.8698 147.808 19.0061C147.306 19.1517 146.754 19.3006 146.328 19.4106C146.32 19.4045 147.082 19.2069 147.805 18.9986C148.296 18.8585 148.753 18.7182 148.966 18.6492ZM117.369 23.6237C117.325 23.6272 116.115 23.7142 116.28 23.7103C116.524 23.7056 117.713 23.6022 117.369 23.6237ZM65.9904 0.966431C65.4453 0.970307 66.6987 0.993392 67.283 0.981853C67.5804 0.975831 66.0797 0.965669 65.9904 0.966431ZM34.217 1.46635C34.9291 1.41719 33.1724 1.51728 32.9052 1.54694C33.2478 1.52372 33.9617 1.48354 34.217 1.46635ZM10.1656 5.99356C12.3016 5.22087 11.1296 5.60941 10.75 5.75515C10.6979 5.77506 10.1128 6.01271 10.1656 5.99356ZM139.557 1.90011C139.877 1.90365 138.683 1.86374 138.531 1.8692C138.444 1.87266 139.33 1.89722 139.557 1.90011ZM16.4359 24.3746C16.3403 24.3693 16.2459 24.3639 16.1529 24.3585C16.2227 24.3622 16.3146 24.3674 16.4359 24.3746ZM40.7583 1.1956C39.1474 1.21466 39.3363 1.23937 39.1954 1.24395C38.8962 1.25516 38.1804 1.27469 37.6251 1.30195C38.2563 1.26888 38.9471 1.236 39.5677 1.20836C39.0466 1.21475 34.6362 1.41901 34.5176 1.44297C34.3844 1.45852 35.7906 1.37514 35.8238 1.37527C35.8818 1.3732 36.1001 1.3853 36.2302 1.37949C36.4663 1.3616 40.1478 1.20306 40.7583 1.1956ZM14.6614 4.42322C14.3104 4.5271 14.2104 4.54951 14.0458 4.60382C13.9905 4.62226 13.9834 4.63361 13.7963 4.69634C14.0828 4.60302 14.3742 4.51101 14.6614 4.42322ZM43.6219 1.08017C44.0823 1.07908 42.0314 1.12762 41.9739 1.12975C41.6212 1.13214 43.2581 1.07876 43.6219 1.08017ZM26.4265 2.13969C26.502 2.12898 28.0511 1.96558 28.0391 1.96298C27.6343 1.99437 25.5544 2.23194 26.4265 2.13969ZM13.5657 4.77211C13.0369 4.94175 12.0611 5.2783 12.175 5.25283C12.1758 5.25255 12.1766 5.25228 12.1774 5.252C12.6372 5.08679 13.096 4.92754 13.5657 4.77211ZM64.1241 0.988377C65.1484 1.01315 64.6601 0.984335 63.7581 0.974696C63.4855 0.983528 63.9564 0.984354 64.1241 0.988377ZM67.374 1.01655C67.6437 1.0212 70.5626 1.03158 70.1179 1.01811C69.958 1.0131 68.2804 1.01497 68.2068 1.01396C68.0908 1.01227 68.6205 1.00213 67.7348 1.00057C67.7862 1.00505 67.2784 1.01484 67.374 1.01655ZM64.9668 1.00487C65.9656 1.02471 66.1945 0.995607 65.4392 0.99269C65.1448 0.991562 64.8247 1.00203 64.9668 1.00487ZM60.8455 0.991744C61.2031 0.995126 62.1911 1.00122 62.8415 0.992927C61.9722 0.989847 61.0461 0.987176 60.1709 0.985214C60.0691 0.990751 60.5283 0.988708 60.8479 0.991748C60.8471 0.991746 60.8463 0.991745 60.8455 0.991744ZM154.173 15.4353C153.939 15.7864 154.099 15.5596 154.288 15.2218C154.477 14.8839 154.669 14.4339 154.686 14.399C154.787 14.1853 154.392 15.1197 154.173 15.4353ZM145.793 2.33263C146.014 2.3426 146.176 2.35849 146.655 2.36748C146.171 2.34415 145.669 2.32099 145.183 2.29889C144.796 2.30683 145.565 2.32202 145.793 2.33263ZM147.673 2.46082C147.601 2.45899 147.989 2.50057 147.087 2.45172C146.493 2.41779 149.763 2.51534 150.374 2.56104C149.718 2.53677 148.281 2.4767 147.673 2.46082ZM153.431 2.88058C153.48 2.88074 152.21 2.78655 152.082 2.78178C151.311 2.72586 153.236 2.83541 153.431 2.88058ZM149.444 2.64558C150.04 2.67484 148.723 2.62626 148.35 2.61072C148.305 2.60328 149.369 2.64122 149.444 2.64558ZM146.853 18.7465C146.236 18.8928 145.694 19.0767 146.636 18.8197C146.68 18.8075 146.88 18.7402 146.853 18.7465ZM152.215 2.81529C151.631 2.77379 152.929 2.84757 153.308 2.89205C153.345 2.89651 152.299 2.81822 152.215 2.81529ZM146.409 18.8166C145.588 19.0167 145.89 18.9857 145.991 18.9625C146.296 18.8904 147.118 18.6635 147.662 18.4987C147.881 18.4329 148.049 18.3806 148.129 18.3556C147.958 18.4069 147.802 18.4528 147.66 18.4937C146.12 18.9283 146.758 18.7273 146.409 18.8166ZM142.633 19.7452C141.869 19.9154 143.82 19.5037 144.192 19.3974C143.815 19.4877 142.847 19.6987 142.633 19.7452ZM137.965 20.6341C137.544 20.7075 136.316 20.9081 136.108 20.9481C136.56 20.8751 137.788 20.6744 137.965 20.6341ZM137.022 20.7729C136.366 20.8719 136.219 20.9262 136.967 20.7929C136.996 20.7877 137.046 20.7694 137.022 20.7729ZM133.365 21.3328C132.935 21.3832 132.446 21.4814 133.145 21.3826C133.352 21.353 133.411 21.3276 133.365 21.3328ZM145.374 19.029C144.768 19.1739 144.008 19.3771 145.287 19.0689C144.834 19.1845 144.386 19.2943 143.938 19.4004C145.617 19.0195 145.491 19.0083 145.969 18.89C146.643 18.717 146.591 18.7526 146.461 18.7954C146.656 18.7382 147.11 18.6134 147.65 18.456C148.587 18.1855 149.804 17.7949 150.608 17.4625C149.828 17.7773 148.676 18.146 147.644 18.4351C147.196 18.5616 146.758 18.679 146.404 18.7711C146.066 18.8595 145.75 18.947 145.46 19.0187C145.006 19.1303 145.408 19.021 145.376 19.0284C145.376 19.0286 145.375 19.0288 145.374 19.029ZM128.54 21.9701C127.286 22.1053 128.08 22.0415 128.792 21.9501C128.823 21.946 128.571 21.9668 128.54 21.9701ZM153.864 3.05069C152.205 2.87033 153.425 2.93059 149.89 2.78287C151.381 2.83055 149.968 2.77341 150.259 2.77922C150.502 2.78364 151.372 2.83043 150.856 2.79442C151.204 2.81748 152.077 2.86024 152.903 2.92545C153.309 2.95784 153.705 2.99672 153.98 3.04332C154.124 3.06723 154.24 3.09709 154.283 3.1181C154.327 3.17011 154.224 3.00502 154.249 3.0393C154.249 3.03895 154.249 3.03873 154.249 3.03863C154.261 3.07212 154.2 2.98952 154.282 3.13319C154.306 3.14556 154.116 3.08444 153.864 3.05069ZM137.946 20.5606C137.518 20.5993 137.373 20.682 136.543 20.7901C135.457 21.0182 139.56 20.2786 140.055 20.2029C135.611 21.0264 143.002 19.6801 139.888 20.2164C142.446 19.7372 140.724 20.0464 141.117 19.9629C141.528 19.876 142.981 19.5747 142.899 19.5771C142.898 19.5773 142.897 19.5775 142.897 19.5777C142.018 19.7706 141.136 19.9516 140.255 20.1226C141.129 19.9822 139.313 20.326 138.7 20.4094C138.445 20.4613 138.199 20.5107 137.946 20.5606ZM142.947 19.6109C142.866 19.6328 140.948 20.0352 141.072 20.0124C141.325 19.9747 144.046 19.3802 142.947 19.6109ZM151.17 17.2035C150.543 17.4956 149.523 17.8468 149.164 17.973C149.827 17.7621 150.836 17.3763 151.17 17.2035ZM115.605 23.1656C114.711 23.2398 117.468 23.0396 116.67 23.0881C116.632 23.0907 115.649 23.1623 115.605 23.1656ZM135.936 20.9028C135.038 21.0347 135.461 21.0031 136.132 20.886C136.17 20.8792 135.978 20.8966 135.936 20.9028ZM152.516 2.92738C152.463 2.92255 149.991 2.79143 149.564 2.78005C149.806 2.77529 152.594 2.91161 152.516 2.92738ZM152.218 16.6147C151.062 17.3137 149.257 17.9042 149.063 17.9717C148.864 18.0356 149.172 17.9218 149.126 17.9362C149.06 17.9591 148.278 18.21 147.632 18.3934C147.218 18.5127 146.859 18.6103 146.819 18.6215C146.745 18.6423 147.136 18.5552 146.696 18.6806C146.888 18.6264 147.229 18.5321 147.638 18.4139C149.104 18.0267 151.374 17.1374 151.494 17.0262C151.628 16.9435 150.586 17.4987 152.216 16.616C152.216 16.6156 152.217 16.6151 152.218 16.6147ZM148.568 18.1249C148.98 18.0023 148.184 18.2561 147.636 18.41C147.483 18.4538 147.346 18.4919 147.265 18.5139C146.848 18.6259 147.203 18.5277 147.634 18.4032C148.051 18.2837 148.537 18.1346 148.568 18.1249ZM144.995 19.0923C144.828 19.1351 143.277 19.4925 143.146 19.5268C143.885 19.3792 145.383 19.0029 144.995 19.0923ZM127.547 22.0278C127.14 22.0768 126.001 22.1964 125.942 22.2098C126.352 22.165 127.482 22.0435 127.547 22.0278ZM144.134 2.66842C144.823 2.69333 143.216 2.65252 142.764 2.63846C142.74 2.6326 144.071 2.66592 144.134 2.66842ZM135.77 20.8563C135.53 20.91 130.595 21.6255 129.896 21.7002C130.581 21.6362 135.472 20.9343 135.694 20.879C135.757 20.8681 135.802 20.8517 135.77 20.8563ZM146.334 18.6993C146.766 18.5738 147.064 18.5044 147.115 18.4905C147.258 18.4514 147.439 18.4006 147.619 18.3492C148.152 18.1979 148.712 18.0227 148.534 18.0864C148.29 18.1608 147.962 18.2594 147.621 18.3575C146.686 18.6282 145.684 18.8846 146.334 18.6993ZM127.189 22.0183C125.507 22.2137 128.744 21.8556 128.316 21.8911C128.293 21.8936 127.357 21.9992 127.189 22.0183ZM136.323 20.7637C136.693 20.7157 141.608 19.8269 142.381 19.6332C141.688 19.797 141.109 19.9035 140.168 20.086C139.909 20.1359 139.983 20.1287 139.955 20.1341C139.516 20.2177 139.843 20.1476 139.571 20.1988C139.403 20.2426 135.802 20.8696 136.323 20.7637ZM146.581 18.6256C146.676 18.5978 147.103 18.482 147.615 18.3337C148.59 18.0594 149.847 17.6263 149.925 17.5928C150.531 17.382 148.836 18.0091 147.617 18.3405C147.087 18.4922 146.654 18.6066 146.581 18.6256ZM135.867 20.8227C136.396 20.7233 138.84 20.3154 137.171 20.6112C137.01 20.6396 136.336 20.7436 135.867 20.8227ZM127.365 21.9797C127.288 21.9897 125.527 22.1807 125.497 22.1885C125.748 22.1677 128.311 21.8781 127.365 21.9797ZM128.275 21.8524C128.232 21.8575 128.646 21.8208 127.823 21.9162C127.755 21.9237 127.622 21.9278 126.59 22.0485C126.379 22.0732 126.053 22.1177 126.077 22.1155C127.16 22.0241 130.401 21.5882 128.275 21.8524ZM146.634 18.6004C146.468 18.6391 146.861 18.5173 147.21 18.4282C147.361 18.3894 147.087 18.4781 146.634 18.6004ZM121.791 22.5501C122.815 22.4471 119.595 22.7368 119.435 22.7483C119.532 22.7485 121.687 22.5627 121.791 22.5501ZM142.52 2.70422C142.521 2.70424 142.521 2.70426 142.522 2.70428C141.642 2.68008 142.19 2.68536 142.144 2.68393C140.325 2.62729 140.784 2.658 140.508 2.65358C139.904 2.64446 139.987 2.62309 138.948 2.60948C140.684 2.63431 139.086 2.60426 139.052 2.59536C138.845 2.55689 141.371 2.66348 142.2 2.6778C142.315 2.67962 141.453 2.6478 141.753 2.6521C142.754 2.66584 145.842 2.79944 142.52 2.70422ZM147.48 18.3505C147.509 18.3415 147.553 18.3284 147.608 18.312C148.303 18.1339 150.661 17.3159 149.971 17.5643C149.885 17.611 148.217 18.1644 147.611 18.3209C147.42 18.374 147.343 18.3932 147.48 18.3505ZM5.84406 22.52C6.53946 22.6642 4.92041 22.3013 4.66217 22.187C4.507 22.1497 5.5221 22.4679 5.84406 22.52ZM2.14462 13.8885C2.56019 13.1491 3.03879 12.391 2.46823 13.2801C2.40452 13.3766 2.09143 13.9681 2.14462 13.8885ZM50.9308 24.3775C50.7165 24.3732 50.5522 24.3713 50.4376 24.371C50.16 24.3701 50.1832 24.3784 50.4376 24.3834C50.5181 24.385 50.6209 24.3863 50.7428 24.3869C50.9795 24.3883 50.9591 24.3781 50.9308 24.3775ZM16.2746 23.6164C16.1912 23.6114 15.1347 23.5483 15.1742 23.5556C15.5705 23.5852 16.8555 23.6557 16.2746 23.6164ZM51.2164 24.3761C50.681 24.3768 51.6098 24.3996 52.2655 24.3899C51.9317 24.3877 51.2702 24.376 51.2164 24.3761ZM134.009 21.0571C133.567 21.1338 132.307 21.3116 131.58 21.4105C131.494 21.4115 133.498 21.1388 134.009 21.0571ZM1.30294 17.1702C1.24348 16.3886 1.35971 18.066 1.37886 17.9101C1.36975 17.889 1.29815 17.2009 1.30294 17.1702ZM80.2197 24.5154C79.622 24.5357 81.523 24.5048 80.9993 24.503C80.972 24.5031 80.2509 24.5144 80.2197 24.5154ZM88.5166 24.307C88.0616 24.3187 86.1303 24.3743 86.8815 24.3603C86.9938 24.3585 88.4872 24.315 88.5166 24.307ZM140.458 2.66145C140.708 2.68004 139.276 2.6441 139.076 2.63759C138.979 2.63442 140.157 2.63752 140.458 2.66145ZM45.0209 24.3367C44.5454 24.3345 43.3432 24.3207 43.1192 24.3252C43.699 24.3295 45.172 24.3515 45.0209 24.3367ZM2.3137 20.4871C2.00486 20.1018 1.72673 19.3898 1.66822 19.175C1.64599 19.1076 1.63875 19.0944 1.65377 19.1621C1.65533 19.1674 1.65687 19.1727 1.6584 19.1779C1.84493 19.7598 1.86125 19.7053 1.8629 19.7204C1.88447 19.7239 1.84948 19.8244 2.3137 20.4871ZM54.2479 24.3962C53.8762 24.3891 53.5765 24.4026 53.6221 24.404C54.0401 24.4177 54.6161 24.4091 54.2479 24.3962ZM25.959 24.0124C25.939 24.0046 24.7343 23.9711 24.8929 23.9806C24.9514 23.9844 25.976 24.0192 25.959 24.0124ZM118.309 22.7999C118.1 22.814 118.214 22.8023 118.462 22.7806C118.874 22.7447 119.63 22.6809 119.938 22.6592C120.136 22.6522 118.919 22.7535 118.463 22.7882C118.377 22.7948 118.32 22.7991 118.309 22.7999ZM64.6959 24.6329C64.7455 24.6239 62.8693 24.5987 63.6075 24.6205C63.7938 24.6265 64.6723 24.6367 64.6959 24.6329ZM82.7582 24.4353C81.4903 24.4811 86.8114 24.3552 85.4128 24.3742C85.3099 24.3766 82.8646 24.4325 82.7582 24.4353ZM91.4404 24.1957C91.2233 24.2014 91.3282 24.1608 92.2331 24.1445C92.3519 24.1424 91.7969 24.1711 91.894 24.1701C91.9519 24.1699 93.9157 24.1067 94.0076 24.102C94.1052 24.0974 93.9898 24.0896 94.0888 24.0847C94.2007 24.0793 95.4091 24.0454 96.0432 24.0208C97.2355 23.9748 97.3662 23.9589 97.4632 23.9551C97.7479 23.9435 98.227 23.9312 98.8057 23.9069C101.719 23.7878 106.171 23.5598 108.48 23.4467C106.426 23.5544 104.47 23.6635 102.425 23.7623C103.023 23.7146 99.4182 23.9154 101.527 23.7958C100.556 23.8572 92.1556 24.1867 91.4428 24.1956C91.442 24.1957 91.4412 24.1957 91.4404 24.1957ZM4.07847 11.1597C3.72525 11.5402 5.54942 9.59076 5.7514 9.47134C5.46053 9.67729 4.10003 11.092 4.07847 11.1597ZM3.5569 21.5346C3.66739 21.6075 3.77791 21.6728 4.03902 21.8255C4.19356 21.9165 4.53492 22.0722 5.07197 22.231C5.07313 22.2313 5.0743 22.2317 5.07547 22.232C5.43791 22.3368 5.0249 22.2285 5.08859 22.2482C5.10201 22.2625 6.25865 22.5558 5.29723 22.3212C3.90726 21.9025 5.1678 22.283 4.43523 22.0257C4.4138 22.0168 4.19986 21.9348 4.03271 21.8359C3.62955 21.6048 3.16411 21.2634 3.20759 21.2959C3.21213 21.3038 3.57184 21.5586 3.63537 21.5982C3.8664 21.7547 3.74919 21.6868 3.7819 21.7087C3.80206 21.7216 3.88826 21.7764 4.02073 21.8558C4.47068 22.1718 6.12343 22.5233 6.40962 22.5781C6.49028 22.5817 4.91187 22.3621 4.01613 21.8634C3.39716 21.4987 2.95901 21.1269 2.91993 21.0889C2.85201 21.0276 2.89468 21.0368 2.82681 20.972C2.80955 20.9549 2.52269 20.6994 2.29394 20.3831C2.05915 20.0709 1.8931 19.6928 1.85948 19.6035C1.83927 19.5525 1.82461 19.5123 1.81423 19.4832C1.846 19.5719 1.77315 19.4017 1.70345 19.1646C1.60313 18.8343 1.51159 18.3889 1.52165 18.4122C1.52555 18.4284 1.62407 18.8775 1.71056 19.1626C1.74764 19.2898 1.78036 19.3823 1.78351 19.3921C1.78811 19.4059 1.79203 19.4179 1.7958 19.429C1.76886 19.3362 1.99474 20.0395 2.42573 20.5388C2.84319 21.0477 3.38117 21.4003 3.10629 21.1887C3.85287 21.7403 2.98024 21.1312 3.5569 21.5346ZM7.90115 22.7897C7.79615 22.7769 7.69293 22.764 7.59152 22.7509C9.30949 23.0045 11.2815 23.2032 13.2852 23.3545C13.7823 23.3914 13.2075 23.3354 13.8662 23.3869C14.4059 23.4286 14.9851 23.4789 14.6998 23.4631C14.6425 23.4607 13.5399 23.3767 13.0062 23.3352C11.4134 23.2106 11.8091 23.25 11.717 23.2439C11.6091 23.2356 10.6104 23.1359 10.0657 23.077C8.69406 22.9218 8.05356 22.8789 6.22697 22.5274C7.27929 22.7159 6.70478 22.6013 7.90115 22.7897ZM72.6584 24.5974C72.675 24.5953 72.7583 24.5934 72.8822 24.5915C73.2333 24.5862 73.9775 24.5802 74.2754 24.5751C74.2276 24.5823 73.3684 24.5899 72.8822 24.5948C72.7954 24.5957 72.719 24.5966 72.6584 24.5974ZM89.1084 1.94427C89.4581 1.93529 86.8366 1.90655 87.5274 1.92359C87.68 1.92732 88.7786 1.94085 89.1084 1.94427ZM77.3258 1.83383C76.9739 1.83461 78.3903 1.85405 78.3887 1.84455C78.3861 1.84143 77.3705 1.83368 77.3258 1.83383ZM30.2945 24.0665C30.3628 24.0678 31.3286 24.0913 31.3559 24.0923C31.9979 24.1198 28.8162 24.0421 30.2945 24.0665ZM63.0029 1.77438C64.2236 1.76923 60.5466 1.75712 61.6717 1.77001C61.7338 1.77055 62.9447 1.77454 63.0029 1.77438ZM57.8883 1.76956C58.1751 1.76899 59.4848 1.7738 59.5049 1.77015C59.5277 1.76396 58.0305 1.75898 57.8883 1.76956ZM54.5037 24.3538C54.3652 24.3367 56.0808 24.379 56.6781 24.3922C56.8186 24.4088 55.0988 24.3607 54.5037 24.3538ZM43.663 24.2516C50.8933 24.297 49.2941 24.3171 43.2315 24.2544C43.2217 24.2454 43.2094 24.2481 43.663 24.2516ZM52.9323 24.3224C52.6732 24.328 51.8546 24.3166 51.2896 24.3119C51.3962 24.3061 52.5378 24.3186 52.9323 24.3224ZM92.2311 1.99551C91.7773 2.00185 89.7679 1.96731 90.1253 1.96637C90.2084 1.9661 92.3979 1.991 92.2311 1.99551ZM30.906 24.0679C30.7313 24.0513 32.9082 24.101 33.0726 24.1063C33.7466 24.1316 31.0693 24.0696 30.906 24.0679ZM64.7662 24.5709C65.147 24.5658 66.2331 24.5823 66.9349 24.5853C66.6135 24.5935 65.3615 24.5798 64.7662 24.5709ZM59.716 24.4548C59.7596 24.4556 60.7363 24.4822 60.7796 24.4837C61.5791 24.5149 58.8179 24.4399 59.716 24.4548ZM143.714 2.83678C143.669 2.83586 142.951 2.81652 142.921 2.81544C142.263 2.78815 144.479 2.84797 143.714 2.83678Z" fill="#6983D0"/>
</svg>
