<svg width="193" height="5" viewBox="0 0 193 5" fill="none" xmlns="http://www.w3.org/2000/svg">
<path d="M15.52 3.78265C15.6387 3.78173 16.116 3.7862 16.3226 3.78626C16.0885 3.799 15.0919 3.78601 15.52 3.78265ZM36.7233 2.86986C36.5519 2.87269 36.3804 2.87551 36.2088 2.87833C36.6964 2.88189 37.3509 2.88134 37.8023 2.88578C37.8761 2.88653 37.6845 2.89558 37.8592 2.89651C38.034 2.89744 38.0003 2.88422 38.2543 2.88354C38.5364 2.88282 39.8505 2.89574 40.3025 2.89681C41.9949 2.90079 43.7046 2.89819 45.4015 2.9085C43.6499 2.91319 45.4156 2.92813 45.9049 2.92532C46.0152 2.92466 45.9904 2.9002 47.7541 2.91138C48.8727 2.91847 47.8412 2.9504 49.7041 2.93824C48.2718 2.90976 49.682 2.91549 50.801 2.91787C50.9938 2.91828 52.5647 2.92641 53.2541 2.92729C53.4904 2.92758 53.8502 2.91583 54.1629 2.91638C54.3781 2.91677 54.5408 2.92422 54.86 2.92477C56.3607 2.92745 57.8259 2.93106 59.3212 2.93764C58.4426 2.968 60.0107 2.95358 60.0803 2.95535C60.4381 2.96527 58.8199 2.96324 59.46 2.97063C60.3548 2.97213 61.2464 2.97363 62.1349 2.97511C61.407 2.96903 63.096 2.95017 63.4153 2.96181C63.2848 2.93243 67.47 2.99843 68.1196 2.99055C68.2522 2.98887 67.3823 2.9721 69.4031 2.9843C69.6216 2.98564 69.5389 2.99416 69.6535 2.99367C69.7221 2.99337 70.1372 2.9667 70.578 2.9833C70.742 2.98937 69.6986 3.00474 71.9843 3.00375C71.0821 2.97293 75.1293 2.99713 75.8872 3.00631C75.7377 3.00209 75.588 2.99787 75.4382 2.99365C76.1792 3.00596 76.3117 2.9967 76.4782 2.99768C77.151 3.00164 78.0596 3.01384 78.6916 3.01469C79.4262 3.01569 79.4291 2.99808 80.2815 3.00727C80.0794 3.00283 79.8771 2.99839 79.6745 2.99395C80.2642 2.9965 80.8517 2.99904 81.4371 3.00157C80.0798 3.02118 81.7304 3.00349 81.8378 3.00328C82.0111 3.0029 81.761 3.01176 82.0525 3.01137C82.0828 3.01126 82.0393 3.00215 82.4909 3.00237C83.4332 3.00286 83.2835 3.01375 83.6779 3.01469C83.7138 3.01473 83.5882 3.00629 84.2673 3.00622C86.4194 3.00595 84.2578 3.0124 84.1737 3.01329C84.0641 3.01447 84.808 3.05033 82.9687 3.03333C83.5871 3.03884 83.6485 3.05398 83.718 3.05454C83.7801 3.05501 84.8458 3.05579 84.9038 3.05543C85.426 3.05176 84.9665 3.04029 85.0683 3.03873C85.1477 3.03747 86.4402 3.05429 86.7431 3.02433C87.3614 3.05439 86.385 3.04916 85.3519 3.05073C85.1988 3.05614 86.3373 3.06488 86.3977 3.06503C87.8649 3.06893 87.0523 3.04339 87.3728 3.02932C87.541 3.02197 88.1358 3.0395 87.5865 3.01708C88.9109 3.01843 88.1075 3.02841 88.1932 3.03043C88.3223 3.03342 88.7842 3.02866 88.8418 3.02961C88.9265 3.03102 88.6319 3.03748 88.966 3.04093C89.0215 3.04145 89.5593 3.03042 88.8658 3.02259C89.7957 3.02686 89.7258 3.01603 90.0425 3.03832C90.6885 2.99949 90.5108 3.06354 90.7646 3.06649C91.4385 3.07428 91.2426 3.04192 91.2783 3.04046C91.5232 3.03116 93.3803 3.04704 93.8491 3.04368C93.6667 3.06614 92.362 3.03999 92.0789 3.04369C91.118 3.05594 93.4329 3.05875 92.7339 3.08571C93.0306 3.07859 93.3272 3.07146 93.6227 3.06433C94.1635 3.08429 93.3987 3.09035 94.8501 3.08741C95.0877 3.07204 93.8238 3.08722 94.0773 3.07529C94.2276 3.0683 95.0683 3.06893 95.0844 3.06507C95.1013 3.06043 94.3416 3.06398 94.4612 3.05708C94.7273 3.04222 97.4792 3.06428 95.3831 3.06727C95.9688 3.06854 96.2685 3.1003 96.7853 3.09201C97.1163 3.08661 95.2521 3.03895 98.0493 3.05411C98.1095 3.0689 96.9327 3.05551 96.901 3.05654C96.8579 3.05805 97.0715 3.09162 97.1084 3.09334C97.247 3.09908 100.072 3.08877 100.689 3.10693C100.455 3.08726 102.834 3.10906 103.094 3.10391C103.164 3.10248 102.903 3.09013 102.978 3.08908C103.446 3.08292 104.701 3.10698 105.276 3.10898C105.921 3.11123 105.839 3.10093 105.875 3.10104C106.157 3.10232 105.932 3.10859 106.104 3.109C106.372 3.10965 108.192 3.11563 108.279 3.11441C108.306 3.11403 108.011 3.10177 108.404 3.10057C108.474 3.10036 108.425 3.11391 109.594 3.11092C111.015 3.10734 108.609 3.09147 109.2 3.07862C110.109 3.10127 110.082 3.081 110.328 3.0832C110.414 3.08398 111.049 3.10273 111.731 3.10332C111.241 3.1049 110.749 3.10648 110.253 3.10804C110.741 3.11226 111.679 3.11084 112.074 3.11521C112.267 3.11734 112.104 3.13104 112.528 3.1317C112.624 3.13177 112.966 3.09825 111.871 3.11099C111.784 3.0985 112.301 3.10776 112.55 3.1049C112.587 3.10445 112.735 3.08431 113.05 3.09782C113.123 3.10113 112.311 3.15897 114.418 3.12079C114.485 3.11956 114.25 3.1115 114.316 3.11011C114.362 3.10917 114.896 3.11348 114.954 3.11256C115.015 3.11157 114.757 3.10277 114.829 3.10133C115.197 3.09393 115.677 3.12751 114.921 3.12322C115.175 3.12784 115.424 3.13245 115.686 3.13708C115.409 3.11198 116.093 3.13118 116.447 3.13127C118.712 3.13184 117.195 3.11234 117.584 3.10504C118.208 3.0933 117.722 3.13399 118.659 3.12362C118.744 3.12264 117.616 3.10226 119.823 3.11742C119.499 3.11736 119.174 3.1173 118.846 3.11722C119.037 3.14131 120.022 3.11834 120.096 3.11818C120.815 3.11712 120.525 3.122 121.157 3.11814C121.283 3.11741 121.444 3.11635 121.653 3.11486C121.769 3.11403 122.02 3.12044 122.266 3.11808C123.061 3.11048 121.789 3.10848 121.157 3.10322C120.989 3.10179 120.87 3.10012 120.856 3.09802C120.85 3.09696 120.968 3.09648 121.157 3.0964C121.843 3.09618 123.38 3.10074 123.444 3.1026C123.81 3.11329 122.306 3.1044 122.592 3.11729C122.692 3.12192 126.297 3.12092 127.02 3.12711C127.863 3.1344 128.232 3.16718 128.238 3.13118C128.472 3.167 128.677 3.14329 128.783 3.14374C130.075 3.14953 130.089 3.1499 131.183 3.14849C131.422 3.14818 131.629 3.15927 131.718 3.15761C131.769 3.15661 131.674 3.14496 131.924 3.14185C132.28 3.13768 134.309 3.15266 134.478 3.15919C134.634 3.16577 133.596 3.16064 133.785 3.17135C134.533 3.17354 135.248 3.17195 135.979 3.17395C136.283 3.17481 136.129 3.18192 136.263 3.18222C136.323 3.18241 137.397 3.17715 137.35 3.17439C137.24 3.16822 133.949 3.16815 134.816 3.15649C134.985 3.15426 135.573 3.17187 135.479 3.15128C138.424 3.15972 141.369 3.16652 144.307 3.16936C142.635 3.18575 140.699 3.1717 138.946 3.17182C138.698 3.17184 137.876 3.16915 137.978 3.17957C139.494 3.18367 141.365 3.17914 142.807 3.18558C142.854 3.18579 142.682 3.19511 142.857 3.19656C143.189 3.19929 144.234 3.18383 144.409 3.18755C144.436 3.18845 143.847 3.20103 144.026 3.20871C144.483 3.22843 144.617 3.18409 145.021 3.18428C145.331 3.18464 147.436 3.20325 147.943 3.18845C148.494 3.17305 146.411 3.18287 146.558 3.17069C147.986 3.15681 149.399 3.1662 150.761 3.15998C150.784 3.15986 150.58 3.15134 150.878 3.149C151.391 3.14491 151.531 3.1574 151.788 3.15845C152.07 3.1596 153.017 3.15329 153.156 3.15728C153.173 3.15782 152.972 3.17182 152.944 3.17232C152.53 3.1797 152.379 3.16348 152.342 3.16344C152.198 3.16345 152.056 3.17052 151.924 3.1707C151.707 3.17097 151.581 3.16551 151.298 3.16607C151.104 3.16642 151.291 3.17719 151.104 3.17736C151.037 3.17741 150.286 3.15379 150.214 3.18072C150.186 3.19202 156.341 3.17211 156.955 3.15562C156.433 3.15689 155.892 3.15785 155.375 3.15824C156.44 3.15888 157.724 3.12561 157.821 3.15616C161.792 3.11931 165.751 3.0616 169.714 2.91122C170.43 2.88501 170.029 2.9234 171.2 2.86545C170.902 2.87263 170.593 2.87963 170.298 2.88542C170.604 2.87526 171.489 2.84063 172.306 2.80046C173.057 2.76404 173.759 2.72276 173.959 2.70838C174.014 2.70422 174.096 2.68194 174.749 2.63738C175.34 2.59631 175.425 2.60333 175.743 2.58294C176.007 2.56581 176.296 2.53979 176.376 2.53421C176.437 2.5301 176.461 2.53666 176.605 2.52666C177.058 2.49449 176.686 2.50129 177.141 2.49071C177.031 2.50105 176.92 2.51125 176.812 2.5211C177.363 2.48038 178.103 2.42632 177.304 2.50251C177.165 2.51539 177.283 2.49712 177.18 2.50594C173.129 2.81694 176.369 2.60041 177.782 2.45819C178.146 2.44301 180.186 2.22597 180.251 2.21631C180.345 2.20909 179.998 2.2582 180.455 2.21458C180.551 2.21477 183.267 1.85271 182.29 1.99738C182.091 2.02988 180.787 2.18999 180.473 2.22402C181.217 2.16907 182.939 1.90089 183.135 1.87005C183.918 1.7619 181.632 2.10646 183.397 1.85731C184.753 1.65563 183.479 1.83094 183.998 1.74462C184.292 1.69917 185.824 1.4625 185.779 1.44296C186.303 1.34834 185.998 1.41486 186.063 1.40443C186.126 1.39536 187.155 1.19996 187.49 1.1392C187.53 1.13204 187.405 1.16899 187.447 1.16196C187.529 1.14925 188.52 0.950809 188.559 0.940618C188.584 0.934805 188.346 0.971575 188.443 0.94936C188.555 0.924546 189.508 0.730057 189.56 0.715043C189.633 0.695842 188.458 0.942038 188.652 0.888999C189.194 0.782556 190.075 0.586748 190.43 0.498898C190.342 0.520983 189.818 0.634204 189.636 0.671518C189.718 0.636708 190.844 0.392969 190.462 0.490499C190.705 0.429601 190.537 0.462053 190.673 0.424865C190.709 0.415318 191.057 0.338323 191.123 0.320343C191.132 0.317794 190.771 0.390378 190.842 0.370877C190.972 0.336229 192.024 0.102771 192.111 0.0840875C192.355 0.0342557 191.498 0.23362 191.427 0.256854C191.418 0.260416 192.151 0.111161 192.163 0.109453C192.208 0.114167 191.394 0.28665 191.489 0.278222C191.692 0.235647 191.891 0.193611 192.094 0.150575C191.321 0.34031 189.885 0.646084 189.517 0.736972C190.667 0.490726 191.872 0.218062 191.875 0.251593C191.878 0.265493 191.383 0.38467 191.403 0.383743C191.48 0.380009 192.164 0.211863 192.191 0.206322C192.212 0.202317 192.222 0.200879 192.222 0.201594C192.222 0.201594 192.222 0.201595 192.222 0.201595C192.223 0.20958 191.242 0.435186 191.194 0.448723C191.113 0.473026 191.555 0.400204 191.556 0.405538C191.54 0.410426 190.843 0.57102 191.081 0.52813C191.321 0.485249 191.934 0.347997 191.955 0.344069C192.073 0.323911 191.005 0.568223 190.973 0.578085C190.957 0.583573 191.533 0.466555 191.551 0.465486C191.566 0.465493 191.131 0.569064 190.96 0.616591C190.833 0.652016 191.209 0.574692 191.143 0.590307C191.096 0.602363 190.083 0.82304 190.033 0.834068C189.96 0.851811 190.199 0.809334 190.165 0.818837C190.117 0.832427 189.788 0.899423 189.831 0.893381C189.865 0.890013 191.138 0.643479 191.133 0.651698C191.121 0.668981 189.771 0.931925 191.032 0.710504C191.042 0.708911 191.345 0.637932 191.353 0.636324C191.543 0.604093 190.571 0.835934 191.763 0.567573C189.548 1.07605 191.491 0.649469 191.168 0.744241C191.043 0.781614 190.183 0.972482 190.179 0.974069C190.265 0.967035 190.538 0.899202 190.633 0.884044C190.684 0.87633 189.916 1.05397 190.091 1.02397C190.181 1.00926 190.999 0.829731 191.033 0.822547C191.359 0.758028 190.963 0.85342 191.035 0.842691C191.084 0.835654 191.576 0.726695 191.589 0.724181C191.61 0.72108 190.944 0.883231 190.805 0.918222C190.7 0.945184 191.099 0.863528 191.026 0.881348C190.583 0.989538 189.626 1.16915 190.549 1.00589C190.606 0.995817 190.951 0.91947 190.962 0.917512C191.178 0.880317 190.541 1.02082 190.428 1.05326C190.235 1.10958 191.151 0.902584 190.39 1.07793C190.964 0.962864 191.282 0.892402 191.949 0.739966C190.102 1.15929 189.454 1.33342 191.51 0.881925C190.857 1.02634 190.932 1.02987 190.738 1.07293C190.617 1.10043 189.663 1.28391 190.108 1.2353C190.164 1.22951 190.739 1.09748 190.561 1.14803C189.176 1.44282 190.533 1.16229 190.535 1.16287C190.525 1.20216 187.128 1.87807 186.54 1.97206C185.861 2.09898 185.258 2.2206 185.11 2.24502C184.623 2.32492 185.025 2.24805 184.916 2.26199C184.803 2.27919 183.419 2.51286 183.349 2.51929C183.079 2.55363 183.35 2.5016 183.322 2.50499C182.987 2.55069 181.118 2.8064 180.592 2.8588C180.61 2.86622 181.664 2.73986 181.006 2.83255C180.243 2.93839 180.195 2.90464 180.175 2.90576C177.569 3.19559 174.962 3.38515 172.343 3.52061C171.435 3.56747 170.527 3.60773 169.613 3.64293C169.662 3.66332 171.959 3.54822 172.015 3.54483C172.321 3.55216 168.428 3.71675 167.953 3.71649C168.323 3.70887 168.671 3.70127 169.043 3.69209C168.428 3.73737 167.045 3.75191 166.158 3.78403C165.867 3.79478 166.426 3.78886 166.413 3.78969C166.09 3.80709 165.557 3.81359 165.954 3.79202C165.162 3.82283 165.28 3.80749 164.665 3.82035C164.634 3.82097 164.893 3.82442 164.417 3.83841C164.192 3.84539 162.988 3.86858 162.825 3.87892C162.76 3.88346 163.372 3.90731 163.444 3.87578C164.759 3.86453 163.865 3.85387 164.373 3.84415C164.453 3.84227 164.266 3.86462 165.553 3.82646C165.311 3.86333 163.837 3.87259 163.577 3.88057C163.051 3.89886 165.213 3.87086 165.602 3.83612C165.421 3.86405 165.75 3.836 166.236 3.82424C166.76 3.81135 166.532 3.82444 166.812 3.81675C167.597 3.79439 167.27 3.78734 167.908 3.78258C167.279 3.75621 169.006 3.74153 169.507 3.73305C168.689 3.76645 167.875 3.79551 167.061 3.82135C167.108 3.82243 167.155 3.82351 167.202 3.82458C166.986 3.83056 166.767 3.83636 166.557 3.84175C166.591 3.83848 166.625 3.83521 166.659 3.83194C165.55 3.87713 165.284 3.86476 165.192 3.86701C164.033 3.89219 162.677 3.91732 161.51 3.93472C161.328 3.9372 161.461 3.95151 160.168 3.95671C159.754 3.95815 160.143 3.94147 159.683 3.94891C159.105 3.98797 159.112 3.96206 158.938 3.96399C158.437 3.96951 158.145 3.98028 158.097 3.98087C157.474 3.98837 156.595 3.99467 155.908 4.00094C155.894 4.00116 156.243 4.00842 155.81 4.00874C155.663 4.0089 154.288 3.97646 153.075 3.99611C153.394 3.99735 153.708 3.9985 154.019 3.99956C153.65 3.99838 151.071 4.02038 151.701 4.02884C152.098 4.03422 153.021 4.00265 153.133 4.02817C152.288 4.0266 147.522 4.05193 147.171 4.04514C147.12 4.04436 147.433 4.03533 147.363 4.03437C147.314 4.03369 146.211 4.03737 146.073 4.03422C145.987 4.0324 146.466 4.02658 146.429 4.02356C146.383 4.02153 145.052 4.01937 144.966 4.03C145.304 4.02549 146.228 4.02814 145.743 4.03766C145.681 4.03885 145.355 4.03233 145.278 4.03381C144.57 4.04757 146.682 4.04227 147.022 4.0416C145.675 4.05746 143.628 4.04295 142.069 4.05163C141.451 4.04277 142.985 4.03807 142.286 4.03076C140.833 4.01547 141.9 4.04298 141.855 4.04411C141.5 4.05307 140.233 4.00477 140.243 4.04116C139.717 4.03541 139.89 4.03094 139.139 4.03521C139.238 4.0378 139.337 4.04039 139.435 4.04298C138.59 4.06363 136.842 4.00861 136.969 4.00465C137.329 3.99419 138.236 4.01198 138.312 4.01163C138.428 4.01109 138.767 3.97454 140.027 4.00828C140.549 3.98385 138.012 3.99025 139.17 3.97414C138.37 3.97661 135.188 3.95573 134.723 3.96578C134.667 3.96712 134.928 3.99221 134.127 3.97847C133.746 3.97193 134.665 3.97298 134.49 3.9671C133.964 3.94972 126.76 3.94742 125.397 3.94493C125.308 3.94477 125.341 3.93717 125.253 3.93706C124.992 3.93671 123.987 3.94594 123.523 3.94137C124.502 3.95774 122.602 3.95462 122.101 3.95191C121.425 3.94823 121.394 3.93697 121.155 3.93215C121.13 3.93162 121.102 3.93117 121.071 3.93082C119.855 3.91698 117.902 3.94444 116.954 3.91223C117.013 3.9421 115.267 3.89365 114.503 3.89153C113.894 3.88985 113 3.90734 113.83 3.92134C112.763 3.91739 111.658 3.92022 110.666 3.91958C110.502 3.91947 110.728 3.91124 110.447 3.91134C110.422 3.91142 110.387 3.91994 110.145 3.92024C108.148 3.92279 109.126 3.90691 108.753 3.9006C108.547 3.89708 108.395 3.8952 108.283 3.89442C109.42 3.89559 110.781 3.89557 111.131 3.89618C110.829 3.87643 108.56 3.89347 107.906 3.88671C107.883 3.88646 107.963 3.87618 107.94 3.87605C107.94 3.87605 107.939 3.87604 107.939 3.87604C107.694 3.87463 106.103 3.87449 106.43 3.88781C106.518 3.89138 107.253 3.89322 108.112 3.89424C107.88 3.896 108.053 3.90818 108.012 3.90858C107.518 3.91315 106.276 3.89856 105.85 3.89593C105.752 3.89534 105.759 3.90288 105.743 3.90286C105.351 3.90016 105.512 3.87909 105.11 3.90022C104.401 3.87165 106.436 3.89961 106.297 3.88186C106.197 3.86825 101.623 3.86376 101.646 3.88489C101.63 3.88259 101.568 3.87963 101.439 3.87611C101.156 3.86831 99.8797 3.86722 99.657 3.87053C99.6196 3.8712 99.6344 3.8917 99.5882 3.89177C99.4764 3.89195 97.9341 3.87189 97.3503 3.88246C97.6643 3.88615 97.9775 3.88984 98.2897 3.89352C96.3994 3.88876 96.6869 3.8956 97.3209 3.90338C97.3525 3.90352 97.3832 3.90438 97.4134 3.90454C97.9032 3.91035 98.5268 3.91633 98.5362 3.91797C98.5792 3.92425 95.3526 3.91923 95.9769 3.90187C96.0557 3.89948 97.5556 3.91187 96.8149 3.89638C96.6836 3.89366 95.7303 3.89503 95.6828 3.89341C95.3447 3.88259 97.4313 3.87487 97.177 3.86009C96.6693 3.8722 96.016 3.86341 95.4436 3.86537C95.1815 3.86625 95.1168 3.87634 95.0844 3.87645C94.5999 3.87785 94.8718 3.86781 94.7099 3.86765C94.6237 3.86761 93.6642 3.88797 93.8455 3.85688C90.6807 3.87171 92.9716 3.87778 94.9086 3.88111C94.3008 3.89101 93.0912 3.88225 92.5541 3.88349C92.3626 3.88395 92.4762 3.89478 92.1523 3.89603C91.4906 3.89862 88.2729 3.87791 87.4459 3.87282C87.9581 3.87047 87.8085 3.8586 87.4131 3.85832C87.0171 3.85806 87.3497 3.87427 87.2724 3.87571C87.1929 3.8772 85.3202 3.86492 85.021 3.86609C86.4143 3.86431 86.0944 3.852 84.9176 3.84762C85.0883 3.84478 85.2587 3.84195 85.4289 3.83911C84.7401 3.84188 83.2787 3.82046 82.874 3.82455C82.8107 3.82522 83.038 3.83546 83.0025 3.83583C82.6477 3.83895 81.4454 3.82586 81.3926 3.829C81.3457 3.83161 81.8541 3.84106 81.6654 3.84452C81.6261 3.84525 81.136 3.8309 80.6512 3.83278C80.4713 3.83346 80.5796 3.84286 80.5343 3.84326C80.1562 3.8466 80.3799 3.83189 79.6876 3.83246C79.1807 3.83289 78.7984 3.84683 78.0978 3.83994C80.4086 3.86538 78.4554 3.85205 77.5061 3.85522C77.3524 3.85572 77.4851 3.87261 76.5658 3.86203C78.5205 3.83754 76.0102 3.84472 75.4909 3.84296C75.4626 3.84278 75.453 3.83186 75.1993 3.83098C75.1778 3.83093 75.2087 3.83838 74.9728 3.83829C72.7474 3.83746 74.1708 3.83308 73.7483 3.82465C73.5695 3.82106 72.4886 3.82848 72.196 3.82792C72.1289 3.82776 72.1598 3.82019 71.8998 3.81977C71.4398 3.81904 71.0265 3.82604 70.7216 3.82584C70.6856 3.82577 70.685 3.8137 70.1134 3.81603C69.9527 3.81667 69.772 3.82046 70.0005 3.82456C70.7501 3.83806 72.2108 3.82237 73.0653 3.83613C73.8487 3.84867 71.378 3.8428 71.2462 3.84249C71.1988 3.8424 71.6836 3.83775 71.1911 3.8352C70.7668 3.83303 70.009 3.85177 69.3854 3.84549C69.338 3.84502 68.8399 3.82596 68.8628 3.82499C68.8839 3.8243 69.6484 3.82259 69.5373 3.81717C69.5242 3.81655 69.0383 3.81531 68.9748 3.81133C68.897 3.80647 68.6874 3.7604 68.5834 3.75896C68.3165 3.7554 68.4902 3.76626 68.3175 3.76506C67.9486 3.76251 66.6558 3.74544 66.6183 3.7611C66.828 3.76263 67.0428 3.76416 67.2554 3.76569C66.0726 3.76401 66.5792 3.77214 66.4114 3.77462C66.2322 3.77732 66.2829 3.7636 65.8866 3.76119C65.8014 3.76067 64.1383 3.7589 64.1677 3.76479C65.089 3.75812 64.747 3.77429 64.7897 3.77472C64.9509 3.77629 65.1566 3.76726 65.3725 3.76805C66.8896 3.77381 65.3599 3.78469 65.7179 3.78959C65.8412 3.79125 66.0866 3.78373 66.1389 3.7843C66.3086 3.78613 66.3113 3.79688 66.4245 3.79633C66.6885 3.79505 66.3803 3.77899 66.4012 3.77826C66.6344 3.7694 67.5689 3.78385 66.9876 3.79876C67.3365 3.80569 67.3773 3.78571 67.6535 3.79452C68.2024 3.81196 67.3802 3.80558 67.1567 3.80759C66.3565 3.81489 66.1276 3.80653 64.9996 3.80601C64.5936 3.8058 64.1116 3.81421 63.9226 3.81422C63.8043 3.81422 62.6767 3.77709 62.6471 3.83017C62.2135 3.8238 61.5318 3.78685 61.0829 3.78719C60.68 3.78751 60.808 3.80668 60.7704 3.8073C60.7128 3.80828 60.2249 3.80543 60.0596 3.80762C59.8659 3.81021 59.9626 3.81766 59.6552 3.81972C58.8894 3.82482 58.9097 3.80568 58.8318 3.80421C57.9255 3.78723 58.3221 3.81566 58.1209 3.81728C57.9364 3.81877 55.2978 3.80079 54.7423 3.80612C54.9661 3.80291 55.194 3.79972 55.4203 3.79651C55.0137 3.78338 54.5882 3.80171 54.5806 3.78021C54.499 3.81465 53.6679 3.78912 53.4176 3.7893C53.319 3.78939 53.3268 3.79532 53.2033 3.79522C52.7216 3.79489 51.6319 3.78709 51.3691 3.78934C50.234 3.799 53.1358 3.82871 53.3612 3.83065C52.9075 3.82898 50.3196 3.82938 51.5091 3.84943C51.693 3.85252 52.0186 3.83794 52.1217 3.83762C52.8195 3.83561 52.2707 3.84795 52.3254 3.84943C52.4185 3.85183 52.8775 3.8397 52.9984 3.84164C53.0387 3.84227 52.779 3.85412 53.443 3.85627C53.1175 3.86755 51.2465 3.85229 50.9994 3.85445C50.9126 3.85522 51.4575 3.88286 49.8637 3.85298C49.8822 3.85546 49.9007 3.85793 49.9192 3.8604C49.0309 3.85887 48.1403 3.85732 47.2473 3.85577C47.3444 3.85047 47.8456 3.8407 47.2143 3.84127C46.8507 3.84161 47.1197 3.8548 47.0865 3.85507C46.7647 3.85758 41.0078 3.83696 39.8925 3.83513C39.5131 3.83449 38.4511 3.84142 38.3727 3.84138C37.8924 3.841 36.1858 3.82959 35.8443 3.83002C35.6313 3.83031 35.8337 3.84128 35.6435 3.84025C35.4666 3.83927 35.6499 3.82976 35.5974 3.82919C35.1584 3.82429 31.8647 3.82796 31.0773 3.81622C31.5582 3.82045 33.9475 3.80728 33.8987 3.80006C33.8884 3.79906 33.3083 3.78975 33.1885 3.79313C32.9908 3.78387 32.3111 3.80837 31.9411 3.80211C31.8992 3.8014 32.0642 3.78703 31.4035 3.78243C31.1765 3.78085 30.5779 3.79069 29.9804 3.776C29.1167 3.77974 24.5519 3.74729 24.2411 3.76233C24.2318 3.76315 24.8737 3.7705 24.44 3.77579C23.8633 3.78282 24.3814 3.75501 23.7091 3.75054C23.6084 3.74986 21.7348 3.7474 21.6747 3.74904C21.1082 3.76385 22.7429 3.77525 22.7204 3.7771C22.6631 3.78175 21.3045 3.78072 21.25 3.77943C21.1975 3.7781 22.3037 3.75951 20.9744 3.76392C21.1267 3.76697 21.279 3.77001 21.4313 3.77306C20.8061 3.77632 20.7464 3.76107 20.5949 3.75971C20.1238 3.75543 19.614 3.77685 18.8584 3.74637C18.6586 3.73829 18.9904 3.73091 18.9653 3.72971C18.7253 3.71892 18.419 3.74506 18.0579 3.72385C18.0309 3.72227 18.8705 3.71262 17.4028 3.70834C17.5037 3.71056 17.6044 3.71279 17.7055 3.71501C17.4988 3.71873 16.0144 3.71699 15.8143 3.71539C15.2305 3.71071 15.7398 3.69831 15.1528 3.69827C15.5294 3.71838 13.744 3.71568 13.8466 3.6996C13.5961 3.71944 12.0824 3.69918 11.3694 3.69662C10.9198 3.69502 10.0023 3.70133 9.85932 3.69986C9.68519 3.69807 9.73816 3.6842 9.42371 3.68017C9.33359 3.67901 8.39897 3.68658 7.57787 3.66968C7.41876 3.66642 7.08462 3.64165 7.3804 3.63657C7.88672 3.62787 8.84404 3.64981 8.83185 3.63572C8.81759 3.62064 7.52795 3.62584 7.18068 3.62286C5.57758 3.60913 6.50333 3.59583 6.46213 3.59087C6.35527 3.5788 5.47915 3.57662 5.44257 3.57545C5.29107 3.57032 5.91197 3.56281 5.92135 3.55567C5.93271 3.54635 5.0882 3.52703 5.28021 3.52444C5.55509 3.52077 6.33113 3.53708 6.38032 3.53655C7.02079 3.52935 6.143 3.50521 5.90103 3.4939C5.82769 3.49042 6.11998 3.48591 6.05916 3.48477C5.13081 3.46755 5.86338 3.51455 5.24584 3.50975C4.69484 3.50548 5.40384 3.49336 5.38279 3.49251C5.35556 3.49157 4.69684 3.48889 4.59386 3.48357C4.54279 3.4809 6.25524 3.45829 6.1837 3.4457C5.63753 3.44684 5.0908 3.44798 4.54494 3.44912C4.50213 3.43286 5.28766 3.44702 5.36901 3.4456C5.53265 3.44273 5.07641 3.43324 5.09601 3.4282C5.10653 3.42499 5.64206 3.41497 5.15829 3.40879C4.99194 3.40666 4.64327 3.41695 4.03804 3.40364C6.14449 3.395 4.68471 3.38169 4.62271 3.3758C4.56191 3.36991 5.56747 3.35938 4.34693 3.35821C4.2941 3.32666 4.37328 3.34836 4.72011 3.34385C5.14511 3.3383 4.16264 3.32511 5.7163 3.33747C5.6279 3.32251 4.37935 3.31992 4.31339 3.31856C4.25634 3.31733 4.53379 3.31091 4.43488 3.30817C3.26484 3.27637 4.0685 3.29167 3.72964 3.27255C3.69952 3.27084 2.59347 3.2609 3.43553 3.26071C4.9694 3.26036 5.61085 3.28306 5.86884 3.23928C4.7334 3.21663 3.35923 3.24138 3.0141 3.24087C2.48611 3.24003 3.03308 3.23254 2.96803 3.22981C2.94544 3.22892 2.49044 3.22835 2.48433 3.22761C2.16009 3.1927 4.5096 3.23293 5.24959 3.22917C5.05121 3.22351 4.85287 3.21785 4.65465 3.21219C4.92356 3.21276 5.1928 3.21334 5.46192 3.21392C4.17975 3.19997 5.41675 3.20992 5.73651 3.18335C5.8083 3.17738 4.96597 3.18553 5.92686 3.17114C5.21823 3.16512 5.44417 3.16016 4.80257 3.16604C4.819 3.15507 6.26304 3.14683 6.83228 3.14283C4.82098 3.1246 5.96735 3.16836 4.22903 3.14192C3.90664 3.15463 4.73638 3.15438 4.66871 3.15644C4.42595 3.16383 3.85692 3.14932 3.17015 3.1757C3.05833 3.18004 3.5314 3.19576 2.8313 3.19303C2.75386 3.19271 2.30778 3.17915 2.31397 3.17828C2.37314 3.16885 2.81459 3.17373 2.83283 3.16978C2.84994 3.16604 2.35741 3.16689 2.35571 3.16583C2.34062 3.15376 2.76667 3.16243 2.7048 3.15848C2.57118 3.1499 0.799639 3.11887 3.11174 3.13317C1.19124 3.14119 2.86586 3.14574 3.61368 3.14269C3.80439 3.14194 3.8527 3.13489 4.12443 3.13319C4.47399 3.13098 4.8829 3.13561 5.06392 3.13482C5.25853 3.13393 4.15283 3.11374 5.75206 3.12345C4.93788 3.1042 3.50137 3.11803 2.70203 3.10385C1.08959 3.07519 3.82644 3.078 4.11143 3.07651C4.18737 3.0761 3.93279 3.06566 3.98341 3.06521C4.06613 3.06454 5.61937 3.07354 5.77272 3.06595C5.92553 3.05838 5.20363 3.06467 5.15566 3.05617C5.12321 3.05044 6.9974 3.0459 5.98287 3.0391C5.28341 3.03443 3.99487 3.05332 3.77792 3.02836C4.8057 3.02933 5.83445 3.0303 6.86261 3.03128C6.29988 3.02039 5.73705 3.00949 5.17413 2.9986C6.32854 2.99902 7.32621 3.01237 8.42188 3.0023C5.78893 2.96498 9.27676 2.98111 9.31517 2.97761C9.32768 2.97549 8.29188 2.9484 8.12504 2.94351C9.04238 2.93692 11.8358 2.9405 10.2021 2.90603C10.4986 2.9136 11.2165 2.89912 11.2071 2.89784C11.1161 2.88444 9.5499 2.88841 9.80534 2.87729C10.1014 2.86438 10.5162 2.88426 10.9714 2.88409C13.3075 2.8831 12.6649 2.81267 15.009 2.83032C14.9624 2.82774 14.9158 2.82517 14.8692 2.82259C17.4139 2.83386 19.9618 2.84514 22.5062 2.85639C23.5057 2.83835 26.1495 2.83325 27.4562 2.83935C27.7188 2.84056 29.0057 2.85526 29.1025 2.85747C29.2823 2.86168 28.2939 2.86024 28.7405 2.86845C28.8351 2.87014 31.0113 2.88105 30.8572 2.86889C30.6119 2.86682 29.8483 2.8705 29.7237 2.86738C28.8434 2.84514 35.5606 2.88026 35.8976 2.87328C35.7486 2.86905 35.5997 2.86482 35.4507 2.86058C35.8753 2.86368 36.2995 2.86677 36.7233 2.86986ZM17.2382 3.75443C16.984 3.76545 16.3468 3.75477 15.9701 3.75698C15.4497 3.76009 14.5642 3.80278 14.9455 3.75852C15.7102 3.75716 16.4745 3.7558 17.2382 3.75443ZM28.4123 3.80431C27.8997 3.79651 28.2975 3.77232 28.7174 3.78407C28.764 3.7854 29.1056 3.81481 28.4123 3.80431ZM23.0376 3.77673C23.0592 3.77646 23.5025 3.77842 23.5179 3.77886C23.9154 3.79018 22.579 3.78423 23.0376 3.77673ZM49.0004 3.83844C48.4355 3.83792 48.8447 3.86212 49.1957 3.85364C49.2178 3.8531 49.0376 3.83849 49.0004 3.83844ZM48.5986 3.83668C48.1599 3.8148 47.2741 3.85408 47.978 3.85188C48.0464 3.85165 48.619 3.83774 48.5986 3.83668ZM26.5837 3.78895C26.6416 3.78121 27.1711 3.78656 27.397 3.7891C27.3909 3.7963 26.8056 3.78871 26.5837 3.78895ZM39.9922 3.82541C40.0152 3.81926 38.1725 3.81431 38.0501 3.82214C38.3369 3.81949 39.9718 3.83093 39.9922 3.82541ZM44.7062 3.83019C44.6597 3.82899 44.0242 3.8288 44.0426 3.83434C44.3531 3.84242 44.916 3.83566 44.7062 3.83019ZM54.0734 3.85727C54.1076 3.85599 53.6341 3.81975 54.7568 3.8459C54.9216 3.84973 54.333 3.85718 54.3915 3.8586C54.5142 3.86139 54.6111 3.8628 54.689 3.86323C54.1664 3.86464 53.6221 3.86445 53.5694 3.86218C53.3222 3.85148 54.0583 3.8578 54.0734 3.85727ZM58.9886 3.84519C59.0974 3.8398 59.7906 3.8448 59.948 3.84759C59.975 3.84811 59.8571 3.86273 60.1687 3.86249C60.4187 3.86228 60.0454 3.8459 60.5323 3.84972C61.024 3.85357 60.367 3.86264 60.4099 3.86354C60.4677 3.86473 61.2279 3.85999 61.2041 3.86883C61.1867 3.87538 60.3722 3.86862 60.1701 3.86946C59.9117 3.87053 60.2251 3.88241 59.793 3.87883C59.5214 3.87659 59.672 3.85768 59.6147 3.85654C59.5666 3.85561 58.6166 3.86406 58.99 3.84525C58.9895 3.84523 58.9891 3.84521 58.9886 3.84519ZM54.8304 3.86277C54.791 3.86331 54.7449 3.86353 54.689 3.86323C54.7364 3.8631 54.7836 3.86293 54.8304 3.86277ZM18.72 3.75024C18.9866 3.75698 18.1951 3.76233 17.8951 3.75365C17.89 3.74734 18.6776 3.74919 18.72 3.75024ZM55.318 3.84841C56.1005 3.85547 55.524 3.8605 54.8304 3.86277C55.0488 3.85975 55.0556 3.84605 55.318 3.84841ZM33.1885 3.79313C33.2213 3.79467 33.2422 3.79698 33.2448 3.80068C33.1585 3.79639 33.1507 3.7942 33.1885 3.79313ZM35.0059 3.80496C35.6308 3.79551 34.3605 3.7923 34.3697 3.80038C34.3725 3.80343 34.981 3.80534 35.0059 3.80496ZM49.7242 3.8416C49.6672 3.84033 50.552 3.80887 49.2674 3.83071C49.9532 3.83667 49.2297 3.83831 49.2404 3.84132C49.2686 3.84995 50.4197 3.84501 50.6737 3.84943C50.8731 3.83469 49.9124 3.84576 49.7257 3.8416C49.7252 3.8416 49.7247 3.8416 49.7242 3.8416ZM67.8567 3.87834C67.7 3.88687 67.2025 3.88259 66.8659 3.88112C67.0232 3.8726 67.5213 3.87687 67.8567 3.87834ZM155.39 4.01463C153.095 4.03781 152.804 4.00218 154.897 4.00417C154.939 4.00424 155.529 4.00998 155.39 4.01463ZM135.716 4.03724C135.504 4.02105 136.204 4.01939 136.686 4.0265C136.793 4.0281 137.188 4.04465 136.737 4.04731C136.754 4.02804 136.044 4.01985 135.716 4.03724ZM55.7601 3.83947C55.9879 3.8295 56.6877 3.83904 57.0556 3.84167C56.8311 3.84978 56.0867 3.84372 55.7601 3.83947ZM147.853 4.02705C147.615 4.02631 147.453 4.04044 147.494 4.04152C147.68 4.04648 148.123 4.03439 147.853 4.02705ZM53.5059 3.83142C53.4743 3.82499 54.3976 3.82151 54.4616 3.83737C54.2646 3.83568 53.529 3.83547 53.5059 3.83142ZM67.2235 3.87181C67.0792 3.86818 67.8266 3.8645 68.0518 3.86832C68.0339 3.87503 67.3183 3.87417 67.2235 3.87181ZM143.966 4.03641C143.753 4.03533 143.213 4.03515 143.152 4.04076C143.078 4.04779 143.87 4.04513 143.966 4.03641ZM184.208 2.44999C184.234 2.44913 183.407 2.59319 183.036 2.63989C182.33 2.73199 184.179 2.45705 184.208 2.44999ZM150.143 4.01411C150.83 4.02507 150.068 4.01478 150.097 4.02853C150.565 4.02767 151.69 4.02413 150.914 4.01335C150.763 4.01127 150.36 4.01434 150.143 4.01411ZM149.511 4.01133C149.44 4.01604 148.952 4.03149 149.373 4.02935C149.568 4.02834 149.878 4.01171 149.511 4.01133ZM179.042 3.11008C178.429 3.16453 181.231 2.87146 181.31 2.85426C181.352 2.85017 181.38 2.8478 181.396 2.84674C181.497 2.83074 182.026 2.76251 182.088 2.76397C181.93 2.78412 181.497 2.83981 181.448 2.84461C181.426 2.84683 181.41 2.84839 181.399 2.84932C181.212 2.88661 179.163 3.10528 179.042 3.11008ZM174.399 3.47329C175.092 3.41043 175.225 3.4307 175.163 3.43627C174.397 3.50075 174.896 3.44423 174.873 3.44482C174.816 3.44708 174.282 3.49219 174.401 3.47315C174.4 3.4732 174.4 3.47324 174.399 3.47329ZM178.092 3.19615C178.12 3.19351 178.707 3.13902 178.731 3.13671C179.213 3.10148 177.552 3.25548 178.092 3.19615ZM62.6966 3.83409C63.115 3.83833 62.7047 3.8485 62.4263 3.84365C62.4034 3.84318 62.3273 3.83035 62.6966 3.83409ZM149.179 4.01528C149.082 4.01376 146.59 4.01054 146.736 4.02715C146.951 4.02527 149.785 4.02767 149.179 4.01528ZM130.541 4.00662C130.978 4.00755 130.502 4.02282 130.267 4.01637C130.18 4.01397 130.43 4.00639 130.541 4.00662ZM52.2581 3.81323C51.8006 3.82079 51.8953 3.79132 52.2918 3.80264C52.3074 3.80309 52.2761 3.81293 52.2581 3.81323ZM134.047 4.02175C132.546 4.0292 132.876 3.97869 134.869 3.99882C134.807 4.00102 134.745 4.00321 134.683 4.0054C136.95 4.01609 134.847 4.00929 134.278 4.01129C134.063 4.01206 134.243 4.02087 134.048 4.02182C134.048 4.0218 134.047 4.02177 134.047 4.02175ZM128.227 4.00119C126.774 3.96195 129.542 3.9912 130.356 3.9879C129.581 4.00146 128.554 3.9972 129.943 4.01521C127.916 4.01429 128.773 4.00144 128.686 4.00009C128.593 3.99856 128.289 4.00287 128.227 4.00119ZM132.078 4.00812C132.164 4.00721 132.803 4.01566 133.03 4.01481C132.714 4.02673 131.512 4.01436 132.078 4.00812ZM169.526 3.72526C169.577 3.71349 169.708 3.70179 170.213 3.68487C170.06 3.69609 169.729 3.7134 169.526 3.72526ZM16.7558 3.70188C16.4103 3.70018 15.7218 3.69452 15.9329 3.70535C15.9561 3.70629 16.7548 3.70761 16.7558 3.70188ZM141.933 4.01555C141.869 4.01446 139.946 4.01304 140.611 4.02398C140.82 4.02739 142.539 4.0262 141.933 4.01555ZM151.783 3.99994C151.618 4.00056 150.977 4.00481 150.964 4.00713C150.919 4.01528 151.709 4.00791 151.783 3.99994ZM15.0116 3.68687C14.9661 3.68573 13.9092 3.68445 14.0254 3.6895C14.246 3.69906 15.1678 3.6908 15.0116 3.68687ZM64.2306 3.81563C64.3191 3.81552 64.436 3.82641 64.4666 3.82661C64.5394 3.82697 66.1533 3.82743 65.5367 3.83925C65.4362 3.84125 63.1053 3.8295 62.8014 3.8273C62.6821 3.81248 63.6815 3.82907 63.9233 3.82826C63.9659 3.8281 63.9934 3.81605 64.2299 3.81569C64.2301 3.81567 64.2304 3.81565 64.2306 3.81563ZM172.143 3.59981C172.157 3.59744 172.232 3.59202 172.346 3.58474C172.859 3.55358 174.109 3.47735 174.093 3.4865C173.513 3.5236 172.934 3.55751 172.347 3.58902C172.279 3.59265 172.211 3.59624 172.143 3.59981ZM171.178 3.64458C170.773 3.65648 171.72 3.61133 172.002 3.59954C172.007 3.60588 171.235 3.64334 171.178 3.64458ZM148.175 3.97658C147.981 3.97925 148.577 3.9914 148.444 3.9943C148.359 3.99613 147.924 3.99201 147.794 3.99646C147.755 3.99788 148.187 4.00965 148.318 4.0088C148.499 4.00767 148.323 3.99812 148.52 3.99761C149.176 3.99588 149.729 4.00146 150.351 3.99928C150.406 3.99907 149.978 3.99343 150.449 3.99201C150.522 3.99176 150.952 4.00083 151.509 3.99708C152.758 3.95956 153.651 3.9873 155.227 3.9651C155.167 3.96261 153.99 3.96178 153.925 3.9617C152.606 3.96433 150.261 3.97264 148.893 3.9756C148.54 3.97643 148.711 3.98287 148.559 3.98348C148.438 3.98394 148.583 3.97094 148.175 3.97658ZM16.9393 3.69539C16.7747 3.68224 16.1969 3.68859 15.8276 3.68686C15.9576 3.69868 16.5788 3.69154 16.9393 3.69539ZM162.64 3.88539C162.447 3.88931 161.887 3.89457 161.836 3.89912C161.779 3.90513 162.593 3.89499 162.64 3.88539ZM73.3442 3.84465C73.3621 3.84435 73.8059 3.84626 73.8226 3.84671C74.219 3.85798 72.8878 3.85221 73.3442 3.84465ZM83.9982 3.87632C84.3356 3.87567 84.6749 3.87262 84.7879 3.88322C84.5739 3.88106 83.9588 3.88338 83.9982 3.87632ZM98.6935 3.91514C98.6265 3.90149 99.6284 3.91283 99.8276 3.91455C99.7494 3.92034 98.7463 3.92499 98.6935 3.91514ZM169.452 3.68574C170.068 3.6629 169.944 3.64709 170.336 3.64029C170.399 3.63909 170.612 3.67333 169.926 3.68513C169.804 3.68699 170.282 3.65854 169.452 3.68574ZM135.19 3.99969C135.348 3.99099 135.836 3.99427 136.166 3.99537C136.09 4.00191 135.428 3.99938 135.19 3.99969ZM13.1031 3.67114C12.812 3.65771 11.4659 3.66313 11.799 3.67242C11.8464 3.67364 12.9144 3.67011 13.1031 3.67114ZM57.3416 3.8033C57.8951 3.79495 56.7489 3.78864 56.3857 3.79729C56.5502 3.79713 57.3045 3.80384 57.3416 3.8033ZM95.1638 3.89857C95.1906 3.89824 95.7746 3.90073 95.8005 3.90128C96.2791 3.91289 94.6262 3.90589 95.1638 3.89857ZM80.4948 3.85041C80.709 3.84285 82.0853 3.85318 82.4061 3.86222C82.0966 3.87331 80.236 3.85989 80.4948 3.85041ZM166.891 3.77551C167.344 3.76226 167.748 3.75243 168.166 3.74234C168.074 3.75278 166.945 3.77964 166.891 3.77551ZM97.3209 3.90338C97.3525 3.90352 97.3832 3.90438 97.4134 3.90454C97.3819 3.90416 97.3511 3.90375 97.3209 3.90338ZM156.968 3.93657C156.599 3.937 156.674 3.9489 156.698 3.94911C156.977 3.95087 157.384 3.93599 156.968 3.93657ZM16.5153 3.67549C16.3866 3.66376 15.762 3.67075 15.4025 3.66701C15.5068 3.67628 16.2259 3.67584 16.5153 3.67549ZM126.654 3.97471C126.183 3.96142 128.104 3.95111 128.493 3.95979C128.527 3.96748 126.73 3.97657 126.654 3.97471ZM55.6193 3.78139C55.5822 3.77239 54.7812 3.78085 54.9515 3.78554C55.0592 3.78852 55.6418 3.78698 55.6193 3.78139ZM129.445 3.96684C129.627 3.96447 130.045 3.97404 129.897 3.97911C129.709 3.98562 129.399 3.96753 129.445 3.96684ZM145.456 3.97284C145.382 3.97161 144.322 3.98158 144.76 3.99031C145.064 3.99637 145.111 3.98346 145.182 3.98336C145.266 3.9834 146.93 3.99721 145.456 3.97284ZM116.024 3.9428C116.423 3.94033 116.903 3.94544 117.315 3.94617C117.149 3.95128 116.195 3.95051 116.024 3.9428ZM58.6927 3.78771C58.5988 3.78385 55.9825 3.77428 57.4689 3.78956C57.5562 3.79043 58.9837 3.79943 58.6927 3.78771ZM169.452 3.68574C169.374 3.68858 169.283 3.69152 169.178 3.69449C169.283 3.69102 169.373 3.68825 169.452 3.68574ZM162.388 3.86764C162.529 3.85886 161.817 3.86886 161.6 3.87548C161.536 3.8845 162.371 3.86899 162.388 3.86764ZM117.347 3.93721C117.584 3.93407 118.014 3.93904 118.305 3.93929C118.256 3.9452 117.45 3.94358 117.347 3.93721ZM100.584 3.88874C101.06 3.89355 101.642 3.8934 101.651 3.88606C101.661 3.88724 101.684 3.88852 101.722 3.88984C101.76 3.89116 102.266 3.88903 102.484 3.89211C103.811 3.91047 97.3754 3.88769 101.111 3.87655C100.935 3.88061 100.76 3.88468 100.584 3.88874ZM78.6076 3.82791C78.3335 3.81819 77.5878 3.82738 77.7814 3.83144C77.9145 3.83423 78.8777 3.83768 78.6076 3.82791ZM88.9587 3.8507C88.8793 3.84888 88.1475 3.8532 88.1283 3.85787C88.5501 3.86398 89.3222 3.8591 88.9587 3.8507ZM76.544 3.81174C76.3753 3.80992 76.1597 3.82378 76.1795 3.82447C76.3513 3.83022 76.8274 3.82057 76.544 3.81174ZM168.163 3.69206C167.903 3.69671 167.115 3.73097 166.934 3.74541C166.901 3.7445 166.812 3.74464 166.654 3.74609C166.655 3.74608 166.655 3.74606 166.656 3.74605C166.439 3.75896 159.965 3.87827 164.309 3.81296C164.445 3.81064 164.259 3.80624 164.809 3.79568C164.846 3.79496 164.865 3.80155 164.979 3.79931C165.242 3.79481 166.626 3.76421 166.9 3.75004C166.902 3.75127 166.921 3.75199 166.959 3.75201C167.306 3.7528 168.356 3.68921 168.163 3.69206ZM90.4223 3.85333C90.274 3.85034 89.803 3.85155 89.754 3.85759C89.9883 3.86124 90.7668 3.8603 90.4223 3.85333ZM58.6119 3.76215C58.3117 3.75622 57.5489 3.76356 57.7794 3.76925C57.9212 3.77276 58.9583 3.76896 58.6119 3.76215ZM85.7224 3.844C87.4624 3.85599 86.1379 3.84453 86.4044 3.8362C86.1774 3.8388 85.9501 3.8414 85.7224 3.844ZM176.169 3.30004C175.896 3.31853 176.211 3.27719 176.521 3.26247C176.618 3.25792 176.32 3.28976 176.169 3.30004ZM188.54 1.61246C188.306 1.64429 189.437 1.42288 188.999 1.52357C188.979 1.52832 188.557 1.6099 188.54 1.61246ZM179.914 2.94452C179.725 2.97567 179.611 2.9901 179.08 3.04127C179.862 2.95784 179.136 3.02418 179.914 2.94452ZM101.646 3.88489C101.649 3.88533 101.651 3.88566 101.651 3.88606C101.648 3.88565 101.646 3.88527 101.646 3.88489ZM74.914 3.81005C74.6948 3.80031 74.0903 3.79931 74.2704 3.809C74.2864 3.8099 74.8243 3.81655 74.914 3.81005ZM166.934 3.74541C166.963 3.74622 166.948 3.7477 166.9 3.75004C166.898 3.74888 166.91 3.74738 166.934 3.74541ZM78.1699 3.81157C78.1455 3.81832 79.0767 3.82353 79.113 3.82283C79.6455 3.81246 78.5519 3.81221 78.1699 3.81157ZM52.5089 3.73526C52.4612 3.73584 52.7686 3.75431 52.9569 3.74795C53.1028 3.74302 52.6875 3.73306 52.5089 3.73526ZM181.697 2.73034C181.991 2.69327 182.397 2.63903 182.475 2.6367C182.278 2.66273 181.694 2.73729 181.697 2.73034ZM188.095 1.68937C187.758 1.76658 186.979 1.91538 186.481 2.00277C186.47 1.99354 187.778 1.75768 188.095 1.68937ZM168.955 3.66982C168.926 3.67058 168.201 3.69144 168.3 3.69666C168.446 3.7048 169.162 3.66723 168.955 3.66982ZM53.932 3.74865C54.2592 3.74361 53.5064 3.72315 53.1604 3.73632C52.9829 3.74307 53.8771 3.74949 53.932 3.74865ZM73.023 3.79286C72.5909 3.79667 73.6617 3.80856 73.8103 3.79992C73.6119 3.79864 73.1766 3.79151 73.023 3.79286ZM87.748 3.82395C86.3844 3.79416 87.1269 3.8438 87.3692 3.84026C87.4034 3.83976 87.7814 3.82465 87.748 3.82395ZM9.71974 3.60912C9.52657 3.61219 10.2466 3.62742 10.3398 3.61904C10.3974 3.6138 9.84329 3.60717 9.71974 3.60912ZM108.283 3.89442C108.226 3.89436 108.169 3.89431 108.112 3.89424C108.155 3.89392 108.21 3.89392 108.283 3.89442ZM69.0948 3.74696C70.0531 3.7865 69.9516 3.7578 70.0349 3.75819C70.2155 3.75909 70.6279 3.7702 70.9721 3.76952C70.5781 3.77258 70.1964 3.77567 69.8074 3.77873C70.1067 3.78223 72.7899 3.80326 72.8424 3.79742C72.9228 3.78913 72.0824 3.78947 72.0576 3.78865C72.0223 3.78749 71.8909 3.76345 71.8127 3.76234C71.6812 3.76054 69.4513 3.75384 69.0948 3.74696ZM84.8937 3.82033C85.1118 3.82373 85.1737 3.83328 85.2749 3.83131C85.3094 3.83064 85.315 3.82171 85.4326 3.81971C85.2532 3.81992 85.0735 3.82013 84.8937 3.82033ZM67.373 3.7753C67.1004 3.76361 68.3229 3.77117 68.3615 3.77251C68.5703 3.7805 67.5964 3.78485 67.373 3.7753ZM77.7116 3.80238C77.6678 3.80162 76.735 3.79564 76.7422 3.80173C76.9902 3.80703 78.2349 3.8118 77.7116 3.80238ZM85.5778 3.8195C85.9081 3.82143 86.5337 3.83213 86.4618 3.81847C86.4613 3.81846 86.4608 3.81846 86.4604 3.81846C86.1668 3.81881 85.8713 3.81915 85.5778 3.8195ZM55.0516 3.72338C54.4443 3.70021 54.7289 3.72812 55.2713 3.73658C55.4354 3.72741 55.1519 3.72715 55.0516 3.72338ZM53.1063 3.70187C52.9378 3.69753 51.1877 3.69678 51.4545 3.70889C51.5498 3.7132 52.556 3.70586 52.602 3.70678C52.6722 3.70814 52.3517 3.71979 52.8875 3.71882C52.8562 3.71448 53.1644 3.70332 53.1063 3.70187ZM54.5487 3.70822C53.9454 3.6902 53.8094 3.7199 54.2635 3.72127C54.4409 3.72182 54.6348 3.71082 54.5487 3.70822ZM57.0245 3.7178C56.8067 3.71433 56.2261 3.70852 55.825 3.71739C56.3616 3.71977 56.8972 3.72214 57.4318 3.72451C57.4934 3.71901 57.215 3.72085 57.023 3.7178C57.0235 3.7178 57.024 3.7178 57.0245 3.7178ZM191.645 0.859205C191.173 0.955964 192.254 0.710715 192.302 0.701585C192.439 0.677697 191.856 0.816147 191.645 0.859205ZM5.96374 3.32488C5.83008 3.32109 5.74272 3.30965 5.44845 3.31466C5.74441 3.32378 6.04034 3.3329 6.33624 3.34202C6.56627 3.32376 6.10984 3.32906 5.96374 3.32488ZM4.83377 3.25244C4.87562 3.25211 4.64721 3.22234 5.18732 3.24334C5.55196 3.25752 3.56829 3.26454 3.21018 3.25059C3.6059 3.24575 4.47408 3.25513 4.83377 3.25244ZM1.35913 3.11636C1.33626 3.11397 2.09006 3.11276 2.1773 3.11465C2.63541 3.12461 1.48287 3.12915 1.35913 3.11636ZM3.76372 3.1289C3.41028 3.12223 4.19331 3.12086 4.42663 3.12479C4.44925 3.13027 3.81833 3.12989 3.76372 3.1289ZM186.79 1.43123C186.412 1.48082 186.082 1.58323 186.659 1.46978C186.686 1.46434 186.806 1.42926 186.79 1.43123ZM2.09615 3.08914C2.44964 3.09582 1.6665 3.09719 1.43311 3.09326C1.41142 3.08778 2.04233 3.08816 2.09615 3.08914ZM186.517 1.4333C186.015 1.50958 186.2 1.52447 186.262 1.51537C186.522 1.47779 187.397 1.29508 187.576 1.25474C186.261 1.51183 186.753 1.3958 186.517 1.4333ZM184.217 1.85144C183.753 1.92934 184.943 1.75271 185.166 1.69986C184.936 1.73937 184.349 1.8299 184.217 1.85144ZM181.388 2.23197C181.137 2.2624 180.39 2.34588 180.265 2.36682C180.54 2.33526 181.283 2.25351 181.388 2.23197ZM180.817 2.27859C180.424 2.31443 180.333 2.35485 180.785 2.29321C180.802 2.2908 180.832 2.27746 180.817 2.27859ZM178.607 2.50503C178.345 2.51847 178.056 2.57447 178.474 2.53573C178.599 2.52392 178.635 2.50372 178.607 2.50503ZM185.884 1.49421C185.517 1.55316 185.05 1.65367 185.831 1.52158C185.556 1.57265 185.283 1.62224 185.009 1.67075C186.034 1.51076 185.955 1.49146 186.248 1.44137C186.659 1.36911 186.63 1.39771 186.549 1.42014C186.883 1.34692 188.308 1.07417 189.128 0.898384C188.405 1.04347 187.23 1.26318 186.514 1.38808C186.309 1.42421 186.112 1.46595 185.938 1.49583C185.658 1.54361 185.904 1.49096 185.885 1.49396C185.885 1.49404 185.884 1.49413 185.884 1.49421ZM175.696 2.75062C174.936 2.79157 175.414 2.78709 175.848 2.74988C175.866 2.74813 175.715 2.74957 175.696 2.75062ZM1.08357 2.99825C2.104 3.01331 1.36229 3.02719 3.49699 3.00904C2.60016 3.02367 3.44736 3.0213 3.27229 3.02774C3.13186 3.03283 2.60568 3.02675 2.91151 3.03872C2.50953 3.02549 0.763935 3.02375 0.686114 3.02157C0.686846 3.02157 0.687577 3.02157 0.688309 3.02157C0.641572 3.02028 0.75794 2.99345 1.08357 2.99825ZM181.375 2.15731C181.119 2.15347 181.026 2.2217 180.527 2.25041C179.873 2.37213 182.35 2.03191 182.654 2.01691C179.961 2.3741 184.437 1.80831 182.552 2.01282C184.1 1.81359 183.057 1.93463 183.295 1.8942C183.55 1.85106 184.424 1.72398 184.377 1.7173C184.376 1.71737 184.376 1.71745 184.375 1.71752C183.84 1.80308 183.31 1.88291 182.772 1.95892C183.302 1.91316 182.203 2.05918 181.831 2.08215C181.679 2.10766 181.527 2.13274 181.375 2.15731ZM184.407 1.75623C184.356 1.76566 183.191 1.94527 183.269 1.93812C183.426 1.92279 185.071 1.66003 184.407 1.75623ZM189.494 0.80439C189.08 0.891798 188.439 1.01654 188.216 1.07157C188.63 0.989527 189.27 0.862539 189.494 0.80439ZM167.899 3.11686C167.358 3.14326 169.021 3.09118 168.54 3.0967C168.518 3.09713 167.927 3.11572 167.899 3.11686ZM180.161 2.30594C179.615 2.35519 179.878 2.36119 180.278 2.30743C180.301 2.3043 180.186 2.30365 180.161 2.30594ZM1.91054 2.9965C1.94727 2.98824 3.42781 2.99842 3.6902 2.99911C3.54111 3.00645 1.86843 3.00597 1.91054 2.9965ZM190.214 0.61886C189.387 0.768068 188.276 1.0281 188.153 1.05084C188.031 1.07429 188.22 1.0234 188.192 1.02857C188.129 1.04249 186.83 1.29329 186.766 1.30387C186.721 1.31289 186.96 1.28756 186.693 1.34287C187.216 1.24384 189.59 0.769835 189.711 0.736591C189.806 0.714482 189.085 0.848993 190.213 0.619168C190.213 0.619066 190.214 0.618963 190.214 0.61886ZM187.846 1.10738C188.172 1.05157 187.262 1.23044 187.041 1.26775C186.55 1.35384 187.805 1.11639 187.846 1.10738ZM185.652 1.50492C185.549 1.52232 184.606 1.67718 184.526 1.69744C184.976 1.63833 185.889 1.46838 185.652 1.50492ZM175.097 2.73391C174.846 2.75276 174.169 2.78964 174.128 2.79944C174.378 2.78321 175.057 2.74453 175.097 2.73391ZM6.96239 2.94538C6.54892 2.93787 7.50693 2.93808 7.78631 2.94192C7.80148 2.94699 6.99761 2.94603 6.96239 2.94538ZM180.061 2.24452C179.915 2.26848 176.933 2.55967 176.513 2.58633C176.925 2.56943 179.882 2.2874 180.014 2.26005C180.053 2.25491 180.08 2.24281 180.061 2.24452ZM186.468 1.30744C186.736 1.24745 186.915 1.22742 186.949 1.22124C187.283 1.16131 187.975 1.02373 187.825 1.06376C187.236 1.17732 185.934 1.42672 186.468 1.30744ZM174.88 2.69833C173.864 2.77049 175.815 2.65052 175.559 2.65522C175.54 2.65612 174.988 2.69093 174.88 2.69833ZM180.392 2.20401C180.615 2.18107 183.587 1.79834 184.061 1.71155C183.638 1.79332 183.293 1.83229 182.719 1.9134C182.565 1.935 182.607 1.93609 182.591 1.93839C182.323 1.97538 182.522 1.9401 182.357 1.96247C182.254 1.98281 180.082 2.25645 180.392 2.20401ZM186.621 1.27174C186.786 1.23959 188.621 0.879036 188.695 0.861923C189.25 0.765537 186.766 1.25534 186.621 1.27174ZM180.118 2.22009C180.436 2.16803 181.916 2.00005 180.904 2.13264C180.811 2.1449 180.395 2.18525 180.118 2.22009ZM174.988 2.67267C174.934 2.67666 173.878 2.74058 173.858 2.74704C174.014 2.74198 175.557 2.64058 174.988 2.67267ZM175.533 2.61371C175.509 2.61551 175.754 2.61006 175.262 2.64344C175.221 2.64591 175.141 2.6393 174.518 2.68502C174.393 2.69422 174.196 2.7154 174.211 2.71504C174.86 2.69847 176.819 2.51197 175.533 2.61371ZM186.653 1.255C186.553 1.26764 186.789 1.20768 187.006 1.17542C187.099 1.16156 186.928 1.20416 186.653 1.255ZM171.625 2.8607C172.244 2.8218 170.299 2.9102 170.207 2.91433C170.267 2.91911 171.561 2.86574 171.625 2.8607ZM7.93065 2.87043C7.93016 2.87043 7.92967 2.87043 7.92919 2.87043C8.4495 2.87423 8.12719 2.88167 8.15156 2.882C9.25971 2.89753 8.96576 2.8777 9.13905 2.87596C9.51091 2.8722 9.45104 2.8951 10.0784 2.88736C9.04132 2.89848 9.98532 2.89529 10.0147 2.90359C10.1307 2.93744 8.63423 2.88389 8.11788 2.88941C8.0459 2.89018 8.57732 2.90242 8.3929 2.90492C7.79335 2.91304 5.9338 2.8559 7.93065 2.87043ZM187.172 1.14268C187.407 1.09236 189.198 0.741571 188.725 0.844775C188.65 0.8654 186.827 1.22513 187.172 1.14268ZM101.813 3.14542C102.252 3.13803 101.236 3.1254 101.045 3.13154C100.951 3.1346 101.621 3.14866 101.813 3.14542ZM94.6616 3.09033C94.139 3.09068 93.5854 3.12474 94.2377 3.12095C94.3071 3.12053 94.7215 3.09541 94.6616 3.09033ZM128.996 3.19152C128.459 3.17777 128.49 3.20142 128.886 3.20187C129.025 3.20202 129.013 3.19196 128.996 3.19152ZM108.162 3.14641C108.107 3.14545 107.476 3.14537 107.499 3.15085C107.734 3.15469 108.514 3.15294 108.162 3.14641ZM129.171 3.18851C128.841 3.19211 129.409 3.21029 129.808 3.19437C129.605 3.19535 129.205 3.18814 129.171 3.18851ZM178.994 2.28679C178.729 2.32373 177.966 2.39357 177.528 2.43289C177.477 2.42602 178.686 2.32191 178.994 2.28679ZM96.8788 3.11044C96.3806 3.11798 97.4476 3.12802 97.3494 3.11607C97.336 3.1154 96.8986 3.11012 96.8788 3.11044ZM146.619 3.19947C146.257 3.20751 147.407 3.2158 147.09 3.20314C147.075 3.20263 146.64 3.19903 146.619 3.19947ZM151.605 3.19069C151.326 3.1894 150.177 3.19411 150.626 3.19987C150.699 3.2008 151.576 3.19772 151.605 3.19069ZM9.16979 2.86702C9.02255 2.8537 9.87714 2.85925 9.9994 2.86186C10.0475 2.86293 9.36174 2.88434 9.16979 2.86702ZM125.46 3.18222C125.18 3.18324 124.442 3.17856 124.311 3.18503C124.662 3.18441 125.554 3.1959 125.46 3.18222ZM99.1349 3.11627C98.7076 3.10115 97.9719 3.10062 98.1536 3.11939C98.9648 3.12028 98.055 3.10269 99.1349 3.11627ZM130.996 3.17685C130.772 3.17537 130.599 3.19263 130.624 3.19351C130.869 3.20183 131.219 3.18408 130.996 3.17685ZM113.996 3.15377C113.983 3.14623 113.255 3.14787 113.352 3.15294C113.384 3.15464 114.007 3.15987 113.996 3.15377ZM169.529 2.90047C169.196 2.90644 170.215 2.86057 170.509 2.85538C170.659 2.86105 169.567 2.90046 169.529 2.90047ZM137.282 3.19037C137.318 3.17929 136.173 3.18431 136.625 3.19406C136.739 3.19651 137.271 3.19409 137.282 3.19037ZM148.141 3.17401C147.383 3.18924 150.573 3.19065 149.735 3.17619C149.682 3.1753 148.215 3.17286 148.141 3.17401ZM153.366 3.16376C153.233 3.16297 153.302 3.12525 153.845 3.13667C153.917 3.13815 153.583 3.1499 153.641 3.15184C153.679 3.15306 154.848 3.15134 154.91 3.14991C154.969 3.14853 154.9 3.13698 154.96 3.13524C155.031 3.13331 155.748 3.13894 156.132 3.13602C156.858 3.13052 156.929 3.11969 156.988 3.11919C157.158 3.11766 157.443 3.12225 157.796 3.11886C159.552 3.10318 162.222 3.05748 163.611 3.05026C162.38 3.06553 161.207 3.09251 159.968 3.11088C160.332 3.08595 158.162 3.14814 159.433 3.10938C158.852 3.1255 153.786 3.16901 153.368 3.16375C153.367 3.16375 153.367 3.16376 153.366 3.16376ZM92.5903 3.07435C92.91 3.06241 91.2715 3.06093 91.1298 3.07534C91.3484 3.07798 92.5517 3.07569 92.5903 3.07435ZM100.2 3.06313C100.354 3.06132 100.502 3.0367 101.305 3.05146C101.306 3.05146 101.307 3.05146 101.307 3.05146C101.542 3.05577 101.275 3.06117 101.318 3.06345C101.334 3.06438 102.064 3.07869 101.457 3.07913C100.53 3.07981 101.37 3.06031 100.875 3.05877C100.815 3.05859 99.8737 3.06969 99.928 3.0728C99.9337 3.07316 100.218 3.07103 100.264 3.07239C100.441 3.07748 100.355 3.08507 100.38 3.0855C100.463 3.08667 101.944 3.0772 102.156 3.08935C102.23 3.09329 99.7972 3.09565 99.6967 3.09344C99.6362 3.09205 99.6618 3.07045 99.5992 3.06816C99.5681 3.06702 98.5985 3.07262 98.4713 3.07029C98.4346 3.06962 98.4065 3.06892 98.386 3.06836C98.5338 3.07545 97.65 3.07266 97.6767 3.06516C97.6924 3.06223 98.301 3.06554 98.3225 3.06612C98.332 3.06636 98.3403 3.06669 98.348 3.06692C98.2235 3.05843 100.274 3.06412 99.8328 3.05082C100.436 3.04572 99.7474 3.06843 100.2 3.06313ZM103.069 3.05715C103.007 3.05927 102.944 3.06139 102.883 3.06351C103.942 3.06065 105.145 3.07468 106.344 3.07763C106.653 3.0784 106.297 3.06357 106.702 3.0684C107.026 3.07227 107.382 3.08609 107.207 3.08853C107.165 3.08914 106.507 3.07907 106.175 3.07909C105.218 3.07923 105.459 3.09179 105.403 3.09197C105.341 3.09215 104.736 3.08221 104.403 3.08174C103.57 3.08058 103.17 3.0869 102.044 3.07442C102.699 3.06822 102.337 3.05018 103.069 3.05715ZM142.072 3.15926C142.108 3.15175 142.796 3.15839 143.048 3.15721C143.011 3.16477 142.31 3.15818 142.072 3.15926ZM40.0388 2.89899C39.8286 2.91073 41.4051 2.91831 40.9896 2.90684C40.8979 2.9043 40.2372 2.89964 40.0388 2.89899ZM47.1178 2.92677C47.3287 2.92396 46.4792 2.91265 46.4815 2.92221C46.4825 2.92527 47.0896 2.92714 47.1178 2.92677ZM116.603 3.10283C116.643 3.10254 117.223 3.10667 117.241 3.10734C117.626 3.12136 115.714 3.10924 116.603 3.10283ZM55.7281 2.93608C54.9914 2.94208 57.2083 2.95187 56.531 2.93964C56.4975 2.93904 55.7637 2.93579 55.7281 2.93608ZM58.8007 2.94252C58.6255 2.94246 57.8456 2.93623 57.8351 2.93997C57.8197 2.946 58.7124 2.95268 58.8007 2.94252ZM131.147 3.13048C131.057 3.11642 132.097 3.12878 132.458 3.12761C132.549 3.14169 131.488 3.12935 131.147 3.13048ZM124.64 3.10714C128.987 3.10544 128.012 3.13315 124.378 3.11334C124.373 3.1044 124.363 3.10722 124.64 3.10714ZM130.21 3.12017C130.053 3.12879 129.556 3.12521 129.216 3.12383C129.278 3.11776 129.971 3.12133 130.21 3.12017ZM38.1602 2.87448C38.4303 2.86401 39.6425 2.88137 39.4269 2.88539C39.3762 2.88625 38.059 2.88038 38.1602 2.87448ZM116.968 3.0918C116.868 3.07804 118.166 3.08663 118.263 3.08985C118.661 3.10287 117.077 3.08908 116.968 3.0918ZM137.325 3.12749C137.56 3.11714 138.191 3.12319 138.626 3.12366C138.423 3.13258 137.684 3.12806 137.325 3.12749ZM134.28 3.11538C134.307 3.11502 134.899 3.11682 134.924 3.11733C135.409 3.12837 133.735 3.12334 134.28 3.11538ZM7.20951 2.76659C7.2291 2.7663 7.67401 2.76827 7.68951 2.76872C8.08659 2.78004 6.75126 2.77408 7.20951 2.76659Z" fill="#6983D0"/>
</svg>
