<svg width="237" height="61" viewBox="0 0 237 61" fill="none" xmlns="http://www.w3.org/2000/svg">
<path d="M55.3088 46.9446C56.7276 46.9503 58.4071 46.9539 60.2392 46.9559C68.5827 46.9585 80.2243 47.0046 87.1696 46.9864C87.3263 46.9859 87.4814 46.9853 87.6348 46.9848C88.1931 46.983 88.7457 46.9801 89.2854 46.9762C90.7287 46.9657 92.1529 46.948 93.7629 46.9179C96.999 46.8618 101.008 46.7144 107.09 46.694C110.902 46.6774 115.547 46.6887 121.347 46.716C125.719 46.6962 130.092 46.681 134.46 46.6593C136.501 46.649 138.566 46.6371 140.602 46.6188C146.073 46.5977 151.479 46.3615 157.024 46.2972C165.251 46.2096 173.469 46.2435 181.64 46.1668C187.486 46.1718 193.097 45.5513 199.167 45.2091C201.877 45.1298 204.76 43.8069 208.066 42.8303C211.367 41.9268 214.16 39.3746 217.339 36.8467C220.156 34.6187 223.248 31.3127 224.246 28.9954C224.535 27.872 224.654 26.811 224.492 25.9958C223.926 23.3576 219.556 21.1585 215.645 18.6887C213.021 16.858 210.202 15.3739 207.214 13.9899C204.341 12.6776 200.793 12.1682 197.208 11.5125C196.462 11.3668 195.372 11.4512 193.982 11.3558C193.447 11.3038 193.029 11.282 192.499 11.2601C191.919 11.24 191.327 11.2263 190.716 11.2141C183.115 11.0882 174.277 11.0854 166.467 11.044C162.233 11.0247 158.28 11.0028 155.014 10.9713C143.282 10.8593 135.325 10.7713 128.774 10.6953C106.653 10.5939 84.5017 10.5135 62.4005 10.5089C53.0513 10.5621 43.267 10.3541 34.4029 10.8236C31.0968 11.4618 27.8776 12.4237 24.3531 13.0615C22.1469 13.408 20.0919 14.6057 17.9002 15.8994C17.0963 16.3677 16.2632 16.8438 15.3676 17.2662C11.9808 18.9263 9.77086 22.9893 8.63193 26.9101C7.73632 30.0614 8.35764 33.5045 9.58935 36.7925C10.3843 39.0584 12.384 40.8658 14.3204 43.0549C14.71 43.5073 15.0971 43.9877 15.4523 44.5285C18.2475 47.8749 23.5836 50.0615 28.1976 52.1252C30.9077 53.2537 33.8392 54.1647 36.7368 55.0726C38.5491 55.6559 40.3716 56.0284 42.2774 56.3237C46.0115 56.8702 49.7132 57.1366 53.2826 57.3475C55.5294 57.4746 57.7421 57.525 59.8909 57.5543C67.6617 57.6413 74.6079 57.4779 80.3642 57.4697C81.3681 57.4675 82.3832 57.4684 83.4104 57.477C91.4043 57.5686 99.7504 57.7929 107.56 57.8383C112.542 57.8842 117.312 57.9183 121.532 57.9452C123.44 57.9572 125.232 57.9675 126.898 57.9759C136.152 57.9555 145.406 57.9154 154.661 57.8388C155.277 57.8517 155.898 57.865 156.534 57.8784C159.158 57.9339 162.007 57.9614 165.156 57.9578C170.566 57.8084 177.131 58.2768 184.807 56.3034C186.127 55.9952 187.495 55.685 188.916 55.3776C191.526 54.8154 194.312 54.2523 197.326 53.7801C199.804 53.3779 202.497 52.4227 205.345 51.4284C207.282 50.75 209.29 50.0729 211.373 49.3697C214.477 48.3238 216.74 47.5852 218.54 47.0035C219.858 46.5744 220.899 46.0923 221.84 45.6326C222.468 45.3225 223.054 45.0118 223.643 44.6838C225.046 43.9042 226.456 42.9832 228.045 41.9796C228.649 41.5973 229.217 41.1053 229.739 40.5032C230.906 39.1711 231.795 37.3142 232.689 35.0237C233.227 33.6393 233.465 31.8531 233.351 29.9364C233.322 29.4367 233.218 28.9398 233.026 28.4376C232.163 26.2574 230.015 24.5871 228.322 22.8189C225.944 20.3355 223.139 19.213 220.587 17.7859C217.513 15.9867 215.02 14.6786 212.712 13.8272C209.899 12.7511 207.656 11.8931 205.621 11.1929C203.87 10.5885 202.279 10.0866 200.648 9.63827C200.335 9.55249 200.014 9.46707 199.686 9.3836C196.831 8.6563 193.433 7.81494 190.048 6.96895C188.037 6.48105 185.548 6.23132 183.406 5.34989C182.821 5.11852 182.208 4.93723 181.598 4.78817C177.55 3.64225 169.319 4.21819 162.051 4.30627C161.311 4.25154 160.77 4.22756 160.122 4.21067C157.39 4.14373 153.669 4.10084 149.271 4.06452C148.209 4.05625 147.159 4.04936 146.018 4.0435C142.271 4.02451 138.157 4.01868 133.809 4.04152C119.556 4.1204 111.985 4.18391 105.895 4.23166C104.163 4.24578 102.544 4.25925 100.929 4.27373C96.827 4.31075 91.9188 4.34773 86.8484 4.39856C85.5796 4.41128 84.3654 4.42545 83.0872 4.44264C77.1009 4.52148 71.1913 4.66383 65.9553 5.00493C64.5042 5.0634 63.0875 5.12969 61.7774 5.1879C56.1306 5.37746 50.4806 5.53165 44.8248 5.64021C40.2867 5.64026 36.4315 6.71178 31.592 7.96424C27.7452 8.74715 23.9461 9.5742 20.5141 11.0552C19.4098 11.5274 18.3068 11.9415 17.2037 12.3323C15.2102 13.0374 13.2239 13.6422 11.3242 14.2176C8.84063 14.9465 6.73856 16.7567 4.92344 18.5959L5.13014 18.3103C4.01423 20.1368 3.26374 21.9142 2.77428 23.6297C2.47158 24.6704 2.24272 25.6704 2.00498 26.5816L2.01616 26.5043C1.47094 29.9388 1.29468 32.0154 0.935807 31.9962C0.642178 31.9834 0.167881 30.0565 0.193807 26.3089C0.195078 26.2975 0.199842 26.2638 0.201943 26.2526C0.300701 25.3354 0.400864 24.2941 0.603854 23.13C0.925043 21.2123 1.62474 19.0537 2.72452 16.9634C2.75343 16.9123 2.8521 16.775 2.89197 16.732C4.70494 14.6516 7.03743 12.3207 10.3612 11.21C12.2622 10.5736 14.1887 9.94694 16.1004 9.25272C17.1555 8.86933 18.1987 8.4668 19.203 8.02737C23.0223 6.34889 27.0043 5.46829 30.9131 4.6363C35.0163 3.52298 40.0277 2.12776 44.7441 2.13614C50.9139 1.97113 57.0761 1.75253 63.246 1.49936C64.0998 1.46498 64.9767 1.42829 65.8398 1.39724C72.7692 0.96845 79.8437 0.901793 86.8293 0.838969C98.3356 0.75594 109.865 0.732712 121.38 0.73749C129.604 0.743238 137.812 0.75884 146.036 0.810556C151.403 0.872937 156.635 0.812297 162.142 1.15585C162.181 1.15899 162.216 1.16158 162.249 1.16375C163.416 1.22988 164.803 1.17978 166.128 1.14427C172.255 0.967199 178.46 0.342865 184.553 2.31012C186.467 3.0427 188.521 3.16856 190.84 3.69417C193.014 4.20539 195.053 4.69233 196.905 5.14978C198.19 5.46726 199.406 5.7766 200.562 6.08348C205.347 7.39331 208.812 8.94801 211.87 10.1953C212.544 10.4754 213.196 10.746 213.831 11.0059C215.763 11.7904 217.536 12.6822 219.226 13.6211C220.016 14.0563 220.967 14.6037 222.057 15.2258C222.607 15.5397 223.251 15.8652 223.971 16.2303C225.876 17.1844 228.347 18.5292 230.47 20.6751C232.291 22.7076 235.988 24.7988 236.523 29.7118C236.658 31.8104 236.513 33.9861 235.632 36.2251C234.475 39.0381 232.943 42.505 229.586 44.5322C227.653 45.6882 225.703 46.9482 223.622 48.0631C222.377 48.7275 221.03 49.3767 219.531 49.8817C215.309 51.2977 210.751 52.7489 206.333 54.2343C205.522 54.5093 204.707 54.7846 203.887 55.0502C201.894 55.6895 199.897 56.3037 197.769 56.6243C193.138 57.3007 188.862 58.2141 185.434 58.9883C183.486 59.5046 181.462 59.8883 180.068 60.0512C175.307 60.6385 170.245 60.7309 165.187 60.7856C161.295 60.8165 157.447 60.8204 153.775 60.8196C145.776 60.8163 138.777 60.7862 134.798 60.8578C130.041 60.9423 125.991 60.9081 119.957 60.8469C116.601 60.812 112.591 60.7698 107.544 60.7212C106.302 60.7091 105.025 60.6965 103.673 60.6825C95.6076 60.6119 89.9088 60.3827 85.0912 60.2708C84.5065 60.2571 83.9503 60.2448 83.3816 60.2333C77.4177 60.1264 72.5192 60.1734 65.521 60.2241C61.4022 60.2477 57.1807 60.2371 53.1082 60.0044C48.7929 59.7452 44.6812 59.3874 41.0488 58.7567C39.4549 58.4795 37.6994 58.0964 35.9701 57.5387C34.2563 57.0047 32.4715 56.4386 30.6536 55.8105C29.5077 55.4123 28.3511 54.9959 27.1822 54.4994C23.5808 52.9469 19.965 51.2717 16.7894 49.1137C15.497 48.2019 14.2856 47.2798 13.3672 45.8949C12.3398 44.312 10.8482 42.938 9.69685 41.4604C9.10628 40.717 8.57106 39.9459 8.13721 39.1326C7.86019 38.6385 7.616 38.1169 7.4201 37.572C6.49036 35.0574 5.78469 32.287 5.90685 29.4496C5.91719 28.9011 5.95743 28.322 6.04158 27.7198C6.10732 27.2494 6.20002 26.7632 6.3269 26.265C7.01662 23.6914 8.10374 20.6291 10.7052 17.636C11.7022 16.5263 12.8816 15.5586 14.2507 14.9044C17.2052 13.477 20.1067 11.0799 23.9241 10.485C25.3687 10.249 26.8761 9.88385 28.4039 9.52822C30.1777 9.11186 31.9971 8.68384 33.8994 8.31364C37.4778 7.93152 40.6227 8.08067 44.3406 7.9948C48.3075 7.94783 52.8488 7.8913 57.3427 7.84088C59.0274 7.82194 60.7011 7.80398 62.3922 7.7879C67.2084 7.74124 71.7651 7.71139 75.1716 7.72764C76.9163 7.73578 78.3457 7.78367 79.8301 7.83137C79.8365 7.83166 79.8428 7.83196 79.8492 7.83225C79.947 7.8355 80.0454 7.83866 80.1434 7.84189C91.2803 7.78736 102.436 7.73868 113.581 7.69385C114.547 7.68092 115.524 7.66822 116.491 7.65578C121.218 7.59492 125.811 7.5373 128.803 7.45457C132.051 7.36485 140.204 7.31675 148.808 7.27391C154.442 7.24575 160.232 7.21995 165.02 7.18384C165.519 7.18006 166.005 7.17889 166.48 7.17988C168.757 7.18477 170.916 7.2357 173.129 7.28963C175.657 7.35107 178.271 7.41602 181.111 7.42431C182.537 7.42859 184.063 7.41981 185.711 7.41453C187.161 7.41021 188.676 7.40713 190.285 7.42481C191.107 7.44416 192.434 7.43333 194.29 7.59603C195.085 7.6832 196.252 7.54725 197.875 7.81274C198.403 7.91263 198.963 8.01369 199.541 8.11911C202.125 8.61086 205.161 9.08082 208.347 10.4228C208.488 10.4825 208.632 10.5457 208.772 10.61C211.842 12.0015 214.944 13.5978 217.794 15.5569C221.081 17.9144 226.349 19.1849 228.312 25.2378C228.401 25.6768 228.447 26.1134 228.463 26.5392C228.53 27.8891 228.332 29.0167 228.14 29.9689C227.901 30.8995 227.645 31.334 227.414 31.8206C226.965 32.7031 226.564 33.3767 226.125 34.0667C225.529 34.9943 224.874 35.9207 223.859 37.0823C223.063 37.9942 222.04 38.9713 221.303 39.5707C220.961 39.8505 220.686 40.0518 220.437 40.2304C220.358 40.2873 220.281 40.3425 220.204 40.3978C220.015 40.5324 219.837 40.6635 219.634 40.8287C219.435 40.9906 219.235 41.1734 218.987 41.3995C218.591 41.759 218.081 42.2292 217.23 42.9056C215.224 44.5085 212.557 46.408 209.411 47.3047C208.011 47.7189 206.589 48.2374 205.039 48.7393C203.315 49.3003 201.357 49.7975 199.388 49.8768C196.481 50.006 193.685 50.3 191.217 50.4829C188.595 50.6886 185.271 50.8252 181.7 50.8383C179.451 50.8483 177.093 50.841 174.74 50.8319C170.517 50.8149 166.29 50.7897 162.672 50.7964C160.834 50.7999 158.951 50.8183 157.084 50.8532C155.337 50.8857 153.608 50.9366 151.892 50.9999C147.903 51.159 144.009 51.2667 140.646 51.2581C140.401 51.2577 140.155 51.2568 139.906 51.2554C139.202 51.2511 138.301 51.1954 137.2 51.1241C136.418 51.0735 135.508 51.0153 134.482 50.962C130.004 50.9842 125.529 50.9945 121.056 51.0055C120.898 51.0145 120.736 51.0237 120.574 51.0331C120.571 51.0333 120.569 51.0335 120.566 51.0337C117.312 51.2237 112.976 51.4657 107.137 51.4551C106.383 51.4545 105.619 51.4503 104.826 51.4426C103.04 51.4254 101.912 51.3714 100.898 51.3245C99.9026 51.2786 99.0104 51.2406 97.704 51.262C96.2181 51.2866 94.4616 51.3732 92.5366 51.4504C91.5142 51.4919 90.4384 51.5315 89.3339 51.5614C87.5529 51.6099 85.6794 51.6341 83.8191 51.6026C83.6124 51.5992 83.3895 51.5953 83.161 51.5914C80.9748 51.5547 77.7415 51.494 74.5238 51.3542C69.7484 51.3338 64.9675 51.3028 60.1904 51.2298C56.937 51.1728 53.5651 51.1135 50.3494 50.8495C48.8451 50.768 47.3205 50.6878 45.7711 50.535C41.58 50.142 37.5423 49.0842 33.6353 47.9467C27.8709 46.2223 22.6903 43.6318 17.3979 41.3713C14.1707 39.9373 8.94868 38.0554 8.51194 32.6438C8.40286 30.3545 8.24906 28.1213 8.47638 25.6334C8.55542 25.0507 8.58455 24.5087 8.96248 23.6706C12.0467 17.8265 15.2759 12.75 19.3221 9.16807C19.9049 8.74978 20.4946 8.46817 21.062 8.2419C26.6458 6.42063 29.8131 7.34012 29.7911 7.64082C29.8616 8.11285 26.5429 8.13419 21.9731 10.2404C21.5391 10.4722 21.1192 10.7407 20.7886 11.0366C17.9201 14.106 14.599 19.6391 11.8847 25.0932C11.8711 25.1003 11.7615 25.569 11.7298 25.9747C11.5661 27.941 11.7167 30.2329 11.8538 32.441C11.9198 35.07 15.2588 36.7924 18.7683 38.1754C24.1177 40.3972 29.3506 42.9103 34.6467 44.4228C35.3665 44.6252 36.0781 44.8198 36.7882 45.0067C37.4219 45.1684 38.052 45.3235 38.6768 45.47C42.8077 46.4812 46.5092 46.7713 50.5465 46.8249C51.1698 46.843 51.6998 46.8755 52.2332 46.893C53.241 46.9286 54.269 46.9401 55.3088 46.9446Z" fill="#6983D0"/>
</svg>
