<svg width="354" height="31" viewBox="0 0 354 31" fill="none" xmlns="http://www.w3.org/2000/svg">
<path d="M298.052 0.899443C297.589 0.898946 295.84 0.873674 295.079 0.868433C295.918 0.835642 299.658 0.900467 298.052 0.899443ZM219.35 3.24561C219.988 3.23931 220.625 3.23303 221.262 3.22678C219.449 3.20978 217.022 3.2033 215.344 3.18454C215.07 3.18143 215.782 3.15658 215.132 3.15169C214.482 3.14681 214.608 3.18686 213.662 3.18587C212.6 3.18451 207.751 3.13108 206.07 3.12319C199.781 3.0933 193.45 3.08556 187.147 3.04211C193.645 3.04144 187.095 2.98286 185.279 2.98802C184.877 2.98945 184.927 3.06194 178.416 3.01809C174.258 2.99086 178.097 2.89986 171.178 2.92791C176.512 3.01987 171.251 2.99559 167.101 2.98499C166.379 2.98291 160.592 2.95466 158.005 2.9517C157.124 2.95059 155.788 2.98567 154.634 2.98407C153.848 2.98295 153.224 2.9606 152.031 2.95919C146.534 2.95259 141.003 2.94651 135.486 2.93708C138.766 2.84009 132.909 2.89395 132.67 2.88969C131.339 2.86254 137.35 2.85657 134.968 2.8391C131.663 2.84096 128.329 2.84482 125.057 2.85125C127.805 2.86048 121.413 2.93802 120.309 2.9088C120.511 2.94125 118.349 2.94214 115.618 2.9355C110.892 2.92178 104.383 2.91795 102.853 2.95392C102.37 2.96718 105.566 2.96814 98.1019 3.03882C97.2792 3.04768 97.5904 3.01726 97.1611 3.02563C96.8988 3.03075 95.3719 3.13559 93.7416 3.11653C93.1593 3.11269 96.9458 2.98059 88.5391 3.16386C91.8857 3.16636 76.8413 3.48089 74.0776 3.59455C74.6274 3.58601 75.1836 3.57783 75.7462 3.57001C72.9764 3.63539 72.5537 3.68438 71.9029 3.70745C69.3966 3.79807 66.0516 3.92041 63.6931 4.04794C61.0364 4.19386 60.9891 4.24642 57.8397 4.42286C58.592 4.38627 59.3549 4.351 60.0832 4.3195C57.9252 4.44457 55.7184 4.58755 53.5819 4.74416C58.5722 4.31567 52.5159 4.81312 52.0812 4.8573C51.4436 4.91042 52.3535 4.809 51.2945 4.89749C51.1801 4.90806 51.366 4.91678 49.6872 5.06213C46.2375 5.37254 46.8117 5.29548 45.3377 5.43929C45.2044 5.45485 45.6707 5.4235 43.1769 5.6962C35.2934 6.63589 43.2041 5.65836 43.5229 5.63659C43.9227 5.59992 41.1786 5.746 47.9364 5.12789C45.6646 5.32694 45.436 5.3122 45.1767 5.33573C44.949 5.35041 41.0523 5.7843 40.8185 5.82181C38.9194 6.06721 40.5927 5.89496 40.2236 5.94532C39.9139 5.97521 35.203 6.56235 34.1264 6.83587C31.8679 7.10567 35.4079 6.52736 39.1723 6.042C39.7095 5.94892 35.5982 6.48027 35.3587 6.52608C30.0446 7.33502 32.9872 6.9634 31.8377 7.18786C31.2363 7.30813 29.0585 7.63329 31.0684 7.35458C26.2508 8.19688 29.1709 7.65544 28.854 7.7026C28.3853 7.77653 26.7011 8.10448 26.4871 8.14312C26.177 8.19752 27.2485 7.97489 26.0281 8.1956C25.8265 8.23226 23.8598 8.6417 26.4033 8.18039C24.4478 8.54451 23.7101 8.69841 23.2184 8.78787C22.8599 8.85403 22.6333 8.88836 22.1551 8.96109C19.9071 9.58381 20.4932 9.26976 19.6008 9.48577C17.2487 10.1139 17.9625 10.0378 17.8386 10.0711C16.9554 10.2417 10.7177 12.7067 9.37813 13.6884C9.8672 13.2377 14.0958 11.3061 15.0981 10.9957C18.3237 9.7055 10.5494 12.8039 12.8545 11.779C11.8959 12.2281 10.957 12.7144 10.0467 13.2393C8.3778 14.1805 10.5846 12.6109 6.34632 15.535C5.66225 16.0351 9.35036 13.4782 8.6342 14.0226C8.16191 14.2878 5.74404 16.0246 5.73379 16.0985C5.67607 16.1213 7.84335 14.5355 7.51806 14.8086C7.12706 15.0722 4.84487 16.75 3.81437 17.9042C3.53281 18.2004 3.43885 18.451 3.41472 18.487C3.4074 18.5276 3.40851 18.3255 3.79201 17.8833C4.06 17.5937 4.42993 17.2186 4.93075 16.771C4.47528 17.1757 4.10057 17.5321 3.77312 17.8656C3.25416 18.4092 3.04024 18.977 3.21972 19.9813C3.30942 20.3994 3.16567 19.5383 3.23271 19.2737C3.25602 19.1377 3.26191 19.1171 3.27104 19.4193C3.29828 19.7116 3.30197 20.4264 3.9964 21.6623C4.22202 22.0518 4.5708 22.4558 5.18567 22.8657C5.25648 22.9385 4.34854 22.3867 3.97438 21.6751C3.5734 20.9924 3.40237 20.3077 3.39447 20.2758C3.35244 20.1557 3.43115 20.7777 3.47951 20.8864C3.50368 20.9518 3.61982 21.2722 3.88311 21.7279C4.27412 22.7017 6.49058 23.8703 8.91618 24.5499C10.8467 25.0758 13.0777 25.2479 13.874 25.3651C13.0068 25.2765 21.7551 25.9953 22.745 25.9869C22.994 25.9957 22.0665 25.9099 22.3324 25.9208C24.0107 25.998 28.6345 26.2684 30.7886 26.3452C33.1794 26.4345 32.9137 26.3921 33.0352 26.3969C34.0711 26.4337 33.2412 26.4262 33.8784 26.4474C34.8712 26.4867 41.5538 26.6784 41.9082 26.6782C42.0085 26.6794 40.8983 26.6171 42.3828 26.6475C42.6563 26.6519 42.4419 26.6932 46.8068 26.7714C52.012 26.8597 43.1837 26.6425 45.3488 26.6455C48.7002 26.7803 48.5874 26.7147 49.5105 26.7384C49.8374 26.7466 52.158 26.8438 54.7094 26.8836C52.8975 26.8612 51.0517 26.8358 49.2285 26.8079C51.0168 26.8534 54.5209 26.9046 55.9881 26.938C56.7146 26.9547 56.1091 26.9876 57.6999 27.0115C58.0193 27.0154 59.3653 26.9353 55.2292 26.9143C54.9001 26.8721 56.855 26.9285 57.779 26.9321C57.9148 26.9326 58.4448 26.8795 59.6006 26.9348C59.8778 26.9467 56.8518 27.0881 64.6629 27.0633C64.9156 27.0624 64.0377 27.0286 64.2846 27.0272C64.448 27.0263 66.4725 27.0607 66.6755 27.0598C66.8981 27.0591 65.9471 27.023 66.2122 27.0214C67.5702 27.0131 69.3704 27.1315 66.5517 27.0906C67.4887 27.114 68.4349 27.137 69.3902 27.1598C68.3683 27.075 70.8953 27.1562 72.1881 27.1671C80.6023 27.2354 74.9676 27.1323 76.4137 27.1217C78.7327 27.103 76.9687 27.2134 80.4186 27.2049C80.7491 27.2033 76.5538 27.1185 84.7174 27.2115C83.5179 27.2048 82.2952 27.1975 81.1013 27.1899C81.7842 27.2668 85.4602 27.2186 85.725 27.2191C88.9098 27.2312 86.7932 27.2434 91.5104 27.2361C91.9343 27.2354 92.8598 27.2584 93.7761 27.2547C97.5397 27.2399 88.8061 27.2046 88.5731 27.1728C88.4624 27.1598 97.8264 27.2167 98.1607 27.2232C99.5275 27.2598 93.9067 27.2146 94.9808 27.2567C95.3601 27.275 108.74 27.3063 111.423 27.3255C113.215 27.3406 114.45 27.3804 115.17 27.39C115.698 27.397 115.946 27.3884 115.955 27.3431C116.827 27.4518 117.597 27.3826 117.998 27.3851C122.767 27.4189 122.8 27.4216 126.903 27.4501C127.811 27.4572 128.571 27.4979 128.895 27.4962C129.082 27.495 128.736 27.4565 129.65 27.4566C130.915 27.4544 138.552 27.5951 139.116 27.6202C139.682 27.6469 135.895 27.5859 136.574 27.6261C139.316 27.6664 141.94 27.6925 144.703 27.7215C145.845 27.7334 145.257 27.7499 145.752 27.7547C145.965 27.7584 149.93 27.7651 149.751 27.7547C149.369 27.7488 137.141 27.6309 140.361 27.6263C140.982 27.627 143.173 27.7019 142.825 27.6365C150.708 27.7344 158.571 27.7425 166.483 27.7053C169.516 27.6912 172.544 27.6723 175.579 27.6496C172.671 27.6963 169.603 27.7223 166.484 27.7378C162.854 27.756 159.2 27.7576 155.672 27.7585C154.767 27.7598 151.737 27.7464 152.097 27.778C156.527 27.7991 161.781 27.7776 166.484 27.7553C167.673 27.7499 168.906 27.7444 169.995 27.7409C170.167 27.7403 169.537 27.7726 170.18 27.7725C171.413 27.7726 175.292 27.6958 175.962 27.701C176.068 27.7029 173.853 27.7586 174.527 27.7762C176.252 27.8214 176.719 27.6844 178.199 27.6721C179.37 27.6642 187.126 27.6455 189.075 27.5793C191.134 27.5119 183.343 27.6214 183.914 27.5783C189.189 27.4854 194.525 27.4545 199.503 27.3773C199.59 27.3759 198.829 27.3594 199.939 27.3392C201.881 27.3038 202.38 27.3352 203.322 27.327C204.345 27.3182 207.923 27.2546 208.411 27.2603C208.474 27.2612 207.743 27.3123 207.633 27.3152C206.065 27.3572 205.515 27.3152 205.372 27.3168C204.844 27.3234 204.31 27.3512 203.823 27.3576C203.018 27.3683 202.577 27.3572 201.523 27.3715C200.787 27.3814 201.497 27.4052 200.789 27.4142C200.523 27.4177 197.75 27.3794 197.48 27.4631C197.404 27.5035 220.214 27.1556 222.498 27.0713C220.538 27.1016 218.586 27.1301 216.627 27.1573C220.602 27.1069 225.369 26.9425 225.711 27.0297C240.437 26.7215 255.172 26.3366 269.883 25.755C270.216 25.7426 270.482 25.7337 270.703 25.7271C272.249 25.6794 271.614 25.754 275.396 25.5725C274.273 25.6031 273.16 25.6318 272.044 25.6592C274.259 25.5905 284.069 25.1494 285.649 25.042C285.854 25.029 286.156 24.9599 288.589 24.82C290.78 24.6925 291.107 24.7135 292.283 24.652C293.257 24.6007 294.348 24.5227 294.643 24.5067C294.866 24.4947 294.956 24.5144 295.489 24.4854C297.162 24.3931 295.802 24.4087 297.486 24.382C297.079 24.4116 296.666 24.4413 296.256 24.4705C298.31 24.3521 301.077 24.2019 298.085 24.4196C297.572 24.4564 298.012 24.4031 297.628 24.4282C282.548 25.3527 294.603 24.6933 299.872 24.2933C301.228 24.2477 308.812 23.6626 309.071 23.6403C309.422 23.6227 308.129 23.7548 309.827 23.6444C310.192 23.6393 320.326 22.7173 316.675 23.0921C315.929 23.1748 311.068 23.5823 309.889 23.6736C312.651 23.5384 319.102 22.8424 319.829 22.7668C322.762 22.4967 314.198 23.3728 320.812 22.7468C325.879 22.2429 321.12 22.6733 323.064 22.4534C324.159 22.339 329.9 21.7495 329.723 21.688C331.697 21.4428 330.543 21.6202 330.788 21.5936C331.024 21.5722 334.881 21.0596 336.126 20.8928C336.275 20.8738 335.81 20.9772 335.965 20.9587C336.072 20.9458 336.705 20.8578 337.407 20.7546C338.582 20.5841 340.028 20.3508 340.119 20.3331C340.216 20.3157 339.321 20.4242 339.687 20.358C340.102 20.2965 343.648 19.6811 343.826 19.6174C344.111 19.5702 339.756 20.3473 340.466 20.1788C342.49 19.8715 345.732 19.1996 346.98 18.7947C346.681 18.9003 344.787 19.3536 344.113 19.4772C344.442 19.4045 348.45 18.3548 347.096 18.7584C347.947 18.4871 347.362 18.6463 347.829 18.4801C347.963 18.4428 349.125 18.0246 349.321 17.9117C349.361 17.9073 348.17 18.3386 348.402 18.2359C348.614 18.1495 349.615 17.7963 350.405 17.2916C351.197 16.8089 351.81 16.0897 351.921 15.9711C352.207 15.6467 351.86 16.0962 351.413 16.5407C350.974 16.9908 350.343 17.3937 350.242 17.4606C350.228 17.4699 350.75 17.1903 351.201 16.8107C351.656 16.4396 352.088 15.9398 352.104 15.9267C352.168 15.8812 351.731 16.4187 351.276 16.816C350.825 17.2218 350.306 17.5184 350.448 17.4569C351.022 17.1134 351.51 16.6956 351.987 16.1733C350.527 18.4183 344.977 19.3602 343.666 19.6877C345.784 19.2651 347.929 18.7328 349.364 18.1154C350.815 17.5124 351.498 16.8006 351.543 16.844C351.601 16.9171 350.242 17.9089 350.271 17.8538C350.394 17.8088 350.967 17.4827 351.435 17.0616C351.907 16.6486 352.313 16.1414 352.346 16.1084C352.398 16.052 352.423 16.0263 352.424 16.0277C352.424 16.0277 352.424 16.0277 352.424 16.0277C352.426 16.0336 351.879 16.7457 351.209 17.2759C350.547 17.818 349.698 18.1987 349.624 18.2384C349.373 18.394 350.788 17.7561 350.776 17.7421C350.787 17.8387 348.474 18.8812 349.272 18.563C350.151 18.3342 351.897 17.0545 351.908 16.9429C352.058 16.7979 351.488 17.4347 350.702 17.9152C349.929 18.4067 348.964 18.7592 348.912 18.7858C348.873 18.8478 350.795 17.9951 350.818 17.9203C350.885 17.9241 349.495 18.6903 348.878 18.9104C348.439 19.101 349.745 18.6142 349.516 18.7029C349.391 18.8615 345.742 19.9125 345.54 19.9109C345.27 19.9793 346.141 19.8032 346.019 19.8373C345.844 19.8935 344.636 20.1507 344.793 20.1246C344.934 20.1719 349.567 18.986 349.505 18.8953C349.503 19.0364 344.613 20.4341 349.166 19.1457C349.197 19.1478 350.253 18.6773 350.276 18.6504C350.596 18.505 349.947 18.8568 349.696 18.972C349.429 19.0431 349.739 19.1841 351.613 17.8983C349.896 19.148 348.738 19.3534 348.272 19.5541C347.783 19.7177 347.878 19.6956 348.18 19.6105C348.806 19.4543 350.229 18.8727 349.668 19.1456C349.251 19.43 346.079 20.3309 346.06 20.3053C346.384 20.266 347.391 19.9772 347.732 19.8891C347.936 19.8682 345.085 20.6165 345.734 20.4753C346.078 20.4448 349.083 19.5851 349.201 19.4843C350.375 19.0431 348.954 19.6323 349.214 19.5438C349.399 19.5253 351.146 18.6911 351.172 18.6212C351.275 18.6525 348.904 19.7971 348.377 19.9116C347.992 20.0549 349.456 19.5744 349.188 19.668C347.564 20.3266 343.989 21.0338 347.432 20.291C347.639 20.2504 348.917 19.844 348.96 19.8193C349.758 19.5809 347.407 20.3752 346.983 20.4766C346.263 20.7229 349.673 19.7471 346.838 20.5638C348.94 19.9751 350.286 19.7888 352.443 18.0233C349.393 20.4424 346.83 20.5043 346.37 20.7752C345.848 20.837 347.219 20.9694 350.998 19.1982C348.6 20.3616 348.867 20.1439 348.141 20.4152C347.677 20.6046 344.108 21.3506 345.773 21.1132C345.973 21.1018 348.15 20.5042 347.475 20.7192C342.265 21.9662 347.372 20.8043 347.374 20.7747C347.351 20.9016 342.044 22.0636 337.681 22.6319C335.292 22.9742 333.163 23.2377 332.386 23.339C329.844 23.6706 327.599 23.9844 327.03 24.0479C325.224 24.2473 326.721 24.0498 326.315 24.0825C325.888 24.125 320.736 24.7176 320.464 24.7342C319.462 24.8178 320.469 24.6817 320.368 24.6894C319.125 24.7977 312.161 25.4491 310.213 25.5867C310.285 25.608 314.178 25.2853 311.754 25.5275C308.904 25.8084 308.741 25.7067 308.662 25.7091C296.047 26.6972 283.428 27.3809 270.792 27.9016C270.359 27.9193 269.925 27.9369 269.49 27.9544C269.529 27.9666 270.04 27.9543 270.793 27.9279C273.253 27.8442 278.23 27.594 278.391 27.5904C279.024 27.5856 274.903 27.7928 270.794 27.961C267.472 28.0986 264.107 28.2159 263.329 28.2346C264.658 28.1992 266.032 28.1605 267.361 28.1218C265.075 28.2787 259.986 28.3744 256.663 28.5106C255.593 28.5551 257.649 28.5139 257.605 28.5169C256.409 28.5827 254.467 28.6245 255.915 28.5431C252.958 28.6709 253.407 28.6194 251.138 28.6857C251.022 28.689 251.991 28.6871 250.205 28.7516C249.371 28.7827 244.902 28.9096 244.302 28.9486C244.057 28.9655 246.328 29.0075 246.603 28.9093C251.467 28.8138 248.157 28.8239 250.043 28.7709C250.33 28.762 249.673 28.8356 254.42 28.6643C253.523 28.7851 248.045 28.8811 247.102 28.9172C245.164 28.9963 253.153 28.8116 254.607 28.691C253.921 28.7833 255.18 28.6831 256.952 28.628C258.894 28.5671 258.052 28.6159 259.105 28.5807C261.977 28.4829 260.791 28.474 263.165 28.4346C260.85 28.3788 267.22 28.2699 269.09 28.2285C266.06 28.356 263.044 28.4737 260.015 28.5847C260.188 28.5861 260.361 28.5875 260.533 28.5889C259.74 28.6152 258.944 28.6412 258.143 28.6669C258.271 28.6556 258.399 28.6443 258.527 28.633C254.424 28.815 253.413 28.7917 253.081 28.8021C248.768 28.9299 243.788 29.0695 239.427 29.1804C238.774 29.1964 239.223 29.2336 234.455 29.3132C232.934 29.3379 234.369 29.2685 232.645 29.3143C230.491 29.4608 230.53 29.3824 229.889 29.3969C228.049 29.4382 226.925 29.4861 226.755 29.49C224.482 29.543 221.15 29.6072 218.657 29.6587C218.611 29.6599 219.911 29.6645 218.287 29.6871C217.714 29.6953 212.608 29.6656 208.143 29.7804C209.303 29.7696 210.46 29.7584 211.628 29.7465C210.258 29.7616 200.687 29.9455 203.029 29.9419C204.47 29.9408 207.961 29.8024 208.354 29.8739C205.161 29.914 187.572 30.1905 186.206 30.1791C186.017 30.1787 187.178 30.1398 186.917 30.1395C186.722 30.1398 182.686 30.1907 182.155 30.1859C181.84 30.1835 183.613 30.1491 183.468 30.1414C183.361 30.1368 178.307 30.1771 178.02 30.2109C179.271 30.1868 182.725 30.1625 180.908 30.2079C180.67 30.2137 179.478 30.205 179.18 30.2121C176.537 30.2774 184.418 30.1898 185.657 30.174C180.679 30.2721 173.036 30.2962 167.276 30.357C164.963 30.3449 170.737 30.2941 168.091 30.2892C167.417 30.288 166.898 30.2874 166.499 30.2877C163.542 30.2891 166.626 30.3357 166.484 30.3393C165.104 30.3758 160.511 30.2501 160.508 30.3581C158.527 30.3463 159.192 30.3324 156.386 30.3484C156.748 30.3559 157.114 30.3633 157.485 30.3705C154.387 30.4419 147.847 30.2506 148.328 30.2386C149.648 30.2158 153.076 30.2782 153.351 30.2766C153.792 30.2745 154.965 30.1719 159.7 30.2619C161.625 30.1871 152.214 30.217 156.499 30.1651C153.607 30.1909 141.704 30.053 139.994 30.0502C139.789 30.0517 140.743 30.1388 137.803 30.0626C136.409 30.0263 139.771 30.0697 139.134 30.0443C137.783 29.9975 124.834 29.7938 115.164 29.7919C110.704 29.7835 106.974 29.7738 105.385 29.7686C105.058 29.7674 105.178 29.7449 104.856 29.7438C103.856 29.7408 100.235 29.7598 98.4547 29.7404C102.157 29.8006 94.9719 29.77 93.1571 29.7539C90.3802 29.7307 90.5618 29.6909 89.3757 29.6749C84.7577 29.6136 77.6186 29.6517 74.0539 29.5254C74.2383 29.6173 67.8613 29.4184 64.9614 29.3789C62.6783 29.3497 59.3969 29.3617 62.4595 29.4404C58.5056 29.3827 54.4284 29.3342 50.7132 29.2688C50.1118 29.2582 50.9383 29.2478 49.9155 29.2304C49.8246 29.229 49.6849 29.2523 48.7847 29.2369C41.4199 29.103 44.9983 29.1218 43.6265 29.0757C42.8671 29.0487 42.2984 29.0302 41.8716 29.0181C46.1581 29.1216 51.1182 29.2046 52.4363 29.2272C51.3199 29.1547 42.933 29.049 40.4654 28.9617C40.3807 28.959 40.6766 28.9352 40.5906 28.9328C40.5888 28.9327 40.587 28.9327 40.5852 28.9326C39.7078 28.912 33.7978 28.7461 35.0104 28.8192C35.3504 28.8401 38.0551 28.9256 41.2305 29.0026C40.3628 28.9873 41.0095 29.0392 40.8564 29.0368C39.0512 29.0103 34.4267 28.8388 32.8711 28.7776C32.4934 28.7636 32.5205 28.787 32.4587 28.785C30.9768 28.7274 31.5783 28.6849 30.0975 28.6958C27.4479 28.5175 35.0588 28.8641 34.5189 28.7867C34.0929 28.788 17.2166 28.0394 17.2085 27.9936C17.1501 27.9823 16.9095 27.9561 16.4397 27.9089C15.3652 27.8257 10.6678 27.3399 9.80004 27.1333C9.65311 27.1082 9.69889 27.1796 9.5217 27.1456C9.46491 27.1346 9.31469 27.1045 9.10901 27.058C8.88132 27.0067 8.54098 26.9244 8.21992 26.8237C6.49589 26.3084 2.89544 25.023 1.84159 22.9101C1.79563 22.8328 1.75181 22.7565 1.71214 22.6856C1.75236 22.7613 1.7948 22.8383 1.83723 22.9127C2.51279 24.1117 3.62398 24.9263 4.67321 25.4776C3.31085 24.7901 2.30483 23.8104 1.81439 22.9259C0.903443 21.2828 0.913863 20.5405 0.901083 20.6679C0.918045 20.7757 1.09969 21.6479 1.59801 22.605C1.65909 22.7224 1.71924 22.8361 1.78181 22.9448C1.78314 22.9471 1.78446 22.9494 1.78579 22.9517C2.98668 25.0912 5.58137 25.9316 5.5493 25.9702C5.67825 25.9261 3.32803 25.4775 1.74194 22.9678C0.822526 21.445 0.390628 19.3237 0.921097 17.8625C1.44651 16.439 2.11442 16.0014 1.53694 16.6951C1.35405 16.8071 0.476647 18.7253 0.768302 20.0613C0.975812 21.3621 1.28731 22.1104 0.871633 20.5479C0.834711 20.3337 0.667717 19.5689 0.804006 18.6285C0.915116 17.6832 1.48574 16.6765 1.97925 16.1844C2.21258 15.9353 2.38548 15.7654 2.41739 15.7348C2.67735 15.4932 2.44279 15.7195 1.99884 16.2027C1.16988 16.9529 0.568636 18.9349 0.884818 20.243C1.12004 21.5659 1.61759 22.3564 1.45145 21.9995C0.756892 20.6066 0.356598 17.9542 2.04234 16.2435C2.40839 15.8528 2.7835 15.4884 3.15851 15.145C3.92164 14.4556 4.10665 14.2892 4.20053 14.208C5.68227 13.0443 4.86331 13.726 5.36867 13.3466C5.60738 13.1048 8.70277 11.1175 8.1619 11.5735C19.0389 6.47564 10.7768 9.341 4.72765 13.7747C6.54926 12.2409 10.6076 10.0657 12.514 9.31768C13.1944 9.03302 12.7741 9.1619 13.9284 8.70505C15.1617 8.20548 18.8915 6.94244 22.732 6.24654C26.197 5.58321 29.6755 4.97032 31.1541 4.73651C29.2623 5.06592 29.8221 5.00497 31.2805 4.75942C32.7308 4.52037 31.5033 4.6738 31.7859 4.62276C32.0884 4.53979 38.9397 3.57443 40.089 3.46096C34.9265 4.13876 36.1061 4.00992 40.4778 3.46917C39.8504 3.55403 39.2173 3.64222 38.579 3.73395C41.1532 3.37296 46.5621 2.87146 48.0695 2.7316C48.3081 2.7074 47.4476 2.75665 47.5821 2.74308C48.8792 2.60261 53.338 2.27672 53.5511 2.25696C53.743 2.23354 51.8071 2.35685 52.5221 2.29024C52.6929 2.27437 54.4779 2.1766 56.3119 2.04442C56.9675 1.99701 56.571 1.99621 56.7363 1.98359C58.1208 1.88074 57.3338 1.97363 59.8779 1.81184C61.7672 1.69529 63.1371 1.57355 65.766 1.45982C57.247 1.84884 64.4037 1.47865 67.9654 1.30646C68.5489 1.27904 68.0466 1.24533 71.4621 1.13051C64.2334 1.52329 73.5406 1.08321 75.4521 1.03114C75.5562 1.02796 75.6036 1.05859 76.5456 1.02773C76.6238 1.02519 76.508 1.00659 77.3663 0.977138C85.6382 0.71368 80.3437 0.897845 81.9138 0.873418C82.5796 0.862578 86.5997 0.732654 87.6842 0.710688C87.9362 0.705261 87.8172 0.730453 88.7981 0.709211C90.4994 0.672569 91.995 0.621202 93.1461 0.599744C93.2676 0.597862 93.3265 0.631724 95.4081 0.587715C96.0011 0.575406 96.6732 0.552803 95.8252 0.554876C93.0452 0.559477 87.6081 0.721343 84.4754 0.767173C81.5432 0.804326 90.77 0.587552 91.1965 0.588726C91.3698 0.585313 89.5911 0.636672 91.4 0.606399C92.9783 0.579887 95.7742 0.471544 98.1255 0.45456C98.3189 0.452697 100.155 0.482903 100.067 0.487286C100.012 0.489505 97.137 0.538329 97.554 0.548502C97.599 0.549351 99.4486 0.524957 99.6584 0.534141C99.9415 0.544552 100.712 0.671978 101.097 0.671138C102.084 0.668678 101.44 0.644612 102.082 0.63989C103.505 0.627385 108.195 0.630434 108.38 0.58326C107.584 0.585813 106.796 0.588857 106.016 0.592382C110.394 0.554569 108.543 0.549399 109.163 0.535862C109.845 0.522124 109.657 0.564477 111.109 0.560571C111.303 0.559885 113.753 0.544726 115.612 0.53317C116.678 0.526071 117.53 0.518732 117.487 0.512243C116.533 0.522385 115.959 0.525581 115.612 0.524743C114.681 0.522844 115.317 0.494204 115.202 0.493885C114.591 0.492402 113.816 0.52392 113.012 0.526728C107.409 0.549469 113.05 0.475951 111.73 0.470829C111.273 0.469051 110.374 0.498543 110.184 0.498419C109.573 0.497883 109.537 0.46592 109.113 0.471173C108.112 0.483662 109.28 0.521719 109.202 0.524633C108.292 0.558 104.861 0.549447 106.999 0.483237C105.714 0.475246 105.568 0.536922 104.565 0.521663C102.531 0.492746 105.564 0.476615 106.376 0.46296C109.35 0.412325 110.198 0.42858 114.408 0.404371C114.797 0.402313 115.205 0.398597 115.611 0.394195C116.745 0.381418 117.869 0.362152 118.393 0.359783C118.854 0.357292 122.992 0.452029 123.118 0.292731C124.76 0.305836 127.266 0.408768 128.942 0.403321C130.45 0.398349 129.973 0.34216 130.114 0.339916C130.347 0.336371 132.126 0.340576 132.737 0.332712C133.452 0.323376 133.093 0.301749 134.233 0.293238C137.098 0.272412 136.997 0.330333 137.29 0.334174C140.647 0.379852 139.183 0.296981 139.93 0.291004C140.676 0.28451 150.39 0.330217 152.468 0.315038C151.625 0.324806 150.786 0.33467 149.952 0.344632C151.444 0.383347 153.047 0.3282 153.075 0.392686C153.401 0.289293 156.454 0.365776 157.393 0.365528C157.76 0.365337 157.731 0.347539 158.191 0.347943C160.015 0.349314 164.002 0.374787 164.992 0.368922C169.196 0.342772 158.474 0.24659 157.603 0.241535C159.329 0.246155 168.875 0.251467 164.472 0.188273C163.789 0.178503 162.584 0.221564 162.203 0.222319C159.629 0.227119 161.653 0.191047 161.451 0.186515C161.11 0.179136 159.414 0.21488 158.956 0.208915C158.807 0.207015 159.772 0.171632 157.299 0.164602C158.533 0.130579 165.433 0.179921 166.368 0.174648C166.695 0.172751 164.654 0.0874796 170.583 0.183029C170.514 0.175532 170.445 0.168036 170.376 0.160541C173.704 0.16876 176.978 0.177796 180.291 0.187855C179.933 0.203173 178.086 0.229572 180.413 0.23155C181.754 0.232739 180.762 0.191531 180.884 0.190934C182.098 0.182755 203.451 0.292159 207.594 0.312624C209.003 0.318559 212.926 0.309787 213.227 0.310949C215.019 0.317531 221.355 0.373061 222.62 0.376446C223.409 0.378359 222.659 0.342799 223.364 0.3484C224.019 0.353659 223.34 0.379778 223.535 0.382183C225.143 0.401837 237.402 0.438043 240.309 0.486273C238.523 0.465636 229.654 0.470101 229.836 0.492776C229.876 0.495915 232.022 0.532077 232.471 0.523729C233.21 0.554386 235.739 0.490934 237.105 0.515331C237.261 0.518118 236.647 0.558632 239.095 0.582555C239.943 0.590817 242.161 0.570586 244.372 0.62431C247.609 0.625723 264.514 0.80471 265.686 0.767095C265.722 0.764824 263.318 0.730322 264.943 0.722866C267.094 0.712983 265.168 0.786317 267.661 0.812836C268.011 0.816396 274.996 0.861934 275.192 0.858317C277.276 0.82549 271.261 0.757854 271.326 0.752809C271.559 0.740042 276.542 0.770695 276.78 0.776156C276.977 0.781276 272.823 0.813352 277.81 0.828587C277.243 0.816186 276.672 0.803786 276.099 0.791388C278.447 0.795002 278.656 0.842031 279.219 0.849357C280.933 0.872085 282.886 0.819432 285.657 0.927757C286.389 0.956485 285.173 0.971183 285.264 0.975337C286.138 1.01304 287.282 0.941682 288.634 1.01385C288.726 1.01922 285.628 1.02843 291.054 1.07576C290.684 1.06672 290.313 1.05767 289.94 1.04862C290.667 1.04177 296.252 1.08395 296.937 1.09355C299.144 1.12281 297.231 1.14674 299.422 1.16213C298.025 1.09178 304.646 1.14713 304.268 1.19295C304.556 1.1765 305.299 1.17514 306.241 1.18179C308.451 1.19767 311.632 1.25329 313.455 1.27391C315.113 1.29228 318.477 1.30301 319.055 1.31298C319.708 1.32437 319.518 1.36419 320.673 1.38707C320.97 1.39319 324.463 1.40337 327.513 1.48737C328.068 1.50302 329.376 1.59206 328.242 1.59465C326.398 1.60008 322.825 1.49859 322.87 1.54149C322.936 1.58694 327.677 1.61958 328.998 1.64421C334.947 1.75477 331.514 1.75495 331.662 1.77119C332.054 1.81158 335.323 1.86014 335.429 1.86557C335.985 1.88835 333.716 1.88066 333.657 1.90157C333.642 1.92889 336.733 2.0285 336.035 2.02695C335.029 2.02349 332.138 1.93801 331.966 1.93784C329.558 1.93053 332.846 2.04214 333.732 2.08786C334.01 2.10184 332.901 2.10121 333.135 2.10762C336.623 2.20462 333.86 2.02715 336.165 2.07284C338.224 2.11485 335.579 2.11367 335.64 2.11726C335.783 2.1218 338.164 2.1638 338.589 2.18686C338.743 2.19461 332.406 2.17609 332.685 2.21923C334.727 2.24126 336.73 2.26486 338.77 2.29301C338.912 2.34341 336.034 2.25865 335.691 2.25873C335.072 2.25874 336.807 2.31133 336.725 2.32543C336.697 2.33455 334.65 2.33608 336.492 2.38036C337.107 2.39567 338.4 2.38221 340.649 2.45986C332.844 2.36454 338.212 2.48726 338.476 2.50848C338.679 2.52916 334.968 2.50454 339.49 2.57709C339.671 2.67473 339.423 2.60522 338.104 2.59866C336.509 2.59245 340.182 2.68264 334.422 2.56616C334.71 2.61335 339.406 2.68897 339.609 2.69794C339.816 2.7049 338.811 2.70827 339.169 2.72215C343.503 2.88937 340.51 2.7937 341.773 2.87276C341.91 2.87865 346 2.99055 342.87 2.92864C337.186 2.8257 334.812 2.73649 333.845 2.85326C338.063 2.97307 343.153 2.98782 344.429 3.01966C346.411 3.06591 344.338 3.04234 344.592 3.05633C344.695 3.06063 346.351 3.10076 346.398 3.10494C347.588 3.22815 338.901 2.93084 336.141 2.91431C336.91 2.94212 337.561 2.96835 338.348 2.99741C337.324 2.98006 336.363 2.96471 335.346 2.94914C340.128 3.05868 335.467 2.96155 334.341 3.02751C334.079 3.04193 337.187 3.05853 333.622 3.05479C336.254 3.10739 335.447 3.11132 337.78 3.12727C337.762 3.15847 332.391 3.10975 330.265 3.09885C337.732 3.24621 333.501 3.05717 339.912 3.23286C341.118 3.21425 338.054 3.16576 338.292 3.16383C339.201 3.15574 341.298 3.23044 343.855 3.20321C344.268 3.19907 342.52 3.1144 345.109 3.17809C345.396 3.18468 347.057 3.26674 347.017 3.26903C346.913 3.28038 346.465 3.27195 345.991 3.2618C345.571 3.25299 345.137 3.24255 345.102 3.2477C345.043 3.25686 346.869 3.29837 346.867 3.30243C346.934 3.33974 345.337 3.27452 345.576 3.29245C346.077 3.32831 352.614 3.59116 344.069 3.33524C351.154 3.48225 344.949 3.30609 342.208 3.27034C341.467 3.25904 341.335 3.27781 340.312 3.26566C339.018 3.25064 337.478 3.21392 336.832 3.20719C336.111 3.20007 340.204 3.31691 334.281 3.20642C337.305 3.30257 342.601 3.34158 345.582 3.45656C351.543 3.69221 341.426 3.4324 340.358 3.43651C340.074 3.43294 341.025 3.48031 340.835 3.47846C340.489 3.47157 334.747 3.36004 334.202 3.37789C333.646 3.3932 336.282 3.40935 336.488 3.43829C336.553 3.45408 329.698 3.38122 333.403 3.44814C335.972 3.49279 340.821 3.51155 341.574 3.60187C337.82 3.53268 333.934 3.47908 330.152 3.43222C332.256 3.48933 334.327 3.54787 336.417 3.60999C332.083 3.54814 328.448 3.46817 324.365 3.45669C334.086 3.6709 321.235 3.48671 321.051 3.49837C320.963 3.50352 324.849 3.62285 325.465 3.64432C322.026 3.62616 311.749 3.52697 317.756 3.68285C316.713 3.65079 313.945 3.67039 314.028 3.67512C314.379 3.71771 320.171 3.75722 319.239 3.78252C318.076 3.81044 316.651 3.73832 314.902 3.72377C309.528 3.6804 308.444 3.75566 306.216 3.78763C304.964 3.80834 303.169 3.81233 299.939 3.76966C300.11 3.7786 300.282 3.78753 300.452 3.79646C291.007 3.69594 281.559 3.60488 272.112 3.51926C268.411 3.55263 258.552 3.51725 253.743 3.47688C252.755 3.46843 247.999 3.40255 247.633 3.39438C246.967 3.37872 250.633 3.39965 248.977 3.36751C248.627 3.36052 240.54 3.29251 241.118 3.33171C242.029 3.34173 244.849 3.34286 245.315 3.35432C248.591 3.43331 223.646 3.22629 222.416 3.24595C222.968 3.2606 223.52 3.27525 224.071 3.28993C222.5 3.27503 220.926 3.26025 219.35 3.24561ZM291.656 0.941346C292.604 0.914402 295.009 0.962375 296.371 0.964955C298.32 0.968758 301.597 0.863895 300.188 0.986745C297.329 0.970623 294.543 0.956072 291.656 0.941346ZM250.201 0.56547C252.091 0.597533 250.628 0.663342 249.072 0.621041C248.899 0.616269 247.636 0.522286 250.201 0.56547ZM270.139 0.747445C270.045 0.747712 268.427 0.733254 268.367 0.731613C266.897 0.689788 271.841 0.734086 270.139 0.747445ZM173.794 0.230453C175.884 0.234714 174.369 0.160085 173.073 0.183944C172.992 0.185459 173.657 0.23012 173.794 0.230453ZM175.281 0.237662C176.905 0.305417 180.202 0.192731 177.584 0.195335C177.329 0.19561 175.205 0.234342 175.281 0.237662ZM256.979 0.643483C256.768 0.665666 254.814 0.640249 253.973 0.628654C253.997 0.607154 256.165 0.64026 256.979 0.643483ZM207.225 0.340722C207.142 0.358711 213.961 0.394239 214.428 0.372489C213.349 0.376741 207.304 0.324204 207.225 0.340722ZM189.729 0.282311C189.901 0.286262 192.263 0.291977 192.194 0.275245C191.04 0.248383 188.95 0.264275 189.729 0.282311ZM154.962 0.161398C154.827 0.165305 156.611 0.273744 152.413 0.195718C151.794 0.184309 154.004 0.161668 153.786 0.157468C153.324 0.149123 152.96 0.144929 152.667 0.1437C154.641 0.139168 156.624 0.139925 156.829 0.146782C157.746 0.178993 155.015 0.159727 154.962 0.161398ZM136.714 0.212242C136.327 0.228996 133.72 0.218891 133.149 0.211902C133.049 0.210577 133.482 0.165702 132.335 0.168988C131.419 0.171778 132.784 0.217647 131.005 0.210451C129.167 0.203429 131.622 0.170179 131.452 0.167916C131.269 0.164723 128.389 0.186281 128.489 0.159628C128.549 0.139649 131.61 0.152117 132.33 0.148113C133.282 0.142776 132.124 0.10963 133.721 0.116963C134.729 0.121625 134.171 0.179513 134.383 0.182497C134.568 0.184733 138.087 0.153211 136.708 0.212056C136.71 0.212118 136.712 0.21218 136.714 0.212242ZM152.137 0.145154C152.285 0.143498 152.458 0.142817 152.667 0.1437C152.489 0.144111 152.312 0.144655 152.137 0.145154ZM286.163 0.919239C285.173 0.892918 288.122 0.895056 289.239 0.928262C289.273 0.947399 286.289 0.923032 286.163 0.919239ZM150.329 0.188787C147.453 0.168975 149.555 0.152563 152.137 0.145154C151.318 0.154392 151.299 0.195522 150.329 0.188787ZM232.471 0.523729C232.348 0.518638 232.271 0.511408 232.261 0.500263C232.583 0.514393 232.612 0.521085 232.471 0.523729ZM225.722 0.462734C223.408 0.48267 228.114 0.509449 228.085 0.485201C228.071 0.475977 225.816 0.461927 225.722 0.462734ZM171.103 0.217756C171.316 0.221816 168.014 0.312392 172.808 0.252411C170.247 0.231481 172.953 0.229778 172.908 0.220718C172.805 0.19457 168.507 0.204623 167.571 0.190711C166.831 0.234204 170.398 0.20435 171.098 0.217737C171.099 0.217744 171.101 0.21775 171.103 0.217756ZM103.806 0.278901C104.415 0.246036 106.189 0.239125 107.447 0.231802C106.854 0.262838 105.058 0.268374 103.806 0.278901ZM216.711 29.7256C208.213 29.9059 207.096 29.8127 214.886 29.7181C215.043 29.7163 217.225 29.7049 216.711 29.7256ZM143.692 30.3027C142.891 30.2468 145.543 30.2667 147.285 30.2981C147.693 30.3055 149.131 30.3632 147.474 30.3617C147.518 30.3046 144.961 30.2629 143.692 30.3027ZM148.703 0.216362C147.888 0.246684 145.24 0.219747 143.892 0.213264C144.71 0.188038 147.515 0.204182 148.703 0.216362ZM188.761 30.0985C187.859 30.1057 187.251 30.1543 187.406 30.156C188.107 30.1637 189.776 30.1098 188.761 30.0985ZM157.065 0.2391C157.176 0.258306 153.77 0.268637 153.522 0.221162C154.261 0.226095 156.974 0.226874 157.065 0.2391ZM106.129 0.27284C106.648 0.278078 103.952 0.317877 103.071 0.317709C103.155 0.296109 105.787 0.268741 106.129 0.27284ZM174.322 30.261C173.51 30.2644 171.512 30.2789 171.292 30.2972C171.019 30.3205 173.949 30.2904 174.322 30.261ZM323.649 24.5916C323.764 24.5891 320.653 24.9602 319.285 25.0737C316.66 25.2996 323.55 24.6074 323.649 24.5916ZM197.243 29.9662C199.791 29.9696 196.96 29.9715 197.074 30.0114C198.785 29.9895 203.022 29.928 200.102 29.9305C199.532 29.9311 198.046 29.9577 197.243 29.9662ZM194.912 29.9844C194.637 30.0017 192.806 30.0685 194.39 30.0444C195.132 30.033 196.288 29.97 194.912 29.9844ZM304.448 26.2813C302.182 26.4198 312.57 25.6463 312.863 25.6094C313.023 25.5993 313.127 25.5936 313.187 25.5913C313.569 25.5479 315.528 25.3749 315.758 25.3833C315.168 25.4341 313.566 25.5754 313.378 25.5877C313.298 25.5932 313.237 25.597 313.196 25.5992C312.513 25.6938 304.869 26.267 304.448 26.2813ZM287.225 27.3332C289.801 27.1374 290.287 27.1994 290.058 27.216C287.221 27.4143 289.069 27.2416 288.983 27.2434C288.771 27.2505 286.791 27.391 287.233 27.3327C287.231 27.3329 287.228 27.333 287.225 27.3332ZM300.916 26.5162C301.009 26.5093 303.21 26.3578 303.29 26.3529C305.073 26.2589 298.919 26.6816 300.916 26.5162ZM122.933 0.281631C121.378 0.27473 122.897 0.23839 123.945 0.249369C124.032 0.250493 124.313 0.287898 122.933 0.281631ZM193.659 30.0104C193.306 30.0111 184.05 30.098 184.595 30.1412C185.381 30.1298 195.905 30.0236 193.659 30.0104ZM124.482 30.0054C126.12 30.0203 124.321 30.0523 123.467 30.0278C123.151 30.0185 124.055 30.0015 124.482 30.0054ZM161.699 0.295245C163.39 0.273436 163.039 0.361649 161.575 0.326942C161.518 0.325585 161.633 0.296099 161.699 0.295245ZM137.508 30.1889C131.883 30.1417 133.214 30.0092 140.531 30.1554C140.301 30.1594 140.072 30.1634 139.843 30.1674C148.298 30.2862 140.421 30.1889 138.353 30.1677C137.568 30.1606 138.226 30.1949 137.514 30.1892C137.512 30.1891 137.51 30.189 137.508 30.1889ZM115.912 29.9531C115.62 29.9464 115.371 29.9404 115.163 29.935C113.961 29.9034 114.201 29.892 115.163 29.8906C117.084 29.8858 121.929 29.9362 123.796 29.9445C120.927 29.9662 117.188 29.9399 122.267 30.0171C114.836 29.9817 117.918 29.9601 117.629 29.9532C117.26 29.9475 116.151 29.9584 115.912 29.9531ZM130.189 30.0612C130.511 30.0616 132.855 30.1136 133.712 30.1217C132.523 30.1419 128.116 30.0578 130.189 30.0612ZM269.16 28.2045C269.318 28.1743 269.673 28.1418 270.8 28.0957C271.059 28.085 271.358 28.0736 271.702 28.0613C271.477 28.0764 271.156 28.0951 270.8 28.1149C270.258 28.1452 269.634 28.178 269.16 28.2045ZM293.466 1.11086C294.77 1.12454 297.275 1.15841 296.506 1.12074C296.432 1.11738 293.479 1.09371 293.466 1.11086ZM166.772 30.2519C166.744 30.2517 166.647 30.2519 166.498 30.2525C165.135 30.26 159.68 30.2809 161.879 30.3018C162.338 30.3067 165.1 30.2952 166.499 30.2778C167.261 30.2683 167.583 30.2584 166.772 30.2519ZM203.329 29.8516C202.739 29.8606 200.34 29.9022 200.287 29.9097C200.126 29.9361 203.072 29.8786 203.329 29.8516ZM299.944 1.19998C300.095 1.20427 304.035 1.23656 303.604 1.21837C302.758 1.18329 299.37 1.18411 299.944 1.19998ZM117.255 0.360833C116.929 0.362716 116.502 0.33217 116.391 0.33212C116.336 0.332173 116.032 0.333444 115.611 0.33506C113.935 0.340598 110.598 0.357773 112.399 0.317165C112.546 0.313929 113.892 0.308295 115.611 0.305468C118.248 0.300905 121.882 0.301743 122.542 0.303427C122.973 0.34608 119.314 0.310739 118.391 0.317673C118.233 0.318893 118.128 0.355441 117.257 0.360643C117.257 0.360706 117.256 0.36077 117.255 0.360833ZM278.866 27.7523C279.11 27.7183 286.185 27.3429 286.093 27.3764C283.696 27.5087 281.269 27.6347 278.866 27.7523ZM275.285 27.9117C273.784 27.9587 277.286 27.7972 278.342 27.755C278.35 27.774 275.505 27.9057 275.285 27.9117ZM189.949 29.9345C189.241 29.9501 191.423 29.9633 190.935 29.9772C190.618 29.9861 189.04 29.9905 188.54 30.009C188.401 30.0148 190.001 30.0333 190.472 30.0257C191.138 30.0151 190.491 29.9934 191.219 29.984C193.62 29.953 195.749 29.9455 198.012 29.9129C198.216 29.9098 196.629 29.9113 198.374 29.8868C198.637 29.883 200.251 29.8914 202.328 29.855C206.914 29.6871 210.286 29.7276 216.103 29.585C215.887 29.5805 211.532 29.6345 211.274 29.6375C206.405 29.7084 197.688 29.8392 192.594 29.9031C191.296 29.9197 191.927 29.9321 191.361 29.9401C190.914 29.9463 191.441 29.9017 189.949 29.9345ZM292.776 1.12577C293.4 1.16934 295.555 1.16459 296.888 1.1788C296.422 1.14018 294.142 1.1463 292.776 1.12577ZM243.62 28.9769C242.935 28.9971 240.805 29.0418 240.628 29.0577C240.402 29.0789 243.477 29.0071 243.62 28.9769ZM83.4194 0.770374C83.3483 0.772892 81.6953 0.814643 81.6375 0.815371C80.1604 0.824006 85.1245 0.699274 83.4194 0.770374ZM43.8891 2.99248C42.6189 3.1303 41.399 3.28283 40.9501 3.30468C41.7506 3.21222 44.0497 2.95222 43.8891 2.99248ZM6.13319 26.1986C5.99942 26.1242 7.09234 26.5488 8.20156 26.8837C9.15763 27.1733 10.1372 27.3218 10.4171 27.3725C10.2989 27.3561 9.28295 27.2341 8.19182 26.9155C7.20506 26.6235 6.22254 26.2526 6.13319 26.1986ZM268.883 28.0885C269.998 28.0454 270.453 28.0129 270.795 27.9876C271.168 27.9601 271.407 27.941 272.166 27.9235C272.397 27.9181 273.158 28.0095 270.798 28.0676C270.747 28.0688 270.693 28.07 270.639 28.0712C270.183 28.0809 271.964 27.9794 268.883 28.0885ZM141.723 30.1708C142.31 30.151 144.143 30.1787 145.381 30.1913C145.115 30.2095 142.599 30.1796 141.723 30.1708ZM307.013 1.29894C308.127 1.34745 313.091 1.37108 311.864 1.33341C311.65 1.32771 307.755 1.30756 307.013 1.29894ZM142.838 0.329476C140.805 0.356752 145.014 0.370983 146.38 0.344316C145.762 0.345145 142.971 0.327593 142.838 0.329476ZM3.91963 14.3523C3.82898 14.3927 2.12636 15.9516 2.07264 16.054C2.0288 16.0985 1.99198 16.1361 1.96125 16.1675C1.72733 16.4187 1.76224 16.3722 1.95193 16.1588C2.4992 15.4565 5.15104 13.3207 3.91963 14.3523ZM56.8797 1.95227C56.1117 2.01902 50.9313 2.381 49.7724 2.46526C50.8733 2.31727 57.8767 1.84614 56.8797 1.95227ZM259.395 28.4538C261.029 28.397 262.61 28.3487 264.108 28.3045C263.8 28.3377 259.564 28.4646 259.395 28.4538ZM1.59801 22.605C1.65909 22.7224 1.71924 22.8361 1.78181 22.9448C1.78314 22.9471 1.78446 22.9494 1.78579 22.9517C1.78447 22.9494 1.78315 22.947 1.78184 22.9447C1.71701 22.8311 1.65573 22.7175 1.59801 22.605ZM222.57 29.4135C221.19 29.4333 221.477 29.4651 221.562 29.4646C222.603 29.456 224.128 29.3907 222.57 29.4135ZM294.363 1.19599C294.854 1.23444 297.109 1.22846 298.491 1.24942C298.084 1.21869 295.436 1.20199 294.363 1.19599ZM110.092 29.8664C108.77 29.8337 112.604 29.8143 115.164 29.8184C115.937 29.8198 116.564 29.8239 116.899 29.8306C116.934 29.8386 116.204 29.8453 115.163 29.8516C113.182 29.864 110.256 29.8703 110.092 29.8664ZM149.22 0.390334C149.352 0.417171 152.312 0.390793 151.684 0.37696C151.282 0.368063 149.136 0.373557 149.22 0.390334ZM120.441 29.863C121.101 29.8585 122.643 29.8956 122.101 29.9079C121.413 29.9235 120.264 29.8642 120.441 29.863ZM179.844 30.0232C179.541 30.0226 175.67 30.0859 177.266 30.0983C178.372 30.107 178.556 30.0666 178.819 30.0639C179.127 30.0619 185.36 30.0451 179.844 30.0232ZM70.6214 29.5882C72.0664 29.5937 73.8646 29.6239 75.4013 29.6377C74.7817 29.6488 71.2234 29.6172 70.6214 29.5882ZM137.804 0.382856C138.154 0.392817 147.866 0.411247 142.371 0.371213C142.046 0.36857 136.714 0.34918 137.804 0.382856ZM268.883 28.0885C268.592 28.0997 268.255 28.1117 267.862 28.1243C268.252 28.1102 268.59 28.0987 268.883 28.0885ZM242.691 28.9358C243.222 28.9023 240.545 28.9681 239.757 28.9983C239.512 29.0287 242.62 28.9408 242.691 28.9358ZM75.5171 29.6117C76.3929 29.6089 77.9991 29.6353 79.1092 29.6434C78.9151 29.6601 75.8892 29.6338 75.5171 29.6117ZM13.2475 27.6582C15.0308 27.8639 17.1802 28.0168 17.2277 27.9985C17.2648 28.0048 17.3517 28.015 17.498 28.0296C17.6596 28.047 19.5298 28.1668 20.3477 28.2222C25.3046 28.8059 1.28514 26.3757 15.2129 27.8093C14.5581 27.7647 13.9153 27.7166 13.2475 27.6582ZM63.8673 1.59524C64.8982 1.56687 67.6514 1.40403 66.9355 1.42721C66.4484 1.43965 62.86 1.61906 63.8673 1.59524ZM25.5978 5.80458C25.8855 5.75236 28.5903 5.23865 28.6477 5.21753C27.0903 5.47525 24.2603 6.03463 25.5978 5.80458ZM71.5506 1.27782C72.1932 1.25633 72.9872 1.183 72.9108 1.18401C72.2944 1.19082 70.478 1.29641 71.5506 1.27782ZM264.097 28.1537C263.176 28.1757 260.19 28.312 259.552 28.3618C259.431 28.3603 259.107 28.3642 258.51 28.3756C258.512 28.3755 258.514 28.3754 258.516 28.3754C257.707 28.416 233.691 29.0827 249.805 28.6803C250.31 28.667 249.613 28.6625 251.673 28.605C251.809 28.6012 251.877 28.6202 252.296 28.6084C253.257 28.5829 258.39 28.431 259.428 28.377C259.436 28.3806 259.503 28.382 259.645 28.3806C260.898 28.3695 264.827 28.1372 264.097 28.1537ZM20.2438 6.88808C20.7936 6.75664 22.5168 6.3893 22.7011 6.34132C21.8329 6.47691 18.9756 7.17282 20.2438 6.88808ZM138.104 0.459059C139.21 0.474961 142.077 0.449487 141.211 0.433455C140.668 0.423354 136.817 0.440579 138.104 0.459059ZM37.4983 3.86279C31.1021 4.74122 35.9671 4.0769 34.9928 4.24152C35.8412 4.10812 36.6441 3.98644 37.4983 3.86279ZM293.79 26.8061C292.777 26.8611 293.962 26.7363 295.1 26.6945C295.456 26.6817 294.367 26.7745 293.79 26.8061ZM339.868 22.3622C338.998 22.4607 343.242 21.7835 341.591 22.0937C341.521 22.1092 339.939 22.3551 339.868 22.3622ZM307.695 25.8146C307.013 25.8993 306.541 25.9409 304.6 26.0756C307.478 25.8527 304.805 26.025 307.695 25.8146ZM17.2085 27.9936C17.22 27.9958 17.2297 27.9975 17.2277 27.9985C17.2149 27.9964 17.2094 27.9948 17.2085 27.9936ZM77.5838 1.05445C78.3702 1.05591 80.6654 0.986543 79.9818 0.979072C79.9095 0.978103 77.9021 1.0234 77.5838 1.05445ZM259.552 28.3618C259.659 28.3631 259.605 28.3681 259.428 28.377C259.419 28.3736 259.465 28.3686 259.552 28.3618ZM65.5073 1.5582C65.5834 1.53168 62.1354 1.70193 62.023 1.71322C60.0452 1.8587 64.053 1.62636 65.5073 1.5582ZM160.775 0.528722C160.951 0.527064 159.821 0.471189 159.111 0.490031C158.564 0.504646 160.128 0.535048 160.775 0.528722ZM314.323 25.2586C315.416 25.1642 316.924 25.0277 317.217 25.0257C316.478 25.0907 314.302 25.2797 314.323 25.2586ZM338.208 22.5807C338.058 22.6065 337.883 22.6354 337.686 22.6668C336.259 22.8974 333.806 23.2274 332.162 23.427C332.109 23.4028 336.011 22.9146 337.685 22.6595C337.9 22.6279 338.077 22.6012 338.208 22.5807ZM267.043 28.0578C266.959 28.06 264.232 28.1506 264.603 28.1624C265.157 28.1807 267.808 28.0428 267.043 28.0578ZM155.484 0.48727C154.274 0.502338 157.058 0.563759 158.352 0.52469C159.012 0.50457 155.684 0.484632 155.484 0.48727ZM84.64 0.892646C86.2557 0.837944 82.2206 0.91044 81.687 0.954332C82.4149 0.936229 84.051 0.912 84.64 0.892646ZM30.0639 5.07105C35.1052 4.31922 32.339 4.63161 31.449 4.78626C31.3338 4.80571 29.9361 5.09007 30.0639 5.07105ZM319.577 1.59002C320.308 1.58752 317.58 1.51678 317.272 1.53944C317.053 1.55317 319.104 1.59139 319.577 1.59002ZM41.8716 29.0181C41.6552 29.0129 41.4413 29.0077 41.2305 29.0026C41.3886 29.0053 41.597 29.0102 41.8716 29.0181ZM99.2244 0.733609C95.6083 0.669946 96.0162 0.752702 95.7014 0.75616C95.0417 0.764735 93.4995 0.759091 92.2149 0.786935C93.6908 0.748373 95.1018 0.71345 96.5449 0.680218C95.4705 0.677206 85.454 0.829547 85.3004 0.861549C84.9983 0.893382 88.0999 0.815137 88.2058 0.816236C88.3383 0.816625 88.8354 0.877288 89.1322 0.874001C89.5716 0.862685 97.849 0.726141 99.2244 0.733609ZM40.5768 3.53961C39.7644 3.62823 39.5502 3.62724 39.16 3.68265C39.0304 3.7013 39.0107 3.73049 38.5729 3.79344C39.2474 3.7049 39.9121 3.62081 40.5768 3.53961ZM105.586 0.568097C106.599 0.591509 102.07 0.620106 101.918 0.619656C101.126 0.60533 104.812 0.546571 105.586 0.568097ZM67.2003 1.50165C67.3772 1.49309 70.836 1.35437 70.8097 1.33924C69.9108 1.35739 65.2411 1.5677 67.2003 1.50165ZM38.0365 3.86472C36.8147 4.01719 34.5212 4.3225 34.7908 4.32532C34.7925 4.32506 34.7943 4.32479 34.7961 4.32453C35.8843 4.16126 36.952 4.00996 38.0365 3.86472ZM151.314 0.563536C153.585 0.632572 152.503 0.548906 150.501 0.524217C149.896 0.551942 150.942 0.552308 151.314 0.563536ZM158.553 0.628117C159.211 0.640996 165.651 0.646782 164.675 0.610042C164.317 0.59671 160.598 0.61672 160.433 0.614036C160.171 0.609851 161.367 0.575365 159.371 0.577508C159.488 0.590569 158.337 0.623684 158.553 0.628117ZM153.195 0.608651C155.448 0.66253 155.933 0.573515 154.26 0.569429C153.609 0.567804 152.869 0.60089 153.195 0.608651ZM144.008 0.584771C144.806 0.594355 146.987 0.610082 148.465 0.582717C146.48 0.576663 144.465 0.571101 142.508 0.566207C142.281 0.582941 143.303 0.576287 144.014 0.584779C144.012 0.584776 144.01 0.584774 144.008 0.584771ZM351.487 18.9336C350.634 19.4169 351.203 19.1261 351.941 18.5902C352.695 18.0485 353.44 17.1665 353.495 17.1069C353.889 16.7007 352.322 18.5326 351.487 18.9336ZM333.486 2.59179C333.995 2.60972 334.338 2.64838 335.399 2.64761C334.346 2.60604 333.179 2.56357 332.123 2.5234C331.275 2.56786 332.946 2.57224 333.486 2.59179ZM337.672 2.86647C337.513 2.86525 338.371 2.96666 336.377 2.87513C335.04 2.81182 342.355 2.89973 343.708 2.97552C342.241 2.95902 339.042 2.87789 337.672 2.86647ZM350.539 3.57736C350.659 3.58269 347.813 3.48268 347.527 3.47408C345.799 3.39442 350.115 3.50459 350.539 3.57736ZM341.634 3.30126C342.971 3.34527 340.04 3.29681 339.192 3.27271C339.084 3.25404 341.464 3.29471 341.634 3.30126ZM333.465 21.7279C332.041 21.8524 330.816 22.1332 332.97 21.835C333.075 21.8204 333.526 21.723 333.465 21.7279ZM347.825 3.55925C346.518 3.50169 349.414 3.57836 350.274 3.63448C350.344 3.64926 348.011 3.5642 347.825 3.55925ZM332.454 21.7153C330.588 21.9065 331.248 21.9668 331.492 21.943C332.447 21.8529 335.753 21.3582 336.409 21.2461C331.486 21.9409 333.336 21.6171 332.454 21.7153ZM323.84 22.7922C322.095 22.9907 326.556 22.552 327.392 22.4114C326.522 22.5129 324.344 22.7363 323.84 22.7922ZM313.284 23.7433C312.332 23.8211 309.561 24.0349 309.096 24.0931C310.108 24.0105 312.883 23.8022 313.284 23.7433ZM311.159 23.8536C309.677 23.9439 309.341 24.0604 311.034 23.896C311.1 23.8896 311.213 23.8509 311.159 23.8536ZM302.924 24.4519C301.966 24.4846 300.862 24.648 302.429 24.5405C302.891 24.5084 303.025 24.4488 302.924 24.4519ZM330.1 21.8502C328.738 21.9974 326.97 22.2645 329.893 21.9287C328.878 22.0594 327.855 22.1867 326.815 22.312C330.664 21.9113 330.361 21.8475 331.459 21.7191C332.994 21.5326 332.882 21.6157 332.573 21.6782C333.29 21.5624 335.291 21.2944 337.44 20.9747C339.121 20.7258 340.889 20.4418 342.212 20.2002C340.903 20.4262 339.177 20.6903 337.433 20.9319C335.636 21.182 333.824 21.4111 332.453 21.5788C331.699 21.6712 330.949 21.783 330.299 21.859C329.239 21.9825 330.178 21.8419 330.105 21.8495C330.104 21.8497 330.102 21.85 330.1 21.8502ZM292.095 25.1555C289.26 25.2811 291.05 25.2646 292.655 25.1533C292.724 25.148 292.166 25.1523 292.095 25.1555ZM351.527 3.98807C347.808 3.76523 350.528 3.8014 342.633 3.67928C345.961 3.70148 342.811 3.64554 343.459 3.6392C343.995 3.63384 345.944 3.69566 344.792 3.63409C345.561 3.67133 347.519 3.72442 349.366 3.79953C350.275 3.83686 351.161 3.88038 351.804 3.93297C352.133 3.95996 352.385 3.98805 352.552 4.0186C352.633 4.03225 352.682 4.05226 352.64 4.0363C352.611 4.0207 352.557 4.00511 352.46 3.89483C352.38 3.81027 352.328 3.63478 352.328 3.60068C352.33 3.61557 352.333 3.63243 352.338 3.65086C352.31 3.4998 352.323 3.5311 352.317 3.52949C352.316 3.53862 352.309 3.4973 352.31 3.57201C352.287 3.63695 352.44 3.96944 352.555 4.02057C352.645 4.08426 352.656 4.07988 352.633 4.08082C352.535 4.07056 352.111 4.03339 351.527 3.98807ZM313.251 23.5182C312.288 23.4941 311.957 23.6912 310.084 23.7556C307.628 24.088 316.893 23.1905 318.016 23.1749C307.959 24.0766 324.675 22.6652 317.639 23.1555C323.418 22.6645 319.53 22.9556 320.419 22.8506C321.372 22.7389 324.639 22.4247 324.471 22.4008C324.469 22.401 324.467 22.4012 324.465 22.4014C322.472 22.6154 320.462 22.818 318.469 23.0083C320.448 22.9065 316.33 23.2707 314.955 23.3185C314.375 23.3869 313.823 23.4521 313.251 23.5182ZM324.573 22.5203C324.365 22.5454 320.041 22.994 320.31 22.981C320.897 22.9444 327.051 22.2837 324.573 22.5203ZM343.572 19.8934C342.04 20.1986 339.657 20.5636 338.821 20.721C340.37 20.4905 342.751 20.0937 343.572 19.8934ZM263.137 26.4373C261.138 26.5366 267.297 26.3183 265.514 26.3528C265.424 26.3551 263.232 26.433 263.137 26.4373ZM308.718 23.9061C306.69 24.0319 307.638 24.0618 309.156 23.9152C309.243 23.9067 308.813 23.9001 308.718 23.9061ZM348.502 3.85822C348.379 3.86853 342.864 3.70868 341.911 3.69571C342.428 3.67545 348.68 3.82279 348.502 3.85822ZM346.211 19.219C343.219 19.8777 339.048 20.5858 338.594 20.6569C338.134 20.724 338.85 20.5759 338.745 20.5906C338.66 20.6028 338.142 20.682 337.412 20.7884C335.894 21.0129 333.562 21.3228 333.415 21.3426C333.247 21.3665 334.131 21.3076 333.132 21.4549C333.847 21.3509 335.571 21.1208 337.421 20.8495C340.562 20.407 344.1 19.7429 344.376 19.6659C344.724 19.5768 342.096 20.1139 346.206 19.2202C346.207 19.2198 346.209 19.2194 346.211 19.219ZM337.446 20.8153C337.847 20.7642 337.756 20.783 337.419 20.8358C336.749 20.9428 334.982 21.1873 334.439 21.2525C332.653 21.4734 337.011 20.8854 337.417 20.8193C337.431 20.8173 337.441 20.816 337.446 20.8153ZM329.244 21.8636C328.841 21.9099 325.335 22.2976 325.025 22.3531C326.702 22.2118 330.133 21.7724 329.244 21.8636ZM289.87 25.1075C288.939 25.1649 286.419 25.283 286.267 25.3132C287.196 25.2609 289.723 25.1392 289.87 25.1075ZM329.786 3.68572C331.325 3.7259 327.709 3.68368 326.732 3.66242C326.66 3.64613 329.667 3.68214 329.786 3.68572ZM308.354 23.7177C307.813 23.7723 296.704 24.5748 295.142 24.664C296.673 24.6042 307.681 23.8282 308.176 23.7627C308.324 23.7487 308.425 23.7133 308.354 23.7177ZM332.311 21.3324C333.327 21.1702 333.973 21.1242 334.111 21.1065C335.117 20.9794 337.043 20.7036 337.395 20.6663C337.476 20.6578 337.485 20.6608 337.396 20.6793C337.391 20.6804 337.386 20.6816 337.38 20.6828C335.189 21.0005 330.311 21.6507 332.311 21.3324ZM289.068 25.002C285.29 25.2266 292.538 24.8528 291.594 24.8692C291.52 24.872 289.469 24.9787 289.068 25.002ZM309.598 23.6095C310.427 23.539 321.53 22.573 323.299 22.3591C321.712 22.5726 320.428 22.6633 318.279 22.8682C317.706 22.9225 317.861 22.9286 317.8 22.9344C316.803 23.0276 317.548 22.9348 316.929 22.9913C316.549 23.0392 308.415 23.7508 309.598 23.6095ZM332.887 21.2358C333.221 21.1829 335.428 20.8905 337.385 20.6002C339.034 20.3587 340.507 20.1161 340.636 20.0966C341.722 19.9333 339.681 20.2954 337.389 20.6268C335.362 20.9246 333.14 21.2068 332.887 21.2358ZM308.574 23.6465C309.757 23.5008 315.281 23.074 311.512 23.4191C311.151 23.452 309.626 23.5515 308.574 23.6465ZM289.47 24.9243C289.275 24.9355 285.34 25.1391 285.271 25.1594C285.847 25.1401 291.588 24.8237 289.47 24.9243ZM291.505 24.7446C291.413 24.7503 292.33 24.7326 290.49 24.8351C290.339 24.8429 290.047 24.8221 287.727 24.9653C287.26 24.9941 286.529 25.06 286.581 25.0588C288.999 24.9973 296.276 24.4391 291.505 24.7446ZM333.01 21.1875C332.64 21.218 333.514 21.0564 334.335 20.972C334.687 20.9357 334.031 21.0552 333.01 21.1875ZM276.967 25.5471C279.259 25.4137 272.071 25.7308 271.704 25.7489C271.937 25.7602 276.751 25.5622 276.967 25.5471ZM326.195 3.8712C326.197 3.87122 326.199 3.87125 326.201 3.87127C324.237 3.83938 325.453 3.82975 325.363 3.82779C321.29 3.74003 322.33 3.8106 321.685 3.80934C320.333 3.8079 320.586 3.74136 318.202 3.74283C322.11 3.74535 318.568 3.7223 318.446 3.69635C318.042 3.59081 323.595 3.80301 325.491 3.8069C325.749 3.80717 323.79 3.75052 324.467 3.74987C326.721 3.74753 333.597 3.99606 326.195 3.8712ZM334.952 20.8845C335.26 20.8325 336.276 20.6907 337.375 20.5317C339.477 20.2335 341.896 19.8355 340.752 20.0446C340.603 20.0725 338.934 20.3498 337.381 20.573C335.755 20.8093 334.295 20.9947 334.952 20.8845ZM18.0035 25.8266C19.5882 25.9153 15.9039 25.6202 15.1629 25.5613C14.8249 25.5442 17.2488 25.7891 18.0035 25.8266ZM6.87846 15.1329C8.38685 14.0537 10.0602 12.9928 8.07763 14.2102C7.86037 14.3385 6.69126 15.2403 6.87846 15.1329ZM118.798 27.5308C116.782 27.4837 116.889 27.5552 118.385 27.5606C118.905 27.5626 118.86 27.5324 118.798 27.5308ZM41.465 26.764C41.2477 26.7566 38.9536 26.7001 39.0196 26.7176C39.8706 26.7519 42.7805 26.8142 41.465 26.764ZM119.445 27.524C118.232 27.5307 120.304 27.5916 121.784 27.5519C121.028 27.5507 119.577 27.5233 119.445 27.524ZM304.396 23.8065C303.381 23.9109 300.571 24.1003 298.925 24.2138C298.76 24.1893 303.227 23.9024 304.396 23.8065ZM3.22202 20.254C3.07497 19.5583 3.10741 19.9531 3.25982 20.5049C3.41089 21.0612 3.78906 21.7298 3.73076 21.585C3.67722 21.5558 3.19436 20.3092 3.22202 20.254ZM184.14 27.6625C182.802 27.6998 187.053 27.6826 185.884 27.6562C185.837 27.6552 184.209 27.6605 184.14 27.6625ZM202.654 27.4318C201.65 27.4402 197.323 27.5054 199.004 27.5029C199.259 27.5029 202.585 27.4537 202.654 27.4318ZM321.572 3.8351C322.115 3.8801 318.998 3.83425 318.503 3.82208C318.332 3.81722 320.904 3.77666 321.572 3.8351ZM105.623 27.4809C104.597 27.482 101.842 27.4614 101.373 27.4795C102.653 27.4812 105.974 27.5228 105.623 27.4809ZM8.47923 24.4781C6.94772 24.0214 4.85462 22.8803 5.35559 23.2023C7.79198 24.3739 4.91248 23.1433 8.47923 24.4781ZM126.202 27.5292C125.349 27.5177 124.722 27.5651 124.812 27.5684C125.712 27.5998 127.043 27.5581 126.202 27.5292ZM63.0936 27.1448C63.0525 27.1221 60.3546 27.0947 60.7117 27.1141C60.8384 27.121 63.1352 27.1638 63.0936 27.1448ZM269.192 25.7291C268.452 25.7461 269.509 25.6924 270.699 25.6411C271.516 25.6059 272.392 25.5716 272.837 25.5623C273.16 25.5692 271.856 25.6277 270.7 25.6732C269.943 25.7032 269.254 25.7275 269.192 25.7291ZM149.502 27.8015C149.624 27.7704 145.418 27.7598 147.074 27.7994C147.497 27.8099 149.459 27.8129 149.502 27.8015ZM189.803 27.5282C186.976 27.6052 198.846 27.4786 195.726 27.4696C195.513 27.4699 190.047 27.5227 189.803 27.5282ZM209.179 27.2701C208.695 27.2738 208.93 27.1579 210.95 27.1663C211.215 27.1674 209.976 27.2185 210.193 27.2215C210.323 27.2237 214.704 27.1618 214.91 27.1548C215.128 27.1478 214.871 27.1165 215.092 27.1084C215.34 27.0995 218.038 27.0807 219.453 27.0532C222.114 27.0014 222.407 26.9647 222.623 26.9604C223.258 26.9472 224.328 26.9465 225.619 26.919C232.121 26.7842 242.069 26.5112 247.218 26.4244C242.633 26.5293 238.264 26.669 233.699 26.7855C235.034 26.6928 226.986 26.9884 231.693 26.8084C229.526 26.8872 210.776 27.2682 209.185 27.27C209.183 27.2701 209.181 27.2701 209.179 27.2701ZM13.3446 11.6024C12.275 12.0309 17.8083 9.90756 18.3227 9.81629C17.5426 9.97763 13.4532 11.4951 13.3446 11.6024ZM12.1284 25.0356C12.687 25.0942 13.2282 25.1147 16.1545 25.4044C16.1571 25.4047 16.1596 25.4049 16.1622 25.4051C16.9913 25.4843 16.0429 25.4249 16.1951 25.4438C16.2199 25.4522 18.9374 25.6971 16.6887 25.5301C13.2918 25.2487 16.3547 25.4514 14.5767 25.2886C14.3083 25.2806 11.0132 24.9249 11.1626 24.9324C11.1973 24.9415 12.1791 25.0689 12.3543 25.0918C13.0048 25.1854 12.6876 25.1698 12.7793 25.1821C13.0071 25.2494 18.5262 25.6822 19.2626 25.7424C19.5583 25.8226 10.5777 25.0662 10.3611 24.8655C10.1415 24.8219 10.2434 24.7748 10.0293 24.7272C10.0093 24.7226 9.86927 24.6962 9.6796 24.656C9.48768 24.6158 9.16531 24.5404 8.93996 24.4723C7.88026 24.1673 6.57169 23.6638 6.34702 23.5435C6.23511 23.4911 6.15261 23.4499 6.09186 23.419C6.31225 23.5307 5.73532 23.2865 5.22617 22.9568C4.70391 22.6323 4.32803 22.2062 4.36297 22.225C4.37881 22.2372 4.6575 22.54 5.04116 22.8046C5.41714 23.0729 5.87812 23.305 5.90842 23.3214C5.93564 23.3359 5.95943 23.3488 5.98192 23.3607C5.78099 23.2631 7.34632 23.9974 8.94737 24.4481C10.1927 24.7968 11.6163 24.9415 10.8407 24.8161C12.9744 25.1098 10.5675 24.8404 12.1284 25.0356ZM22.6628 25.8422C22.4411 25.837 22.2194 25.8316 21.9803 25.825C25.8509 26.0265 30.2876 26.2373 34.7597 26.3801C35.9033 26.4162 34.5839 26.3332 36.0928 26.3914C37.2515 26.436 38.5852 26.5121 37.9327 26.5023C37.7707 26.5003 35.3634 26.4042 34.1421 26.3658C30.5754 26.2533 31.4628 26.3157 31.2576 26.3105C31.0437 26.3044 28.7578 26.1926 27.562 26.1413C24.4539 26.0046 23.0566 25.9738 18.8496 25.6706C21.329 25.808 19.9215 25.6713 22.6628 25.8422ZM167.27 27.6799C167.416 27.6567 169.953 27.66 170.884 27.6495C170.729 27.6734 168.198 27.6711 167.27 27.6799ZM207.047 3.11948C207.829 3.08639 201.977 3.04723 203.519 3.08596C203.86 3.09449 206.313 3.11535 207.047 3.11948ZM180.768 2.97563C179.986 2.98274 183.132 3.022 183.128 2.99338C183.123 2.98414 180.867 2.97466 180.768 2.97563ZM72.7636 27.0866C72.9062 27.0871 75.0829 27.1168 75.1434 27.1191C76.5796 27.1732 69.4696 27.0786 72.7636 27.0866ZM148.824 2.92646C151.55 2.9068 143.331 2.88262 145.843 2.91769C145.967 2.9193 148.708 2.92735 148.824 2.92646ZM137.412 2.91907C138.053 2.91805 140.964 2.93271 141.008 2.92156C141.06 2.90325 137.731 2.88787 137.412 2.91907ZM126.771 27.395C126.445 27.3491 130.286 27.4224 131.614 27.4352C131.933 27.4805 128.104 27.4019 126.771 27.395ZM102.583 27.2489C118.714 27.2738 115.192 27.3533 101.621 27.2651C101.602 27.2382 101.562 27.2466 102.583 27.2489ZM123.274 27.3379C122.676 27.3597 120.843 27.339 119.614 27.3306C119.842 27.3128 122.364 27.335 123.274 27.3379ZM214.013 3.21416C212.998 3.24222 208.518 3.17658 209.314 3.16694C209.5 3.1648 214.384 3.19754 214.013 3.21416ZM74.1219 27.0645C73.7667 27.0211 78.5711 27.0825 78.9638 27.0941C80.4532 27.1437 74.528 27.0607 74.1219 27.0645ZM149.658 27.6136C150.517 27.5867 152.93 27.6121 154.503 27.6138C153.777 27.6408 151 27.622 149.658 27.6136ZM138.391 27.4802C138.489 27.4805 140.665 27.5109 140.765 27.5133C142.548 27.5668 136.388 27.4809 138.391 27.4802ZM328.864 4.2117C328.784 4.21155 327.127 4.18747 327.082 4.18578C325.611 4.13568 330.569 4.20806 328.864 4.2117Z" fill="#6983D0"/>
</svg>
