<svg width="234" height="138" viewBox="0 0 234 138" fill="none" xmlns="http://www.w3.org/2000/svg">
<path d="M45.6658 42.3391C45.9745 42.4145 46.1653 42.4783 46.3762 42.7287C46.9743 43.4385 46.945 45.3292 46.9512 46.2328C46.988 51.7421 46.4005 57.3348 46.0805 62.8406C45.6964 69.9726 45.3719 77.1078 45.1075 84.2455C46.5323 82.4029 47.7003 80.3289 48.881 78.3271C50.1447 76.1843 51.4209 74.0404 52.5841 71.8407C53.1446 70.7804 53.5493 69.6125 54.1588 68.5866C54.3567 68.2532 54.643 67.8154 55.0109 67.6461C55.3078 67.5094 55.4796 67.5321 55.7851 67.6175C56.2157 67.9413 56.3583 68.2852 56.3302 68.8184C56.2748 69.8618 55.7623 70.9614 55.5358 71.9897C54.7692 75.4682 53.9924 81.1189 55.1355 84.484C55.151 84.5302 55.1679 84.5759 55.1839 84.6218C58.6708 81.2795 61.7291 72.5141 63.4141 67.8186C63.6472 67.1687 63.9978 66.2604 64.6977 65.9914C64.8565 65.9302 64.9104 65.9905 65.0572 66.0472C65.5002 66.6212 65.5697 67.5284 65.5254 68.2297C65.3865 70.4335 64.6691 72.6997 64.3657 74.9076C63.8821 78.4252 63.775 81.9754 63.5028 85.5107C65.4731 82.1788 67.1771 78.5351 68.7212 74.9835C69.2854 73.6855 69.7239 72.3249 70.334 71.0505C70.5415 70.6172 70.763 70.2253 71.1293 69.9077C71.403 69.8401 71.5395 69.7813 71.8052 69.9321C72.196 70.1538 72.3843 70.5964 72.4348 71.0217C72.5977 72.3903 72.3292 73.9129 72.2127 75.2838C71.9554 78.305 71.4243 83.7128 71.8932 86.5532L71.922 86.7228C74.6614 81.6708 75.7898 75.5744 78.8193 70.6177C79.2034 69.989 79.6358 69.4059 80.38 69.2322C81.0347 69.3915 81.2365 69.9671 81.3135 70.5932C81.471 71.8704 81.082 73.3603 80.8924 74.6325C80.5658 76.8251 80.2937 79.1139 80.5208 81.3264C80.5786 81.8888 80.67 82.7071 81.059 83.1399C81.2397 83.341 81.4541 83.4425 81.7253 83.4249C83.1398 83.3337 86.0235 79.3836 86.7319 78.2268C87.1747 77.5036 88.0401 75.5637 88.6217 75.093C88.8543 74.9047 89.1208 74.8366 89.4169 74.9081C89.7622 74.9915 89.9279 75.2031 90.129 75.4666C90.3058 76.7611 88.5097 79.6166 88.329 81.2631C88.2865 81.6513 88.3386 81.8632 88.5801 82.1646C88.7332 82.216 88.8667 82.253 89.0303 82.2336C90.3559 82.0755 91.5634 80.7393 92.3257 79.7325C92.328 78.9167 92.3236 78.0979 92.3556 77.2828C92.5037 73.5002 94.1746 68.7649 97.0425 66.1786C97.7957 65.4994 98.8395 64.8203 99.8987 64.9149C100.361 64.956 100.775 65.1482 101.073 65.5092C101.477 65.9994 101.607 66.6399 101.546 67.2617C101.305 69.7153 98.1423 74.8532 96.6867 77.0376C96.1079 77.9067 94.7649 79.3408 94.6515 80.3691C94.7294 80.7103 94.8355 80.9237 95.1019 81.1603C95.7139 81.7039 96.5752 81.8026 97.3626 81.7466C101.17 81.4759 106.094 77.4064 108.452 74.6069C108.43 73.3944 108.575 72.1846 108.883 71.0114C109.496 68.5917 110.7 66.0572 112.904 64.7279C113.336 65.0536 113.799 65.379 114.171 65.7741C117.068 68.8558 110.229 74.2472 110.251 76.039C110.257 76.5753 110.524 77.0228 110.92 77.3685C111.697 78.046 112.58 78.3299 113.599 78.2243C113.665 78.2174 113.732 78.2085 113.798 78.2017C114.661 78.1135 115.393 77.738 116.152 77.3381C119.539 75.5518 123.29 71.2388 124.827 67.7549C125.31 66.66 125.469 65.3589 125.828 64.2106C126.303 62.693 127.306 59.7266 128.866 59.0102C129.012 58.9433 129.147 58.9698 129.289 59.0454C132.164 60.5701 125.807 66.9301 126.963 70.6344C127.209 71.4196 127.795 71.9922 128.517 72.3592C130.34 73.2861 132.689 72.922 134.553 72.3126C139.211 70.7898 144.603 66.9066 147.463 62.9016C148.209 61.8573 148.725 60.5902 149.315 59.4506C149.767 58.577 150.389 57.2374 151.386 56.9225C151.644 56.9666 151.992 57.0318 152.205 57.1999C153.619 58.311 150.359 62.1133 149.865 63.3123C149.586 63.9896 149.478 64.9023 149.622 65.6226C149.748 66.2498 150.084 66.7734 150.628 67.1157C154.903 69.8049 165.38 61.2364 168.386 58.2248C169.166 57.4433 171.652 53.9317 172.44 53.86C173.462 53.767 174.052 56.7486 174.906 57.4867C175.489 57.9915 176.216 58.1316 176.969 58.1097C181.115 57.9883 189.651 53.6319 193.879 51.8982C195.706 51.1486 197.696 50.267 199.687 50.1436C200.698 50.0812 201.652 50.2547 202.416 50.9622C204.087 52.5083 204.142 55.835 204.173 57.9346C204.236 62.185 203.77 66.517 203.349 70.7448L202.121 82.8803L201.387 89.9428C201.249 91.2291 201.165 92.5936 200.893 93.8577C200.818 94.206 200.756 94.5083 200.5 94.7709L200.292 94.759C199.661 94.0773 199.981 91.4371 200.014 90.481C200.199 85.9141 200.516 81.3536 200.966 76.8052C201.376 72.2836 203.418 57.5244 202.056 53.8168C201.847 53.2462 201.475 52.5624 200.889 52.3083C200.036 51.9381 198.952 52.1573 198.082 52.381C196.023 52.9096 194.065 53.8887 192.122 54.7381C189.439 55.931 186.733 57.0722 184.006 58.1613C181.457 59.1563 177.099 60.8818 174.507 59.667C173.343 59.1213 172.628 58.0681 172.24 56.8754L172.194 56.7285C171.011 57.7326 170.082 59.0918 168.962 60.1766C165.365 63.6605 158.682 68.7537 153.716 69.4482C152.282 69.6488 150.643 69.5197 149.468 68.5967C148.44 67.7884 147.921 66.6125 147.782 65.3431C143.714 69.49 139.309 73.0317 133.593 74.6021C131.712 75.0347 129.283 74.9947 127.575 74.0112C126.189 73.2127 125.509 72.0222 125.099 70.5281C122.807 73.9984 119.789 77.8578 115.853 79.4999C114.351 80.1267 112.744 80.3129 111.214 79.6397C109.96 79.0883 109.157 78.1059 108.665 76.8511C107.415 78.11 106.107 79.2617 104.679 80.3166C102.43 81.9793 99.148 84.0864 96.1924 83.5738C94.8183 83.3355 93.9801 82.6084 93.1883 81.5268C92.1868 82.4578 91.0469 83.49 89.7138 83.9045C89.0465 84.112 88.3207 84.1579 87.6983 83.7916C86.8237 83.2772 86.6142 82.323 86.4007 81.413C85.7056 82.2622 84.9915 83.1264 84.1583 83.8444C83.436 84.4669 82.4282 85.1735 81.4253 85.0629C80.8263 84.9968 80.3293 84.6435 79.9849 84.1604C78.3245 81.8323 79.0451 75.4405 79.5101 72.6284C78.5174 74.3016 77.7672 76.116 77.0421 77.9185C76.2384 79.9167 73.728 87.4931 72.3809 88.6526C72.1124 88.8836 71.8895 88.9782 71.5285 88.9419C71.3066 88.8345 71.1606 88.7253 71.0205 88.5178C70.6339 87.9451 70.4972 87.1748 70.42 86.5021C70.167 84.2953 70.3436 76.4814 70.7815 74.1869C69.5898 76.3637 68.6046 78.6914 67.5082 80.9217C66.3378 83.3024 64.1042 86.9216 63.5631 89.3765C63.155 91.2289 63.1756 93.2284 63.1036 95.1203C62.9902 97.899 62.9105 100.679 62.8646 103.46C62.8017 109.408 63.2651 120.84 58.8386 125.227C57.98 126.078 56.8665 126.583 55.6485 126.542C54.0816 126.489 52.5971 125.71 51.5599 124.554C50.5069 123.381 50.0873 121.946 50.0706 120.397C50.0163 115.368 55.0952 103.42 57.4485 98.6346C58.8397 95.8058 60.7576 92.9046 61.6397 89.8788C62.2882 87.6535 62.1095 84.2155 62.2542 81.8093C62.4242 78.9805 62.7044 76.1576 62.8901 73.3295C61.384 76.6622 59.2017 82.5739 56.7968 85.2224C56.3845 85.6764 55.6958 86.3204 55.0242 86.282C54.6337 86.2596 54.3599 86.1008 54.1291 85.795C52.5793 83.7427 53.2294 75.56 53.6883 72.8665C52.5171 74.5845 51.6184 76.5564 50.5576 78.3513C49.1148 80.7926 46.6418 84.1255 45.7119 86.6654C45.0796 88.3928 45.1423 91.3571 44.5872 92.581C44.4425 92.8998 44.2871 93.0387 43.9622 93.1512C43.6526 93.1345 43.5001 93.116 43.2417 92.9398C42.9551 92.4807 42.8911 92.0376 42.9035 91.499C42.922 90.6809 43.1133 89.8331 43.2298 89.023C43.4254 87.6661 43.5815 86.2783 43.6361 84.9077C44.0762 72.6924 44.61 60.4807 45.2371 48.2734C44.6939 49.988 44.491 51.9162 44.1601 53.6888C43.5991 56.7911 42.9563 59.8784 42.2326 62.9469C41.5223 65.9208 40.7282 68.9084 39.773 71.8126C38.3857 76.0301 31.7017 93.8388 29.3086 96.3529C28.9784 96.6998 28.5932 96.889 28.1087 96.8787C27.7362 96.8707 27.4261 96.6986 27.191 96.4194C25.0726 93.9044 27.9026 64.5421 28.3082 59.606C27.7673 60.9826 27.5072 62.4764 27.1882 63.9162L25.9664 69.2777C23.8428 78.4247 20.5571 88.1819 13.9713 95.1402C12.39 96.8108 9.95775 99.2032 7.46666 99.2155C6.68495 99.2192 5.86015 98.8017 5.32384 98.2459C4.39991 97.2887 4.31602 96.0871 4.35521 94.8346C4.60754 94.443 4.86889 94.0725 5.3041 93.8698C5.61429 93.7256 6.20093 93.7291 6.52001 93.8497C6.83838 93.9699 7.09603 94.2062 7.21883 94.5216C6.9626 95.0355 6.25363 95.0766 6.04719 95.573C5.93201 95.8499 5.92504 96.0773 6.06702 96.349C6.35155 96.8936 7.04153 97.2752 7.62751 97.3826C9.03325 97.6401 10.9544 95.9466 11.9087 95.0481C15.2326 91.9188 17.8818 87.6113 19.681 83.4333C22.1218 77.7648 23.742 71.7075 25.0971 65.6982C25.8343 62.4288 26.4316 59.0706 27.3795 55.8554C27.5445 55.2957 27.8914 54.2839 28.4455 54.0014C28.7444 53.849 28.8278 53.8981 29.1302 53.9888C29.6701 54.5099 29.8306 55.1915 29.9103 55.9216C30.2673 59.1889 29.5582 64.2005 29.2618 67.5752C28.6916 74.0678 28.087 80.5583 27.8656 87.0745C27.779 89.6263 27.5098 92.5125 28.1348 95.0079L28.1773 95.1747C30.3715 92.9306 31.8527 88.3361 32.9896 85.4008C34.623 81.1829 36.3318 76.9661 37.7699 72.6769C39.0537 68.7775 40.1524 64.8198 41.0626 60.8169C41.8665 57.3382 42.4919 53.8168 43.1434 50.307C43.5164 48.2986 43.8429 46.2627 44.363 44.2863C44.6071 43.3588 44.8173 42.8386 45.6658 42.3391ZM52.8377 123.705C53.7701 124.434 54.8594 124.989 56.0824 124.852C57.1192 124.737 57.9049 124.083 58.5237 123.285C62.078 118.701 61.3838 106.686 61.4788 100.839C61.5136 99.3775 61.5634 97.9164 61.6278 96.456C61.6543 95.8195 61.7665 95.065 61.684 94.4366C61.6685 94.3187 61.6342 94.2019 61.5917 94.091C58.3669 99.4155 52.971 111.813 51.8707 117.747C51.6211 119.092 51.4913 120.56 51.8204 121.904C51.992 122.605 52.3176 123.202 52.8377 123.705ZM94.2471 77.8093C95.617 75.9282 100.087 69.0802 99.802 67.0551C99.606 66.8888 99.6229 66.9196 99.3887 66.8981C96.7929 68.4681 95.2777 71.5528 94.5706 74.4086C94.3604 75.2577 93.7845 77.0458 94.0348 77.8909C94.2288 77.8347 94.1689 77.8811 94.2471 77.8093ZM110.327 72.7836C111.342 71.5841 112.773 69.4973 112.872 67.8613C112.879 67.7448 112.857 67.698 112.826 67.5979C111.944 68.6781 110.213 71.3211 110.327 72.7836Z" fill="#6983D0"/>
<path d="M232.042 10.6483C232.335 10.6942 232.657 10.7324 232.888 10.9452C233.068 11.1124 233.169 11.3259 233.141 11.5738C233.098 11.9598 232.668 12.3768 232.373 12.6003C231.848 12.9986 231.181 13.2465 230.605 13.5646C229.572 14.1435 228.553 14.7465 227.549 15.3733C218.529 21.0037 209.199 29.9033 205.587 40.1515C205.149 41.3946 205.03 42.6741 204.714 43.9412C204.552 44.5923 204.407 44.8813 203.82 45.2339C203.608 45.1878 203.409 45.1375 203.216 45.0367C202.885 44.8637 202.696 44.6003 202.609 44.2417C201.984 41.6876 206.253 33.5077 207.782 31.1613C212.573 23.8117 218.861 18.1596 226.278 13.531C228.035 12.4349 229.99 11.0804 232.042 10.6483Z" fill="#6983D0"/>
</svg>
